<svg width="24" height="24" fill="none" xmlns="http://www.w3.org/2000/svg"><g clip-path="url(#a)"><path d="M3 4.995C3 3.893 3.893 3 4.995 3h14.01C20.107 3 21 3.893 21 4.995v14.01A1.995 1.995 0 0 1 19.005 21H4.995A1.995 1.995 0 0 1 3 19.005V4.995ZM5 5v14h14V5H5Zm2.972 13.18a9.98 9.98 0 0 1-1.751-.978A6.994 6.994 0 0 1 12.102 14c2.4 0 4.517 1.207 5.778 3.047a9.993 9.993 0 0 1-1.724 1.025A4.993 4.993 0 0 0 12.102 16c-1.715 0-3.23.864-4.13 2.18ZM12 13a3.5 3.5 0 1 1 0-7 3.5 3.5 0 0 1 0 7Zm0-2a1.5 1.5 0 1 0 0-3 1.5 1.5 0 0 0 0 3Z" fill="#121212"/></g><defs><clipPath id="a"><path fill="#fff" d="M0 0h24v24H0z"/></clipPath></defs></svg>