<svg width="24" height="24" fill="none" xmlns="http://www.w3.org/2000/svg"><g clip-path="url(#a)"><path d="M6.382 3.968A8.962 8.962 0 0 1 12 2c2.125 0 4.078.736 5.618 1.968l1.453-1.453 1.414 1.414-1.453 1.453A8.962 8.962 0 0 1 21 11v1H3v-1c0-2.125.736-4.078 1.968-5.618L3.515 3.93l1.414-1.414 1.453 1.453v-.001ZM3 14h18v7a1 1 0 0 1-1 1H4a1 1 0 0 1-1-1v-7Zm6-5a1 1 0 1 0 0-2 1 1 0 0 0 0 2Zm6 0a1 1 0 1 0 0-2 1 1 0 0 0 0 2Z" fill="currentColor"/></g><defs><clipPath id="a"><path fill="#fff" d="M0 0h24v24H0z"/></clipPath></defs></svg>