<svg xmlns="http://www.w3.org/2000/svg" width="24" height="24" fill="none"><g clip-path="url(#a)"><g><path fill="#121212" d="M12 2C17.523 2 22 6.477 22 12C22 17.523 17.523 22 12 22C6.477 22 2 17.523 2 12C2 6.477 6.477 2 12 2ZM12 4C9.87827 4 7.84344 4.84285 6.34315 6.34315C4.84285 7.84344 4 9.87827 4 12C4 14.1217 4.84285 16.1566 6.34315 17.6569C7.84344 19.1571 9.87827 20 12 20C14.1217 20 16.1566 19.1571 17.6569 17.6569C19.1571 16.1566 20 14.1217 20 12C20 9.87827 19.1571 7.84344 17.6569 6.34315C16.1566 4.84285 14.1217 4 12 4ZM8.823 15.343L8.033 16.713C7.97903 16.8068 7.90711 16.889 7.82137 16.955C7.73562 17.0209 7.63772 17.0694 7.53325 17.0975C7.42879 17.1256 7.3198 17.1329 7.21252 17.1189C7.10524 17.1049 7.00176 17.07 6.908 17.016C6.81424 16.962 6.73202 16.8901 6.66605 16.8044C6.60008 16.7186 6.55164 16.6207 6.5235 16.5163C6.49537 16.4118 6.48808 16.3028 6.50207 16.1955C6.51605 16.0882 6.55103 15.9848 6.605 15.891L7.194 14.875C7.854 14.669 8.395 14.827 8.823 15.343ZM13.21 8.66L15.633 12.854H17.774C17.8821 12.8536 17.9892 12.8746 18.0892 12.9157C18.1891 12.9569 18.28 13.0174 18.3565 13.0938C18.433 13.1702 18.4936 13.261 18.5349 13.3609C18.5762 13.4608 18.5973 13.5679 18.597 13.676C18.5974 13.7842 18.5764 13.8914 18.5352 13.9914C18.4939 14.0914 18.4333 14.1823 18.3568 14.2588C18.2803 14.3353 18.1894 14.3959 18.0894 14.4372C17.9894 14.4784 17.8822 14.4994 17.774 14.499H16.584L17.387 15.89C17.4887 16.0788 17.5129 16.2997 17.4543 16.506C17.3958 16.7123 17.2591 16.8876 17.0733 16.9948C16.8876 17.1019 16.6674 17.1324 16.4595 17.0798C16.2516 17.0272 16.0724 16.8956 15.96 16.713L12.92 11.447C12.23 10.257 12.722 9.064 13.21 8.66ZM13.488 5.616C13.883 5.842 14.016 6.346 13.79 6.741L10.262 12.85H12.815C13.641 12.85 14.105 13.822 13.746 14.495H6.266C6.15789 14.4953 6.0508 14.4741 5.95089 14.4329C5.85098 14.3916 5.76021 14.331 5.68381 14.2545C5.60742 14.178 5.5469 14.0871 5.50574 13.9872C5.46459 13.8872 5.4436 13.7801 5.444 13.672C5.44374 13.564 5.46482 13.457 5.50603 13.3571C5.54725 13.2573 5.60779 13.1666 5.68417 13.0902C5.76055 13.0138 5.85127 12.9532 5.95112 12.912C6.05097 12.8708 6.15798 12.8497 6.266 12.85H8.363L11.048 8.197L10.21 6.741C10.1083 6.55224 10.0841 6.33125 10.1427 6.12497C10.2012 5.91869 10.3379 5.74336 10.5237 5.63623C10.7094 5.5291 10.9296 5.4986 11.1375 5.55121C11.3454 5.60382 11.5246 5.7354 11.637 5.918L11.996 6.551L12.363 5.918C12.417 5.82424 12.4889 5.74204 12.5747 5.6761C12.6605 5.61017 12.7584 5.56179 12.8629 5.53374C12.9674 5.50569 13.0764 5.49852 13.1836 5.51263C13.2909 5.52675 13.3943 5.56187 13.488 5.616Z"/></g></g><defs><clipPath id="a"><rect width="24" height="24" fill="white"/></clipPath></defs></svg>