<svg width="24" height="24" fill="none" xmlns="http://www.w3.org/2000/svg"><g clip-path="url(#a)"><path d="M6.5 11.5a4.5 4.5 0 1 1 0-9.002 4.5 4.5 0 0 1 0 9.002Zm.5 10a4.5 4.5 0 1 1 0-9 4.5 4.5 0 0 1 0 9Zm10-10a4.501 4.501 0 0 1-1.722-8.657A4.5 4.5 0 1 1 17 11.5Zm0 10a4.5 4.5 0 1 1 0-9 4.5 4.5 0 0 1 0 9ZM6.5 9.5a2.5 2.5 0 1 0 0-5 2.5 2.5 0 0 0 0 5Zm.5 10a2.5 2.5 0 1 0 0-5 2.5 2.5 0 0 0 0 5Zm10-10a2.5 2.5 0 1 0 0-5 2.5 2.5 0 0 0 0 5Zm0 10a2.5 2.5 0 1 0 0-5 2.5 2.5 0 0 0 0 5Z" fill="currentColor"/></g><defs><clipPath id="a"><path fill="#fff" d="M0 0h24v24H0z"/></clipPath></defs></svg>