<svg width="24" height="24" fill="none" xmlns="http://www.w3.org/2000/svg"><g clip-path="url(#a)"><path d="M7.564 19.28a9.69 9.69 0 0 0 2.496-.217 8.802 8.802 0 0 1 2.98-.131c.547.067.985.165 1.288.257 1.078.275 2.61.223 3.005-.41.291-.468.253-.787-.026-1.199a1.882 1.882 0 0 0-.212-.26 25.612 25.612 0 0 1-2.496-2.278c-.573-.59-1.1-1.223-1.577-1.893l-.036-.053c-.742-1.139-1.558-1.067-2.002-.317-.28.47-.599.915-.955 1.331-.41.482-.83.89-1.305 1.297-.123.105-.503.42-.412.344-.004.003-.017.015.051-.071-.098.12-.95.877-1.2 1.162-.515.583-.723 1.08-.645 1.48.072.376.22.587.45.745.146.098.31.167.48.206l.116.007Zm7.098-7.276c1.376 1.97 3.732 3.793 3.732 3.793s2.063 1.748.637 4.038c-1.426 2.29-5.253 1.278-5.253 1.278s-1.52-.49-3.286-.098c-1.765.395-3.286.245-3.286.245S5 21.015 4.554 18.701c-.446-2.314 2.06-4.04 2.258-4.284.195-.247 1.512-1.073 2.452-2.658.94-1.586 3.583-2.54 5.398.245Zm5.54-1.42c0 .458.19 2.393-1.554 2.432-1.742.038-1.816-1.178-1.816-2.05 0-.913.188-2.205 1.59-2.205 1.4 0 1.78 1.369 1.78 1.824v-.001Zm-5.43-2.777c-1.18-.152-1.448-1.222-1.334-2.293.096-.875 1.143-2.219 1.981-2.026.837.19 1.6 1.3 1.446 2.254-.15.957-.91 2.218-2.094 2.065ZM9.754 7.44c-.86 0-1.56-.993-1.56-2.22 0-1.227.7-2.22 1.56-2.22.863 0 1.56.993 1.56 2.22 0 1.227-.697 2.22-1.56 2.22Zm-3.793 4.566c-1.695.365-2.326-1.597-2.14-2.515 0 0 .2-1.987 1.576-2.11 1.093-.095 1.898 1.101 1.981 1.785.051.444.283 2.475-1.417 2.84Z" /></g><defs><clipPath id="a"><path fill="#fff" d="M0 0h24v24H0z"/></clipPath></defs></svg>