<svg xmlns="http://www.w3.org/2000/svg" width="24" height="24" fill="none"><g clip-path="url(#a)"><g><path fill="#121212" d="M6.493 19H17.507L16.84 16H7.16L6.493 19ZM19.556 19H21V21H3V19H4.444L7.826 3.783C7.87536 3.56094 7.99897 3.36234 8.1764 3.21999C8.35384 3.07764 8.57452 3.00004 8.802 3H15.198C15.4255 3.00004 15.6462 3.07764 15.8236 3.21999C16.001 3.36234 16.1246 3.56094 16.174 3.783L19.556 19ZM7.604 14H16.396L15.506 10H8.494L7.605 14H7.604ZM8.938 8H15.062L14.396 5H9.604L8.938 8Z"/></g></g><defs><clipPath id="a"><rect width="24" height="24" fill="white"/></clipPath></defs></svg>