<svg width="24" height="24" fill="none" xmlns="http://www.w3.org/2000/svg"><g clip-path="url(#a)"><path d="m12 13 6 9H6l6-9Zm0 3.6L9.74 20h4.52L12 16.6Zm-1.06-6.04a1.5 1.5 0 1 1 2.044-2.195 1.5 1.5 0 0 1-2.044 2.195ZM5.281 2.783l1.415 1.415a7.5 7.5 0 0 0 0 10.606l-1.415 1.415a9.5 9.5 0 0 1 0-13.436Zm13.436 0a9.5 9.5 0 0 1 0 13.436l-1.415-1.415a7.5 7.5 0 0 0 0-10.606l1.415-1.415ZM8.11 5.611l1.414 1.414a3.5 3.5 0 0 0 0 4.95L8.11 13.389a5.5 5.5 0 0 1 0-7.778Zm7.778 0a5.5 5.5 0 0 1 0 7.778l-1.414-1.414a3.5 3.5 0 0 0 0-4.95l1.414-1.414Z" /></g><defs><clipPath id="a"><path fill="#fff" d="M0 0h24v24H0z"/></clipPath></defs></svg>