<svg xmlns="http://www.w3.org/2000/svg" width="24" height="24" fill="none"><g clip-path="url(#a)"><g><path fill="currentColor" d="M12 13L18 22H6L12 13ZM10.94 10.56C10.7926 10.4227 10.6744 10.2571 10.5924 10.0731C10.5105 9.8891 10.4664 9.69047 10.4628 9.48907C10.4593 9.28766 10.4963 9.0876 10.5718 8.90082C10.6472 8.71405 10.7595 8.54438 10.9019 8.40194C11.0444 8.25951 11.214 8.14722 11.4008 8.07177C11.5876 7.99633 11.7876 7.95928 11.989 7.96284C12.1904 7.96639 12.3891 8.01047 12.5731 8.09246C12.7571 8.17444 12.9227 8.29265 13.06 8.44002C13.325 8.72437 13.4692 9.10046 13.4623 9.48907C13.4555 9.87767 13.2981 10.2484 13.0232 10.5233C12.7484 10.7981 12.3776 10.9555 11.989 10.9624C11.6004 10.9692 11.2243 10.825 10.94 10.56ZM5.281 2.78302L6.696 4.19802C5.28966 5.60452 4.4996 7.51204 4.4996 9.50102C4.4996 11.49 5.28966 13.3975 6.696 14.804L5.281 16.219C4.3987 15.3368 3.69881 14.2895 3.2213 13.1368C2.7438 11.9841 2.49803 10.7487 2.49803 9.50102C2.49803 8.25335 2.7438 7.01789 3.2213 5.86521C3.69881 4.71253 4.3987 3.66519 5.281 2.78302ZM18.717 2.78302C19.5993 3.66519 20.2992 4.71253 20.7767 5.86521C21.2542 7.01789 21.5 8.25335 21.5 9.50102C21.5 10.7487 21.2542 11.9841 20.7767 13.1368C20.2992 14.2895 19.5993 15.3368 18.717 16.219L17.302 14.804C18.7083 13.3975 19.4984 11.49 19.4984 9.50102C19.4984 7.51204 18.7083 5.60452 17.302 4.19802L18.717 2.78302ZM8.11 5.61102L9.524 7.02502C9.19896 7.35003 8.94112 7.73588 8.7652 8.16055C8.58929 8.58521 8.49875 9.04036 8.49875 9.50002C8.49875 9.95968 8.58929 10.4148 8.7652 10.8395C8.94112 11.2642 9.19896 11.65 9.524 11.975L8.11 13.389C7.0786 12.3576 6.49917 10.9587 6.49917 9.50002C6.49917 8.04137 7.0786 6.64246 8.11 5.61102ZM15.888 5.61102C16.9194 6.64246 17.4988 8.04137 17.4988 9.50002C17.4988 10.9587 16.9194 12.3576 15.888 13.389L14.474 11.975C14.799 11.65 15.0569 11.2642 15.2328 10.8395C15.4087 10.4148 15.4993 9.95968 15.4993 9.50002C15.4993 9.04036 15.4087 8.58521 15.2328 8.16055C15.0569 7.73588 14.799 7.35003 14.474 7.02502L15.888 5.61102Z"/></g></g><defs><clipPath id="a"><rect width="24" height="24" fill="#fff"/></clipPath></defs></svg>