<svg width="24" height="24" fill="none" xmlns="http://www.w3.org/2000/svg"><g clip-path="url(#a)"><path d="m12.366 13.366 1.775 1.025a9.98 9.98 0 0 0-.311 7.44A9.907 9.907 0 0 1 12 22a9.965 9.965 0 0 1-4.11-.88l4.476-7.754Zm3.517 2.032 4.234 2.444a10.034 10.034 0 0 1-4.363 3.43 7.988 7.988 0 0 1 .008-5.57l.121-.304ZM8.86 11.342l1.775 1.024-4.476 7.75a10.026 10.026 0 0 1-3.59-4.785 9.978 9.978 0 0 0 6.085-3.713l.206-.276Zm13.046-.726c.063.453.095.915.095 1.384a9.965 9.965 0 0 1-.88 4.11l-4.236-2.445a7.985 7.985 0 0 1 4.866-3.021l.155-.028ZM2.881 7.891l4.235 2.445a7.99 7.99 0 0 1-5.021 3.05A10.14 10.14 0 0 1 2 12a9.98 9.98 0 0 1 .88-4.11l.001.001Zm14.961-4.008a10.026 10.026 0 0 1 3.59 4.785 9.985 9.985 0 0 0-6.086 3.715l-.205.276-1.775-1.025 4.476-7.75v-.001ZM12 2a9.98 9.98 0 0 1 4.11.88l-4.476 7.754L9.859 9.61a9.98 9.98 0 0 0 .311-7.442A9.922 9.922 0 0 1 12 2Zm-3.753.73a7.992 7.992 0 0 1-.01 5.57l-.12.303-4.234-2.445a10.036 10.036 0 0 1 4.164-3.346l.2-.083v.001Z" /></g><defs><clipPath id="a"><path fill="#fff" d="M0 0h24v24H0z"/></clipPath></defs></svg>