<svg width="24" height="24" fill="none" xmlns="http://www.w3.org/2000/svg"><g clip-path="url(#a)"><path d="M17.5 2a4.5 4.5 0 0 1 2.951 7.897 9.001 9.001 0 1 1-16.901 0 4.5 4.5 0 1 1 6.791-5.744 9.05 9.05 0 0 1 3.32 0A4.493 4.493 0 0 1 17.5 2Zm0 2c-.823 0-1.575.4-2.038 1.052l-.095.144-.718 1.176-1.355-.253a7.05 7.05 0 0 0-2.267-.052l-.316.052-1.356.255-.72-1.176A2.5 2.5 0 1 0 4.73 8.265l.131.123 1.041.904-.475 1.295a7 7 0 1 0 13.259.33l-.112-.33-.475-1.295 1.04-.904A2.5 2.5 0 0 0 17.5 4ZM10 13a2 2 0 0 0 4 0h2a4 4 0 1 1-8 0h2Z" fill="#121212"/></g><defs><clipPath id="a"><path fill="#fff" d="M0 0h24v24H0z"/></clipPath></defs></svg>