<svg xmlns="http://www.w3.org/2000/svg" width="24" height="24" fill="none"><g clip-path="url(#a)"><g><path fill="currentColor" d="M17.5 2C18.4168 2.00007 19.3118 2.2802 20.0651 2.80291C20.8184 3.32561 21.394 4.06594 21.7149 4.9248C22.0359 5.78366 22.0868 6.72006 21.8609 7.60867C21.635 8.49727 21.1431 9.29567 20.451 9.897C20.806 10.864 21 11.91 21 13C20.9992 14.3149 20.7104 15.6137 20.1538 16.8049C19.5971 17.9962 18.7863 19.051 17.7781 19.8952C16.77 20.7394 15.5892 21.3524 14.3187 21.6912C13.0482 22.0299 11.7189 22.0862 10.4243 21.856C9.12971 21.6258 7.9013 21.1147 6.82546 20.3587C5.74963 19.6027 4.85252 18.6202 4.19723 17.4802C3.54195 16.3402 3.14441 15.0705 3.03258 13.7604C2.92076 12.4503 3.09737 11.1315 3.54998 9.897C3.06007 9.47126 2.66805 8.94458 2.40082 8.3531C2.13359 7.76161 1.99747 7.11932 2.00181 6.47028C2.00615 5.82124 2.15083 5.18082 2.42594 4.59296C2.70105 4.0051 3.10007 3.4837 3.59563 3.06455C4.09118 2.64539 4.67155 2.3384 5.2969 2.16463C5.92226 1.99085 6.57781 1.95441 7.21857 2.05781C7.85933 2.16121 8.47015 2.40199 9.00911 2.76364C9.54806 3.12529 10.0024 3.59925 10.341 4.153C11.4382 3.94827 12.5638 3.94827 13.661 4.153C14.0625 3.49502 14.6265 2.95138 15.2989 2.57433C15.9712 2.19729 16.7292 1.99951 17.5 2ZM9.99998 13H7.99998C7.99996 14.0436 8.40777 15.0458 9.13638 15.7929C9.86499 16.54 10.8567 16.9727 11.8999 16.9988C12.9432 17.0249 13.9553 16.6423 14.7204 15.9326C15.4854 15.2228 15.9428 14.2423 15.995 13.2L16 13H14C14.0023 13.519 13.8028 14.0185 13.4436 14.3932C13.0844 14.7678 12.5937 14.9881 12.075 15.0075C11.5564 15.027 11.0505 14.8441 10.6643 14.4975C10.278 14.1509 10.0416 13.6677 10.005 13.15L9.99998 13Z"/></g></g><defs><clipPath id="a"><rect width="24" height="24" fill="#fff"/></clipPath></defs></svg>