<svg xmlns="http://www.w3.org/2000/svg" width="24" height="24" fill="none"><g clip-path="url(#a)"><g><path fill="#121212" d="M17.5 2C18.4168 2.00007 19.3118 2.2802 20.0651 2.80291C20.8184 3.32561 21.394 4.06594 21.7149 4.9248C22.0359 5.78366 22.0868 6.72006 21.8609 7.60867C21.635 8.49727 21.1431 9.29567 20.451 9.897C20.806 10.864 21 11.91 21 13C20.9992 14.3149 20.7104 15.6137 20.1538 16.8049C19.5971 17.9962 18.7863 19.051 17.7781 19.8952C16.77 20.7394 15.5892 21.3524 14.3187 21.6912C13.0482 22.0299 11.7189 22.0862 10.4243 21.856C9.12971 21.6258 7.9013 21.1147 6.82546 20.3587C5.74963 19.6027 4.85252 18.6202 4.19723 17.4802C3.54195 16.3402 3.14441 15.0705 3.03258 13.7604C2.92076 12.4503 3.09737 11.1315 3.54998 9.897C3.06007 9.47126 2.66805 8.94458 2.40082 8.3531C2.13359 7.76161 1.99747 7.11932 2.00181 6.47028C2.00615 5.82124 2.15083 5.18082 2.42594 4.59296C2.70105 4.0051 3.10007 3.4837 3.59563 3.06455C4.09118 2.64539 4.67155 2.3384 5.2969 2.16463C5.92226 1.99085 6.57781 1.95441 7.21857 2.05781C7.85933 2.16121 8.47015 2.40199 9.00911 2.76364C9.54806 3.12529 10.0024 3.59925 10.341 4.153C11.4382 3.94827 12.5638 3.94827 13.661 4.153C14.0625 3.49502 14.6265 2.95138 15.2989 2.57433C15.9712 2.19729 16.7292 1.99951 17.5 2ZM17.5 4C16.677 4 15.925 4.4 15.462 5.052L15.367 5.196L14.649 6.372L13.294 6.119C12.5461 5.97946 11.7805 5.9619 11.027 6.067L10.711 6.119L9.35498 6.374L8.63498 5.198C8.451 4.89665 8.20527 4.63769 7.91398 4.43817C7.62269 4.23864 7.29244 4.10308 6.94497 4.04041C6.59751 3.97774 6.24071 3.98938 5.89806 4.07456C5.55542 4.15974 5.23471 4.31653 4.95704 4.53462C4.67937 4.7527 4.45104 5.02712 4.28709 5.33982C4.12314 5.65252 4.02728 5.9964 4.00583 6.34882C3.98438 6.70124 4.03782 7.05421 4.16264 7.38448C4.28745 7.71476 4.48081 8.01485 4.72998 8.265L4.86098 8.388L5.90198 9.292L5.42698 10.587C5.07531 11.5472 4.93827 12.5727 5.02549 13.5915C5.11271 14.6103 5.42207 15.5976 5.93181 16.484C6.44156 17.3704 7.13931 18.1344 7.976 18.7222C8.81269 19.31 9.76799 19.7074 10.7747 19.8863C11.7815 20.0653 12.8152 20.0216 13.8032 19.7582C14.7912 19.4948 15.7095 19.0181 16.4936 18.3617C17.2776 17.7053 17.9083 16.8851 18.3413 15.9588C18.7743 15.0325 18.9992 14.0225 19 13C19 12.284 18.893 11.584 18.686 10.917L18.574 10.587L18.099 9.292L19.139 8.388C19.5238 8.05402 19.7973 7.61044 19.923 7.11668C20.0487 6.62291 20.0205 6.10254 19.8422 5.62523C19.6639 5.14793 19.3441 4.7365 18.9255 4.44604C18.5068 4.15557 18.0095 3.99995 17.5 4ZM9.99998 13C9.99998 13.5304 10.2107 14.0391 10.5858 14.4142C10.9608 14.7893 11.4695 15 12 15C12.5304 15 13.0391 14.7893 13.4142 14.4142C13.7893 14.0391 14 13.5304 14 13H16C16 14.0609 15.5786 15.0783 14.8284 15.8284C14.0783 16.5786 13.0608 17 12 17C10.9391 17 9.9217 16.5786 9.17155 15.8284C8.4214 15.0783 7.99998 14.0609 7.99998 13H9.99998Z"/></g></g><defs><clipPath id="a"><rect width="24" height="24" fill="white"/></clipPath></defs></svg>