<svg xmlns="http://www.w3.org/2000/svg" width="24" height="24" fill="none"><g clip-path="url(#a)"><g><path fill="#121212" d="M13.4143 10.5861L13.8943 11.0721L14.3593 11.5571L14.8183 12.0491C18.2763 15.8131 20.2903 19.2671 19.4253 20.1321C19.0253 20.5321 18.0693 20.3161 16.7853 19.6251C15.2037 20.6167 13.3531 21.0924 11.4895 20.9863C9.62578 20.8802 7.8411 20.1977 6.38227 19.0331L9.36227 16.0531C9.781 16.165 10.2248 16.138 10.6268 15.9759C11.0288 15.8139 11.3673 15.5256 11.5913 15.1545C11.8153 14.7834 11.9127 14.3496 11.8688 13.9184C11.8248 13.4872 11.642 13.0819 11.3479 12.7636C11.0537 12.4452 10.664 12.2311 10.2376 12.1534C9.81118 12.0757 9.37105 12.1386 8.98349 12.3327C8.59592 12.5268 8.2819 12.8415 8.0887 13.2295C7.8955 13.6175 7.83358 14.0578 7.91227 14.4841L7.94727 14.6391L4.96827 17.6191C3.80333 16.16 3.12061 14.3749 3.01455 12.5109C2.90849 10.6468 3.38434 8.79585 4.37627 7.21405C3.68427 5.93105 3.46827 4.97605 3.86827 4.57505C4.84527 3.59905 9.11827 6.29005 13.4143 10.5851V10.5861ZM19.7783 4.22205C19.9772 4.42089 20.132 4.65946 20.2325 4.92218C20.333 5.1849 20.3769 5.46586 20.3614 5.74671C20.3459 6.02756 20.2714 6.30199 20.1427 6.55208C20.0139 6.80216 19.8339 7.02228 19.6143 7.19805C20.4034 8.45137 20.8716 9.87982 20.9775 11.3571C21.0834 12.8344 20.8237 14.315 20.2213 15.6681C19.0323 13.7141 17.1513 11.4941 14.8283 9.17205L14.2913 8.64005C12.1633 6.56105 10.1353 4.87605 8.33327 3.78005C9.68645 3.1775 11.1673 2.91768 12.6447 3.02355C14.1222 3.12942 15.5508 3.59772 16.8043 4.38705C16.98 4.16771 17.1999 3.98787 17.4498 3.85923C17.6997 3.7306 17.9738 3.65607 18.2544 3.6405C18.535 3.62493 18.8158 3.66868 19.0783 3.76888C19.3409 3.86908 19.5794 4.0235 19.7783 4.22205Z"/></g></g><defs><clipPath id="a"><rect width="24" height="24" fill="white"/></clipPath></defs></svg>