<svg xmlns="http://www.w3.org/2000/svg" width="24" height="24" fill="none"><g clip-path="url(#a)"><g><path fill="currentColor" d="M14.121 9.879C18.417 14.174 20.95 18.607 19.778 19.779C19.303 20.253 18.292 20.119 16.971 19.506C15.3824 20.5567 13.5016 21.0768 11.5989 20.9917C9.69614 20.9065 7.86936 20.2204 6.38098 19.032L6.34298 19.072L4.92898 17.657L4.96698 17.617C3.77924 16.1288 3.09374 14.3024 3.00894 12.4003C2.92414 10.4981 3.44439 8.61799 4.49498 7.03C3.88098 5.708 3.74698 4.697 4.22198 4.222C5.34998 3.094 9.49898 5.399 13.639 9.404L14.121 9.879ZM12.707 11.293C10.823 9.409 8.86998 7.842 7.23598 6.87L7.04998 7.05C5.85991 8.2404 5.13849 9.81966 5.01784 11.4986C4.89718 13.1775 5.38536 14.8437 6.39298 16.192L8.23898 14.346C8.12512 13.9208 8.15472 13.4699 8.32319 13.0633C8.49166 12.6566 8.78958 12.3169 9.17076 12.0967C9.55195 11.8766 9.9951 11.7884 10.4315 11.8457C10.868 11.9031 11.2733 12.1028 11.5846 12.414C11.896 12.7251 12.096 13.1303 12.1537 13.5667C12.2113 14.0031 12.1234 14.4463 11.9036 14.8276C11.6837 15.209 11.3442 15.5071 10.9377 15.6759C10.5311 15.8446 10.0803 15.8746 9.65498 15.761L7.80698 17.607C9.15539 18.6149 10.8218 19.1032 12.5009 18.9826C14.1801 18.8619 15.7595 18.1403 16.95 16.95L17.129 16.762L17.076 16.673C16.1 15.058 14.556 13.143 12.707 11.293ZM19.778 4.222C19.9769 4.42084 20.1317 4.65941 20.2322 4.92213C20.3327 5.18484 20.3766 5.4658 20.3611 5.74666C20.3456 6.02751 20.2711 6.30194 20.1424 6.55202C20.0136 6.80211 19.8336 7.02223 19.614 7.198C20.3909 8.43176 20.857 9.83556 20.9723 11.289C21.0876 12.7424 20.8487 14.2022 20.276 15.543C19.8633 14.7457 19.4004 13.9755 18.89 13.237C19.0904 12.1257 19.0186 10.9824 18.6808 9.90495C18.3429 8.82747 17.749 7.84788 16.95 7.05C16.152 6.25108 15.1724 5.65731 14.095 5.31946C13.0175 4.98162 11.8743 4.90975 10.763 5.11C10.0246 4.5994 9.25436 4.13646 8.45698 3.724C9.79817 3.15118 11.2583 2.91226 12.7121 3.02774C14.1659 3.14322 15.57 3.60964 16.804 4.387C16.9797 4.16766 17.1996 3.98781 17.4495 3.85918C17.6994 3.73055 17.9735 3.65602 18.2541 3.64045C18.5347 3.62488 18.8155 3.66862 19.078 3.76883C19.3406 3.86903 19.5791 4.02344 19.778 4.222Z"/></g></g><defs><clipPath id="a"><rect width="24" height="24" fill="#fff"/></clipPath></defs></svg>