<svg xmlns="http://www.w3.org/2000/svg" width="24" height="24" fill="none"><g clip-path="url(#a)"><g><path fill="#121212" d="M18.223 3.08604C18.3391 3.20212 18.4312 3.33993 18.4941 3.49161C18.5569 3.64329 18.5892 3.80586 18.5892 3.97004C18.5892 4.13422 18.5569 4.29679 18.4941 4.44847C18.4312 4.60015 18.3391 4.73796 18.223 4.85404L17.08 5.99604H18.25C18.7425 5.99604 19.2303 6.09307 19.6853 6.28159C20.1403 6.47011 20.5538 6.74642 20.902 7.09475C21.2502 7.44307 21.5264 7.85659 21.7148 8.31167C21.9032 8.76676 22.0001 9.2545 22 9.74704V17.247C22 18.2416 21.6049 19.1954 20.9017 19.8987C20.1984 20.602 19.2446 20.997 18.25 20.997H5.75C4.75544 20.997 3.80161 20.602 3.09835 19.8987C2.39509 19.1954 2 18.2416 2 17.247V9.74704C2 8.75248 2.39509 7.79865 3.09835 7.09539C3.80161 6.39213 4.75544 5.99704 5.75 5.99704H6.916L5.775 4.85504C5.65558 4.73977 5.56031 4.60186 5.49476 4.44938C5.42921 4.29689 5.39468 4.13288 5.39319 3.9669C5.3917 3.80093 5.42328 3.63632 5.48609 3.48268C5.54889 3.32904 5.64167 3.18945 5.759 3.07205C5.87634 2.95466 6.01587 2.8618 6.16948 2.79891C6.32308 2.73601 6.48767 2.70434 6.65364 2.70573C6.81962 2.70713 6.98365 2.74156 7.13618 2.80703C7.2887 2.8725 7.42666 2.96769 7.542 3.08704L10.194 5.73904C10.273 5.81804 10.339 5.90404 10.392 5.99604H13.605C13.658 5.90404 13.725 5.81604 13.804 5.73804L16.455 3.08604C16.5711 2.96993 16.7089 2.87783 16.8606 2.81499C17.0122 2.75215 17.1748 2.71981 17.339 2.71981C17.5032 2.71981 17.6658 2.75215 17.8174 2.81499C17.9691 2.87783 18.1069 2.96993 18.223 3.08604ZM18.25 8.50604H5.75C5.4345 8.50592 5.13062 8.62512 4.89934 8.83971C4.66805 9.0543 4.52647 9.34841 4.503 9.66304L4.5 9.75704V17.257C4.5 17.916 5.01 18.456 5.657 18.503L5.75 18.507H18.25C18.5655 18.5072 18.8694 18.388 19.1007 18.1734C19.3319 17.9588 19.4735 17.6647 19.497 17.35L19.5 17.257V9.75704C19.5 9.06704 18.94 8.50704 18.25 8.50704V8.50604ZM8.25 11.006C8.94 11.006 9.5 11.566 9.5 12.256V13.506C9.5 13.8376 9.3683 14.1555 9.13388 14.3899C8.89946 14.6243 8.58152 14.756 8.25 14.756C7.91848 14.756 7.60054 14.6243 7.36612 14.3899C7.1317 14.1555 7 13.8376 7 13.506V12.256C7 11.566 7.56 11.006 8.25 11.006ZM15.75 11.006C16.44 11.006 17 11.566 17 12.256V13.506C17 13.8376 16.8683 14.1555 16.6339 14.3899C16.3995 14.6243 16.0815 14.756 15.75 14.756C15.4185 14.756 15.1005 14.6243 14.8661 14.3899C14.6317 14.1555 14.5 13.8376 14.5 13.506V12.256C14.5 11.566 15.06 11.006 15.75 11.006Z"/></g></g><defs><clipPath id="a"><rect width="24" height="24" fill="white"/></clipPath></defs></svg>