<svg xmlns="http://www.w3.org/2000/svg" width="24" height="24" fill="none"><g clip-path="url(#a)"><g><path fill="#121212" d="M7.172 2.75695L10.414 5.99995H13.585L16.828 2.75795C17.0156 2.57031 17.2701 2.46489 17.5355 2.46489C17.8009 2.46489 18.0554 2.57031 18.243 2.75795C18.4306 2.94559 18.5361 3.20008 18.5361 3.46545C18.5361 3.73081 18.4306 3.98531 18.243 4.17295L16.414 5.99995H18.5C19.4283 5.99995 20.3185 6.3687 20.9749 7.02507C21.6313 7.68145 22 8.57169 22 9.49995V17.4999C22 18.4282 21.6313 19.3184 20.9749 19.9748C20.3185 20.6312 19.4283 20.9999 18.5 20.9999H5.5C4.57174 20.9999 3.6815 20.6312 3.02513 19.9748C2.36875 19.3184 2 18.4282 2 17.4999V9.49995C2 8.57169 2.36875 7.68145 3.02513 7.02507C3.6815 6.3687 4.57174 5.99995 5.5 5.99995H7.585L5.757 4.17095C5.56936 3.98331 5.46394 3.72881 5.46394 3.46345C5.46394 3.19808 5.56936 2.94359 5.757 2.75595C5.94464 2.56831 6.19914 2.46289 6.4645 2.46289C6.72986 2.46289 6.98436 2.56831 7.172 2.75595V2.75695ZM18.5 7.99995H5.5C5.12712 7.99996 4.76761 8.13887 4.49158 8.38957C4.21555 8.64026 4.0428 8.98479 4.007 9.35595L4 9.49995V17.4999C4.00002 17.8728 4.13892 18.2323 4.38962 18.5084C4.64032 18.7844 4.98484 18.9571 5.356 18.9929L5.5 18.9999H18.5C18.8729 18.9999 19.2324 18.861 19.5084 18.6103C19.7844 18.3596 19.9572 18.0151 19.993 17.6439L20 17.4999V9.49995C20 9.10212 19.842 8.72059 19.5607 8.43929C19.2794 8.15798 18.8978 7.99995 18.5 7.99995ZM8 10.9999C8.26522 10.9999 8.51957 11.1053 8.70711 11.2928C8.89464 11.4804 9 11.7347 9 11.9999V13.9999C9 14.2652 8.89464 14.5195 8.70711 14.7071C8.51957 14.8946 8.26522 14.9999 8 14.9999C7.73478 14.9999 7.48043 14.8946 7.29289 14.7071C7.10536 14.5195 7 14.2652 7 13.9999V11.9999C7 11.7347 7.10536 11.4804 7.29289 11.2928C7.48043 11.1053 7.73478 10.9999 8 10.9999ZM16 10.9999C16.2652 10.9999 16.5196 11.1053 16.7071 11.2928C16.8946 11.4804 17 11.7347 17 11.9999V13.9999C17 14.2652 16.8946 14.5195 16.7071 14.7071C16.5196 14.8946 16.2652 14.9999 16 14.9999C15.7348 14.9999 15.4804 14.8946 15.2929 14.7071C15.1054 14.5195 15 14.2652 15 13.9999V11.9999C15 11.7347 15.1054 11.4804 15.2929 11.2928C15.4804 11.1053 15.7348 10.9999 16 10.9999Z"/></g></g><defs><clipPath id="a"><rect width="24" height="24" fill="white"/></clipPath></defs></svg>