<svg xmlns="http://www.w3.org/2000/svg" width="24" height="24" fill="none"><g clip-path="url(#a)"><g><path fill="#121212" d="M12 2C17.523 2 22 6.477 22 12C22 17.523 17.523 22 12 22C6.477 22 2 17.523 2 12C2 6.477 6.477 2 12 2ZM12 4C9.87827 4 7.84344 4.84285 6.34315 6.34315C4.84285 7.84344 4 9.87827 4 12C4 14.1217 4.84285 16.1566 6.34315 17.6569C7.84344 19.1571 9.87827 20 12 20C14.1217 20 16.1566 19.1571 17.6569 17.6569C19.1571 16.1566 20 14.1217 20 12C20 9.87827 19.1571 7.84344 17.6569 6.34315C16.1566 4.84285 14.1217 4 12 4ZM12 6C13.5913 6 15.1174 6.63214 16.2426 7.75736C17.3679 8.88258 18 10.4087 18 12C18 13.5913 17.3679 15.1174 16.2426 16.2426C15.1174 17.3679 13.5913 18 12 18C10.4087 18 8.88258 17.3679 7.75736 16.2426C6.63214 15.1174 6 13.5913 6 12C6 10.4087 6.63214 8.88258 7.75736 7.75736C8.88258 6.63214 10.4087 6 12 6ZM12 7.75C11.5197 7.75015 11.0496 7.88866 10.6459 8.14896C10.2423 8.40925 9.92216 8.78032 9.72385 9.21777C9.52553 9.65522 9.45743 10.1405 9.52768 10.6157C9.59794 11.0908 9.80358 11.5357 10.12 11.897C9.555 12.354 9.2 13.015 9.2 13.75C9.2 15.13 10.454 16.25 12 16.25C13.546 16.25 14.8 15.13 14.8 13.75C14.8 13.015 14.445 12.354 13.88 11.898C14.1967 11.5367 14.4026 11.0917 14.4731 10.6164C14.5435 10.1411 14.4755 9.65561 14.2771 9.21797C14.0788 8.78033 13.7585 8.40913 13.3547 8.14878C12.9508 7.88844 12.4805 7.74998 12 7.75ZM12 12.75C12.753 12.75 13.3 13.238 13.3 13.75C13.3 14.262 12.753 14.75 12 14.75C11.247 14.75 10.7 14.262 10.7 13.75C10.7 13.238 11.247 12.75 12 12.75ZM12 9.25C12.2652 9.25 12.5196 9.35536 12.7071 9.54289C12.8946 9.73043 13 9.98478 13 10.25C13 10.5152 12.8946 10.7696 12.7071 10.9571C12.5196 11.1446 12.2652 11.25 12 11.25C11.7348 11.25 11.4804 11.1446 11.2929 10.9571C11.1054 10.7696 11 10.5152 11 10.25C11 9.98478 11.1054 9.73043 11.2929 9.54289C11.4804 9.35536 11.7348 9.25 12 9.25Z"/></g></g><defs><clipPath id="a"><rect width="24" height="24" fill="white"/></clipPath></defs></svg>