<svg xmlns="http://www.w3.org/2000/svg" width="24" height="24" fill="none"><g clip-path="url(#a)"><g><path fill="#121212" d="M5.43201 6.84597L1.39301 2.80797L2.80801 1.39297L22.607 21.193L21.192 22.607L18.154 19.567C16.4486 21.1601 14.1911 22.0284 11.8577 21.9889C9.52426 21.9493 7.29747 21.0049 5.64707 19.3549C3.99667 17.7049 3.05173 15.4783 3.01161 13.1449C2.97149 10.8115 3.83931 8.55375 5.43201 6.84797V6.84597ZM8.24301 4.02997L12 0.271973L18.364 6.63597C19.5912 7.86293 20.4376 9.41845 20.8013 11.1153C21.165 12.8121 21.0305 14.5778 20.414 16.2L8.24401 4.02997H8.24301Z"/></g></g><defs><clipPath id="a"><rect width="24" height="24" fill="white"/></clipPath></defs></svg>