<svg width="24" height="24" fill="none" xmlns="http://www.w3.org/2000/svg"><g clip-path="url(#a)"><path d="m4.929 2.929 1.414 1.414A7.975 7.975 0 0 0 4 10c0 2.21.895 4.21 2.343 5.657L4.93 17.07A9.968 9.968 0 0 1 2 10a9.969 9.969 0 0 1 2.929-7.071Zm14.142 0A9.967 9.967 0 0 1 22 10a9.968 9.968 0 0 1-2.929 7.071l-1.414-1.414A7.972 7.972 0 0 0 20 10c0-2.21-.895-4.21-2.343-5.657L19.07 2.93l.001-.001ZM7.757 5.757l1.415 1.415A3.987 3.987 0 0 0 8 10c0 1.105.448 2.105 1.172 2.828l-1.415 1.415A5.982 5.982 0 0 1 6 10c0-1.657.672-3.157 1.757-4.243Zm8.486 0A5.982 5.982 0 0 1 18 10a5.983 5.983 0 0 1-1.757 4.243l-1.415-1.415A3.987 3.987 0 0 0 16 10a3.986 3.986 0 0 0-1.172-2.828l1.415-1.415ZM12 12a2 2 0 1 1 0-4 2 2 0 0 1 0 4Zm-1 2h2v8h-2v-8Z" fill="currentColor"/></g><defs><clipPath id="a"><path fill="#fff" d="M0 0h24v24H0z"/></clipPath></defs></svg>