<svg xmlns="http://www.w3.org/2000/svg" width="24" height="24" fill="none"><g clip-path="url(#a)"><g><path fill="#121212" d="M4.92901 2.92902L6.34301 4.34302C5.59904 5.08509 5.00906 5.96688 4.60697 6.9377C4.20488 7.90851 3.99861 8.94922 4.00001 10C4.00001 12.21 4.89501 14.21 6.34301 15.657L4.93001 17.07C3.99998 16.1427 3.26237 15.0407 2.75954 13.8274C2.25672 12.6141 1.9986 11.3134 2.00001 10C1.99833 8.68655 2.25623 7.38571 2.75889 6.17223C3.26154 4.95875 3.99904 3.85657 4.92901 2.92902ZM19.071 2.92902C20.001 3.85657 20.7385 4.95875 21.2411 6.17223C21.7438 7.38571 22.0017 8.68655 22 10C22.0017 11.3135 21.7438 12.6143 21.2411 13.8278C20.7385 15.0413 20.001 16.1435 19.071 17.071L17.657 15.657C18.401 14.9149 18.991 14.0332 19.393 13.0623C19.7951 12.0915 20.0014 11.0508 20 10C20 7.79002 19.105 5.79002 17.657 4.34302L19.07 2.93002L19.071 2.92902ZM7.75701 5.75702L9.17201 7.17202C8.79997 7.54294 8.50491 7.98373 8.30378 8.46905C8.10264 8.95438 7.99941 9.47467 8.00001 10C8.00001 11.105 8.44801 12.105 9.17201 12.828L7.75701 14.243C7.19904 13.6864 6.75657 13.025 6.45504 12.2969C6.15352 11.5687 5.99888 10.7881 6.00001 10C6.00001 8.34302 6.67201 6.84302 7.75701 5.75702ZM16.243 5.75702C16.801 6.31362 17.2434 6.975 17.545 7.70316C17.8465 8.43132 18.0011 9.2119 18 10C18.0011 10.7881 17.8465 11.5687 17.545 12.2969C17.2434 13.025 16.801 13.6864 16.243 14.243L14.828 12.828C15.2 12.4571 15.4951 12.0163 15.6962 11.531C15.8974 11.0457 16.0006 10.5254 16 10C16.0006 9.47467 15.8974 8.95438 15.6962 8.46905C15.4951 7.98373 15.2 7.54294 14.828 7.17202L16.243 5.75702ZM12 12C11.4696 12 10.9609 11.7893 10.5858 11.4142C10.2107 11.0392 10 10.5304 10 10C10 9.46958 10.2107 8.96088 10.5858 8.5858C10.9609 8.21073 11.4696 8.00002 12 8.00002C12.5304 8.00002 13.0391 8.21073 13.4142 8.5858C13.7893 8.96088 14 9.46958 14 10C14 10.5304 13.7893 11.0392 13.4142 11.4142C13.0391 11.7893 12.5304 12 12 12ZM11 14H13V22H11V14Z"/></g></g><defs><clipPath id="a"><rect width="24" height="24" fill="white"/></clipPath></defs></svg>