<svg xmlns="http://www.w3.org/2000/svg" width="24" height="24" fill="none"><g clip-path="url(#a)"><g><path fill="#121212" d="M17 20H7V21C7 21.2652 6.89464 21.5196 6.70711 21.7071C6.51957 21.8946 6.26522 22 6 22H4C3.73478 22 3.48043 21.8946 3.29289 21.7071C3.10536 21.5196 3 21.2652 3 21V12H2V8H3V5C3 4.46957 3.21071 3.96086 3.58579 3.58579C3.96086 3.21071 4.46957 3 5 3H19C19.5304 3 20.0391 3.21071 20.4142 3.58579C20.7893 3.96086 21 4.46957 21 5V8H22V12H21V21C21 21.2652 20.8946 21.5196 20.7071 21.7071C20.5196 21.8946 20.2652 22 20 22H18C17.7348 22 17.4804 21.8946 17.2929 21.7071C17.1054 21.5196 17 21.2652 17 21V20ZM5 5V12H19V5H5ZM7.5 18C7.89782 18 8.27936 17.842 8.56066 17.5607C8.84196 17.2794 9 16.8978 9 16.5C9 16.1022 8.84196 15.7206 8.56066 15.4393C8.27936 15.158 7.89782 15 7.5 15C7.10218 15 6.72064 15.158 6.43934 15.4393C6.15804 15.7206 6 16.1022 6 16.5C6 16.8978 6.15804 17.2794 6.43934 17.5607C6.72064 17.842 7.10218 18 7.5 18ZM16.5 18C16.8978 18 17.2794 17.842 17.5607 17.5607C17.842 17.2794 18 16.8978 18 16.5C18 16.1022 17.842 15.7206 17.5607 15.4393C17.2794 15.158 16.8978 15 16.5 15C16.1022 15 15.7206 15.158 15.4393 15.4393C15.158 15.7206 15 16.1022 15 16.5C15 16.8978 15.158 17.2794 15.4393 17.5607C15.7206 17.842 16.1022 18 16.5 18Z"/></g></g><defs><clipPath id="a"><rect width="24" height="24" fill="white"/></clipPath></defs></svg>