<svg width="24" height="24" fill="none" xmlns="http://www.w3.org/2000/svg"><g clip-path="url(#a)"><path d="m9.828 5-2 2H4v12h16V7h-3.828l-2-2H9.828ZM9 3h6l2 2h4a1 1 0 0 1 1 1v14a1 1 0 0 1-1 1H3a1 1 0 0 1-1-1V6a1 1 0 0 1 1-1h4l2-2Zm.64 4.53a5.5 5.5 0 0 1 6.187 8.92L13.75 12.6h1.749l.001-.1a3.5 3.5 0 0 0-4.928-3.196L9.64 7.53Zm4.677 9.96a5.5 5.5 0 0 1-6.18-8.905L10.25 12.5H8.5a3.5 3.5 0 0 0 4.886 3.215l.931 1.774v.001Z" /></g><defs><clipPath id="a"><path fill="#fff" d="M0 0h24v24H0z"/></clipPath></defs></svg>