<svg width="24" height="24" fill="none" xmlns="http://www.w3.org/2000/svg"><g clip-path="url(#a)"><path d="M9.827 21.763 14.31 14l3.533 6.117A9.955 9.955 0 0 1 12 22c-.746 0-1.473-.082-2.174-.237ZM7.89 21.12A10.029 10.029 0 0 1 2.458 15h8.966L7.89 21.119v.001ZM2.05 13a9.964 9.964 0 0 1 2.583-7.761L9.113 13H2.05Zm4.11-9.117A9.955 9.955 0 0 1 12 2c.746 0 1.473.082 2.174.237L9.69 10 6.16 3.883Zm9.95-1.003A10.028 10.028 0 0 1 21.543 9h-8.965l3.532-6.119V2.88ZM21.95 11a9.965 9.965 0 0 1-2.582 7.761L14.887 11h7.065-.002Z" /></g><defs><clipPath id="a"><path fill="#fff" d="M0 0h24v24H0z"/></clipPath></defs></svg>