<svg width="24" height="24" fill="none" xmlns="http://www.w3.org/2000/svg"><g clip-path="url(#a)"><path d="M19.586 21H3a1 1 0 0 1-1-1V6a1 1 0 0 1 1-1h.586L1.393 2.808l1.415-1.415 19.799 19.8-1.415 1.414L19.586 21Zm-14-14H4v12h13.586l-2.18-2.18A5.5 5.5 0 0 1 7.68 9.094L5.586 7Zm3.524 3.525a3.5 3.5 0 0 0 4.865 4.865L9.11 10.525ZM22 17.785l-2-2V7h-3.828l-2-2H9.828l-.307.307-1.414-1.414L9 3h6l2 2h4a1 1 0 0 1 1 1v11.786ZM11.263 7.05a5.5 5.5 0 0 1 6.188 6.188L15.113 10.9A3.515 3.515 0 0 0 13.6 9.388L11.263 7.05Z" fill="#121212"/></g><defs><clipPath id="a"><path fill="#fff" d="M0 0h24v24H0z"/></clipPath></defs></svg>