<svg width="24" height="24" fill="none" xmlns="http://www.w3.org/2000/svg"><g clip-path="url(#a)"><path d="M19 21H5v1a1 1 0 0 1-1 1H3a1 1 0 0 1-1-1v-9l2.417-4.029A2 2 0 0 1 6.132 8h11.736a2 2 0 0 1 1.715.971L22 13.001v9a1 1 0 0 1-1 1h-1a1 1 0 0 1-1-1v-1ZM4.332 13h15.336l-1.8-3H6.132l-1.8 3ZM6.5 18a1.5 1.5 0 1 0 0-3 1.5 1.5 0 0 0 0 3Zm11 0a1.5 1.5 0 1 0 0-3 1.5 1.5 0 0 0 0 3ZM5.44 3.44 6.5 2.378l1.06 1.06a1.5 1.5 0 1 1-2.121 0l.001.002Zm5.5 0L12 2.378l1.06 1.06a1.5 1.5 0 1 1-2.121 0l.001.002Zm5.5 0 1.06-1.061 1.06 1.06a1.5 1.5 0 1 1-2.121 0l.001.001Z" fill="#121212"/></g><defs><clipPath id="a"><path fill="#fff" d="M0 0h24v24H0z"/></clipPath></defs></svg>