<svg xmlns="http://www.w3.org/2000/svg" width="24" height="24" fill="none"><g clip-path="url(#a)"><g><path fill="currentColor" d="M14.172 3C14.702 3 15.211 3.21 15.586 3.586L20.414 8.414C20.789 8.789 21 9.298 21 9.828V17H23V19H14.874C14.429 20.726 12.864 22 11 22C9.136 22 7.57 20.726 7.126 19H3C2.448 19 2 18.552 2 18V5C2 3.895 2.895 3 4 3H14.172ZM11 16C9.895 16 9 16.895 9 18C9 19.105 9.895 20 11 20C12.105 20 13 19.105 13 18C13 16.895 12.105 16 11 16ZM14.172 5H4V17H7.126C7.57 15.275 9.136 14 11 14C12.864 14 14.43 15.275 14.874 17H19V9.828L14.172 5ZM14 7V13H6V7H14ZM12 9H8V11H12V9Z"/></g></g><defs><clipPath id="a"><rect width="24" height="24" fill="#fff"/></clipPath></defs></svg>