<svg xmlns="http://www.w3.org/2000/svg" width="24" height="24" fill="none"><g clip-path="url(#a)"><g><path fill="currentColor" d="M4.5 10C4.04037 10 3.58525 9.90947 3.16061 9.73358C2.73597 9.55769 2.35013 9.29988 2.02513 8.97487C1.70012 8.64987 1.44231 8.26403 1.26642 7.83939C1.09053 7.41475 1 6.95963 1 6.5C1 6.04037 1.09053 5.58525 1.26642 5.16061C1.44231 4.73597 1.70012 4.35013 2.02513 4.02513C2.35013 3.70012 2.73597 3.44231 3.16061 3.26642C3.58525 3.09053 4.04037 3 4.5 3C5.42826 3 6.3185 3.36875 6.97487 4.02513C7.63125 4.6815 8 5.57174 8 6.5C8 7.42826 7.63125 8.3185 6.97487 8.97487C6.3185 9.63125 5.42826 10 4.5 10ZM4.5 8C4.89782 8 5.27936 7.84196 5.56066 7.56066C5.84196 7.27936 6 6.89782 6 6.5C6 6.10218 5.84196 5.72064 5.56066 5.43934C5.27936 5.15804 4.89782 5 4.5 5C4.10218 5 3.72064 5.15804 3.43934 5.43934C3.15804 5.72064 3 6.10218 3 6.5C3 6.89782 3.15804 7.27936 3.43934 7.56066C3.72064 7.84196 4.10218 8 4.5 8ZM22 10H20C20 8.93913 19.5786 7.92172 18.8284 7.17157C18.0783 6.42143 17.0609 6 16 6C14.9391 6 13.9217 6.42143 13.1716 7.17157C12.4214 7.92172 12 8.93913 12 10V15C12 16.0609 12.4214 17.0783 13.1716 17.8284C13.9217 18.5786 14.9391 19 16 19C17.0609 19 18.0783 18.5786 18.8284 17.8284C19.5786 17.0783 20 16.0609 20 15H22C22 16.5913 21.3679 18.1174 20.2426 19.2426C19.1174 20.3679 17.5913 21 16 21C14.4087 21 12.8826 20.3679 11.7574 19.2426C10.6321 18.1174 10 16.5913 10 15V10C10 8.4087 10.6321 6.88258 11.7574 5.75736C12.8826 4.63214 14.4087 4 16 4C17.5913 4 19.1174 4.63214 20.2426 5.75736C21.3679 6.88258 22 8.4087 22 10Z"/></g></g><defs><clipPath id="a"><rect width="24" height="24" fill="#fff"/></clipPath></defs></svg>