<svg width="24" height="24"  xmlns="http://www.w3.org/2000/svg"><g clip-path="url(#a)"><path d="M22 12h-2V5H4v13.385L5.763 17H12v2H6.455L2 22.5V4a1 1 0 0 1 1-1h18a1 1 0 0 1 1 1v8Zm-7.855 7.071a4.005 4.005 0 0 1 0-2.142l-.975-.563 1-1.732.976.563c.51-.519 1.15-.89 1.854-1.071V13h2v1.126a3.99 3.99 0 0 1 1.854 1.071l.976-.563 1 1.732-.975.563c.194.7.194 1.441 0 2.142l.975.563-1 1.732-.976-.563c-.501.51-1.14.887-1.854 1.071V23h-2v-1.126a3.996 3.996 0 0 1-1.854-1.071l-.976.563-1-1.732.975-.563ZM18 20a2 2 0 1 0 0-4 2 2 0 0 0 0 4Z" /></g><defs><clipPath id="a"><path fill="#fff" d="M0 0h24v24H0z"/></clipPath></defs></svg>