<svg width="24" height="24" fill="none" xmlns="http://www.w3.org/2000/svg"><g clip-path="url(#a)"><path d="M21 3a1 1 0 0 1 1 1v16a1 1 0 0 1-1 1H3a1 1 0 0 1-1-1V4a1 1 0 0 1 1-1h18ZM9 8c-2.208 0-4 1.792-4 4s1.792 4 4 4c1.1 0 2.1-.45 2.828-1.172l-1.414-1.414a2 2 0 1 1 .001-2.827l1.414-1.414A3.985 3.985 0 0 0 9 8Zm7 0c-2.208 0-4 1.792-4 4a4.001 4.001 0 0 0 6.828 2.828l-1.414-1.414a2 2 0 1 1 .001-2.827l1.414-1.414A3.985 3.985 0 0 0 16 8Z" fill="currentColor"/></g><defs><clipPath id="a"><path fill="#fff" d="M0 0h24v24H0z"/></clipPath></defs></svg>