<svg width="24" height="24" fill="none" xmlns="http://www.w3.org/2000/svg"><g clip-path="url(#a)"><path d="M21 3a1 1 0 0 1 1 1v16a1 1 0 0 1-1 1H3a1 1 0 0 1-1-1V4a1 1 0 0 1 1-1h18Zm-1 2H4v14h16V5ZM9 8c1.105 0 2.105.448 2.829 1.173l-1.414 1.414a2 2 0 1 0-.001 2.827l1.414 1.414A4.001 4.001 0 0 1 5 12c0-2.208 1.792-4 4-4Zm7 0c1.105 0 2.105.448 2.829 1.173l-1.414 1.414a2 2 0 1 0-.001 2.827l1.414 1.414A4.001 4.001 0 0 1 12 12c0-2.208 1.792-4 4-4Z" fill="#121212"/></g><defs><clipPath id="a"><path fill="#fff" d="M0 0h24v24H0z"/></clipPath></defs></svg>