<svg xmlns="http://www.w3.org/2000/svg" width="24" height="24" fill="none"><g clip-path="url(#a)"><g><path fill="currentColor" d="M17 21H7C5.58323 21.0009 4.21184 20.5004 3.12868 19.5871C2.04552 18.6739 1.32047 17.4068 1.0819 16.0103C0.843337 14.6137 1.10665 13.1778 1.82523 11.9568C2.5438 10.7358 3.67127 9.80844 5.008 9.33896C4.96271 8.39262 5.11001 7.44694 5.44096 6.5592C5.7719 5.67146 6.27962 4.86014 6.93334 4.17438C7.58707 3.48863 8.37319 2.94272 9.2441 2.56972C10.115 2.19672 11.0526 2.00439 12 2.00439C12.9474 2.00439 13.885 2.19672 14.7559 2.56972C15.6268 2.94272 16.4129 3.48863 17.0667 4.17438C17.7204 4.86014 18.2281 5.67146 18.559 6.5592C18.89 7.44694 19.0373 8.39262 18.992 9.33896C20.3287 9.80844 21.4562 10.7358 22.1748 11.9568C22.8933 13.1778 23.1567 14.6137 22.9181 16.0103C22.6795 17.4068 21.9545 18.6739 20.8713 19.5871C19.7881 20.5004 18.4168 21.0009 17 21Z"/></g></g><defs><clipPath id="a"><rect width="24" height="24" fill="#fff"/></clipPath></defs></svg>