<svg xmlns="http://www.w3.org/2000/svg" width="24" height="24" fill="none"><g clip-path="url(#a)"><g><path fill="#121212" d="M17 6.99988C15.3713 6.99974 13.7813 7.49654 12.4424 8.42392C11.1035 9.3513 10.0795 10.6651 9.507 12.1899L11.381 12.8929C11.876 11.5783 12.8164 10.4789 14.0384 9.78629C15.2605 9.09364 16.6868 8.85156 18.0689 9.1022C19.4511 9.35284 20.7016 10.0803 21.6026 11.158C22.5036 12.2356 22.9981 13.5952 23 14.9999C23 16.5912 22.3679 18.1173 21.2426 19.2425C20.1174 20.3677 18.5913 20.9999 17 20.9999H7C5.58323 21.0008 4.21185 20.5003 3.12869 19.587C2.04553 18.6738 1.32047 17.4067 1.08191 16.0102C0.843341 14.6137 1.10666 13.1777 1.82523 11.9567C2.54381 10.7357 3.67128 9.80836 5.008 9.33888C4.92235 7.61149 5.47921 5.91355 6.57122 4.5724C7.66323 3.23124 9.21308 2.34183 10.922 2.07562C12.6309 1.80942 14.3778 2.18527 15.826 3.13073C17.2742 4.07618 18.3212 5.52429 18.765 7.19588C18.1857 7.06547 17.5938 6.99973 17 6.99988Z"/></g></g><defs><clipPath id="a"><rect width="24" height="24" fill="white"/></clipPath></defs></svg>