<svg width="24" height="24" fill="none" xmlns="http://www.w3.org/2000/svg"><g clip-path="url(#a)"><path d="M12 4c6.075 0 11 2.686 11 6v4c0 3.314-4.925 6-11 6-5.967 0-10.824-2.591-10.995-5.823L1 14v-4c0-3.314 4.925-6 11-6Zm0 12c-3.72 0-7.01-1.007-9-2.55V14c0 1.882 3.883 4 9 4 5.01 0 8.838-2.03 8.995-3.882L21 14l.001-.55C19.011 14.992 15.721 16 12 16Zm0-10c-5.117 0-9 2.118-9 4 0 1.882 3.883 4 9 4s9-2.118 9-4c0-1.882-3.883-4-9-4Z" fill="#121212"/></g><defs><clipPath id="a"><path fill="#fff" d="M0 0h24v24H0z"/></clipPath></defs></svg>