<svg width="24" height="24" fill="none" xmlns="http://www.w3.org/2000/svg"><g clip-path="url(#a)"><path d="M14 2a8 8 0 0 1 3.292 15.293A8 8 0 1 1 6.706 6.707 8.003 8.003 0 0 1 14 2Zm-4 6a6 6 0 1 0 0 12 6 6 0 0 0 0-12Zm1 1v1h2v2H9a.5.5 0 0 0-.09.992L9 13h2a2.5 2.5 0 0 1 0 5v1H9v-1H7v-2h4a.5.5 0 0 0 .09-.992L11 15H9a2.5 2.5 0 0 1 0-5V9h2Zm3-5a5.985 5.985 0 0 0-4.484 2.013 8 8 0 0 1 8.47 8.471A6 6 0 0 0 14 4Z" /></g><defs><clipPath id="a"><path fill="#fff" d="M0 0h24v24H0z"/></clipPath></defs></svg>