<svg xmlns="http://www.w3.org/2000/svg" width="24" height="24" fill="none"><g clip-path="url(#a)"><g><path fill="currentColor" d="M11 4.126V2H13V4.126C13.6857 4.30347 14.312 4.65973 14.8149 5.1584C15.3179 5.65707 15.6795 6.28028 15.8628 6.9644C16.0461 7.64852 16.0446 8.36905 15.8584 9.05239C15.6722 9.73574 15.308 10.3574 14.803 10.854L20.866 21.356L19.134 22.356L13.071 11.855C12.3703 12.0495 11.6298 12.0495 10.929 11.855L4.866 22.356L3.134 21.356L9.197 10.854C8.69197 10.3574 8.32776 9.73574 8.14157 9.05239C7.95538 8.36905 7.95387 7.64852 8.13721 6.9644C8.32054 6.28028 8.68215 5.65707 9.1851 5.1584C9.68805 4.65973 10.3143 4.30347 11 4.126ZM12 10C12.5304 10 13.0391 9.78929 13.4142 9.41421C13.7893 9.03914 14 8.53043 14 8C14 7.46957 13.7893 6.96086 13.4142 6.58579C13.0391 6.21071 12.5304 6 12 6C11.4696 6 10.9609 6.21071 10.5858 6.58579C10.2107 6.96086 10 7.46957 10 8C10 8.53043 10.2107 9.03914 10.5858 9.41421C10.9609 9.78929 11.4696 10 12 10Z"/></g></g><defs><clipPath id="a"><rect width="24" height="24" fill="#fff"/></clipPath></defs></svg>