<svg xmlns="http://www.w3.org/2000/svg" width="24" height="24" fill="none"><g clip-path="url(#a)"><g><path fill="currentColor" d="M16.625 3.133L15.125 4.633C14.1365 4.21393 13.0736 3.99863 12 4C7.58 4 4 7.58 4 12C4 16.42 7.58 20 12 20C16.42 20 20 16.42 20 12C20.0014 10.9264 19.7861 9.86348 19.367 8.875L20.867 7.375C21.6134 8.80226 22.0022 10.3894 22 12C22 17.52 17.52 22 12 22C6.48 22 2 17.52 2 12C2 6.48 6.48 2 12 2C13.668 2 15.241 2.41 16.625 3.133ZM18.364 4.222L19.778 5.636L12 13.414L10.586 12L18.364 4.222Z"/></g></g><defs><clipPath id="a"><rect width="24" height="24" fill="#fff"/></clipPath></defs></svg>