<svg xmlns="http://www.w3.org/2000/svg" width="24" height="24" fill="none"><g clip-path="url(#a)"><g><path fill="#121212" d="M5.636 6.63597L12 0.271973L18.364 6.63597C19.6227 7.89465 20.4798 9.4983 20.8271 11.2441C21.1743 12.9899 20.9961 14.7995 20.3149 16.4441C19.6337 18.0886 18.4802 19.4942 17.0001 20.4831C15.5201 21.4721 13.78 21.9999 12 21.9999C10.22 21.9999 8.47992 21.4721 6.99988 20.4831C5.51984 19.4942 4.36629 18.0886 3.6851 16.4441C3.00391 14.7995 2.82567 12.9899 3.17293 11.2441C3.52019 9.4983 4.37734 7.89465 5.636 6.63597ZM12 3.10097L7.05 8.04997C6.39903 8.69931 5.88281 9.4709 5.531 10.3204C5.17919 11.1699 4.99874 12.0805 5 13H19C19.0013 12.0805 18.8208 11.1699 18.469 10.3204C18.1172 9.4709 17.601 8.69931 16.95 8.04997L12 3.09997V3.10097Z"/></g></g><defs><clipPath id="a"><rect width="24" height="24" fill="white"/></clipPath></defs></svg>