<svg xmlns="http://www.w3.org/2000/svg" width="24" height="24" fill="none"><g clip-path="url(#a)"><g><path fill="currentColor" d="M12 22C6.477 22 2 17.523 2 12C2 6.477 6.477 2 12 2C17.523 2 22 6.477 22 12C22 17.523 17.523 22 12 22ZM12 20C14.1217 20 16.1566 19.1571 17.6569 17.6569C19.1571 16.1566 20 14.1217 20 12C20 9.87827 19.1571 7.84344 17.6569 6.34315C16.1566 4.84285 14.1217 4 12 4C9.87827 4 7.84344 4.84285 6.34315 6.34315C4.84285 7.84344 4 9.87827 4 12C4 14.1217 4.84285 16.1566 6.34315 17.6569C7.84344 19.1571 9.87827 20 12 20ZM7 15.32C9.15505 15.1652 11.1817 14.2373 12.707 12.707C14.2373 11.1817 15.1652 9.15505 15.32 7C16.0589 7.49228 16.6793 8.1424 17.1366 8.90349C17.5938 9.66458 17.8764 10.5176 17.964 11.4012C18.0516 12.2847 17.9421 13.1767 17.6433 14.0127C17.3444 14.8488 16.8638 15.6081 16.2359 16.2359C15.6081 16.8638 14.8488 17.3444 14.0127 17.6433C13.1767 17.9421 12.2847 18.0516 11.4012 17.964C10.5176 17.8764 9.66458 17.5938 8.90349 17.1366C8.1424 16.6793 7.49228 16.0589 7 15.32Z"/></g></g><defs><clipPath id="a"><rect width="24" height="24" fill="#fff"/></clipPath></defs></svg>