<svg xmlns="http://www.w3.org/2000/svg" width="24" height="24" fill="none"><g clip-path="url(#a)"><g><path fill="#121212" d="M9.41957 4.39996C8.11911 4.83686 6.95286 5.60086 6.03286 6.61854C5.11286 7.63622 4.47002 8.87338 4.16611 10.2112C3.8622 11.549 3.90742 12.9425 4.29744 14.2577C4.68745 15.573 5.40915 16.7659 6.39321 17.7218C7.37726 18.6777 8.59059 19.3644 9.91664 19.7161C11.2427 20.0678 12.6369 20.0725 13.9653 19.7299C15.2937 19.3873 16.5117 18.7088 17.5022 17.7596C18.4928 16.8105 19.2226 15.6225 19.6216 14.31C16.2216 15.77 12.3736 16.29 8.07657 15.875C7.36557 11.749 7.81257 7.92496 9.41957 4.39996ZM11.8676 3.98596C11.2027 5.17514 10.6849 6.44076 10.3256 7.75496C11.8728 7.7858 13.3478 8.41523 14.4406 9.51096C15.4742 10.5417 16.0949 11.9151 16.1856 13.372C17.5156 13.031 18.7746 12.552 19.9656 11.939C19.9602 10.8838 19.7461 9.84017 19.3354 8.8682C18.9248 7.89623 18.3258 7.01517 17.573 6.27584C16.8202 5.5365 15.9284 4.95351 14.9492 4.5605C13.97 4.16748 12.9226 3.97222 11.8676 3.98596ZM4.89457 19.057C0.98957 15.152 0.98957 8.81996 4.89457 4.91496C8.79957 1.00996 15.1316 1.00996 19.0366 4.91496C22.9416 8.81996 22.9416 15.152 19.0366 19.057C15.1316 22.962 8.79957 22.962 4.89457 19.057ZM9.91457 9.76396C9.72205 11.1657 9.69654 12.5852 9.83857 13.993C11.2956 14.0572 12.7554 13.9835 14.1986 13.773C14.2018 13.2443 14.0998 12.7202 13.8986 12.2313C13.6974 11.7423 13.401 11.2983 13.0266 10.925C12.6217 10.5193 12.1341 10.2056 11.5971 10.0052C11.0601 9.80489 10.4862 9.7226 9.91457 9.76396Z"/></g></g><defs><clipPath id="a"><rect width="24" height="24" fill="white"/></clipPath></defs></svg>