<svg width="24" height="24"  xmlns="http://www.w3.org/2000/svg"><g clip-path="url(#a)"><path d="M9.42 4.4a8 8 0 1 0 10.202 9.91c-3.4 1.46-7.248 1.98-11.545 1.565-.711-4.126-.264-7.95 1.343-11.475Zm2.448-.414a16.803 16.803 0 0 0-1.542 3.769 5.98 5.98 0 0 1 4.115 1.756 5.977 5.977 0 0 1 1.745 3.861c1.33-.341 2.589-.82 3.78-1.433a7.994 7.994 0 0 0-8.098-7.953ZM4.895 19.057C.99 15.152.99 8.82 4.895 4.915c3.905-3.905 10.237-3.905 14.142 0 3.905 3.905 3.905 10.237 0 14.142-3.905 3.905-10.237 3.905-14.142 0Zm5.02-9.293a17.885 17.885 0 0 0-.076 4.229 23.21 23.21 0 0 0 4.36-.22 3.988 3.988 0 0 0-1.172-2.848 3.991 3.991 0 0 0-3.112-1.161Z" /></g><defs><clipPath id="a"><path fill="#fff" d="M0 0h24v24H0z"/></clipPath></defs></svg>