<svg width="24" height="24"  xmlns="http://www.w3.org/2000/svg"><g clip-path="url(#a)"><path d="M12 2c5.523 0 10 4.477 10 10s-4.477 10-10 10S2 17.523 2 12 6.477 2 12 2ZM9 8a4.001 4.001 0 0 0-3.355 6.176 4 4 0 0 0 6.024.803l.159-.151-1.414-1.414a2 2 0 1 1-.125-2.943l.126.116 1.414-1.414A3.988 3.988 0 0 0 9 8Zm7 0a4.001 4.001 0 0 0-3.355 6.176 4 4 0 0 0 6.024.803l.159-.151-1.414-1.414a2 2 0 1 1-.125-2.943l.126.116 1.414-1.414A3.988 3.988 0 0 0 16 8Z" /></g><defs><clipPath id="a"><path fill="#fff" d="M0 0h24v24H0z"/></clipPath></defs></svg>