<svg xmlns="http://www.w3.org/2000/svg" width="24" height="24" fill="none"><g clip-path="url(#a)"><g><path fill="currentColor" d="M12 2C17.52 2 22 6.48 22 12C22 17.52 17.52 22 12 22C6.48 22 2 17.52 2 12C2 6.48 6.48 2 12 2ZM12 4C7.585 4 4 7.585 4 12C4 16.415 7.585 20 12 20C16.415 20 20 16.415 20 12C20 7.585 16.415 4 12 4ZM12 6C14.761 6 17 8.686 17 12C17 15.314 14.761 18 12 18C9.239 18 7 15.314 7 12C7 8.686 9.239 6 12 6ZM14.325 9.472L10.763 15.645C11.14 15.873 11.559 16 12 16C13.657 16 15 14.21 15 12C15 11.041 14.747 10.161 14.325 9.472ZM12 8C10.343 8 9 9.79 9 12C9 12.959 9.253 13.839 9.675 14.528L13.237 8.355C12.8652 8.12517 12.4371 8.00234 12 8Z"/></g></g><defs><clipPath id="a"><rect width="24" height="24" fill="#fff"/></clipPath></defs></svg>