<svg width="24" height="24" fill="none" xmlns="http://www.w3.org/2000/svg"><g clip-path="url(#a)"><path d="M12 2c5.523 0 10 4.477 10 10s-4.477 10-10 10S2 17.523 2 12 6.477 2 12 2Zm0 2a8 8 0 1 0 0 16 8 8 0 0 0 0-16ZM9 8c1.105 0 2.105.448 2.829 1.173l-1.414 1.414a2 2 0 1 0-.001 2.828l1.414 1.413A4 4 0 0 1 5 12c0-2.208 1.792-4 4-4Zm7 0c1.105 0 2.105.448 2.829 1.173l-1.414 1.414a2 2 0 1 0-.001 2.828l1.414 1.413A4 4 0 0 1 12 12c0-2.208 1.792-4 4-4Z" fill="currentColor"/></g><defs><clipPath id="a"><path fill="#fff" d="M0 0h24v24H0z"/></clipPath></defs></svg>