<svg width="24" height="24" fill="none" xmlns="http://www.w3.org/2000/svg"><g clip-path="url(#a)"><path d="M12 2a9 9 0 0 1 6.894 14.786c1.255.83 2.033 1.89 2.101 3.049L21 20l-9 2-9-2 .005-.165c.067-1.16.846-2.22 2.1-3.05A9 9 0 0 1 12 2Zm0 11c-1.38 0-2.5.672-2.5 1.5S10.62 16 12 16s2.5-.672 2.5-1.5S13.38 13 12 13ZM9 8c-1.105 0-2 .672-2 1.5S7.895 11 9 11s2-.672 2-1.5S10.105 8 9 8Zm6 0c-1.105 0-2 .672-2 1.5s.895 1.5 2 1.5 2-.672 2-1.5S16.105 8 15 8Z" fill="currentColor"/></g><defs><clipPath id="a"><path fill="#fff" d="M0 0h24v24H0z"/></clipPath></defs></svg>