<svg width="24" height="24" fill="none" xmlns="http://www.w3.org/2000/svg"><g clip-path="url(#a)"><path d="M12 2a9 9 0 0 1 6.894 14.786c1.255.83 2.033 1.89 2.101 3.049L21 20l-9 2-9-2 .005-.165c.067-1.16.846-2.22 2.1-3.05A9 9 0 0 1 12 2Zm0 2a7 7 0 0 0-7 7c0 1.567.514 3.05 1.445 4.261l.192.239 1.443 1.717-1.962 1.299-.137.097L12 19.951l6.018-1.338-.049-.036-.178-.123-1.871-1.237 1.443-1.718A7 7 0 0 0 12 4Zm0 9c1.38 0 2.5.672 2.5 1.5S13.38 16 12 16s-2.5-.672-2.5-1.5S10.62 13 12 13ZM9 8c1.105 0 2 .672 2 1.5S10.105 11 9 11s-2-.672-2-1.5S7.895 8 9 8Zm6 0c1.105 0 2 .672 2 1.5s-.895 1.5-2 1.5-2-.672-2-1.5.895-1.5 2-1.5Z" /></g><defs><clipPath id="a"><path fill="#fff" d="M0 0h24v24H0z"/></clipPath></defs></svg>