<svg width="24" height="24" fill="none" xmlns="http://www.w3.org/2000/svg"><g clip-path="url(#a)"><path d="M21 8a2 2 0 0 1 2 2v4a2 2 0 0 1-2 2h-1.062A8 8 0 0 1 12 23v-2a6 6 0 0 0 6-6V9A6 6 0 1 0 6 9v7H3a2 2 0 0 1-2-2v-4a2 2 0 0 1 2-2h1.062a8.001 8.001 0 0 1 15.876 0H21ZM7.76 15.785l1.06-1.696A5.972 5.972 0 0 0 12 15a5.972 5.972 0 0 0 3.18-.911l1.06 1.696A7.963 7.963 0 0 1 12 17a7.963 7.963 0 0 1-4.24-1.215Z" fill="currentColor"/></g><defs><clipPath id="a"><path fill="#fff" d="M0 0h24v24H0z"/></clipPath></defs></svg>