<svg xmlns="http://www.w3.org/2000/svg" width="24" height="24" fill="none"><g clip-path="url(#a)"><g><path fill="currentColor" d="M19 2C19.2652 2 19.5196 2.10536 19.7071 2.29289C19.8946 2.48043 20 2.73478 20 3V21C20 21.2652 19.8946 21.5196 19.7071 21.7071C19.5196 21.8946 19.2652 22 19 22H5C4.73478 22 4.48043 21.8946 4.29289 21.7071C4.10536 21.5196 4 21.2652 4 21V3C4 2.73478 4.10536 2.48043 4.29289 2.29289C4.48043 2.10536 4.73478 2 5 2H19ZM12 7C11.3034 7.00076 10.6146 7.14706 9.97789 7.42954C9.34114 7.71201 8.77043 8.12442 8.30237 8.64033C7.8343 9.15624 7.4792 9.76426 7.25983 10.4254C7.04046 11.0866 6.96166 11.7863 7.02849 12.4797C7.09531 13.173 7.30629 13.8448 7.64789 14.4519C7.98949 15.059 8.45417 15.588 9.01215 16.005C9.57013 16.4221 10.2091 16.7179 10.8881 16.8736C11.5671 17.0292 12.2711 17.0413 12.955 16.909L12 15C11.2044 15 10.4413 14.6839 9.87868 14.1213C9.31607 13.5587 9 12.7956 9 12C9 11.2044 9.31607 10.4413 9.87868 9.87868C10.4413 9.31607 11.2044 9 12 9C13.598 9 15 10.34 15 12H12.5L14.628 16.254C15.5537 15.6823 16.2676 14.8242 16.6615 13.81C17.0553 12.7957 17.1076 11.6807 16.8104 10.6341C16.5131 9.58746 15.8826 8.66634 15.0145 8.0105C14.1464 7.35466 13.088 6.99988 12 7Z"/></g></g><defs><clipPath id="a"><rect width="24" height="24" fill="#fff"/></clipPath></defs></svg>