<svg width="24" height="24"  xmlns="http://www.w3.org/2000/svg"><g clip-path="url(#a)"><path d="M13.914 14.58c-.16.04-.322.074-.484.104a7.058 7.058 0 0 1-2.664-.01c-.154-.03-.372-.083-.653-.158l-.921 1.197c-2.273-.073-3.137-1.596-3.137-1.596 0-3.381 1.481-6.122 1.481-6.122 1.481-1.133 2.89-1.102 2.89-1.102l.403.525c.037-.005.074-.009.112-.01a8.527 8.527 0 0 1 2.314.01l.442-.525s1.41-.031 2.89 1.103c0 0 1.482 2.74 1.482 6.121 0 0-.875 1.522-3.148 1.596l-1.007-1.134v.001ZM10.076 11C9.475 11 9 11.45 9 12s.485 1 1.076 1c.6 0 1.075-.45 1.075-1 .01-.55-.474-1-1.075-1Zm3.848 0c-.6 0-1.075.45-1.075 1s.485 1 1.075 1c.601 0 1.076-.45 1.076-1s-.475-1-1.076-1ZM21 23l-4.99-5H19V4H5v14h11.003l.57 2H5a2 2 0 0 1-2-2V4a2 2 0 0 1 2-2h14a2 2 0 0 1 2 2v19Z" /></g><defs><clipPath id="a"><path fill="#fff" d="M0 0h24v24H0z"/></clipPath></defs></svg>