<svg xmlns="http://www.w3.org/2000/svg" width="24" height="24" fill="none"><g clip-path="url(#a)"><g><path fill="currentColor" d="M11.9504 2C17.4734 2 21.9504 6.477 21.9504 12C21.9504 17.523 17.4734 22 11.9504 22C9.6444 22 7.4584 21.216 5.7014 19.808L0.983398 20.398L2.7034 15.812C2.2074 14.614 1.9504 13.324 1.9504 12C1.9504 6.477 6.4274 2 11.9504 2ZM11.9504 4C7.5324 4 3.9504 7.582 3.9504 12C3.9504 13.178 4.2044 14.318 4.6884 15.362L4.8644 15.742L4.0174 18.002L6.3324 17.713L6.6704 18.01C8.1204 19.286 9.9784 20 11.9504 20C16.3684 20 19.9504 16.418 19.9504 12C19.9504 7.582 16.3684 4 11.9504 4ZM8.0004 7H11.7904C15.2104 7 17.2304 8.956 17.3304 11.729L17.3334 11.944V11.971C17.3334 14.785 15.3714 16.893 11.9964 16.996L11.7334 17H8.0004V7H11.7904H8.0004ZM11.8314 9.458H10.7234V14.543H11.8314C13.3974 14.543 14.4564 13.698 14.5354 12.198L14.5404 12.015V11.987C14.5404 10.387 13.4604 9.457 11.8314 9.457V9.458Z"/></g></g><defs><clipPath id="a"><rect width="24" height="24" fill="#fff"/></clipPath></defs></svg>