<svg xmlns="http://www.w3.org/2000/svg" width="24" height="24" fill="none"><g clip-path="url(#a)"><g><path fill="currentColor" d="M11 2.04995V5.06995C7.608 5.55695 5 8.47495 5 12C5 15.866 8.134 19 12 19C13.572 19 15.024 18.482 16.192 17.606L18.329 19.743C16.605 21.153 14.4 22 12 22C6.477 22 2 17.523 2 12C2 6.81495 5.947 2.55095 11 2.04995ZM21.95 13C21.75 15.011 20.956 16.8469 19.743 18.3279L17.606 16.1919C18.293 15.2759 18.759 14.186 18.929 13H21.951H21.95ZM13.002 2.04995C17.726 2.51895 21.482 6.27595 21.952 11H18.93C18.492 7.93495 16.067 5.50995 13.002 5.07095V2.04895V2.04995Z"/></g></g><defs><clipPath id="a"><rect width="24" height="24" fill="#fff"/></clipPath></defs></svg>