<svg width="24" height="24" fill="none" xmlns="http://www.w3.org/2000/svg"><g clip-path="url(#a)"><path d="M11.608 3H21a1 1 0 0 1 1 1v12a1 1 0 0 1-1 1h-7v-2h6V5h-6.255A6.968 6.968 0 0 1 15 9a6.991 6.991 0 0 1-3 5.745V21a1 1 0 0 1-1 1H5a1 1 0 0 1-1-1v-6.255A7 7 0 1 1 11.608 3ZM6 13.584V20h4v-6.416a5 5 0 1 0-4 0ZM8 12a3 3 0 1 1 0-6 3 3 0 0 1 0 6Zm0-2a1 1 0 1 0 0-2 1 1 0 0 0 0 2Zm9-3h2v2h-2V7ZM7 17h2v2H7v-2Z" fill="currentColor"/></g><defs><clipPath id="a"><path fill="#fff" d="M0 0h24v24H0z"/></clipPath></defs></svg>