<svg xmlns="http://www.w3.org/2000/svg" width="24" height="24" fill="none"><g clip-path="url(#a)"><g><path fill="#121212" d="M20.644 8.586C20.474 7.875 20.203 7.138 19.87 6.565C19.099 5.236 18.406 4.328 16.693 3.245C14.98 2.162 13.076 2 12.17 2C9.755 2 7.959 2.86 6.645 3.887C3.344 6.47 3 11 3 11C3 11 4.221 8.955 6.54 7.474C7.943 6.579 9.941 6 11.568 6C15.885 6 16 10 16 10H9C9 8 10 7 10 7C10 7 5 9 5 14.044C5 14.531 4.997 15.416 5.248 16.327C5.48 17.17 5.948 18.032 6.38 18.68C7.601 20.512 9.425 21.294 10.296 21.584C11.292 21.916 12.325 22 13.306 22C16.026 22 18.183 21.114 19 20.725V16.553C18.242 17.007 16.321 18 14 18C9 18 9 14 9 14H21V11.51C21 11.51 20.961 9.917 20.644 8.586Z"/></g></g><defs><clipPath id="a"><rect width="24" height="24" fill="white"/></clipPath></defs></svg>