<svg width="24" height="24"  xmlns="http://www.w3.org/2000/svg"><g clip-path="url(#a)"><path d="M4.52 5.934 1.393 2.808l1.415-1.415 19.799 19.8-1.415 1.414-3.31-3.31A10.95 10.95 0 0 1 12 21c-5.392 0-9.878-3.88-10.82-9a10.982 10.982 0 0 1 3.34-6.066Zm10.237 10.238-1.464-1.464a3 3 0 0 1-4.001-4L7.828 9.242a5 5 0 0 0 6.929 6.93ZM7.974 3.76A10.99 10.99 0 0 1 12 3c5.392 0 9.878 3.88 10.819 9a10.95 10.95 0 0 1-2.012 4.592l-3.86-3.86a5.001 5.001 0 0 0-5.68-5.68l-3.293-3.29V3.76Z" /></g><defs><clipPath id="a"><path fill="#fff" d="M0 0h24v24H0z"/></clipPath></defs></svg>