<svg xmlns="http://www.w3.org/2000/svg" width="24" height="24" fill="none"><g clip-path="url(#a)"><g><path fill="#121212" d="M13 9H17.5L17 11H13V20H11V11H7V9H11V7.128C11 5.345 11.186 4.698 11.534 4.046C11.875 3.40181 12.4018 2.87501 13.046 2.534C13.698 2.186 14.345 2 16.128 2C16.65 2 17.108 2.05 17.5 2.15V4H16.128C14.804 4 14.401 4.078 13.99 4.298C13.686 4.46 13.46 4.686 13.298 4.99C13.078 5.401 13 5.804 13 7.128V9Z"/></g></g><defs><clipPath id="a"><rect width="24" height="24" fill="white"/></clipPath></defs></svg>