<svg xmlns="http://www.w3.org/2000/svg" width="24" height="24" fill="none"><g clip-path="url(#a)"><g><path fill="currentColor" d="M16 2L21 7V20.993C21.0009 21.1243 20.976 21.2545 20.9266 21.3762C20.8772 21.4979 20.8043 21.6087 20.7121 21.7022C20.6199 21.7957 20.5101 21.8701 20.3892 21.9212C20.2682 21.9723 20.1383 21.9991 20.007 22H3.993C3.73038 21.9982 3.47902 21.8931 3.29322 21.7075C3.10742 21.5219 3.00209 21.2706 3 21.008V2.992C3 2.444 3.447 2 3.999 2H16ZM16 8.667H8V7.333H11.333V6H12.667L12.666 7.333H14.999L15 4H5V20H19V8L16 7.999V8.667ZM9.333 14.667V16.666H16V18H8V14.667H9.333ZM12 14.333C12.1313 14.333 12.2614 14.3589 12.3827 14.4091C12.504 14.4594 12.6142 14.533 12.7071 14.6259C12.8 14.7188 12.8736 14.829 12.9239 14.9503C12.9741 15.0716 13 15.2017 13 15.333C13 15.4643 12.9741 15.5944 12.9239 15.7157C12.8736 15.837 12.8 15.9472 12.7071 16.0401C12.6142 16.133 12.504 16.2066 12.3827 16.2569C12.2614 16.3071 12.1313 16.333 12 16.333C11.7348 16.333 11.4804 16.2276 11.2929 16.0401C11.1054 15.8526 11 15.5982 11 15.333C11 15.0678 11.1054 14.8134 11.2929 14.6259C11.4804 14.4384 11.7348 14.333 12 14.333ZM12 9C12.663 9 13.2989 9.26339 13.7678 9.73223C14.2366 10.2011 14.5 10.837 14.5 11.5C14.5 12.163 14.2366 12.7989 13.7678 13.2678C13.2989 13.7366 12.663 14 12 14C11.337 14 10.7011 13.7366 10.2322 13.2678C9.76339 12.7989 9.5 12.163 9.5 11.5C9.5 10.837 9.76339 10.2011 10.2322 9.73223C10.7011 9.26339 11.337 9 12 9ZM12 10.333C11.6905 10.333 11.3937 10.456 11.1748 10.6748C10.956 10.8937 10.833 11.1905 10.833 11.5C10.833 11.8095 10.956 12.1063 11.1748 12.3252C11.3937 12.544 11.6905 12.667 12 12.667C12.3095 12.667 12.6063 12.544 12.8252 12.3252C13.044 12.1063 13.167 11.8095 13.167 11.5C13.167 11.1905 13.044 10.8937 12.8252 10.6748C12.6063 10.456 12.3095 10.333 12 10.333Z"/></g></g><defs><clipPath id="a"><rect width="24" height="24" fill="#fff"/></clipPath></defs></svg>