<svg xmlns="http://www.w3.org/2000/svg" width="24" height="24" fill="none"><g clip-path="url(#a)"><g><path fill="#121212" d="M9 2.003V2H19.998C20.55 2 21 2.455 21 2.992V21.008C20.9997 21.2712 20.895 21.5235 20.7088 21.7095C20.5226 21.8955 20.2702 22 20.007 22H3.993C3.86168 21.9991 3.73182 21.9723 3.61085 21.9212C3.48987 21.8701 3.38015 21.7957 3.28794 21.7022C3.19573 21.6087 3.12284 21.4979 3.07344 21.3762C3.02403 21.2545 2.99908 21.1243 3 20.993V8L9 2.003ZM5.83 8H9V4.83L5.83 8ZM11 4V9C11 9.26522 10.8946 9.51957 10.7071 9.70711C10.5196 9.89464 10.2652 10 10 10H5V20H19V4H11Z"/></g></g><defs><clipPath id="a"><rect width="24" height="24" fill="white"/></clipPath></defs></svg>