<svg width="24" height="24"  xmlns="http://www.w3.org/2000/svg"><g clip-path="url(#a)"><path d="m16 2 5 5v13.993A1 1 0 0 1 20.007 22H3.993A1 1 0 0 1 3 21.008V2.992C3 2.444 3.447 2 3.999 2H16ZM9.333 14.667H8V18h8v-1.333l-6.667-.001v-2 .001ZM12 14.333a1.001 1.001 0 1 0 0 2.002 1.001 1.001 0 0 0 0-2.002ZM12 9a2.5 2.5 0 1 0 0 5 2.5 2.5 0 0 0 0-5Zm0 1.333a1.167 1.167 0 1 1 0 2.335 1.167 1.167 0 0 1 0-2.335ZM12.667 6h-1.334v1.333H8v1.334h8V7.333h-3.334V6h.001Z" /></g><defs><clipPath id="a"><path fill="#fff" d="M0 0h24v24H0z"/></clipPath></defs></svg>