<svg width="24" height="24" fill="none" xmlns="http://www.w3.org/2000/svg"><g clip-path="url(#a)"><path d="m16 2 5 5v13.993A1 1 0 0 1 20.007 22H3.993A1 1 0 0 1 3 21.008V2.992C3 2.444 3.447 2 3.999 2H16Zm0 6.667H8V7.333h3.333V6h1.334l-.001 1.333h2.333L15 4H5v16h14V8l-3-.001v.668Zm-6.667 6v1.999H16V18H8v-3.333h1.333ZM12 14.333a1.001 1.001 0 1 1 0 2.002 1.001 1.001 0 0 1 0-2.002ZM12 9a2.5 2.5 0 1 1 0 5 2.5 2.5 0 0 1 0-5Zm0 1.333a1.167 1.167 0 1 0 0 2.335 1.167 1.167 0 0 0 0-2.335Z" fill="#121212"/></g><defs><clipPath id="a"><path fill="#fff" d="M0 0h24v24H0z"/></clipPath></defs></svg>