<svg xmlns="http://www.w3.org/2000/svg" width="24" height="24" fill="none"><g clip-path="url(#a)"><g><path fill="#121212" d="M16 2L21 7V20.993C21 21.549 20.555 22 20.007 22H3.993C3.445 22 3 21.545 3 21.008V2.992C3 2.444 3.447 2 3.999 2H16ZM15 4H5V20H19V8H15V4ZM13 10V15H12V10H13ZM11 10V11H9C8.448 11 8 11.448 8 12V13C8 13.552 8.448 14 9 14H10V13H9V12H11V14C11 14.552 10.552 15 10 15H9C7.895 15 7 14.105 7 13V12C7 10.895 7.895 10 9 10H11ZM17 10V11H15V12H17V13H15V15H14V10H17Z"/></g></g><defs><clipPath id="a"><rect width="24" height="24" fill="white"/></clipPath></defs></svg>