<svg width="24" height="24"  xmlns="http://www.w3.org/2000/svg"><g clip-path="url(#a)"><path d="M12 1a9 9 0 0 1 9 9v4a8.99 8.99 0 0 1-3.81 7.354c.474-1.522.75-3.131.802-4.797L18 16v-2.001h-2V16l-.003.315c-.04 2.18-.527 4.33-1.431 6.315a9.045 9.045 0 0 1-3.574.314 12.935 12.935 0 0 0 2.001-6.52L13 16V9h-2v7l-.004.288a10.95 10.95 0 0 1-2.087 6.167 8.98 8.98 0 0 1-2.626-1.504 7.959 7.959 0 0 0 1.71-4.623L8 16v-6l.005-.2c.028-.566.176-1.12.435-1.625l.114-.207-1.445-1.445a5.97 5.97 0 0 0-1.102 3.18L6 10v6l-.004.225a5.968 5.968 0 0 1-1.121 3.273A8.958 8.958 0 0 1 3 14v-4a9 9 0 0 1 9-9Zm0 3c-1.196 0-2.31.35-3.246.953l-.23.156 1.444 1.445a3.977 3.977 0 0 1 1.787-.547L12 6l.2.005a4 4 0 0 1 3.795 3.789L16 10v2h2v-2a6 6 0 0 0-6-6Z" /></g><defs><clipPath id="a"><path fill="#fff" d="M0 0h24v24H0z"/></clipPath></defs></svg>