<svg xmlns="http://www.w3.org/2000/svg" width="24" height="24" fill="none"><g clip-path="url(#a)"><g><path fill="#121212" d="M12.0003 23C10.4975 22.9999 9.02934 22.5483 7.78624 21.7037C6.54315 20.8592 5.58244 19.6606 5.02868 18.2635C4.47493 16.8664 4.35367 15.3352 4.68062 13.8683C5.00757 12.4015 5.76766 11.0667 6.86234 10.037C8.20434 8.774 11.5003 6.5 11.0003 1.5C17.0003 5.5 20.0003 9.5 14.0003 15.5C15.0003 15.5 16.5003 15.5 19.0003 13.03C19.2703 13.803 19.5003 14.634 19.5003 15.5C19.5003 17.4891 18.7102 19.3968 17.3036 20.8033C15.8971 22.2098 13.9895 23 12.0003 23Z"/></g></g><defs><clipPath id="a"><rect width="24" height="24" fill="white"/></clipPath></defs></svg>