<svg xmlns="http://www.w3.org/2000/svg" width="24" height="24" fill="none"><g clip-path="url(#a)"><g><path fill="currentColor" d="M15.9998 2V4H14.9998V7.243C14.9998 8.401 15.2508 9.544 15.7358 10.595L20.0177 19.871C20.3647 20.624 20.0358 21.515 19.2838 21.861C19.0868 21.953 18.8728 22 18.6558 22H5.34375C4.51575 22 3.84375 21.328 3.84375 20.5C3.84375 20.283 3.89075 20.068 3.98175 19.871L8.26375 10.595C8.74875 9.545 8.99975 8.401 8.99975 7.243V4H7.99975V2H15.9998ZM12.9998 4H10.9998V8H12.9998V4Z"/></g></g><defs><clipPath id="a"><rect width="24" height="24" fill="#fff"/></clipPath></defs></svg>