<svg width="24" height="24" fill="none" xmlns="http://www.w3.org/2000/svg"><g clip-path="url(#a)"><path d="M16 2v2h-1v3.243c0 1.158.25 2.301.736 3.352l4.282 9.276A1.5 1.5 0 0 1 18.656 22H5.344a1.5 1.5 0 0 1-1.362-2.129l4.282-9.276A7.994 7.994 0 0 0 9 7.243V4H8V2h8Zm-2.612 8.001h-2.776c-.104.363-.23.721-.374 1.071l-.158.361L6.125 20h11.749l-3.954-8.567a9.99 9.99 0 0 1-.532-1.432ZM11 7.243c0 .253-.01.506-.03.758h2.059a8.777 8.777 0 0 1-.021-.364L13 7.243V4h-2v3.243Z" /></g><defs><clipPath id="a"><path fill="#fff" d="M0 0h24v24H0z"/></clipPath></defs></svg>