<svg width="24" height="24" fill="none" xmlns="http://www.w3.org/2000/svg"><g clip-path="url(#a)"><path d="M16 17.472A5.977 5.977 0 0 0 20 19h2v2h-2a7.962 7.962 0 0 1-4-1.07A7.96 7.96 0 0 1 12 21a7.962 7.962 0 0 1-4-1.07A7.96 7.96 0 0 1 4 21H2v-2h2c1.537 0 2.94-.578 4-1.528A5.977 5.977 0 0 0 12 19c1.537 0 2.94-.578 4-1.528Zm-3.427-15.94.1.08L23 11h-3v6a4.991 4.991 0 0 1-4-2 4.99 4.99 0 0 1-4 2 4.99 4.99 0 0 1-4-2 4.99 4.99 0 0 1-4 2l-.001-6H1l10.327-9.388a1 1 0 0 1 1.14-.145l.106.065Z" fill="currentColor"/></g><defs><clipPath id="a"><path fill="#fff" d="M0 0h24v24H0z"/></clipPath></defs></svg>