<svg xmlns="http://www.w3.org/2000/svg" width="24" height="24" fill="none"><g clip-path="url(#a)"><g><path fill="#121212" d="M22 10H12V17.382C12 18.791 12.632 20.116 13.705 21H3C2.73478 21 2.48043 20.8946 2.29289 20.7071C2.10536 20.5196 2 20.2652 2 20V4C2 3.73478 2.10536 3.48043 2.29289 3.29289C2.48043 3.10536 2.73478 3 3 3H10.414L12.414 5H21C21.2652 5 21.5196 5.10536 21.7071 5.29289C21.8946 5.48043 22 5.73478 22 6V10ZM14 12H22V17.382C22 18.279 21.554 19.116 20.813 19.612L18 21.499L15.187 19.614C14.8212 19.3681 14.5216 19.036 14.3146 18.6469C14.1076 18.2578 13.9996 17.8237 14 17.383V12Z"/></g></g><defs><clipPath id="a"><rect width="24" height="24" fill="white"/></clipPath></defs></svg>