<svg xmlns="http://www.w3.org/2000/svg" width="24" height="24" fill="none"><g clip-path="url(#a)"><g><path fill="currentColor" d="M3.89699 17.86L7.80699 13.95L10.636 16.778L15.207 12.208L17 14V9H12L13.793 10.793L10.636 13.95L7.80799 11.121L2.86199 16.067C2.29192 14.787 1.9982 13.4012 1.99999 12C1.99999 6.477 6.47699 2 12 2C17.523 2 22 6.477 22 12C22 17.523 17.523 22 12 22C10.418 22.001 8.85838 21.6262 7.4496 20.9065C6.04082 20.1867 4.82319 19.1425 3.89699 17.86Z"/></g></g><defs><clipPath id="a"><rect width="24" height="24" fill="#fff"/></clipPath></defs></svg>