<svg xmlns="http://www.w3.org/2000/svg" width="24" height="24" fill="none"><g clip-path="url(#a)"><g><path fill="currentColor" d="M12 2C13.4822 1.99849 14.9462 2.32717 16.2856 2.96216C17.6249 3.59715 18.806 4.5225 19.743 5.671L13.414 12L19.743 18.329C18.806 19.4775 17.6249 20.4028 16.2856 21.0378C14.9462 21.6728 13.4822 22.0015 12 22C6.477 22 2 17.523 2 12C2 6.477 6.477 2 12 2ZM12 5C11.6022 5 11.2206 5.15803 10.9393 5.43934C10.658 5.72064 10.5 6.10217 10.5 6.5C10.5 6.89782 10.658 7.27936 10.9393 7.56066C11.2206 7.84196 11.6022 8 12 8C12.3978 8 12.7794 7.84196 13.0607 7.56066C13.342 7.27936 13.5 6.89782 13.5 6.5C13.5 6.10217 13.342 5.72064 13.0607 5.43934C12.7794 5.15803 12.3978 5 12 5Z"/></g></g><defs><clipPath id="a"><rect width="24" height="24" fill="#fff"/></clipPath></defs></svg>