<svg xmlns="http://www.w3.org/2000/svg" width="24" height="24" fill="none"><g clip-path="url(#a)"><g><path fill="currentColor" d="M12 2C13.4822 1.99849 14.9462 2.32717 16.2856 2.96216C17.6249 3.59715 18.806 4.5225 19.743 5.671L13.414 12L19.743 18.329C18.806 19.4775 17.6249 20.4028 16.2856 21.0378C14.9462 21.6728 13.4822 22.0015 12 22C6.477 22 2 17.523 2 12C2 6.477 6.477 2 12 2ZM12 4C10.7379 4.00022 9.49381 4.29904 8.36931 4.87204C7.24481 5.44504 6.27183 6.27596 5.52988 7.2969C4.78792 8.31785 4.29804 9.49985 4.10026 10.7463C3.90248 11.9928 4.00242 13.2684 4.39191 14.4689C4.7814 15.6693 5.44938 16.7606 6.34128 17.6536C7.23319 18.5465 8.3237 19.2158 9.52372 19.6066C10.7237 19.9975 11.9992 20.0989 13.2459 19.9026C14.4926 19.7063 15.6752 19.2178 16.697 18.477L16.905 18.32L10.585 12L16.905 5.679L16.697 5.523C15.4158 4.59162 13.8859 4.06345 12.303 4.006L12 4ZM12 5C12.3978 5 12.7794 5.15803 13.0607 5.43934C13.342 5.72064 13.5 6.10217 13.5 6.5C13.5 6.89782 13.342 7.27936 13.0607 7.56066C12.7794 7.84196 12.3978 8 12 8C11.6022 8 11.2206 7.84196 10.9393 7.56066C10.658 7.27936 10.5 6.89782 10.5 6.5C10.5 6.10217 10.658 5.72064 10.9393 5.43934C11.2206 5.15803 11.6022 5 12 5Z"/></g></g><defs><clipPath id="a"><rect width="24" height="24" fill="#fff"/></clipPath></defs></svg>