<svg xmlns="http://www.w3.org/2000/svg" width="24" height="24" fill="none"><g clip-path="url(#a)"><g><path fill="#121212" d="M13.0004 7.066C14.8845 7.32142 16.6013 8.28279 17.8036 9.75569C19.0059 11.2286 19.604 13.1031 19.4769 15.0002C19.3499 16.8972 18.5072 18.6753 17.1193 19.9747C15.7313 21.2742 13.9017 21.998 12.0004 22C10.0968 22.0018 8.26368 21.2797 6.87274 19.9801C5.4818 18.6804 4.63712 16.9005 4.50993 15.0011C4.38275 13.1017 4.98258 11.225 6.18782 9.75154C7.39307 8.27804 9.11353 7.31798 11.0004 7.066V1H13.0004V7.066ZM12.0004 20C13.4591 20 14.858 19.4205 15.8895 18.3891C16.9209 17.3576 17.5004 15.9587 17.5004 14.5C17.5004 13.0413 16.9209 11.6424 15.8895 10.6109C14.858 9.57946 13.4591 9 12.0004 9C10.5417 9 9.14277 9.57946 8.11132 10.6109C7.07987 11.6424 6.50041 13.0413 6.50041 14.5C6.50041 15.9587 7.07987 17.3576 8.11132 18.3891C9.14277 19.4205 10.5417 20 12.0004 20Z"/></g></g><defs><clipPath id="a"><rect width="24" height="24" fill="white"/></clipPath></defs></svg>