<svg xmlns="http://www.w3.org/2000/svg" width="24" height="24" fill="none"><g clip-path="url(#a)"><g><path fill="currentColor" d="M12 2C15.5 2 18 5 19 8C22 9 23 11.73 23 14L20.225 14.793C20.0162 14.8527 19.8325 14.9788 19.7017 15.1522C19.5709 15.3256 19.5001 15.5368 19.5 15.754V17.25C19.5 17.7141 19.3156 18.1592 18.9874 18.4874C18.6592 18.8156 18.2141 19 17.75 19H17.154C16.8236 18.9999 16.4983 19.0818 16.2073 19.2381C15.9162 19.3945 15.6684 19.6205 15.486 19.896C14.558 21.3 13.396 22 12 22C10.604 22 9.442 21.299 8.514 19.896C8.33162 19.6205 8.08382 19.3945 7.79275 19.2381C7.50168 19.0818 7.17641 18.9999 6.846 19H6.25C5.78587 19 5.34075 18.8156 5.01256 18.4874C4.68437 18.1592 4.5 17.7141 4.5 17.25V15.754C4.4999 15.5368 4.4291 15.3256 4.2983 15.1522C4.1675 14.9788 3.98381 14.8527 3.775 14.793L1 14C1 11.734 2 9 5 8C6 5 8.5 2 12 2ZM12 12C11.172 12 10.5 13.12 10.5 14.5C10.5 15.88 11.172 17 12 17C12.828 17 13.5 15.88 13.5 14.5C13.5 13.12 12.828 12 12 12ZM9.5 8C9.10218 8 8.72064 8.15804 8.43934 8.43934C8.15804 8.72064 8 9.10218 8 9.5C8 9.89782 8.15804 10.2794 8.43934 10.5607C8.72064 10.842 9.10218 11 9.5 11C9.89782 11 10.2794 10.842 10.5607 10.5607C10.842 10.2794 11 9.89782 11 9.5C11 9.10218 10.842 8.72064 10.5607 8.43934C10.2794 8.15804 9.89782 8 9.5 8ZM14.5 8C14.1022 8 13.7206 8.15804 13.4393 8.43934C13.158 8.72064 13 9.10218 13 9.5C13 9.89782 13.158 10.2794 13.4393 10.5607C13.7206 10.842 14.1022 11 14.5 11C14.8978 11 15.2794 10.842 15.5607 10.5607C15.842 10.2794 16 9.89782 16 9.5C16 9.10218 15.842 8.72064 15.5607 8.43934C15.2794 8.15804 14.8978 8 14.5 8Z"/></g></g><defs><clipPath id="a"><rect width="24" height="24" fill="#fff"/></clipPath></defs></svg>