<svg xmlns="http://www.w3.org/2000/svg" width="24" height="24" fill="none"><g clip-path="url(#a)"><g><path fill="currentColor" d="M12 2C14.3869 2 16.6761 2.94821 18.364 4.63604C20.0518 6.32387 21 8.61305 21 11V18.5C21.0004 19.2479 20.7611 19.9763 20.3173 20.5784C19.8735 21.1804 19.2486 21.6245 18.534 21.8455C17.8194 22.0664 17.0529 22.0527 16.3467 21.8062C15.6406 21.5598 15.0319 21.0936 14.61 20.476C14.3488 20.9387 13.9693 21.3236 13.5105 21.5915C13.0516 21.8594 12.5298 22.0005 11.9985 22.0005C11.4672 22.0005 10.9454 21.8594 10.4865 21.5915C10.0277 21.3236 9.64823 20.9387 9.387 20.476C8.97402 21.0788 8.3827 21.5373 7.69598 21.7871C7.00927 22.0369 6.26158 22.0655 5.5578 21.8689C4.85401 21.6722 4.22941 21.2603 3.7716 20.6907C3.31379 20.1212 3.04572 19.4226 3.005 18.693L3 18.499V11C3 8.61305 3.94821 6.32387 5.63604 4.63604C7.32387 2.94821 9.61305 2 12 2ZM16 13H14C14.0023 13.519 13.8028 14.0185 13.4436 14.3932C13.0844 14.7678 12.5937 14.9881 12.0751 15.0075C11.5564 15.027 11.0506 14.8441 10.6643 14.4975C10.278 14.1509 10.0416 13.6677 10.005 13.15L10 13H8L8.005 13.2C8.0563 14.225 8.49958 15.191 9.24317 15.8983C9.98675 16.6056 10.9737 17.0001 12 17.0001C13.0263 17.0001 14.0132 16.6056 14.7568 15.8983C15.5004 15.191 15.9437 14.225 15.995 13.2L16 13ZM12 7C11.4696 7 10.9609 7.21071 10.5858 7.58579C10.2107 7.96086 10 8.46957 10 9C10 9.53043 10.2107 10.0391 10.5858 10.4142C10.9609 10.7893 11.4696 11 12 11C12.5304 11 13.0391 10.7893 13.4142 10.4142C13.7893 10.0391 14 9.53043 14 9C14 8.46957 13.7893 7.96086 13.4142 7.58579C13.0391 7.21071 12.5304 7 12 7Z"/></g></g><defs><clipPath id="a"><rect width="24" height="24" fill="#fff"/></clipPath></defs></svg>