<svg xmlns="http://www.w3.org/2000/svg" width="24" height="24" fill="none"><g clip-path="url(#a)"><g><path fill="#121212" d="M15 5H17C17.5304 5 18.0391 5.21071 18.4142 5.58579C18.7893 5.96086 19 6.46957 19 7V15.17C19.6675 15.4059 20.2301 15.8702 20.5884 16.4808C20.9466 17.0914 21.0775 17.809 20.9578 18.5068C20.8381 19.2046 20.4756 19.8375 19.9344 20.2939C19.3931 20.7502 18.708 21.0005 18 21.0005C17.292 21.0005 16.6069 20.7502 16.0656 20.2939C15.5244 19.8375 15.1619 19.2046 15.0422 18.5068C14.9225 17.809 15.0534 17.0914 15.4116 16.4808C15.7699 15.8702 16.3325 15.4059 17 15.17V7H15V10L10.5 6L15 2V5ZM5 8.83C4.33251 8.59409 3.76991 8.1298 3.41164 7.51919C3.05337 6.90859 2.92251 6.19098 3.04219 5.49321C3.16186 4.79545 3.52437 4.16246 4.06563 3.70613C4.60689 3.2498 5.29205 2.99951 6 2.99951C6.70795 2.99951 7.39311 3.2498 7.93437 3.70613C8.47563 4.16246 8.83814 4.79545 8.95781 5.49321C9.07749 6.19098 8.94662 6.90859 8.58836 7.51919C8.23009 8.1298 7.66749 8.59409 7 8.83V15.17C7.66749 15.4059 8.23009 15.8702 8.58836 16.4808C8.94662 17.0914 9.07749 17.809 8.95781 18.5068C8.83814 19.2046 8.47563 19.8375 7.93437 20.2939C7.39311 20.7502 6.70795 21.0005 6 21.0005C5.29205 21.0005 4.60689 20.7502 4.06563 20.2939C3.52437 19.8375 3.16186 19.2046 3.04219 18.5068C2.92251 17.809 3.05337 17.0914 3.41164 16.4808C3.76991 15.8702 4.33251 15.4059 5 15.17V8.83Z"/></g></g><defs><clipPath id="a"><rect width="24" height="24" fill="white"/></clipPath></defs></svg>