<svg xmlns="http://www.w3.org/2000/svg" width="24" height="24" fill="none"><g clip-path="url(#a)"><g><path fill="currentColor" d="M7.10501 8.79001C7.27847 9.42485 7.65581 9.98506 8.17892 10.3844C8.70202 10.7837 9.3419 11 10 11H14C15.178 11.0001 16.3182 11.416 17.2196 12.1745C18.1209 12.933 18.7256 13.9853 18.927 15.146C19.6057 15.3674 20.1832 15.8236 20.5559 16.4325C20.9286 17.0414 21.0719 17.7633 20.9603 18.4684C20.8486 19.1735 20.4892 19.8157 19.9467 20.2797C19.4041 20.7437 18.7139 20.9991 18 21C17.3015 21.0006 16.6248 20.7574 16.0864 20.3124C15.548 19.8674 15.1818 19.2485 15.0509 18.5624C14.9199 17.8763 15.0325 17.166 15.3691 16.5541C15.7058 15.9421 16.2454 15.4667 16.895 15.21C16.7215 14.5752 16.3442 14.015 15.8211 13.6156C15.298 13.2163 14.6581 13 14 13H10C8.9179 13.0016 7.86474 12.6506 7.00001 12V15.17C7.6675 15.4059 8.2301 15.8702 8.58837 16.4808C8.94663 17.0914 9.07749 17.809 8.95782 18.5068C8.83814 19.2046 8.47564 19.8376 7.93438 20.2939C7.39312 20.7502 6.70796 21.0005 6.00001 21.0005C5.29205 21.0005 4.60689 20.7502 4.06563 20.2939C3.52438 19.8376 3.16187 19.2046 3.0422 18.5068C2.92252 17.809 3.05338 17.0914 3.41165 16.4808C3.76991 15.8702 4.33251 15.4059 5.00001 15.17V8.83001C4.33698 8.59592 3.77721 8.13645 3.41836 7.53178C3.05951 6.92711 2.92438 6.21563 3.03654 5.5215C3.1487 4.82736 3.50104 4.19465 4.03207 3.73377C4.56309 3.27289 5.23909 3.01311 5.9421 2.99975C6.64511 2.98639 7.33049 3.22031 7.87864 3.66068C8.42679 4.10105 8.80291 4.71992 8.94136 5.40929C9.07981 6.09866 8.97181 6.81476 8.63619 7.43263C8.30058 8.05049 7.75866 8.5309 7.10501 8.79001Z"/></g></g><defs><clipPath id="a"><rect width="24" height="24" fill="#fff"/></clipPath></defs></svg>