<svg width="24" height="24" fill="none" xmlns="http://www.w3.org/2000/svg"><g clip-path="url(#a)"><path d="M4 1.734a1 1 0 0 1 .501.135l16.004 9.266a1 1 0 0 1 0 1.73L4.501 22.131A1 1 0 0 1 3 21.266V2.734a1 1 0 0 1 1-1Zm8.292 11.68-4.498 4.498 5.699-3.299-1.2-1.2-.001.001ZM5 6.118v11.76l5.88-5.88L5 6.118Zm10.284 4.302L13.706 12l1.578 1.577L18.008 12l-2.725-1.579.001-.001Zm-7.49-4.336 4.5 4.5 1.199-1.2-5.699-3.3Z" /></g><defs><clipPath id="a"><path fill="#fff" d="M0 0h24v24H0z"/></clipPath></defs></svg>