<svg xmlns="http://www.w3.org/2000/svg" width="24" height="24" fill="none"><g clip-path="url(#a)"><g><path fill="#121212" d="M2.05 13H4.062C4.30603 14.9331 5.24708 16.7107 6.70857 17.9993C8.17006 19.2879 10.0515 19.9989 12 19.9989C13.9484 19.9989 15.8299 19.2879 17.2914 17.9993C18.7529 16.7107 19.694 14.9331 19.938 13H21.951C21.449 18.053 17.185 22 12 22C6.815 22 2.551 18.053 2.05 13ZM2.05 11C2.55 5.947 6.814 2 12 2C17.186 2 21.449 5.947 21.95 11H19.938C19.694 9.0669 18.7529 7.28927 17.2914 6.00068C15.8299 4.71208 13.9484 4.00108 12 4.00108C10.0515 4.00108 8.17006 4.71208 6.70857 6.00068C5.24708 7.28927 4.30603 9.0669 4.062 11H2.049H2.05ZM12 14C11.4696 14 10.9609 13.7893 10.5858 13.4142C10.2107 13.0391 10 12.5304 10 12C10 11.4696 10.2107 10.9609 10.5858 10.5858C10.9609 10.2107 11.4696 10 12 10C12.5304 10 13.0391 10.2107 13.4142 10.5858C13.7893 10.9609 14 11.4696 14 12C14 12.5304 13.7893 13.0391 13.4142 13.4142C13.0391 13.7893 12.5304 14 12 14Z"/></g></g><defs><clipPath id="a"><rect width="24" height="24" fill="white"/></clipPath></defs></svg>