<svg xmlns="http://www.w3.org/2000/svg" width="24" height="24" fill="none"><g clip-path="url(#a)"><g><path fill="currentColor" d="M13.0005 8V16C13.0005 16.7956 12.6844 17.5587 12.1218 18.1213C11.5592 18.6839 10.7961 19 10.0005 19H7.83049C7.59458 19.6675 7.13029 20.2301 6.51968 20.5884C5.90907 20.9466 5.19146 21.0775 4.4937 20.9578C3.79593 20.8381 3.16294 20.4756 2.70661 19.9344C2.25028 19.3931 2 18.708 2 18C2 17.292 2.25028 16.6069 2.70661 16.0656C3.16294 15.5244 3.79593 15.1619 4.4937 15.0422C5.19146 14.9225 5.90907 15.0534 6.51968 15.4116C7.13029 15.7699 7.59458 16.3325 7.83049 17H10.0005C10.2657 17 10.5201 16.8946 10.7076 16.7071C10.8951 16.5196 11.0005 16.2652 11.0005 16V8C11.0005 7.20435 11.3166 6.44129 11.8792 5.87868C12.4418 5.31607 13.2048 5 14.0005 5H17.0005V2L22.0005 6L17.0005 10V7H14.0005C13.7353 7 13.4809 7.10536 13.2934 7.29289C13.1058 7.48043 13.0005 7.73478 13.0005 8Z"/></g></g><defs><clipPath id="a"><rect width="24" height="24" fill="#fff"/></clipPath></defs></svg>