<svg xmlns="http://www.w3.org/2000/svg" width="24" height="24" fill="none"><g clip-path="url(#a)"><g><path fill="#121212" d="M22 8V10H17.677L17.213 12.636C17.543 12.547 17.891 12.5 18.25 12.5C20.46 12.5 22.25 14.29 22.25 16.5C22.25 18.71 20.46 20.5 18.25 20.5C16.423 20.5 14.883 19.276 14.404 17.603L16.327 17.052C16.567 17.888 17.337 18.5 18.25 18.5C19.355 18.5 20.25 17.605 20.25 16.5C20.25 15.395 19.355 14.5 18.25 14.5C17.62 14.5 17.057 14.792 16.69 15.248L14.88 14.344L16 8H22ZM4 4V11H11V4H13V20H11V13H4V20H2V4H4Z"/></g></g><defs><clipPath id="a"><rect width="24" height="24" fill="white"/></clipPath></defs></svg>