<svg xmlns="http://www.w3.org/2000/svg" width="24" height="24" fill="none"><g clip-path="url(#a)"><g><path fill="currentColor" d="M21.097 8L18.499 12.5C20.709 12.5 22.5 14.29 22.5 16.5C22.5 18.71 20.71 20.5 18.5 20.5C16.29 20.5 14.5 18.71 14.5 16.5C14.5 15.764 14.699 15.074 15.046 14.481L18.788 8H21.097ZM4 4V11H11V4H13V20H11V13H4V20H2V4H4ZM18.5 14.5C17.395 14.5 16.5 15.395 16.5 16.5C16.5 17.605 17.395 18.5 18.5 18.5C19.605 18.5 20.5 17.605 20.5 16.5C20.5 15.395 19.605 14.5 18.5 14.5Z"/></g></g><defs><clipPath id="a"><rect width="24" height="24" fill="#fff"/></clipPath></defs></svg>