<svg xmlns="http://www.w3.org/2000/svg" width="24" height="24" fill="none"><g clip-path="url(#a)"><g><path fill="#121212" d="M9.33 11.5H11.5C12.6935 11.5 13.8381 11.9741 14.682 12.818C15.5259 13.6619 16 14.8065 16 16H8.999L9 17H17V16C16.9968 14.936 16.6894 13.895 16.114 13H19C19.9453 12.9997 20.8712 13.2674 21.6705 13.772C22.4698 14.2767 23.1097 14.9975 23.516 15.851C21.151 18.972 17.322 21 13 21C10.239 21 7.9 20.41 6 19.375V10.071C7.21661 10.2453 8.36547 10.7383 9.33 11.5ZM4 9C4.24493 9.00003 4.48134 9.08996 4.66437 9.25272C4.84741 9.41548 4.96434 9.63975 4.993 9.883L5 10V19C5 19.2652 4.89464 19.5196 4.70711 19.7071C4.51957 19.8946 4.26522 20 4 20H2C1.73478 20 1.48043 19.8946 1.29289 19.7071C1.10536 19.5196 1 19.2652 1 19V10C1 9.73479 1.10536 9.48043 1.29289 9.29289C1.48043 9.10536 1.73478 9 2 9H4ZM13.646 3.575L14 3.93L14.354 3.576C14.5858 3.34222 14.8615 3.15653 15.1653 3.02958C15.469 2.90264 15.7949 2.83694 16.1241 2.83627C16.4533 2.8356 16.7795 2.89996 17.0837 3.02566C17.388 3.15135 17.6645 3.33592 17.8973 3.56875C18.13 3.80158 18.3145 4.07809 18.4401 4.38241C18.5657 4.68673 18.63 5.01287 18.6292 5.34209C18.6285 5.67131 18.5627 5.99715 18.4356 6.30088C18.3086 6.60461 18.1228 6.88026 17.889 7.112L14 11L10.11 7.11C9.87622 6.87819 9.69053 6.60249 9.56358 6.29872C9.43664 5.99495 9.37094 5.66911 9.37027 5.33988C9.36959 5.01066 9.43396 4.68454 9.55965 4.38026C9.68535 4.07597 9.86992 3.79951 10.1027 3.56675C10.3356 3.33398 10.6121 3.1495 10.9164 3.02388C11.2207 2.89827 11.5469 2.834 11.8761 2.83477C12.2053 2.83554 12.5311 2.90132 12.8349 3.02835C13.1386 3.15538 13.4143 3.34115 13.646 3.575Z"/></g></g><defs><clipPath id="a"><rect width="24" height="24" fill="white"/></clipPath></defs></svg>