<svg width="24" height="24"  xmlns="http://www.w3.org/2000/svg"><g clip-path="url(#a)"><path d="M5 9a1 1 0 0 1 1 1 6.97 6.97 0 0 1 4.33 1.5h2.17c1.333 0 2.53.58 3.354 1.5H19a5 5 0 0 1 4.516 2.851C21.151 18.972 17.322 21 13 21c-2.79 0-5.15-.603-7.06-1.658A.998.998 0 0 1 5 20H2a1 1 0 0 1-1-1v-9a1 1 0 0 1 1-1h3Zm1.001 3L6 17.022l.045.032C7.84 18.314 10.178 19 13 19c3.004 0 5.799-1.156 7.835-3.13l.133-.133-.12-.1a2.994 2.994 0 0 0-1.643-.63L19 15h-2.111c.072.322.111.656.111 1v1H8v-2l6.79-.001-.034-.078a2.5 2.5 0 0 0-2.092-1.416L12.5 13.5H9.57A4.985 4.985 0 0 0 6.002 12h-.001ZM4 11H3v7h1v-7Zm14-6a3 3 0 1 1 0 6 3 3 0 0 1 0-6Zm0 2a1 1 0 1 0 0 2 1 1 0 0 0 0-2Zm-7-5a3 3 0 1 1 0 6 3 3 0 0 1 0-6Zm0 2a1 1 0 1 0 0 2 1 1 0 0 0 0-2Z" /></g><defs><clipPath id="a"><path fill="#fff" d="M0 0h24v24H0z"/></clipPath></defs></svg>