<svg width="24" height="24" fill="none" xmlns="http://www.w3.org/2000/svg"><g clip-path="url(#a)"><path d="M12 19a1.5 1.5 0 1 1 0 3 1.5 1.5 0 0 1 0-3Zm7.5 0a1.5 1.5 0 1 1 0 3 1.5 1.5 0 0 1 0-3Zm-15 0a1.5 1.5 0 1 1 0 3 1.5 1.5 0 0 1 0-3ZM17 7a5 5 0 1 1 0 10c-1.844 0-3.51-1.04-5-3.122C10.51 15.96 8.844 17 7 17A5 5 0 0 1 7 7c1.844 0 3.51 1.04 5 3.122C13.49 8.04 15.156 7 17 7Zm-5-5a1.5 1.5 0 1 1 0 3 1.5 1.5 0 0 1 0-3ZM4.5 2a1.5 1.5 0 1 1 0 3 1.5 1.5 0 0 1 0-3Zm15 0a1.5 1.5 0 1 1 0 3 1.5 1.5 0 0 1 0-3Z" fill="#121212"/></g><defs><clipPath id="a"><path fill="#fff" d="M0 0h24v24H0z"/></clipPath></defs></svg>