<svg xmlns="http://www.w3.org/2000/svg" width="24" height="24" fill="none"><g clip-path="url(#a)"><g><path fill="#121212" d="M20.243 4.75698C22.505 7.02498 22.583 10.637 20.479 12.993L11.999 21.485L3.52101 12.993C1.41701 10.637 1.49601 7.01898 3.75701 4.75698C6.02201 2.49298 9.64501 2.41698 12.001 4.52898C14.35 2.41998 17.98 2.48998 20.243 4.75698ZM5.17201 6.17198C3.68201 7.66198 3.60701 10.047 4.98001 11.623L12 18.654L19.02 11.624C20.394 10.047 20.319 7.66498 18.827 6.16998C17.34 4.67998 14.946 4.60798 13.374 5.98398L9.17201 10.187L7.75701 8.77298L10.582 5.94598L10.5 5.87698C8.92501 4.61198 6.62301 4.71998 5.17201 6.17198Z"/></g></g><defs><clipPath id="a"><rect width="24" height="24" fill="white"/></clipPath></defs></svg>