<svg xmlns="http://www.w3.org/2000/svg" width="24" height="24" fill="none"><g clip-path="url(#a)"><g><path fill="currentColor" d="M17.363 11.045C18.767 9.65198 21.043 9.65198 22.447 11.045C23.851 12.439 23.851 14.699 22.447 16.092L17 21.5L11.553 16.092C10.149 14.699 10.149 12.439 11.553 11.045C12.957 9.65198 15.233 9.65198 16.637 11.045L17 11.405L17.363 11.045ZM19.243 4.75698C20.183 5.69998 20.746 6.87498 20.932 8.09498C19.599 7.84698 18.193 8.08498 17 8.80798C14.85 7.50498 12.006 7.77798 10.144 9.62598C8.01302 11.741 7.95402 15.141 9.96602 17.327L10.144 17.512L12.565 19.916L11 21.485L2.52002 12.993C0.417023 10.637 0.496023 7.01898 2.75702 4.75698C5.02202 2.49298 8.64502 2.41698 11.001 4.52898C13.35 2.41998 16.98 2.48998 19.243 4.75698Z"/></g></g><defs><clipPath id="a"><rect width="24" height="24" fill="#fff"/></clipPath></defs></svg>