<svg width="24" height="24"  xmlns="http://www.w3.org/2000/svg"><g clip-path="url(#a)"><path d="M20 20a1 1 0 0 1-1 1H5a1 1 0 0 1-1-1v-9H1l10.327-9.388a1 1 0 0 1 1.346 0L23 11h-3v9ZM8.592 13.808l-.991.572 1 1.733.993-.573c.398.377.88.655 1.405.811v1.145h2.002V16.35a3.5 3.5 0 0 0 1.405-.81l.992.572L16.4 14.38l-.991-.572a3.505 3.505 0 0 0 0-1.62l.991-.573-1-1.733-.993.573A3.5 3.5 0 0 0 13 9.645V8.5h-2.002v1.144a3.5 3.5 0 0 0-1.405.811l-.992-.573L7.6 11.616l.991.572a3.504 3.504 0 0 0 0 1.62h.001Zm3.408.69a1.5 1.5 0 0 1-.576-2.886 1.502 1.502 0 0 1 1.635.324A1.5 1.5 0 0 1 12 14.497v.001Z" /></g><defs><clipPath id="a"><path fill="#fff" d="M0 0h24v24H0z"/></clipPath></defs></svg>