<svg width="24" height="24" fill="none" xmlns="http://www.w3.org/2000/svg"><g clip-path="url(#a)"><path d="M21.158 4.258c.034 3.5.591 4.81.788 6.701a9.98 9.98 0 0 1-2.875 8.112c-3.666 3.666-9.471 3.89-13.4.673l2.852-2.853a6.003 6.003 0 0 0 7.72-.648 6.003 6.003 0 0 0 .648-7.72l4.267-4.265Zm-2.83-.002-2.851 2.853a6.002 6.002 0 0 0-8.368 8.368l-4.267 4.265c-.034-3.5-.591-4.811-.788-6.701a9.98 9.98 0 0 1 2.875-8.112c3.666-3.666 9.471-3.89 13.4-.673h-.001ZM12 8c2.21 0 4 1.79 4 4s-1.79 4-4 4-4-1.79-4-4 1.79-4 4-4Zm0 2.5a1.5 1.5 0 1 0 .001 3.001A1.5 1.5 0 0 0 12 10.5Z" /></g><defs><clipPath id="a"><path fill="#fff" d="M0 0h24v24H0z"/></clipPath></defs></svg>