<svg xmlns="http://www.w3.org/2000/svg" width="24" height="24" fill="none"><g clip-path="url(#a)"><g><path fill="currentColor" d="M21 2V11H17.999L18 12C18 14.21 16.21 16 14 16H12.621L12.008 19.111L12.919 20.432C13.233 20.887 13.119 21.51 12.664 21.823C12.497 21.938 12.299 22 12.096 22H3L5.313 11.976L3 11L7 2H21ZM19 4H8.3L5.655 9.95L7.64 10.787L5.514 20H10.192L9.883 19.552L11.96 9H19V4ZM15.999 11H13.605L13.014 14H14C15.105 14 16 13.105 16 12L15.999 11Z"/></g></g><defs><clipPath id="a"><rect width="24" height="24" fill="#fff"/></clipPath></defs></svg>