<svg xmlns="http://www.w3.org/2000/svg" width="24" height="24" fill="none"><g clip-path="url(#a)"><g><path fill="currentColor" d="M16 9L20.371 10.749C20.751 10.9 21 11.269 21 11.677V21C21 21.552 20.552 22 20 22H4C3.448 22 3 21.552 3 21V11.677C3 11.268 3.249 10.9 3.629 10.749L8 9H16ZM15.615 11H8.385L5 12.354V20H19V19H8V14H19V12.354L15.615 11ZM16 3C16.552 3 17 3.448 17 4V8H7V4C7 3.448 7.448 3 8 3H16ZM15 5H9V6H15V5Z"/></g></g><defs><clipPath id="a"><rect width="24" height="24" fill="#fff"/></clipPath></defs></svg>