<svg xmlns="http://www.w3.org/2000/svg" width="24" height="24" fill="none"><g clip-path="url(#a)"><g><path fill="#121212" d="M10 3C10.552 3 11 3.448 11 4V20C11 20.552 10.552 21 10 21H4C3.448 21 3 20.552 3 20V4C3 3.448 3.448 3 4 3H10ZM9 5H5V19H9V5ZM18 7C20.761 7 23 9.239 23 12C23 14.761 20.761 17 18 17C15.239 17 13 14.761 13 12C13 9.239 15.239 7 18 7ZM19 9H17V10.999L15 11V13L17 12.999V15H19V12.999L21 13V11L19 10.999V9Z"/></g></g><defs><clipPath id="a"><rect width="24" height="24" fill="white"/></clipPath></defs></svg>