<svg xmlns="http://www.w3.org/2000/svg" width="24" height="24" fill="none"><g clip-path="url(#a)"><g><path fill="currentColor" d="M12 13C14.761 13 17 15.239 17 18C17 20.761 14.761 23 12 23C9.239 23 7 20.761 7 18C7 15.239 9.239 13 12 13ZM13 15H11V16.999L9 17V19L11 18.999V21H13V18.999L15 19V17L13 16.999V15ZM20 3C20.552 3 21 3.448 21 4V10C21 10.552 20.552 11 20 11H4C3.448 11 3 10.552 3 10V4C3 3.448 3.448 3 4 3H20ZM5 5V9H19V5H5Z"/></g></g><defs><clipPath id="a"><rect width="24" height="24" fill="#fff"/></clipPath></defs></svg>