<svg xmlns="http://www.w3.org/2000/svg" width="24" height="24" fill="none"><g clip-path="url(#a)"><g><path fill="#121212" d="M10.7583 11.828L18.6073 3.979L20.0213 5.393L18.6073 6.808L21.0813 9.282L19.6673 10.697L17.1923 8.222L15.7783 9.636L17.8993 11.757L16.4853 13.172L14.3643 11.05L12.1723 13.242C12.8527 14.276 13.1256 15.5256 12.9382 16.7491C12.7508 17.9727 12.1163 19.0832 11.1576 19.8661C10.1988 20.649 8.98377 21.0486 7.74746 20.9876C6.51115 20.9267 5.34136 20.4094 4.46428 19.536C3.58531 18.6603 3.06331 17.4891 2.99974 16.25C2.93616 15.0109 3.33556 13.7925 4.12029 12.8314C4.90503 11.8704 6.01905 11.2354 7.24584 11.05C8.47263 10.8646 9.72455 11.1419 10.7583 11.828ZM10.1213 18.121C10.4126 17.8455 10.6457 17.5143 10.8069 17.1471C10.968 16.7799 11.0539 16.3842 11.0595 15.9832C11.0651 15.5823 10.9902 15.1843 10.8393 14.8128C10.6885 14.4412 10.4646 14.1037 10.1811 13.8202C9.89755 13.5367 9.56005 13.3128 9.18852 13.162C8.817 13.0111 8.419 12.9362 8.01806 12.9418C7.61711 12.9474 7.22135 13.0333 6.85416 13.1944C6.48698 13.3556 6.15583 13.5887 5.88028 13.88C5.33381 14.4458 5.03143 15.2036 5.03826 15.9902C5.0451 16.7768 5.3606 17.5292 5.91683 18.0855C6.47305 18.6417 7.22549 18.9572 8.01208 18.964C8.79867 18.9709 9.55648 18.6685 10.1223 18.122L10.1213 18.121Z"/></g></g><defs><clipPath id="a"><rect width="24" height="24" fill="white"/></clipPath></defs></svg>