<svg xmlns="http://www.w3.org/2000/svg" width="24" height="24" fill="none"><g clip-path="url(#a)"><g><path fill="currentColor" d="M10.3134 11.566L18.2534 3.62598L20.3744 5.74698L18.9604 7.16098L21.0814 9.28198L17.5464 12.818L15.4254 10.697L12.4354 13.687C12.9859 14.7463 13.1395 15.9675 12.8682 17.1302C12.597 18.2928 11.9189 19.32 10.9565 20.0264C9.994 20.7327 8.81065 21.0715 7.62022 20.9815C6.42979 20.8916 5.31077 20.3789 4.46535 19.536C3.61951 18.6915 3.10417 17.5719 3.01271 16.3802C2.92126 15.1884 3.25974 14.0034 3.96683 13.0397C4.67392 12.076 5.70283 11.3976 6.8671 11.1272C8.03137 10.8568 9.25397 11.0125 10.3134 11.566ZM9.41435 17.414C9.60537 17.2295 9.75774 17.0088 9.86256 16.7648C9.96737 16.5208 10.0225 16.2583 10.0249 15.9928C10.0272 15.7272 9.97656 15.4639 9.876 15.2181C9.77544 14.9723 9.62693 14.749 9.43914 14.5612C9.25136 14.3734 9.02805 14.2249 8.78226 14.1243C8.53647 14.0238 8.27311 13.9732 8.00755 13.9755C7.74199 13.9778 7.47955 14.033 7.23554 14.1378C6.99154 14.2426 6.77085 14.395 6.58635 14.586C6.22204 14.9632 6.02045 15.4684 6.02501 15.9928C6.02956 16.5172 6.2399 17.0188 6.61072 17.3896C6.98153 17.7604 7.48316 17.9708 8.00755 17.9753C8.53194 17.9799 9.03715 17.7783 9.41435 17.414Z"/></g></g><defs><clipPath id="a"><rect width="24" height="24" fill="#fff"/></clipPath></defs></svg>