<svg width="24" height="24" fill="none" xmlns="http://www.w3.org/2000/svg"><g clip-path="url(#a)"><path d="m4.342 1.408 18.03 18.032a1.5 1.5 0 1 1-2.12 2.122l-4.596-4.597L12.12 20.5 8 16.38V19a1 1 0 0 1-2 0v-4a1 1 0 0 0-1.993-.117L4 15v1a1 1 0 0 1-2 0V7.214a7.976 7.976 0 0 1 2.168-5.627l.174-.179Zm.24 3.07-.05.11a5.993 5.993 0 0 0-.522 2.103L4 7l-.001.12a5.984 5.984 0 0 0 1.58 4.003l.177.185 6.363 6.363 2.829-2.828L4.583 4.478Z" fill="currentColor"/></g><defs><clipPath id="a"><path fill="#fff" d="M0 0h24v24H0z"/></clipPath></defs></svg>