<svg xmlns="http://www.w3.org/2000/svg" width="24" height="24" fill="none"><g clip-path="url(#a)"><g><path fill="currentColor" d="M11.27 12.216L15 6L23 21H2L9 8L11.27 12.216ZM12.39 14.238L14.987 19H19.667L14.897 10.058L12.39 14.238ZM5.348 19H12.652L9 12.219L5.348 19ZM5.5 8C4.83696 8 4.20107 7.73661 3.73223 7.26777C3.26339 6.79893 3 6.16304 3 5.5C3 4.83696 3.26339 4.20107 3.73223 3.73223C4.20107 3.26339 4.83696 3 5.5 3C6.16304 3 6.79893 3.26339 7.26777 3.73223C7.73661 4.20107 8 4.83696 8 5.5C8 6.16304 7.73661 6.79893 7.26777 7.26777C6.79893 7.73661 6.16304 8 5.5 8Z"/></g></g><defs><clipPath id="a"><rect width="24" height="24" fill="#fff"/></clipPath></defs></svg>