<svg width="24" height="24" fill="none" xmlns="http://www.w3.org/2000/svg"><g clip-path="url(#a)"><path d="M17 17h5v2h-3v3h-2v-5ZM7 7H2V5h3V2h2v5Zm11.364 8.536L16.95 14.12l1.414-1.414a5.001 5.001 0 0 0-3.531-8.551 5 5 0 0 0-3.54 1.48L9.879 7.05 8.464 5.636 9.88 4.222a7 7 0 1 1 9.9 9.9l-1.415 1.414h-.001Zm-2.828 2.828-1.415 1.414a7 7 0 1 1-9.9-9.9l1.415-1.414L7.05 9.88l-1.414 1.414a5 5 0 1 0 7.071 7.071l1.414-1.414 1.415 1.414v-.001Zm-.708-10.607 1.415 1.415-7.071 7.07-1.415-1.414 7.071-7.07v-.001Z" fill="#121212"/></g><defs><clipPath id="a"><path fill="#fff" d="M0 0h24v24H0z"/></clipPath></defs></svg>