<svg width="24" height="24"  xmlns="http://www.w3.org/2000/svg"><g clip-path="url(#a)"><path d="m17.657 14.828-1.414-1.414L17.657 12A4 4 0 1 0 12 6.343l-1.414 1.414-1.414-1.414 1.414-1.414a6 6 0 0 1 8.485 8.485l-1.414 1.414Zm-2.829 2.829-1.414 1.414a6.002 6.002 0 0 1-10.277-4.232 6 6 0 0 1 1.792-4.253l1.414-1.414 1.414 1.414L6.343 12A4 4 0 1 0 12 17.657l1.414-1.414 1.414 1.414Zm0-9.9 1.415 1.415-7.071 7.07-1.415-1.414 7.071-7.07v-.001ZM5.775 2.293l1.932-.518L8.742 5.64l-1.931.518-1.036-3.864v-.001Zm9.483 16.068 1.931-.518 1.036 3.864-1.932.518-1.035-3.864ZM2.293 5.775l3.864 1.036-.518 1.931-3.864-1.035.518-1.932Zm16.068 9.483 3.864 1.035-.518 1.932-3.864-1.036.518-1.931Z" /></g><defs><clipPath id="a"><path fill="#fff" d="M0 0h24v24H0z"/></clipPath></defs></svg>