<svg xmlns="http://www.w3.org/2000/svg" width="24" height="24" fill="none"><g clip-path="url(#a)"><g><path fill="#121212" d="M12 2C12.2652 2 12.5196 2.10536 12.7071 2.29289C12.8946 2.48043 13 2.73478 13 3V6C13 6.26522 12.8946 6.51957 12.7071 6.70711C12.5196 6.89464 12.2652 7 12 7C11.7348 7 11.4804 6.89464 11.2929 6.70711C11.1054 6.51957 11 6.26522 11 6V3C11 2.73478 11.1054 2.48043 11.2929 2.29289C11.4804 2.10536 11.7348 2 12 2ZM12 17C12.2652 17 12.5196 17.1054 12.7071 17.2929C12.8946 17.4804 13 17.7348 13 18V21C13 21.2652 12.8946 21.5196 12.7071 21.7071C12.5196 21.8946 12.2652 22 12 22C11.7348 22 11.4804 21.8946 11.2929 21.7071C11.1054 21.5196 11 21.2652 11 21V18C11 17.7348 11.1054 17.4804 11.2929 17.2929C11.4804 17.1054 11.7348 17 12 17ZM20.66 7C20.7926 7.22968 20.8285 7.50263 20.7599 7.7588C20.6913 8.01497 20.5237 8.23339 20.294 8.366L17.696 9.866C17.5822 9.9327 17.4564 9.97623 17.3257 9.9941C17.1951 10.012 17.0622 10.0038 16.9347 9.9701C16.8072 9.93639 16.6876 9.8778 16.5828 9.79769C16.4781 9.71758 16.3902 9.61754 16.3242 9.50333C16.2583 9.38912 16.2156 9.26299 16.1986 9.13221C16.1816 9.00143 16.1906 8.86858 16.2252 8.74131C16.2597 8.61403 16.3191 8.49485 16.3999 8.39063C16.4807 8.2864 16.5814 8.19918 16.696 8.134L19.294 6.634C19.5237 6.5014 19.7966 6.46546 20.0528 6.5341C20.309 6.60274 20.5274 6.77033 20.66 7ZM7.67 14.5C7.8026 14.7297 7.83854 15.0026 7.7699 15.2588C7.70126 15.515 7.53367 15.7334 7.304 15.866L4.706 17.366C4.59223 17.4327 4.46639 17.4762 4.33573 17.4941C4.20506 17.512 4.07215 17.5038 3.94465 17.4701C3.81716 17.4364 3.69758 17.3778 3.59282 17.2977C3.48806 17.2176 3.40018 17.1175 3.33424 17.0033C3.2683 16.8891 3.2256 16.763 3.2086 16.6322C3.1916 16.5014 3.20064 16.3686 3.23519 16.2413C3.26974 16.114 3.32913 15.9949 3.40993 15.8906C3.49074 15.7864 3.59136 15.6992 3.706 15.634L6.304 14.134C6.53368 14.0014 6.80663 13.9655 7.0628 14.0341C7.31897 14.1027 7.53739 14.2703 7.67 14.5ZM20.66 17C20.5274 17.2297 20.309 17.3973 20.0528 17.4659C19.7966 17.5345 19.5237 17.4986 19.294 17.366L16.696 15.866C16.4682 15.7324 16.3025 15.5142 16.235 15.2589C16.1675 15.0036 16.2037 14.732 16.3357 14.5033C16.4678 14.2746 16.6849 14.1074 16.9397 14.0383C17.1946 13.9691 17.4664 14.0035 17.696 14.134L20.294 15.634C20.5237 15.7666 20.6913 15.985 20.7599 16.2412C20.8285 16.4974 20.7926 16.7703 20.66 17ZM7.67 9.5C7.53739 9.72967 7.31897 9.89726 7.0628 9.9659C6.80663 10.0345 6.53368 9.9986 6.304 9.866L3.706 8.366C3.59136 8.30082 3.49074 8.2136 3.40993 8.10937C3.32913 8.00515 3.26974 7.88597 3.23519 7.75869C3.20064 7.63142 3.1916 7.49857 3.2086 7.36779C3.2256 7.23701 3.2683 7.11088 3.33424 6.99667C3.40018 6.88246 3.48806 6.78242 3.59282 6.70231C3.69758 6.62221 3.81716 6.56361 3.94465 6.5299C4.07215 6.49619 4.20506 6.48804 4.33573 6.5059C4.46639 6.52377 4.59223 6.5673 4.706 6.634L7.304 8.134C7.53367 8.26661 7.70126 8.48503 7.7699 8.7412C7.83854 8.99737 7.8026 9.27032 7.67 9.5Z"/></g></g><defs><clipPath id="a"><rect width="24" height="24" fill="white"/></clipPath></defs></svg>