<svg xmlns="http://www.w3.org/2000/svg" width="24" height="24" fill="none"><g clip-path="url(#a)"><g><path fill="currentColor" d="M8.5 5.5C9.912 5.97 10.548 7.659 10.827 9.523L6.304 12.134L7.304 13.866L11.014 11.725C11.06 13.079 11 14.308 11 15C11 18 10 21 6 21C2 21 2 21 2 17C2 9.5 5.5 4.5 8.5 5.5ZM22.001 17V17.436C21.996 21 21.851 21 18.001 21C14.001 21 13.001 18 13.001 15C13.001 14.309 12.941 13.08 12.987 11.726L16.697 13.866L17.697 12.134L13.174 9.524C13.453 7.659 14.089 5.971 15.501 5.5C18.501 4.5 22.001 9.5 22.001 17ZM13 2V11H11V2H13Z"/></g></g><defs><clipPath id="a"><rect width="24" height="24" fill="#fff"/></clipPath></defs></svg>