<svg width="24" height="24" fill="none" xmlns="http://www.w3.org/2000/svg"><g clip-path="url(#a)"><path d="m20 7.238-7.928 7.1L4 7.216V19h7.07c.1.693.303 1.368.604 2H3a1 1 0 0 1-1-1V4a1 1 0 0 1 1-1h18a1 1 0 0 1 1 1v8.255a6.97 6.97 0 0 0-2-.965V7.238ZM19.501 5H4.511l7.55 6.662L19.502 5h-.001Zm-2.794 15.708a3 3 0 0 0 4.001-4.001l-4.001 4v.001Zm-1.415-1.415 4.001-4a3 3 0 0 0-4.001 4.001v-.001ZM18 23a5 5 0 1 1 0-10 5 5 0 0 1 0 10Z" fill="#121212"/></g><defs><clipPath id="a"><path fill="#fff" d="M0 0h24v24H0z"/></clipPath></defs></svg>