<svg xmlns="http://www.w3.org/2000/svg" width="24" height="24" fill="none"><g clip-path="url(#a)"><g><path fill="currentColor" d="M11 17.938C8.98272 17.6813 7.13886 16.6661 5.84319 15.0988C4.54753 13.5314 3.89728 11.5295 4.02462 9.49997C4.15197 7.47041 5.04734 5.56549 6.52875 4.17238C8.01016 2.77927 9.96645 2.00252 12 2C14.036 1.99849 15.9961 2.77334 17.4807 4.16668C18.9653 5.56002 19.8628 7.467 19.9903 9.49904C20.1178 11.5311 19.4657 13.5353 18.1669 15.1033C16.8681 16.6712 15.0203 17.685 13 17.938V21H11V17.938ZM12 16C13.5913 16 15.1174 15.3679 16.2426 14.2426C17.3679 13.1174 18 11.5913 18 10C18 8.4087 17.3679 6.88258 16.2426 5.75736C15.1174 4.63214 13.5913 4 12 4C10.4087 4 8.88258 4.63214 7.75736 5.75736C6.63215 6.88258 6 8.4087 6 10C6 11.5913 6.63215 13.1174 7.75736 14.2426C8.88258 15.3679 10.4087 16 12 16ZM5 22H19V24H5V22Z"/></g></g><defs><clipPath id="a"><rect width="24" height="24" fill="#fff"/></clipPath></defs></svg>