<svg width="24" height="24" fill="none" xmlns="http://www.w3.org/2000/svg"><g clip-path="url(#a)"><path d="M12 6.654a6.785 6.785 0 0 1 2.596 5.344A6.784 6.784 0 0 1 12 17.34a6.787 6.787 0 0 1-2.596-5.343A6.786 6.786 0 0 1 12 6.654Zm-.87-.582A7.783 7.783 0 0 0 8.4 12a7.783 7.783 0 0 0 2.728 5.926 6.798 6.798 0 1 1 .003-11.854h-.001Zm1.742 11.854A7.782 7.782 0 0 0 15.6 12a7.782 7.782 0 0 0-2.73-5.928 6.798 6.798 0 1 1 .003 11.854h-.001Z" /></g><defs><clipPath id="a"><path fill="#fff" d="M0 0h24v24H0z"/></clipPath></defs></svg>