<svg xmlns="http://www.w3.org/2000/svg" width="24" height="24" fill="none"><g clip-path="url(#a)"><g><path fill="currentColor" d="M11.9996 6.65404C12.8093 7.28958 13.4638 8.10099 13.9135 9.02684C14.3633 9.95269 14.5966 10.9687 14.5956 11.998C14.5963 13.027 14.3629 14.0427 13.9131 14.9681C13.4634 15.8936 12.809 16.7047 11.9996 17.34C11.1901 16.7046 10.5357 15.8933 10.0859 14.9677C9.63619 14.042 9.40287 13.0262 9.40364 11.997C9.40287 10.9679 9.63619 9.95206 10.0859 9.02639C10.5357 8.10073 11.1901 7.28948 11.9996 6.65404ZM11.1296 6.07204C10.2726 6.80361 9.58462 7.71256 9.11327 8.73606C8.64191 9.75957 8.39843 10.8732 8.39964 12C8.39847 13.1264 8.64179 14.2395 9.11278 15.2627C9.58377 16.2858 10.2712 17.1945 11.1276 17.926C10.093 18.5068 8.92441 18.8067 7.73798 18.7959C6.55154 18.7851 5.38859 18.4639 4.36474 17.8644C3.34089 17.2648 2.49178 16.4077 1.90184 15.3783C1.3119 14.3489 1.00165 13.183 1.00195 11.9965C1.00225 10.81 1.31309 9.64424 1.90355 8.61511C2.49402 7.58599 3.34355 6.72932 4.36771 6.13027C5.39186 5.53123 6.55497 5.21066 7.74142 5.20045C8.92786 5.19023 10.0963 5.49072 11.1306 6.07204H11.1296ZM12.8716 17.926C13.7281 17.1945 14.4155 16.2858 14.8865 15.2627C15.3575 14.2395 15.6008 13.1264 15.5996 12C15.6008 10.8732 15.3574 9.75957 14.886 8.73606C14.4147 7.71256 13.7267 6.80361 12.8696 6.07204C13.904 5.49072 15.0724 5.19023 16.2589 5.20045C17.4453 5.21066 18.6084 5.53123 19.6326 6.13027C20.6567 6.72932 21.5063 7.58599 22.0967 8.61511C22.6872 9.64424 22.998 10.81 22.9983 11.9965C22.9986 13.183 22.6884 14.3489 22.0984 15.3783C21.5085 16.4077 20.6594 17.2648 19.6355 17.8644C18.6117 18.4639 17.4487 18.7851 16.2623 18.7959C15.0759 18.8067 13.9073 18.5068 12.8726 17.926H12.8716Z"/></g></g><defs><clipPath id="a"><rect width="24" height="24" fill="#fff"/></clipPath></defs></svg>