<svg xmlns="http://www.w3.org/2000/svg" width="24" height="24" fill="none"><g clip-path="url(#a)"><g><path fill="#121212" d="M18.586 5H14V3H22V11H20V6.414L16.463 9.951C17.6168 11.4635 18.1528 13.358 17.9623 15.2508C17.7719 17.1437 16.8692 18.8934 15.4372 20.1457C14.0051 21.398 12.1507 22.0594 10.2493 21.9958C8.34801 21.9322 6.5419 21.1485 5.1967 19.8033C3.85151 18.4581 3.06777 16.652 3.00419 14.7506C2.94061 12.8493 3.60194 10.9949 4.85426 9.5628C6.10658 8.13075 7.85631 7.2281 9.74914 7.03764C11.642 6.84719 13.5364 7.38315 15.049 8.537L18.586 5Z"/></g></g><defs><clipPath id="a"><rect width="24" height="24" fill="white"/></clipPath></defs></svg>