<svg xmlns="http://www.w3.org/2000/svg" width="24" height="24" fill="none"><g clip-path="url(#a)"><g><path fill="currentColor" d="M11 2C15.068 2 18.426 5.036 18.934 8.965L21.184 12.504C21.332 12.737 21.302 13.084 20.959 13.232L19 14.07V17C19 18.105 18.105 19 17 19H15.001L15 22H6V18.306C6 17.126 5.564 16.009 4.756 15.001C3.657 13.631 3 11.892 3 10C3 5.582 6.582 2 11 2ZM10.47 7.763C9.786 7.079 8.678 7.079 7.995 7.763C7.311 8.446 7.311 9.554 7.995 10.237L11 13.243L14.005 10.237C14.689 9.554 14.689 8.446 14.005 7.763C13.322 7.079 12.214 7.079 11.53 7.763L11 8.293L10.47 7.763Z"/></g></g><defs><clipPath id="a"><rect width="24" height="24" fill="#fff"/></clipPath></defs></svg>