<svg width="24" height="24" fill="none" xmlns="http://www.w3.org/2000/svg"><g clip-path="url(#a)"><path d="M18.5 2a4.5 4.5 0 0 1 .883 8.913l.01.027a8 8 0 0 1-7.144 11.056l-.25.004a8 8 0 0 1-7.381-11.088A4.5 4.5 0 0 1 5.5 2a4.5 4.5 0 0 1 4.493 4.254l.073-.019A8.018 8.018 0 0 1 12 6l.25.004a8 8 0 0 1 1.756.25A4.5 4.5 0 0 1 18.5 2ZM12 8a6 6 0 1 0 0 12 6 6 0 0 0 0-12ZM5.5 4a2.5 2.5 0 0 0 0 5l.164-.005.103-.01A8.044 8.044 0 0 1 7.594 7.32l.33-.206A2.5 2.5 0 0 0 5.5 4Zm13 0a2.5 2.5 0 0 0-2.466 2.916l.043.2.028.016a8.039 8.039 0 0 1 2.128 1.852A2.5 2.5 0 1 0 18.5 4Z" fill="#121212"/></g><defs><clipPath id="a"><path fill="#fff" d="M0 0h24v24H0z"/></clipPath></defs></svg>