<svg width="24" height="24" fill="none" xmlns="http://www.w3.org/2000/svg"><g clip-path="url(#a)"><path d="m15.84 12.691-.067.02c-.134.04-.274.06-.414.062-.61 0-.954-.412-.77-.921.136-.372.491-.686.925-.831.672-.245 1.142-.804 1.142-1.455 0-.877-.853-1.587-1.905-1.587s-1.904.71-1.904 1.587v4.868c0 1.17-.679 2.197-1.694 2.778-.58.33-1.236.503-1.904.502-1.984 0-3.598-1.471-3.598-3.28 0-.576.164-1.117.451-1.587.444-.73 1.184-1.287 2.07-1.541.149-.047.304-.072.46-.073.612 0 .958.414.773.924-.126.347-.466.645-.861.803a2.151 2.151 0 0 0-.139.052c-.628.26-1.061.798-1.061 1.422 0 .877.853 1.587 1.905 1.587s1.904-.71 1.904-1.587V9.566c0-1.17.679-2.197 1.694-2.778a3.829 3.829 0 0 1 1.904-.502c1.984 0 3.598 1.471 3.598 3.28 0 .576-.164 1.117-.451 1.587-.442.726-1.178 1.282-2.058 1.538ZM2 12c0 5.523 4.477 10 10 10s10-4.477 10-10S17.523 2 12 2 2 6.477 2 12Z" fill="#121212"/></g><defs><clipPath id="a"><path fill="#fff" d="M0 0h24v24H0z"/></clipPath></defs></svg>