<svg xmlns="http://www.w3.org/2000/svg" width="24" height="24" fill="none"><g clip-path="url(#a)"><g><path fill="#121212" d="M12 22C6.477 22 2 17.523 2 12C2 6.477 6.477 2 12 2C17.523 2 22 6.477 22 12C22 17.523 17.523 22 12 22ZM10.05 11C10.1366 10.5747 10.3325 10.1792 10.6184 9.85258C10.9042 9.52593 11.2702 9.27933 11.6803 9.13706C12.0903 8.99478 12.5304 8.96172 12.9571 9.04114C13.3839 9.12056 13.7826 9.30972 14.114 9.59L15.815 8.457C15.2309 7.82076 14.476 7.36606 13.6405 7.14717C12.805 6.92829 11.9242 6.95447 11.1031 7.22259C10.2821 7.49072 9.55559 7.98945 9.01031 8.65926C8.46502 9.32907 8.12402 10.1417 8.028 11H7V13H8.027C8.12285 13.8586 8.46382 14.6714 9.00916 15.3414C9.55451 16.0114 10.2812 16.5103 11.1024 16.7784C11.9236 17.0466 12.8047 17.0727 13.6404 16.8536C14.476 16.6345 15.2309 16.1796 15.815 15.543L14.114 14.409C13.7826 14.6893 13.384 14.8785 12.9573 14.9579C12.5307 15.0374 12.0907 15.0044 11.6806 14.8623C11.2705 14.7201 10.9046 14.4736 10.6186 14.1471C10.3327 13.8206 10.1368 13.4252 10.05 13L15 13.001V11.001H10.05V11Z"/></g></g><defs><clipPath id="a"><rect width="24" height="24" fill="white"/></clipPath></defs></svg>