<svg width="24" height="24" fill="none" xmlns="http://www.w3.org/2000/svg"><g clip-path="url(#a)"><path d="M8.67 5.007a7 7 0 0 1 7.55-3.901 4.5 4.5 0 0 0 5.674 5.674c.07.396.106.804.106 1.22a6.968 6.968 0 0 1-.865 3.373A5.5 5.5 0 0 1 17.5 21H9a8 8 0 0 1-.33-15.993Zm2.177.207a8.016 8.016 0 0 1 5.61 4.885 5.53 5.53 0 0 1 2.96.245c.226-.425.393-.885.488-1.37a6.502 6.502 0 0 1-5.878-5.88 5.003 5.003 0 0 0-3.18 2.12ZM17.5 19a3.5 3.5 0 1 0-2.5-5.95V13a6 6 0 1 0-6 6h8.5Z" fill="#121212"/></g><defs><clipPath id="a"><path fill="#fff" d="M0 0h24v24H0z"/></clipPath></defs></svg>