<svg width="24" height="24" fill="none" xmlns="http://www.w3.org/2000/svg"><g clip-path="url(#a)"><path d="M4 13.256V12H2v-2h6.365L11.2 8h3.491L13.6 5H11V3h4l1.092 3H20v3h-2.816l1.456 4.002a4.5 4.5 0 1 1-1.985.392L15.419 10h-.947l-1.582 5.87-.002-.001.002.006-2.925 1.064A4.5 4.5 0 1 1 4 13.256Zm2-.229a4.5 4.5 0 0 1 3.281 2.033l1.957-.713L12.403 10h-.547L9 12H6v1.027ZM5.5 20a2.5 2.5 0 1 0 0-5 2.5 2.5 0 0 0 0 5Zm13 0a2.5 2.5 0 1 0 0-5 2.5 2.5 0 0 0 0 5Z" fill="#121212"/></g><defs><clipPath id="a"><path fill="#fff" d="M0 0h24v24H0z"/></clipPath></defs></svg>