<svg xmlns="http://www.w3.org/2000/svg" width="24" height="24" fill="none"><g clip-path="url(#a)"><g><path fill="currentColor" d="M10.4211 11.375C10.1271 12.403 10.4331 13.439 11.2051 14.028C12.2661 14.838 13.7701 14.328 14.0791 13.033C14.1591 12.696 14.1821 12.311 14.1061 11.977C13.8761 10.976 13.5861 9.98902 13.3141 8.98102C11.9841 9.13502 10.7711 10.153 10.4211 11.375ZM15.9691 11.088C16.2421 12.1 16.2541 13.105 15.8421 14.088C14.7141 16.778 11.1211 17.228 9.26906 14.914C7.96706 13.287 7.98906 10.953 9.32906 9.18002C10.1091 8.14802 11.1331 7.47302 12.3771 7.12602L12.7561 7.02202C12.6721 6.60702 12.5681 6.20602 12.5131 5.79802C12.3371 4.48102 13.0251 3.29502 14.2571 2.75802C15.4831 2.22302 16.9651 2.54202 17.7871 3.51802C18.1931 3.99702 18.1821 4.59802 17.7621 4.98202C17.3501 5.35902 16.7661 5.32802 16.3271 4.89202C16.0801 4.64602 15.8171 4.45202 15.4501 4.45602C14.9251 4.46202 14.4631 4.87402 14.5051 5.39302C14.5421 5.86102 14.6781 6.32302 14.8051 6.77902C14.8271 6.85702 15.0211 6.91402 15.1431 6.93202C16.4771 7.12902 17.6471 7.66302 18.6151 8.60802C21.1731 11.101 21.4761 15.139 19.2871 18.048C17.7581 20.08 15.6771 21.216 13.1601 21.457C8.53906 21.897 4.49606 18.927 3.46006 14.399C2.51506 10.255 4.84006 5.83102 8.79506 4.25002C9.38106 4.01602 9.93806 4.21902 10.1661 4.74802C10.3981 5.28502 10.1471 5.83402 9.55606 6.09802C7.18806 7.15802 5.73906 8.95302 5.34106 11.522C4.80806 14.955 6.99706 18.298 10.3411 19.242C13.0641 20.012 15.9991 19.076 17.6491 16.912C19.2351 14.832 19.0491 11.813 17.2221 10.039C16.7153 9.54528 16.086 9.1956 15.3991 9.02602C15.5971 9.74202 15.7881 10.414 15.9691 11.088Z"/></g></g><defs><clipPath id="a"><rect width="24" height="24" fill="#fff"/></clipPath></defs></svg>