<svg width="24" height="24" fill="none" xmlns="http://www.w3.org/2000/svg"><g clip-path="url(#a)"><path d="m11.29 3.814 2.02 5.707.395 1.116.007-4.81.01-4.818h4.27L18 11.871c.003 5.98-.003 10.89-.015 10.9-.012.009-.209 0-.436-.027a48.722 48.722 0 0 0-3.34-.282c-.212-.008-.424-.02-.636-.038-.003-.004-.273-.762-.776-2.184v-.004l-2.144-6.061-.34-.954-.008 4.586c-.006 4.365-.01 4.61-.057 4.61-.163 0-1.57.09-2.04.136-.308.027-.926.09-1.37.145-.446.051-.816.085-.823.078C6.006 22.77 6 17.867 6 11.883V1.002h.005V1h4.288l.028.08c.007.016.065.176.157.437l.641 1.778.173.496-.001.023h-.001Z" fill="#121212"/></g><defs><clipPath id="a"><path fill="#fff" d="M0 0h24v24H0z"/></clipPath></defs></svg>