<svg xmlns="http://www.w3.org/2000/svg" width="24" height="24" fill="none"><g clip-path="url(#a)"><g><path fill="#121212" d="M12 1.5C13.321 1.5 14.484 1.848 15.447 2.494C16.41 3.139 17.173 4.082 17.696 5.272C18.218 6.462 18.5 7.897 18.5 9.529V14.471C18.5 16.103 18.218 17.539 17.696 18.728C17.173 19.918 16.41 20.861 15.446 21.506C14.484 22.152 13.321 22.5 12 22.5C10.679 22.5 9.516 22.152 8.553 21.506C7.59 20.861 6.827 19.918 6.304 18.728C5.782 17.538 5.5 16.103 5.5 14.471V9.529C5.5 7.897 5.782 6.461 6.304 5.272C6.827 4.082 7.59 3.139 8.554 2.494C9.515 1.848 10.678 1.5 12 1.5ZM12 3.5C11.084 3.5 10.306 3.726 9.667 4.155C9.03 4.582 8.509 5.225 8.135 6.075C7.723 7.015 7.5 8.183 7.5 9.529V14.471C7.5 15.817 7.723 16.985 8.135 17.924C8.509 18.775 9.03 19.418 9.667 19.845C10.306 20.274 11.084 20.5 12 20.5C12.916 20.5 13.694 20.274 14.333 19.845C14.97 19.418 15.491 18.775 15.865 17.925C16.277 16.985 16.5 15.817 16.5 14.471V9.529C16.5 8.183 16.277 7.015 15.865 6.076C15.491 5.225 14.97 4.582 14.333 4.155C13.694 3.726 12.916 3.5 12 3.5Z"/></g></g><defs><clipPath id="a"><rect width="24" height="24" fill="white"/></clipPath></defs></svg>