<svg xmlns="http://www.w3.org/2000/svg" width="24" height="24" fill="none"><g clip-path="url(#a)"><g><path fill="currentColor" d="M16 7.5C16 6.43913 15.5786 5.42172 14.8284 4.67157C14.0783 3.92143 13.0609 3.5 12 3.5C10.9391 3.5 9.92172 3.92143 9.17157 4.67157C8.42143 5.42172 8 6.43913 8 7.5H6C6.00004 6.53988 6.23048 5.59379 6.67199 4.7412C7.11349 3.88861 7.75314 3.15442 8.53723 2.60031C9.32132 2.0462 10.2269 1.68834 11.178 1.5568C12.1291 1.42527 13.0978 1.52389 14.0029 1.84439C14.9079 2.16488 15.7228 2.6979 16.3792 3.39865C17.0355 4.0994 17.5141 4.94743 17.7747 5.8715C18.0353 6.79557 18.0704 7.76869 17.877 8.70912C17.6835 9.64955 17.2672 10.5298 16.663 11.276L9.343 19.999L18 20V22H6V20.873L15.064 10.071C15.6699 9.35145 16.0015 8.44065 16 7.5Z"/></g></g><defs><clipPath id="a"><rect width="24" height="24" fill="#fff"/></clipPath></defs></svg>