<svg xmlns="http://www.w3.org/2000/svg" width="24" height="24" fill="none"><g clip-path="url(#a)"><g><path fill="currentColor" d="M11.9995 15C16.0795 15 19.4455 18.054 19.9375 22H4.06152C4.55352 18.054 7.91952 15 11.9995 15ZM10.1865 17.28C8.75252 17.734 7.54552 18.713 6.79952 20H11.9995L10.1865 17.28ZM13.8135 17.28L11.9995 20H17.1985C16.4535 18.713 15.2465 17.734 13.8135 17.28ZM17.9995 2V8C17.9995 11.314 15.3135 14 11.9995 14C8.68552 14 5.99952 11.314 5.99952 8V2H17.9995ZM7.99952 8C7.99952 10.21 9.78952 12 11.9995 12C14.2095 12 15.9995 10.21 15.9995 8H7.99952ZM15.9995 4H7.99952V6H15.9995V4Z"/></g></g><defs><clipPath id="a"><rect width="24" height="24" fill="#fff"/></clipPath></defs></svg>