<svg width="24" height="24" fill="none" xmlns="http://www.w3.org/2000/svg"><g clip-path="url(#a)"><path d="M14.766 19.51a8.003 8.003 0 0 0 0-15.02C16.71 5.977 18 8.935 18 12c0 3.065-1.289 6.024-3.234 7.51ZM9.234 4.49a8.003 8.003 0 0 0 0 15.02C7.29 18.023 6 15.065 6 12c0-3.065 1.289-6.024 3.234-7.51ZM12 22C6.477 22 2 17.523 2 12S6.477 2 12 2s10 4.477 10 10-4.477 10-10 10Zm0-3.5c2 0 4-3.033 4-6.5s-2-6.5-4-6.5S8 8.533 8 12s2 6.5 4 6.5Z" /></g><defs><clipPath id="a"><path fill="#fff" d="M0 0h24v24H0z"/></clipPath></defs></svg>