<svg width="24" height="24" fill="none" xmlns="http://www.w3.org/2000/svg"><g clip-path="url(#a)"><path d="M15 3a1 1 0 0 1 1 1v4a1 1 0 0 1-1 1h-2v2h4a1 1 0 0 1 1 1v3h2a1 1 0 0 1 1 1v4a1 1 0 0 1-1 1h-6a1 1 0 0 1-1-1v-4a1 1 0 0 1 1-1h2v-2H8v2h2a1 1 0 0 1 1 1v4a1 1 0 0 1-1 1H4a1 1 0 0 1-1-1v-4a1 1 0 0 1 1-1h2v-3a1 1 0 0 1 1-1h4V9H9a1 1 0 0 1-1-1V4a1 1 0 0 1 1-1h6ZM9 17H5v2h4v-2Zm10 0h-4v2h4v-2ZM14 5h-4v2h4V5Z" fill="#121212"/></g><defs><clipPath id="a"><path fill="#fff" d="M0 0h24v24H0z"/></clipPath></defs></svg>