<svg xmlns="http://www.w3.org/2000/svg" width="24" height="24" fill="none"><g clip-path="url(#a)"><g><path fill="currentColor" d="M5.76399 8.00004L5.46899 7.27004C5.41978 7.14824 5.39505 7.01794 5.3962 6.88658C5.39736 6.75522 5.42439 6.62538 5.47574 6.50447C5.5271 6.38356 5.60177 6.27395 5.6955 6.18191C5.78923 6.08986 5.90017 6.01719 6.02199 5.96804L15.294 2.22204C15.5397 2.1229 15.8148 2.12535 16.0587 2.22885C16.3026 2.33235 16.4955 2.52843 16.595 2.77404L22.215 16.682C22.2642 16.8038 22.2889 16.9341 22.2878 17.0655C22.2866 17.1969 22.2596 17.3267 22.2082 17.4476C22.1569 17.5685 22.0822 17.6781 21.9885 17.7702C21.8948 17.8622 21.7838 17.9349 21.662 17.984L12.39 21.73C12.2682 21.7793 12.1379 21.804 12.0065 21.8028C11.8752 21.8017 11.7453 21.7746 11.6244 21.7233C11.5035 21.6719 11.3939 21.5973 11.3019 21.5035C11.2098 21.4098 11.1371 21.2989 11.088 21.177L11 20.96V21H6.99999C6.73478 21 6.48042 20.8947 6.29289 20.7071C6.10535 20.5196 5.99999 20.2653 5.99999 20V19.73L2.64999 18.377C2.40414 18.2776 2.20787 18.0845 2.10435 17.8404C2.00083 17.5962 1.99854 17.3209 2.09799 17.075L5.76399 8.00004ZM7.99999 19H10.209L7.99999 13.533V19ZM5.99999 12.756L4.32699 16.897L5.99999 17.608V12.756ZM7.69799 7.44704L12.568 19.501L19.986 16.504L15.116 4.45104L7.69799 7.44704ZM10.676 9.48004C10.43 9.57936 10.1546 9.5769 9.91046 9.47319C9.66629 9.36948 9.47332 9.17303 9.37399 8.92704C9.27467 8.68105 9.27713 8.40568 9.38084 8.16151C9.48455 7.91734 9.68101 7.72436 9.92699 7.62504C10.173 7.52558 10.4484 7.52792 10.6927 7.63153C10.9369 7.73514 11.13 7.93155 11.2295 8.17754C11.3289 8.42353 11.3266 8.69895 11.223 8.94321C11.1194 9.18748 10.923 9.38058 10.677 9.48004H10.676Z"/></g></g><defs><clipPath id="a"><rect width="24" height="24" fill="#fff"/></clipPath></defs></svg>