<svg width="24" height="24" fill="none" xmlns="http://www.w3.org/2000/svg"><g clip-path="url(#a)"><path d="M7 9a2.5 2.5 0 1 0 0-5 2.5 2.5 0 0 0 0 5Zm0 2a4.5 4.5 0 1 1 0-9.002A4.5 4.5 0 0 1 7 11Zm10.5 2a2 2 0 1 0 0-4 2 2 0 0 0 0 4Zm0 2a4 4 0 1 1 0-8 4 4 0 0 1 0 8Zm2.5 6v-.5a2.5 2.5 0 0 0-5 0v.5h-2v-.5a4.501 4.501 0 0 1 8.657-1.722c.227.546.343 1.131.343 1.722v.5h-2Zm-10 0v-4a3 3 0 0 0-6 0v4H2v-4a5 5 0 1 1 10 0v4h-2Z" fill="#121212"/></g><defs><clipPath id="a"><path fill="#fff" d="M0 0h24v24H0z"/></clipPath></defs></svg>