<svg xmlns="http://www.w3.org/2000/svg" width="24" height="24" fill="none"><g clip-path="url(#a)"><g><path fill="currentColor" d="M9.975 8.97501C10.4645 8.48551 10.7978 7.86187 10.9328 7.18294C11.0678 6.50402 10.9985 5.8003 10.7335 5.16078C10.4686 4.52126 10.02 3.97466 9.44446 3.59009C8.8689 3.20552 8.19222 3.00026 7.5 3.00026C6.80778 3.00026 6.13111 3.20552 5.55554 3.59009C4.97998 3.97466 4.53138 4.52126 4.26646 5.16078C4.00154 5.8003 3.93221 6.50402 4.06723 7.18294C4.20225 7.86187 4.53555 8.48551 5.025 8.97501L7.5 11.45L9.975 8.97501ZM7.5 14.278L3.61 10.39C2.84107 9.62071 2.3175 8.6407 2.10549 7.57388C1.89349 6.50705 2.00255 5.40132 2.41891 4.39648C2.83527 3.39163 3.54022 2.5328 4.44463 1.92857C5.34905 1.32434 6.41232 1.00183 7.5 1.00183C8.58769 1.00183 9.65096 1.32434 10.5554 1.92857C11.4598 2.5328 12.1647 3.39163 12.5811 4.39648C12.9975 5.40132 13.1065 6.50705 12.8945 7.57388C12.6825 8.6407 12.1589 9.62071 11.39 10.39L7.5 14.28V14.278ZM7.5 8.00001C7.10218 8.00001 6.72065 7.84197 6.43934 7.56067C6.15804 7.27936 6 6.89783 6 6.50001C6 6.10218 6.15804 5.72065 6.43934 5.43935C6.72065 5.15804 7.10218 5.00001 7.5 5.00001C7.89783 5.00001 8.27936 5.15804 8.56066 5.43935C8.84197 5.72065 9 6.10218 9 6.50001C9 6.89783 8.84197 7.27936 8.56066 7.56067C8.27936 7.84197 7.89783 8.00001 7.5 8.00001ZM16.5 20.45L18.975 17.975C19.4645 17.4855 19.7978 16.8619 19.9328 16.1829C20.0678 15.504 19.9985 14.8003 19.7335 14.1608C19.4686 13.5213 19.02 12.9747 18.4445 12.5901C17.8689 12.2055 17.1922 12.0003 16.5 12.0003C15.8078 12.0003 15.1311 12.2055 14.5555 12.5901C13.98 12.9747 13.5314 13.5213 13.2665 14.1608C13.0015 14.8003 12.9322 15.504 13.0672 16.1829C13.2022 16.8619 13.5356 17.4855 14.025 17.975L16.5 20.45ZM20.39 19.39L16.5 23.278L12.61 19.389C11.8411 18.6197 11.3175 17.6397 11.1055 16.5729C10.8935 15.5061 11.0026 14.4003 11.4189 13.3955C11.8353 12.3906 12.5402 11.5318 13.4446 10.9276C14.349 10.3233 15.4123 10.0008 16.5 10.0008C17.5877 10.0008 18.651 10.3233 19.5554 10.9276C20.4598 11.5318 21.1647 12.3906 21.5811 13.3955C21.9974 14.4003 22.1065 15.5061 21.8945 16.5729C21.6825 17.6397 21.1589 18.6197 20.39 19.389V19.39ZM16.5 17C16.1022 17 15.7206 16.842 15.4393 16.5607C15.158 16.2794 15 15.8978 15 15.5C15 15.1022 15.158 14.7206 15.4393 14.4393C15.7206 14.158 16.1022 14 16.5 14C16.8978 14 17.2794 14.158 17.5607 14.4393C17.842 14.7206 18 15.1022 18 15.5C18 15.8978 17.842 16.2794 17.5607 16.5607C17.2794 16.842 16.8978 17 16.5 17Z"/></g></g><defs><clipPath id="a"><rect width="24" height="24" fill="#fff"/></clipPath></defs></svg>