<svg width="24" height="24" fill="none" xmlns="http://www.w3.org/2000/svg"><g clip-path="url(#a)"><path d="M11.5 2a9.5 9.5 0 0 1 9.5 9.5 9.46 9.46 0 0 1-1.003 4.254l2.463 2.464a1 1 0 0 1 0 1.414l-2.828 2.828a1 1 0 0 1-1.414 0l-2.464-2.463A9.46 9.46 0 0 1 11.5 21a9.5 9.5 0 0 1 0-19Zm5.303 13.388-1.414 1.414 3.536 3.535 1.414-1.414-3.536-3.535Zm1.864-6.105-9.384 9.384A7.51 7.51 0 0 0 11.5 19a7.481 7.481 0 0 0 2.74-.516l-.972-.974a1 1 0 0 1 0-1.414l2.828-2.828a1 1 0 0 1 1.414 0l.974.972A7.481 7.481 0 0 0 19 11.5c0-.772-.117-1.516-.333-2.217ZM11.5 4a7.5 7.5 0 0 0-4.136 13.757L17.757 7.364A7.493 7.493 0 0 0 11.5 4Z" fill="currentColor"/></g><defs><clipPath id="a"><path fill="#fff" d="M0 0h24v24H0z"/></clipPath></defs></svg>