<svg xmlns="http://www.w3.org/2000/svg" width="24" height="24" fill="none"><g clip-path="url(#a)"><g><path fill="currentColor" d="M22 13.5V21C22 21.2652 21.8946 21.5196 21.7071 21.7071C21.5196 21.8946 21.2652 22 21 22H20C19.7348 22 19.4804 21.8946 19.2929 21.7071C19.1054 21.5196 19 21.2652 19 21V20H5V21C5 21.2652 4.89464 21.5196 4.70711 21.7071C4.51957 21.8946 4.26522 22 4 22H3C2.73478 22 2.48043 21.8946 2.29289 21.7071C2.10536 21.5196 2 21.2652 2 21V13.5L0.757 13.19C0.540753 13.1358 0.348809 13.011 0.211655 12.8352C0.0745022 12.6595 5.86043e-06 12.4429 0 12.22L0 11.5C0 11.3674 0.0526784 11.2402 0.146447 11.1464C0.240215 11.0527 0.367392 11 0.5 11H2.429L4.48 6.212C4.63426 5.85216 4.89074 5.5455 5.21764 5.33005C5.54454 5.11461 5.92749 4.99985 6.319 5H8V3H11V5H13V3H16V5H17.681C18.0723 5.00004 18.4551 5.1149 18.7818 5.33033C19.1085 5.54576 19.3648 5.85231 19.519 6.212L21.571 11H23.5C23.6326 11 23.7598 11.0527 23.8536 11.1464C23.9473 11.2402 24 11.3674 24 11.5V12.22C24 12.4429 23.9255 12.6595 23.7883 12.8352C23.6512 13.011 23.4592 13.1358 23.243 13.19L22 13.5ZM4 15V17C4 17.2652 4.10536 17.5196 4.29289 17.7071C4.48043 17.8946 4.73478 18 5 18H8.245C8.33134 17.9999 8.41618 17.9774 8.49125 17.9347C8.56631 17.892 8.62905 17.8307 8.67336 17.7566C8.71766 17.6825 8.74202 17.5981 8.74406 17.5118C8.7461 17.4255 8.72575 17.3401 8.685 17.264C7.88 15.754 6.318 15 4 15ZM20 15C17.683 15 16.121 15.755 15.314 17.264C15.2732 17.3402 15.2529 17.4257 15.2549 17.5121C15.257 17.5985 15.2815 17.6829 15.3259 17.757C15.3703 17.8311 15.4332 17.8925 15.5084 17.9351C15.5836 17.9777 15.6686 18 15.755 18H19C19.2652 18 19.5196 17.8946 19.7071 17.7071C19.8946 17.5196 20 17.2652 20 17V15ZM6 7L4.549 10.629C4.4884 10.7807 4.46588 10.9449 4.4834 11.1073C4.50092 11.2697 4.55795 11.4253 4.64951 11.5605C4.74106 11.6958 4.86435 11.8066 5.0086 11.8832C5.15285 11.9598 5.31367 11.9999 5.477 12H18.523C18.6863 11.9999 18.8471 11.9598 18.9914 11.8832C19.1357 11.8066 19.2589 11.6958 19.3505 11.5605C19.442 11.4253 19.4991 11.2697 19.5166 11.1073C19.5341 10.9449 19.5116 10.7807 19.451 10.629L18 7H6Z"/></g></g><defs><clipPath id="a"><rect width="24" height="24" fill="#fff"/></clipPath></defs></svg>