<svg xmlns="http://www.w3.org/2000/svg" width="24" height="24" fill="none"><g clip-path="url(#a)"><g><path fill="currentColor" d="M10.9 2.10001L20.799 3.51501L22.213 13.415L13.021 22.607C12.8335 22.7945 12.5792 22.8998 12.314 22.8998C12.0488 22.8998 11.7945 22.7945 11.607 22.607L1.707 12.707C1.51953 12.5195 1.41422 12.2652 1.41422 12C1.41422 11.7348 1.51953 11.4805 1.707 11.293L10.9 2.10001ZM11.607 4.22201L3.828 12L12.314 20.485L20.092 12.707L19.032 5.28201L11.607 4.22201ZM13.727 10.586C13.3519 10.2107 13.1411 9.70179 13.1412 9.17115C13.1413 8.90841 13.1931 8.64825 13.2937 8.40552C13.3943 8.1628 13.5417 7.94226 13.7275 7.75651C13.9133 7.57075 14.1339 7.42342 14.3767 7.32291C14.6194 7.22241 14.8796 7.1707 15.1424 7.17075C15.673 7.17084 16.1819 7.38172 16.557 7.75701C16.9321 8.13229 17.1429 8.64123 17.1428 9.17186C17.1427 9.70249 16.9318 10.2114 16.5565 10.5865C16.1812 10.9617 15.6723 11.1724 15.1416 11.1723C14.611 11.1722 14.1022 10.9613 13.727 10.586Z"/></g></g><defs><clipPath id="a"><rect width="24" height="24" fill="#fff"/></clipPath></defs></svg>