<svg xmlns="http://www.w3.org/2000/svg" width="24" height="24" fill="none"><g clip-path="url(#a)"><g><path fill="#121212" d="M11 2C15.068 2 18.426 5.036 18.934 8.965L21.184 12.504C21.332 12.737 21.302 13.084 20.959 13.232L19 14.07V17C19 18.105 18.105 19 17 19H15.001L15 22H6V18.306C6 17.126 5.564 16.009 4.756 15.001C3.657 13.631 3 11.892 3 10C3 5.582 6.582 2 11 2ZM11 7C10.448 7 10 7.448 10 8V8.999L9 9C8.448 9 8 9.448 8 10C8 10.552 8.448 11 9 11L10 10.999V12C10 12.552 10.448 13 11 13C11.552 13 12 12.552 12 12V11H13C13.552 11 14 10.552 14 10C14 9.448 13.552 9 13 9H12V8C12 7.448 11.552 7 11 7Z"/></g></g><defs><clipPath id="a"><rect width="24" height="24" fill="white"/></clipPath></defs></svg>