<svg width="24" height="24" fill="none" xmlns="http://www.w3.org/2000/svg"><g clip-path="url(#a)"><path d="m17.535 12.514-.696-1.796c0-.021.01-.375.01-.558C16.85 7.088 15.446 4 12 4s-4.848 3.088-4.848 6.16c0 .183.01.537.01.558l-.696 1.796c-.19.515-.38 1.05-.517 1.51-.657 2.189-.444 3.095-.282 3.115.348.043 1.354-1.648 1.354-1.648 0 .98.488 2.258 1.542 3.18-.394.127-.878.32-1.188.557-.28.214-.245.431-.194.52.22.385 3.79.245 4.82.125 1.03.12 4.6.26 4.82-.126.05-.088.085-.305-.194-.519-.31-.237-.795-.43-1.19-.556 1.055-.923 1.542-2.202 1.542-3.181 0 0 1.007 1.691 1.355 1.648.162-.02.378-.928-.283-3.116-.14-.463-.325-.994-.516-1.509Zm1.021 8.227c-.373.652-.833.892-1.438 1.057a4.91 4.91 0 0 1-.794.138c-.44.045-.986.065-1.613.064a33.261 33.261 0 0 1-2.71-.116c-.692.065-1.785.114-2.71.116a16.073 16.073 0 0 1-1.614-.064 4.933 4.933 0 0 1-.793-.138c-.605-.164-1.065-.405-1.44-1.059a2.274 2.274 0 0 1-.239-1.652c-.592-.132-1-.483-1.279-.911a2.43 2.43 0 0 1-.309-.71 4.027 4.027 0 0 1-.116-1.106c.013-.785.187-1.762.532-2.912.14-.466.327-1.008.568-1.655l.553-1.43a15.436 15.436 0 0 1-.002-.203C5.152 5.605 7.588 2 12 2c4.413 0 6.848 3.605 6.848 8.16v.203l.552 1.43.01.026c.225.606.413 1.153.556 1.626.348 1.15.522 2.129.535 2.916.007.407-.03.776-.118 1.108a2.38 2.38 0 0 1-.31.708c-.276.427-.684.776-1.277.91.13.554.055 1.14-.24 1.654Z" /></g><defs><clipPath id="a"><path fill="#fff" d="M0 0h24v24H0z"/></clipPath></defs></svg>