<svg xmlns="http://www.w3.org/2000/svg" width="24" height="24" fill="none"><g clip-path="url(#a)"><g><path fill="#121212" d="M17.5353 12.514L16.8393 10.718C16.8393 10.697 16.8493 10.343 16.8493 10.16C16.8483 7.088 15.4463 4 12.0003 4C8.55435 4 7.15235 7.088 7.15235 10.16C7.15235 10.343 7.16135 10.697 7.16235 10.718L6.46635 12.514C6.27635 13.029 6.08635 13.564 5.94935 14.024C5.29235 16.213 5.50535 17.119 5.66735 17.139C6.01535 17.182 7.02135 15.491 7.02135 15.491C7.02135 16.471 7.50935 17.749 8.56335 18.671C8.16935 18.798 7.68535 18.991 7.37535 19.228C7.09535 19.442 7.13035 19.659 7.18135 19.748C7.40135 20.133 10.9713 19.993 12.0013 19.873C13.0313 19.993 16.6003 20.133 16.8213 19.747C16.8713 19.659 16.9064 19.442 16.6273 19.228C16.3163 18.991 15.8323 18.798 15.4373 18.672C16.4923 17.749 16.9793 16.47 16.9793 15.491C16.9793 15.491 17.9863 17.182 18.3343 17.139C18.4963 17.119 18.7123 16.211 18.0513 14.023C17.9113 13.56 17.7263 13.029 17.5353 12.514ZM18.5563 20.741C18.1833 21.393 17.7233 21.633 17.1183 21.798C16.8783 21.863 16.6203 21.906 16.3243 21.936C15.8843 21.981 15.3383 22.001 14.7113 22C13.8068 21.9982 12.9027 21.9595 12.0013 21.884C11.3093 21.949 10.2163 21.998 9.29135 22C8.75262 22.0057 8.21394 21.9844 7.67735 21.936C7.40969 21.9117 7.14448 21.8655 6.88435 21.798C6.27935 21.634 5.81935 21.393 5.44435 20.739C5.15815 20.2385 5.07272 19.6481 5.20535 19.087C4.61335 18.955 4.20435 18.604 3.92635 18.176C3.78606 17.9574 3.68174 17.7177 3.61735 17.466C3.52773 17.1045 3.48869 16.7323 3.50135 16.36C3.51435 15.575 3.68835 14.598 4.03335 13.448C4.17335 12.982 4.36035 12.44 4.60135 11.793L5.15435 10.363C5.15324 10.2953 5.15257 10.2277 5.15235 10.16C5.15235 5.605 7.58835 2 12.0003 2C16.4133 2 18.8483 5.605 18.8483 10.16L18.8473 10.363L19.4003 11.793L19.4103 11.819C19.6353 12.425 19.8233 12.972 19.9663 13.445C20.3143 14.595 20.4883 15.574 20.5013 16.361C20.5083 16.768 20.4713 17.137 20.3833 17.469C20.3173 17.715 20.2223 17.949 20.0733 18.177C19.7973 18.604 19.3893 18.953 18.7963 19.087C18.9263 19.641 18.8513 20.227 18.5563 20.741Z"/></g></g><defs><clipPath id="a"><rect width="24" height="24" fill="white"/></clipPath></defs></svg>