<svg width="24" height="24" fill="none" xmlns="http://www.w3.org/2000/svg"><g clip-path="url(#a)"><path d="M14.448 16.24a21.887 21.887 0 0 1-1.747 2.175c1.672 1.623 3.228 2.383 4.09 1.884.864-.498.983-2.225.414-4.484-.853.19-1.78.334-2.757.425Zm-1.31.087c-.758.031-1.518.031-2.276 0 .377.492.758.948 1.138 1.364.38-.416.76-.872 1.138-1.364Zm5.04-7.894c2.665.764 4.405 2.034 4.405 3.567 0 1.533-1.74 2.803-4.405 3.567.67 2.69.441 4.832-.886 5.598-1.328.767-3.298-.105-5.292-2.03-1.994 1.925-3.964 2.797-5.292 2.03-1.327-.766-1.557-2.908-.886-5.598-2.665-.764-4.405-2.034-4.405-3.567 0-1.533 1.74-2.803 4.405-3.567-.67-2.69-.441-4.832.886-5.598 1.328-.767 3.298.105 5.292 2.03 1.994-1.925 3.964-2.797 5.292-2.03 1.327.766 1.557 2.908.886 5.598Zm-.973-.248c.57-2.26.45-3.986-.413-4.484-.863-.499-2.419.261-4.09 1.884a22.049 22.049 0 0 1 1.746 2.175c.978.09 1.904.234 2.757.425Zm-10.41 7.63c-.57 2.26-.45 3.986.413 4.484.863.499 2.419-.261 4.09-1.884a21.876 21.876 0 0 1-1.746-2.175 21.896 21.896 0 0 1-2.757-.425Zm4.067-8.142a27.507 27.507 0 0 1 2.276 0c-.36-.47-.74-.925-1.138-1.363-.38.416-.76.872-1.138 1.364v-.001Zm-1.31.087A21.873 21.873 0 0 1 11.3 5.585C9.627 3.962 8.07 3.202 7.209 3.701c-.864.498-.983 2.225-.414 4.484.853-.19 1.78-.334 2.757-.425Zm4.342 7.52A25.382 25.382 0 0 0 15.787 12a25.372 25.372 0 0 0-1.893-3.28 25.369 25.369 0 0 0-3.788 0A25.366 25.366 0 0 0 8.213 12a25.376 25.376 0 0 0 1.893 3.28c1.26.094 2.527.094 3.788 0Zm1.284-.131c.615-.08 1.2-.183 1.75-.304-.18-.564-.384-1.12-.612-1.667a27.54 27.54 0 0 1-1.138 1.97v.001ZM8.822 8.85c-.615.08-1.2.183-1.75.304.17.536.374 1.094.612 1.667a27.5 27.5 0 0 1 1.138-1.97V8.85Zm-1.75 5.994c.55.121 1.135.223 1.75.304a27.532 27.532 0 0 1-1.138-1.97 20.42 20.42 0 0 0-.612 1.666Zm-.978-.245c.261-.834.6-1.708 1.01-2.6a22 22 0 0 1-1.01-2.6c-2.242.637-3.677 1.604-3.677 2.6s1.435 1.963 3.677 2.6Zm10.834-5.445a20.808 20.808 0 0 0-1.75-.304 27.5 27.5 0 0 1 1.138 1.97c.238-.572.442-1.13.612-1.666Zm.978.245a22 22 0 0 1-1.01 2.6c.41.892.749 1.766 1.01 2.6 2.242-.637 3.677-1.604 3.677-2.6s-1.435-1.963-3.677-2.6ZM12 13.88a1.882 1.882 0 0 1-1.737-2.6 1.882 1.882 0 0 1 3.066-.61A1.88 1.88 0 0 1 12 13.88Z" fill="currentColor"/></g><defs><clipPath id="a"><path fill="#fff" d="M0 0h24v24H0z"/></clipPath></defs></svg>