<svg xmlns="http://www.w3.org/2000/svg" width="24" height="24" fill="none"><g clip-path="url(#a)"><g><path fill="currentColor" d="M12 22C6.477 22 2 17.523 2 12C2 6.477 6.477 2 12 2C17.523 2 22 6.477 22 12C22 17.523 17.523 22 12 22ZM18.67 12C18.6597 11.7185 18.5682 11.446 18.4066 11.2154C18.2449 10.9847 18.02 10.8057 17.7589 10.7C17.4978 10.5943 17.2117 10.5664 16.9351 10.6196C16.6585 10.6729 16.4032 10.805 16.2 11C15.0624 10.2267 13.7252 9.7995 12.35 9.77L13 6.65L15.14 7.1C15.1654 7.33648 15.2743 7.55615 15.4471 7.71958C15.6199 7.88301 15.8453 7.9795 16.0829 7.99172C16.3204 8.00394 16.5545 7.9311 16.7432 7.78626C16.9319 7.64143 17.0627 7.4341 17.1123 7.20147C17.1619 6.96885 17.1269 6.72617 17.0137 6.51701C16.9005 6.30784 16.7164 6.14587 16.4945 6.06019C16.2726 5.9745 16.0275 5.9707 15.8031 6.04948C15.5786 6.12825 15.3896 6.28444 15.27 6.49L12.82 6C12.7799 5.99121 12.7385 5.99046 12.6982 5.99779C12.6578 6.00513 12.6193 6.0204 12.5849 6.04272C12.5505 6.06504 12.5208 6.09398 12.4977 6.12784C12.4745 6.16171 12.4583 6.19983 12.45 6.24L11.71 9.71C10.3179 9.73099 8.96227 10.1585 7.81 10.94C7.65584 10.795 7.47199 10.6852 7.27118 10.6182C7.07037 10.5513 6.85741 10.5288 6.64705 10.5524C6.4367 10.5759 6.23398 10.645 6.05295 10.7546C5.87192 10.8643 5.7169 11.0121 5.59864 11.1876C5.48038 11.3632 5.40171 11.5623 5.36808 11.7713C5.33444 11.9803 5.34665 12.1941 5.40385 12.3979C5.46106 12.6017 5.56189 12.7906 5.69936 12.9515C5.83683 13.1125 6.00766 13.2416 6.2 13.33C6.18874 13.4765 6.18874 13.6235 6.2 13.77C6.2 16.01 8.81 17.83 12.03 17.83C15.25 17.83 17.86 16.01 17.86 13.77C17.8713 13.6235 17.8713 13.4765 17.86 13.33C18.1068 13.2073 18.3138 13.0174 18.4571 12.782C18.6005 12.5467 18.6743 12.2755 18.67 12ZM8.67 13C8.67 12.7348 8.77536 12.4804 8.96289 12.2929C9.15043 12.1054 9.40478 12 9.67 12C9.93522 12 10.1896 12.1054 10.3771 12.2929C10.5646 12.4804 10.67 12.7348 10.67 13C10.67 13.2652 10.5646 13.5196 10.3771 13.7071C10.1896 13.8946 9.93522 14 9.67 14C9.40478 14 9.15043 13.8946 8.96289 13.7071C8.77536 13.5196 8.67 13.2652 8.67 13ZM14.48 15.75C13.7705 16.2847 12.8976 16.5568 12.01 16.52C11.1224 16.5568 10.2495 16.2847 9.54 15.75C9.49748 15.6982 9.47575 15.6324 9.47903 15.5655C9.48232 15.4985 9.51039 15.4352 9.55779 15.3878C9.60519 15.3404 9.66852 15.3123 9.73546 15.309C9.80241 15.3057 9.86819 15.3275 9.92 15.37C10.5212 15.811 11.2551 16.0333 12 16C12.7458 16.0406 13.4831 15.8254 14.09 15.39C14.1156 15.3614 14.1468 15.3383 14.1816 15.3222C14.2165 15.3061 14.2543 15.2974 14.2927 15.2965C14.3311 15.2957 14.3693 15.3028 14.4048 15.3173C14.4404 15.3318 14.4725 15.3535 14.4993 15.381C14.5262 15.4085 14.547 15.4412 14.5606 15.4771C14.5743 15.513 14.5804 15.5514 14.5786 15.5897C14.5767 15.6281 14.5671 15.6656 14.5501 15.7001C14.5331 15.7346 14.5093 15.7652 14.48 15.79V15.75ZM14.3 14.04C14.1022 14.04 13.9089 13.9814 13.7444 13.8715C13.58 13.7616 13.4518 13.6054 13.3761 13.4227C13.3004 13.24 13.2806 13.0389 13.3192 12.8449C13.3578 12.6509 13.453 12.4727 13.5929 12.3329C13.7327 12.193 13.9109 12.0978 14.1049 12.0592C14.2989 12.0206 14.5 12.0404 14.6827 12.1161C14.8654 12.1918 15.0216 12.32 15.1315 12.4844C15.2414 12.6489 15.3 12.8422 15.3 13.04C15.3054 13.1755 15.2832 13.3107 15.2348 13.4373C15.1864 13.564 15.1127 13.6795 15.0182 13.7767C14.9237 13.874 14.8104 13.9511 14.6853 14.0032C14.5601 14.0553 14.4256 14.0815 14.29 14.08L14.3 14.04Z"/></g></g><defs><clipPath id="a"><rect width="24" height="24" fill="#fff"/></clipPath></defs></svg>