<svg xmlns="http://www.w3.org/2000/svg" width="24" height="24" fill="none"><g clip-path="url(#a)"><g><path fill="#121212" d="M12 22C6.477 22 2 17.523 2 12C2 6.477 6.477 2 12 2C17.523 2 22 6.477 22 12C22 17.523 17.523 22 12 22ZM16.82 17.076C18.0944 15.8634 18.8655 14.2154 18.9799 12.46C19.0943 10.7046 18.5436 8.97053 17.4373 7.60279C16.3311 6.23505 14.7504 5.33397 13.0099 5.07885C11.2694 4.82373 9.49663 5.23328 8.04439 6.22601C6.59216 7.21873 5.56693 8.72184 5.17274 10.4362C4.77854 12.1506 5.04427 13.9506 5.91706 15.4779C6.78984 17.0052 8.20568 18.1479 9.88283 18.6787C11.56 19.2094 13.3755 19.0892 14.968 18.342L13.993 16.587C13.0059 17.016 11.9067 17.1151 10.8588 16.8694C9.81088 16.6237 8.87022 16.0465 8.17663 15.2235C7.48303 14.4004 7.07353 13.3756 7.009 12.3012C6.94446 11.2268 7.22833 10.1603 7.81842 9.26014C8.4085 8.36001 9.27329 7.67431 10.2843 7.30497C11.2952 6.93564 12.3984 6.90238 13.4297 7.21015C14.4611 7.51792 15.3656 8.15028 16.0089 9.01324C16.6521 9.8762 16.9997 10.9237 17 12H14L16.82 17.076Z"/></g></g><defs><clipPath id="a"><rect width="24" height="24" fill="white"/></clipPath></defs></svg>