<svg xmlns="http://www.w3.org/2000/svg" width="24" height="24" fill="none"><g clip-path="url(#a)"><g><path fill="#121212" d="M21 2V22H19V15H15V8C15 6.4087 15.6321 4.88258 16.7574 3.75736C17.8826 2.63214 19.4087 2 21 2ZM19 4.53C18.17 5 17 6.17 17 8V13H19V4.53ZM9 13.9V22H7V13.9C5.87081 13.6691 4.85599 13.0554 4.12714 12.1625C3.3983 11.2697 3.00014 10.1526 3 9V3H5V10H7V3H9V10H11V3H13V9C12.9999 10.1526 12.6017 11.2697 11.8729 12.1625C11.144 13.0554 10.1292 13.6691 9 13.9Z"/></g></g><defs><clipPath id="a"><rect width="24" height="24" fill="white"/></clipPath></defs></svg>