<svg width="24" height="24" fill="none" xmlns="http://www.w3.org/2000/svg"><g clip-path="url(#a)"><path d="M5.5 21a4.5 4.5 0 1 1 0-9.002A4.5 4.5 0 0 1 5.5 21Zm0-3a1.5 1.5 0 1 0 0-3 1.5 1.5 0 0 0 0 3Zm13 3a4.501 4.501 0 0 1-1.722-8.658 4.501 4.501 0 0 1 4.904 7.34A4.5 4.5 0 0 1 18.5 21Zm0-3a1.5 1.5 0 1 0 0-3 1.5 1.5 0 0 0 0 3Zm-6.969-8.203L13 12v6h-2v-5l-2.719-2.266A2 2 0 0 1 8 7.671l2.828-2.828a2 2 0 0 1 2.829 0l1.414 1.414a6.969 6.969 0 0 0 3.917 1.975l-.01 2.015a8.962 8.962 0 0 1-5.321-2.575L11.53 9.797h.001ZM16 5a2 2 0 1 1 0-4 2 2 0 0 1 0 4Z" fill="currentColor"/></g><defs><clipPath id="a"><path fill="#fff" d="M0 0h24v24H0z"/></clipPath></defs></svg>