<svg width="24" height="24" fill="none" xmlns="http://www.w3.org/2000/svg"><g clip-path="url(#a)"><path d="M5.33 15.929c-.22-.96-.331-1.943-.33-2.929 0-5.088 2.903-9.436 7-11.182C16.097 3.564 19 7.912 19 13c0 1.01-.114 1.991-.33 2.929l2.02 1.796a.5.5 0 0 1 .097.63l-2.458 4.096a.499.499 0 0 1-.782.096l-2.254-2.254a1 1 0 0 0-.707-.293H9.414a1 1 0 0 0-.707.293l-2.254 2.254a.5.5 0 0 1-.782-.096l-2.458-4.095a.5.5 0 0 1 .097-.631l2.02-1.796ZM12 13a2 2 0 1 0 0-4 2 2 0 0 0 0 4Z" fill="#121212"/></g><defs><clipPath id="a"><path fill="#fff" d="M0 0h24v24H0z"/></clipPath></defs></svg>