<svg width="24" height="24" fill="none" xmlns="http://www.w3.org/2000/svg"><g clip-path="url(#a)"><path d="M12 2c5.523 0 10 4.477 10 10 0 2.136-.67 4.116-1.811 5.741L17 12h3a8 8 0 1 0-2.46 5.772l.998 1.795A9.96 9.96 0 0 1 12 22C6.477 22 2 17.523 2 12S6.477 2 12 2Zm0 5a3 3 0 0 1 3 3v1h1v5H8v-5h1v-1a3 3 0 0 1 3-3Zm2 6h-4v1h4v-1Zm-2-4a1 1 0 0 0-.993.883L11 10v1h2v-1a1 1 0 0 0-.883-.993L12 9Z" fill="currentColor"/></g><defs><clipPath id="a"><path fill="#fff" d="M0 0h24v24H0z"/></clipPath></defs></svg>