<svg xmlns="http://www.w3.org/2000/svg" width="24" height="24" fill="none"><g clip-path="url(#a)"><g><path fill="#121212" d="M18 20H6V22H4V20H3C2.73478 20 2.48043 19.8946 2.29289 19.7071C2.10536 19.5196 2 19.2652 2 19V4C2 3.73478 2.10536 3.48043 2.29289 3.29289C2.48043 3.10536 2.73478 3 3 3H21C21.2652 3 21.5196 3.10536 21.7071 3.29289C21.8946 3.48043 22 3.73478 22 4V19C22 19.2652 21.8946 19.5196 21.7071 19.7071C21.5196 19.8946 21.2652 20 21 20H20V22H18V20ZM4 18H20V5H4V18ZM13 13.874V17H11V13.874C10.0595 13.6283 9.24061 13.0486 8.6962 12.2433C8.15179 11.438 7.9191 10.4621 8.04156 9.49778C8.16403 8.53346 8.63329 7.64669 9.36172 7.00303C10.0901 6.35937 11.0279 6.00284 12 6C12.9743 5.99904 13.9154 6.35368 14.6467 6.99737C15.3781 7.64106 15.8493 8.52954 15.9721 9.49605C16.0948 10.4625 15.8606 11.4406 15.3134 12.2467C14.7662 13.0528 13.9436 13.6314 13 13.874ZM12 12C12.5304 12 13.0391 11.7893 13.4142 11.4142C13.7893 11.0391 14 10.5304 14 10C14 9.46957 13.7893 8.96086 13.4142 8.58579C13.0391 8.21071 12.5304 8 12 8C11.4696 8 10.9609 8.21071 10.5858 8.58579C10.2107 8.96086 10 9.46957 10 10C10 10.5304 10.2107 11.0391 10.5858 11.4142C10.9609 11.7893 11.4696 12 12 12Z"/></g></g><defs><clipPath id="a"><rect width="24" height="24" fill="white"/></clipPath></defs></svg>