<svg width="24" height="24" fill="none" xmlns="http://www.w3.org/2000/svg"><g clip-path="url(#a)"><path d="M13 2v1h7v2h-7v14h4v2H7v-2h4V5H4V3h7V2h2ZM5 6.343l2.828 2.829A3.999 3.999 0 0 1 5 16a3.999 3.999 0 0 1-2.828-6.828L5 6.343Zm14 0 2.828 2.829A3.999 3.999 0 0 1 19 16a3.999 3.999 0 0 1-2.828-6.828L19 6.343ZM5 9.172l-1.414 1.414a2 2 0 1 0 2.828 0L5 9.172Zm14 0-1.414 1.414a2 2 0 1 0 2.828 0L19 9.172Z" fill="currentColor"/></g><defs><clipPath id="a"><path fill="#fff" d="M0 0h24v24H0z"/></clipPath></defs></svg>