<svg xmlns="http://www.w3.org/2000/svg" width="24" height="24" fill="none"><g clip-path="url(#a)"><g><path fill="currentColor" d="M4.257 5.67101L6.394 7.80801C5.33417 9.22533 4.85053 10.9915 5.0404 12.751C5.23027 14.5106 6.07957 16.1329 7.41736 17.2915C8.75516 18.4501 10.4821 19.0589 12.2508 18.9955C14.0194 18.9321 15.6983 18.2012 16.9497 16.9498C18.2011 15.6984 18.9321 14.0194 18.9955 12.2508C19.0589 10.4822 18.45 8.75517 17.2914 7.41738C16.1329 6.07958 14.5105 5.23028 12.751 5.04041C10.9915 4.85054 9.22532 5.33419 7.808 6.39401L5.67 4.25701C7.45476 2.79399 9.69223 1.9962 12 2.00001C17.523 2.00001 22 6.47701 22 12C22 17.523 17.523 22 12 22C6.477 22 2 17.523 2 12C2 9.59901 2.846 7.39501 4.257 5.67101ZM7.828 9.24301L12 13.414L13.414 12L9.243 7.82801C10.2767 7.14475 11.5272 6.86964 12.7522 7.05603C13.9772 7.24241 15.0894 7.87702 15.8731 8.8368C16.6567 9.79658 17.0561 11.0132 16.9938 12.2507C16.9315 13.4882 16.4118 14.6585 15.5357 15.5347C14.6595 16.4108 13.4892 16.9305 12.2517 16.9928C11.0142 17.0551 9.79757 16.6558 8.83779 15.8721C7.878 15.0884 7.2434 13.9762 7.05701 12.7512C6.87063 11.5263 7.14573 10.2757 7.829 9.24201L7.828 9.24301Z"/></g></g><defs><clipPath id="a"><rect width="24" height="24" fill="#fff"/></clipPath></defs></svg>