<svg xmlns="http://www.w3.org/2000/svg" width="24" height="24" fill="none"><g clip-path="url(#a)"><g><path fill="currentColor" d="M9.879 12L7.562 9.68296C6.70737 10.0454 5.7533 10.0992 4.86331 9.83534C3.97331 9.57145 3.20281 9.00623 2.68386 8.23654C2.1649 7.46686 1.92981 6.54064 2.01886 5.61663C2.10792 4.69262 2.51558 3.82835 3.17199 3.17195C3.82839 2.51554 4.69266 2.10788 5.61667 2.01882C6.54068 1.92977 7.4669 2.16486 8.23658 2.68382C9.00627 3.20277 9.57149 3.97327 9.83538 4.86327C10.0993 5.75326 10.0454 6.70733 9.683 7.56196L12 9.87996L18.374 3.50496C18.5597 3.31916 18.7802 3.17176 19.0229 3.0712C19.2656 2.97064 19.5258 2.91889 19.7885 2.91889C20.0512 2.91889 20.3113 2.97064 20.5541 3.0712C20.7968 3.17176 21.0173 3.31916 21.203 3.50496L21.91 4.21196L9.683 16.438C10.0454 17.2926 10.0993 18.2467 9.83538 19.1367C9.57149 20.0266 9.00627 20.7971 8.23658 21.3161C7.4669 21.8351 6.54068 22.0702 5.61667 21.9811C4.69266 21.892 3.82839 21.4844 3.17199 20.828C2.51558 20.1716 2.10792 19.3073 2.01886 18.3833C1.92981 17.4593 2.1649 16.5331 2.68386 15.7634C3.20281 14.9937 3.97331 14.4285 4.86331 14.1646C5.7533 13.9007 6.70737 13.9546 7.562 14.317L9.88 12H9.879ZM6 7.99996C6.53043 7.99996 7.03914 7.78925 7.41421 7.41417C7.78929 7.0391 8 6.53039 8 5.99996C8 5.46953 7.78929 4.96082 7.41421 4.58575C7.03914 4.21067 6.53043 3.99996 6 3.99996C5.46957 3.99996 4.96086 4.21067 4.58579 4.58575C4.21071 4.96082 4 5.46953 4 5.99996C4 6.53039 4.21071 7.0391 4.58579 7.41417C4.96086 7.78925 5.46957 7.99996 6 7.99996ZM6 20C6.53043 20 7.03914 19.7892 7.41421 19.4142C7.78929 19.0391 8 18.5304 8 18C8 17.4695 7.78929 16.9608 7.41421 16.5857C7.03914 16.2107 6.53043 16 6 16C5.46957 16 4.96086 16.2107 4.58579 16.5857C4.21071 16.9608 4 17.4695 4 18C4 18.5304 4.21071 19.0391 4.58579 19.4142C4.96086 19.7892 5.46957 20 6 20ZM15.535 13.413L21.91 19.789L21.203 20.496C21.0173 20.6818 20.7968 20.8292 20.5541 20.9297C20.3113 21.0303 20.0512 21.082 19.7885 21.082C19.5258 21.082 19.2656 21.0303 19.0229 20.9297C18.7802 20.8292 18.5597 20.6818 18.374 20.496L13.414 15.535L15.534 13.413H15.535ZM16 11H18V13H16V11ZM20 11H22V13H20V11ZM6 11H8V13H6V11ZM2 11H4V13H2V11Z"/></g></g><defs><clipPath id="a"><rect width="24" height="24" fill="#fff"/></clipPath></defs></svg>