<svg xmlns="http://www.w3.org/2000/svg" width="24" height="24" fill="none"><g clip-path="url(#a)"><g><path fill="currentColor" d="M11.993 14.407L10.441 15.959C10.9379 16.7963 11.1123 17.786 10.9316 18.7427C10.751 19.6993 10.2276 20.5573 9.4596 21.1557C8.69162 21.7541 7.73175 22.0518 6.75994 21.9931C5.78812 21.9344 4.87108 21.5233 4.1807 20.8368C3.49033 20.1503 3.07402 19.2356 3.00982 18.2641C2.94562 17.2927 3.23794 16.3311 3.83197 15.5598C4.426 14.7884 5.28097 14.2602 6.23661 14.0741C7.19225 13.888 8.18295 14.0569 9.023 14.549L10.578 12.993L6.393 8.808L7.808 7.393L11.993 11.578L16.182 7.389L17.596 8.803L13.406 12.993L14.968 14.553C15.8067 14.0585 16.7969 13.8869 17.753 14.0702C18.7092 14.2536 19.5657 14.7794 20.1619 15.5491C20.7581 16.3188 21.0531 17.2795 20.9917 18.2511C20.9302 19.2228 20.5165 20.1386 19.8281 20.8271C19.1396 21.5155 18.2238 21.9292 17.2521 21.9907C16.2805 22.0521 15.3198 21.7571 14.5501 21.1609C13.7804 20.5647 13.2546 19.7082 13.0712 18.752C12.8879 17.7959 13.0595 16.8057 13.554 15.967L11.993 14.407ZM7 20C7.53043 20 8.03914 19.7893 8.41421 19.4142C8.78929 19.0391 9 18.5304 9 18C9 17.4696 8.78929 16.9609 8.41421 16.5858C8.03914 16.2107 7.53043 16 7 16C6.46957 16 5.96086 16.2107 5.58579 16.5858C5.21071 16.9609 5 17.4696 5 18C5 18.5304 5.21071 19.0391 5.58579 19.4142C5.96086 19.7893 6.46957 20 7 20ZM17 20C17.5304 20 18.0391 19.7893 18.4142 19.4142C18.7893 19.0391 19 18.5304 19 18C19 17.4696 18.7893 16.9609 18.4142 16.5858C18.0391 16.2107 17.5304 16 17 16C16.4696 16 15.9609 16.2107 15.5858 16.5858C15.2107 16.9609 15 17.4696 15 18C15 18.5304 15.2107 19.0391 15.5858 19.4142C15.9609 19.7893 16.4696 20 17 20ZM19 13V5H5V13H3V4C3 3.73478 3.10536 3.48043 3.29289 3.29289C3.48043 3.10536 3.73478 3 4 3H20C20.2652 3 20.5196 3.10536 20.7071 3.29289C20.8946 3.48043 21 3.73478 21 4V13H19Z"/></g></g><defs><clipPath id="a"><rect width="24" height="24" fill="#fff"/></clipPath></defs></svg>