<svg width="24" height="24"  xmlns="http://www.w3.org/2000/svg"><g clip-path="url(#a)"><path d="m11 2 7.298 2.28a1 1 0 0 1 .702.955V7h2a1 1 0 0 1 1 1v8a1 1 0 0 1-1 1l-3.22.001c-.387.51-.857.96-1.4 1.33L11 22l-5.38-3.668A6 6 0 0 1 3 13.374V5.235a1 1 0 0 1 .702-.954L11 2Zm0 2.094L5 5.97v7.404a4 4 0 0 0 1.558 3.169l.189.136L11 19.58 14.782 17H10a1 1 0 0 1-1-1V8a1 1 0 0 1 1-1h7V5.97l-6-1.876ZM11 12v3h9v-3h-9Zm0-2h9V9h-9v1Z" /></g><defs><clipPath id="a"><path fill="#fff" d="M0 0h24v24H0z"/></clipPath></defs></svg>