<svg xmlns="http://www.w3.org/2000/svg" width="24" height="24" fill="none"><g clip-path="url(#a)"><g><path fill="#121212" d="M14.121 10.4801C13.9335 10.2926 13.6792 10.1873 13.414 10.1873C13.1488 10.1873 12.8945 10.2926 12.707 10.4801L12 11.1861C11.8155 11.3771 11.5948 11.5295 11.3508 11.6343C11.1068 11.7391 10.8444 11.7943 10.5788 11.7966C10.3132 11.7989 10.0499 11.7483 9.8041 11.6478C9.55831 11.5472 9.335 11.3987 9.14722 11.2109C8.95943 11.0231 8.81092 10.7998 8.71036 10.554C8.6098 10.3082 8.5592 10.0449 8.5615 9.77931C8.56381 9.51375 8.61898 9.25131 8.7238 9.0073C8.82862 8.76329 8.98098 8.5426 9.17201 8.35811L14.802 2.72611C16.1349 2.42294 17.5295 2.54771 18.7874 3.08269C20.0454 3.61766 21.1026 4.53561 21.8089 5.706C22.5151 6.8764 22.8344 8.23966 22.7213 9.60194C22.6083 10.9642 22.0686 12.2562 21.179 13.2941L19.071 15.4291L14.121 10.4791V10.4801ZM3.16101 4.46811C4.19577 3.43349 5.54923 2.77809 7.00257 2.60788C8.45591 2.43766 9.92418 2.76259 11.17 3.53011L7.75701 6.94411C7.0178 7.68184 6.59644 8.67941 6.58294 9.72367C6.56945 10.7679 6.96489 11.7761 7.68478 12.5326C8.40468 13.2892 9.39192 13.7343 10.4356 13.7727C11.4792 13.811 12.4965 13.4398 13.27 12.7381L13.414 12.6011L17.657 16.8431L13.414 21.0861C13.0389 21.4611 12.5303 21.6717 12 21.6717C11.4697 21.6717 10.9611 21.4611 10.586 21.0861L3.16001 13.6601C1.94114 12.4411 1.25639 10.7879 1.25639 9.06411C1.25639 7.3403 1.94114 5.68708 3.16001 4.46811H3.16101Z"/></g></g><defs><clipPath id="a"><rect width="24" height="24" fill="white"/></clipPath></defs></svg>