<svg width="24" height="24" fill="none" xmlns="http://www.w3.org/2000/svg"><g clip-path="url(#a)"><path d="M5.334 4.545a9.99 9.99 0 0 1 3.542-2.048A3.993 3.993 0 0 0 12 4a3.993 3.993 0 0 0 3.124-1.502 9.99 9.99 0 0 1 3.542 2.048 3.994 3.994 0 0 0 1.47 4.758 3.985 3.985 0 0 0 1.655.651c.28 1.349.28 2.741 0 4.09a3.996 3.996 0 0 0-3.389 3.653 3.992 3.992 0 0 0 .264 1.757 9.992 9.992 0 0 1-3.542 2.047 3.991 3.991 0 0 0-3.124-1.5 3.993 3.993 0 0 0-3.124 1.501 9.991 9.991 0 0 1-3.542-2.047A3.993 3.993 0 0 0 5.072 16a3.993 3.993 0 0 0-2.863-1.954 10.027 10.027 0 0 1 0-4.09A3.993 3.993 0 0 0 5.072 8a3.993 3.993 0 0 0 .262-3.454ZM13.5 14.597a3.001 3.001 0 1 0-2.967-5.217 3.001 3.001 0 0 0 2.967 5.217Z" fill="#121212"/></g><defs><clipPath id="a"><path fill="#fff" d="M0 0h24v24H0z"/></clipPath></defs></svg>