<svg xmlns="http://www.w3.org/2000/svg" width="24" height="24" fill="none"><g clip-path="url(#a)"><g><path fill="currentColor" d="M8.68637 3.99988L11.2934 1.39288C11.4809 1.20541 11.7352 1.1001 12.0004 1.1001C12.2655 1.1001 12.5198 1.20541 12.7074 1.39288L15.3144 3.99988H19.0004C19.2656 3.99988 19.5199 4.10524 19.7075 4.29278C19.895 4.48031 20.0004 4.73467 20.0004 4.99988V8.68588L22.6074 11.2929C22.7948 11.4804 22.9002 11.7347 22.9002 11.9999C22.9002 12.265 22.7948 12.5194 22.6074 12.7069L20.0004 15.3139V18.9999C20.0004 19.2651 19.895 19.5195 19.7075 19.707C19.5199 19.8945 19.2656 19.9999 19.0004 19.9999H15.3144L12.7074 22.6069C12.5198 22.7944 12.2655 22.8997 12.0004 22.8997C11.7352 22.8997 11.4809 22.7944 11.2934 22.6069L8.68637 19.9999H5.00037C4.73516 19.9999 4.4808 19.8945 4.29327 19.707C4.10573 19.5195 4.00037 19.2651 4.00037 18.9999V15.3139L1.39337 12.7069C1.2059 12.5194 1.10059 12.265 1.10059 11.9999C1.10059 11.7347 1.2059 11.4804 1.39337 11.2929L4.00037 8.68588V4.99988C4.00037 4.73467 4.10573 4.48031 4.29327 4.29278C4.4808 4.10524 4.73516 3.99988 5.00037 3.99988H8.68637ZM12.0004 14.9999C12.796 14.9999 13.5591 14.6838 14.1217 14.1212C14.6843 13.5586 15.0004 12.7955 15.0004 11.9999C15.0004 11.2042 14.6843 10.4412 14.1217 9.87856C13.5591 9.31595 12.796 8.99988 12.0004 8.99988C11.2047 8.99988 10.4417 9.31595 9.87905 9.87856C9.31644 10.4412 9.00037 11.2042 9.00037 11.9999C9.00037 12.7955 9.31644 13.5586 9.87905 14.1212C10.4417 14.6838 11.2047 14.9999 12.0004 14.9999Z"/></g></g><defs><clipPath id="a"><rect width="24" height="24" fill="#fff"/></clipPath></defs></svg>