<svg xmlns="http://www.w3.org/2000/svg" width="24" height="24" fill="none"><g clip-path="url(#a)"><g><path fill="#121212" d="M13.5757 17.2711L8.46571 14.4841C7.97521 14.971 7.35153 15.3018 6.6733 15.4347C5.99508 15.5677 5.29267 15.4969 4.65464 15.2312C4.0166 14.9655 3.4715 14.5169 3.08806 13.9419C2.70462 13.3669 2.5 12.6912 2.5 12.0001C2.5 11.309 2.70462 10.6333 3.08806 10.0583C3.4715 9.48329 4.0166 9.03468 4.65464 8.76901C5.29267 8.50335 5.99508 8.43253 6.6733 8.56548C7.35153 8.69844 7.97521 9.02921 8.46571 9.51611L13.5757 6.72911C13.4005 5.90685 13.527 5.04897 13.9323 4.31236C14.3376 3.57576 14.9945 3.00964 15.7828 2.71754C16.5712 2.42545 17.4383 2.42688 18.2257 2.7216C19.0131 3.01631 19.6681 3.5846 20.0709 4.32255C20.4737 5.0605 20.5975 5.91879 20.4195 6.74046C20.2415 7.56214 19.7737 8.2923 19.1016 8.79741C18.4295 9.30252 17.5981 9.54884 16.7593 9.49131C15.9206 9.43378 15.1305 9.07625 14.5337 8.48411L9.42371 11.2711C9.52565 11.7518 9.52565 12.2485 9.42371 12.7291L14.5337 15.5161C15.1305 14.924 15.9206 14.5664 16.7593 14.5089C17.5981 14.4514 18.4295 14.6977 19.1016 15.2028C19.7737 15.7079 20.2415 16.4381 20.4195 17.2598C20.5975 18.0814 20.4737 18.9397 20.0709 19.6777C19.6681 20.4156 19.0131 20.9839 18.2257 21.2786C17.4383 21.5733 16.5712 21.5748 15.7828 21.2827C14.9945 20.9906 14.3376 20.4245 13.9323 19.6879C13.527 18.9513 13.4005 18.0934 13.5757 17.2711Z"/></g></g><defs><clipPath id="a"><rect width="24" height="24" fill="white"/></clipPath></defs></svg>