<svg xmlns="http://www.w3.org/2000/svg" width="24" height="24" fill="none"><g clip-path="url(#a)"><g><path fill="#121212" d="M4 6.41399L0.757 3.17199L2.172 1.75699L5.414 4.99999H20.656C20.8119 4.99998 20.9656 5.0364 21.1049 5.10636C21.2442 5.17631 21.3652 5.27785 21.4582 5.40288C21.5513 5.52792 21.6139 5.67297 21.6409 5.82648C21.6679 5.97998 21.6587 6.13768 21.614 6.28699L19.214 14.287C19.1523 14.4931 19.0257 14.6737 18.8531 14.8022C18.6805 14.9306 18.4711 15 18.256 15H6V17H17V19H5C4.73478 19 4.48043 18.8946 4.29289 18.7071C4.10536 18.5196 4 18.2652 4 18V6.41399ZM6 6.99999V13H17.512L19.312 6.99999H6ZM5.5 23C5.10218 23 4.72064 22.842 4.43934 22.5606C4.15804 22.2793 4 21.8978 4 21.5C4 21.1022 4.15804 20.7206 4.43934 20.4393C4.72064 20.158 5.10218 20 5.5 20C5.89782 20 6.27936 20.158 6.56066 20.4393C6.84196 20.7206 7 21.1022 7 21.5C7 21.8978 6.84196 22.2793 6.56066 22.5606C6.27936 22.842 5.89782 23 5.5 23ZM17.5 23C17.1022 23 16.7206 22.842 16.4393 22.5606C16.158 22.2793 16 21.8978 16 21.5C16 21.1022 16.158 20.7206 16.4393 20.4393C16.7206 20.158 17.1022 20 17.5 20C17.8978 20 18.2794 20.158 18.5607 20.4393C18.842 20.7206 19 21.1022 19 21.5C19 21.8978 18.842 22.2793 18.5607 22.5606C18.2794 22.842 17.8978 23 17.5 23Z"/></g></g><defs><clipPath id="a"><rect width="24" height="24" fill="white"/></clipPath></defs></svg>