<svg xmlns="http://www.w3.org/2000/svg" width="24" height="24" fill="none"><g clip-path="url(#a)"><g><path fill="#121212" d="M2.808 1.39301L20.485 19.071L19.071 20.485L15.388 16.803L12 21L0.690002 6.99701C1.604 6.25701 2.592 5.60601 3.64 5.05501L1.394 2.80801L2.809 1.39301H2.808ZM3.579 7.39201L12 17.817L13.967 15.38L5.132 6.54401C4.6 6.79801 4.082 7.08001 3.58 7.39201H3.579ZM12 3.00001C16.284 3.00001 20.22 4.497 23.31 6.99601L17.903 13.689L16.481 12.267L20.42 7.39101C17.922 5.84101 15.027 5.00001 12 5.00001C11.127 5.00001 10.265 5.07 9.42 5.20701L7.725 3.51001C9.094 3.17701 10.527 3.00001 12 3.00001Z"/></g></g><defs><clipPath id="a"><rect width="24" height="24" fill="white"/></clipPath></defs></svg>