<svg xmlns="http://www.w3.org/2000/svg" width="24" height="24" fill="none"><g clip-path="url(#a)"><g><path fill="currentColor" d="M18 18V21C18 21.2652 17.8946 21.5196 17.7071 21.7071C17.5196 21.8946 17.2652 22 17 22H7C6.73478 22 6.48043 21.8946 6.29289 21.7071C6.10536 21.5196 6 21.2652 6 21V18H3C2.73478 18 2.48043 17.8946 2.29289 17.7071C2.10536 17.5196 2 17.2652 2 17V12C2 6.477 6.477 2 12 2C17.523 2 22 6.477 22 12V17C22 17.2652 21.8946 17.5196 21.7071 17.7071C21.5196 17.8946 21.2652 18 21 18H18ZM7.5 14C7.69698 14 7.89204 13.9612 8.07403 13.8858C8.25601 13.8104 8.42137 13.6999 8.56066 13.5607C8.69995 13.4214 8.81044 13.256 8.88582 13.074C8.9612 12.892 9 12.697 9 12.5C9 12.303 8.9612 12.108 8.88582 11.926C8.81044 11.744 8.69995 11.5786 8.56066 11.4393C8.42137 11.3001 8.25601 11.1896 8.07403 11.1142C7.89204 11.0388 7.69698 11 7.5 11C7.10218 11 6.72064 11.158 6.43934 11.4393C6.15804 11.7206 6 12.1022 6 12.5C6 12.8978 6.15804 13.2794 6.43934 13.5607C6.72064 13.842 7.10218 14 7.5 14ZM16.5 14C16.697 14 16.892 13.9612 17.074 13.8858C17.256 13.8104 17.4214 13.6999 17.5607 13.5607C17.6999 13.4214 17.8104 13.256 17.8858 13.074C17.9612 12.892 18 12.697 18 12.5C18 12.303 17.9612 12.108 17.8858 11.926C17.8104 11.744 17.6999 11.5786 17.5607 11.4393C17.4214 11.3001 17.256 11.1896 17.074 11.1142C16.892 11.0388 16.697 11 16.5 11C16.1022 11 15.7206 11.158 15.4393 11.4393C15.158 11.7206 15 12.1022 15 12.5C15 12.8978 15.158 13.2794 15.4393 13.5607C15.7206 13.842 16.1022 14 16.5 14Z"/></g></g><defs><clipPath id="a"><rect width="24" height="24" fill="#fff"/></clipPath></defs></svg>