<svg xmlns="http://www.w3.org/2000/svg" width="24" height="24" fill="none"><g clip-path="url(#a)"><g><path fill="currentColor" d="M8.17 3C8.37701 2.41493 8.76032 1.90842 9.26715 1.55024C9.77397 1.19206 10.3794 0.999821 11 1H13C14.306 1 15.417 1.835 15.83 3H21C21.2652 3 21.5196 3.10536 21.7071 3.29289C21.8946 3.48043 22 3.73478 22 4V20C22 20.2652 21.8946 20.5196 21.7071 20.7071C21.5196 20.8946 21.2652 21 21 21H3C2.73478 21 2.48043 20.8946 2.29289 20.7071C2.10536 20.5196 2 20.2652 2 20V4C2 3.73478 2.10536 3.48043 2.29289 3.29289C2.48043 3.10536 2.73478 3 3 3H8.17ZM4 5V19H20V5H15.83C15.623 5.58507 15.2397 6.09158 14.7329 6.44976C14.226 6.80794 13.6206 7.00018 13 7H11C10.3794 7.00018 9.77397 6.80794 9.26715 6.44976C8.76032 6.09158 8.37701 5.58507 8.17 5H4ZM11 3C10.7348 3 10.4804 3.10536 10.2929 3.29289C10.1054 3.48043 10 3.73478 10 4C10 4.26522 10.1054 4.51957 10.2929 4.70711C10.4804 4.89464 10.7348 5 11 5H13C13.2652 5 13.5196 4.89464 13.7071 4.70711C13.8946 4.51957 14 4.26522 14 4C14 3.73478 13.8946 3.48043 13.7071 3.29289C13.5196 3.10536 13.2652 3 13 3H11ZM10 9L15 12L10 15V9Z"/></g></g><defs><clipPath id="a"><rect width="24" height="24" fill="#fff"/></clipPath></defs></svg>