<svg width="24" height="24"  xmlns="http://www.w3.org/2000/svg"><g clip-path="url(#a)"><path d="M5 5v14h14V5H5ZM4 3h16a1 1 0 0 1 1 1v16a1 1 0 0 1-1 1H4a1 1 0 0 1-1-1V4a1 1 0 0 1 1-1Zm3 5a1 1 0 1 1 0-2 1 1 0 0 1 0 2Zm10 0a1 1 0 1 1 0-2 1 1 0 0 1 0 2Zm0 10a1 1 0 1 1 0-2 1 1 0 0 1 0 2ZM7 18a1 1 0 1 1 0-2 1 1 0 0 1 0 2Zm5-3a3 3 0 1 0 0-6 3 3 0 0 0 0 6Zm0 2a5 5 0 1 1 0-10 5 5 0 0 1 0 10Zm0-4a1 1 0 1 1 0-2 1 1 0 0 1 0 2Z" /></g><defs><clipPath id="a"><path fill="#fff" d="M0 0h24v24H0z"/></clipPath></defs></svg>