<svg width="24" height="24" fill="none" xmlns="http://www.w3.org/2000/svg"><g clip-path="url(#a)"><path d="M4 3h16a1 1 0 0 1 1 1v16a1 1 0 0 1-1 1H4a1 1 0 0 1-1-1V4a1 1 0 0 1 1-1Zm8 13a4 4 0 1 1 0-8 4 4 0 0 1 0 8Zm0 2a6 6 0 1 0 0-12 6 6 0 0 0 0 12ZM6 7a1 1 0 1 0 0-2 1 1 0 0 0 0 2Zm12 0a1 1 0 1 0 0-2 1 1 0 0 0 0 2Zm0 12a1 1 0 1 0 0-2 1 1 0 0 0 0 2ZM6 19a1 1 0 1 0 0-2 1 1 0 0 0 0 2Zm6-5.5a1.5 1.5 0 1 0 0-3 1.5 1.5 0 0 0 0 3Z" fill="currentColor"/></g><defs><clipPath id="a"><path fill="#fff" d="M0 0h24v24H0z"/></clipPath></defs></svg>