<svg width="24" height="24" fill="none" xmlns="http://www.w3.org/2000/svg"><g clip-path="url(#a)"><path d="M18 20.002V14.67h2v7.333H4V14.67h2v5.333h12v-.001ZM7.599 14.736l.313-1.98 8.837 1.7-.113 1.586-9.037-1.306Zm1.2-4.532.732-1.6 7.998 3.733-.733 1.599-7.998-3.732h.001Zm2.265-3.932 1.133-1.333 6.798 5.665-1.133 1.333-6.798-5.665Zm4.332-4.132 5.265 7.064-1.4 1.067-5.264-7.065 1.4-1.066h-.001ZM7.332 18.668v-2h9.33v2h-9.33Z" fill="currentColor"/></g><defs><clipPath id="a"><path fill="#fff" d="M0 0h24v24H0z"/></clipPath></defs></svg>