<svg width="24" height="24" fill="none" xmlns="http://www.w3.org/2000/svg"><g clip-path="url(#a)"><path d="M12 2c5.523 0 10 4.477 10 10s-4.477 10-10 10S2 17.523 2 12 6.477 2 12 2ZM8 13l-3.938.001A8.004 8.004 0 0 0 11 19.938V16a3 3 0 0 1-3-3Zm11.938.001L16 13a3 3 0 0 1-3 3l.001 3.938a8.004 8.004 0 0 0 6.937-6.937ZM12 4a8.001 8.001 0 0 0-7.938 7H8a1 1 0 0 1 1-1h6a1 1 0 0 1 1 1h3.938A8 8 0 0 0 12 4Z" fill="#121212"/></g><defs><clipPath id="a"><path fill="#fff" d="M0 0h24v24H0z"/></clipPath></defs></svg>