<svg width="24" height="24" fill="none" xmlns="http://www.w3.org/2000/svg"><g clip-path="url(#a)"><path d="M21.8 14.001a10.009 10.009 0 0 1-8.4 7.902v-2.025A8.01 8.01 0 0 0 19.748 14l2.052.001Zm-17.548 0a8.01 8.01 0 0 0 6.247 5.858v2.03A10.01 10.01 0 0 1 2.2 14h2.052v.001ZM18 11v2h-1a4 4 0 0 0-3.995 3.8L13 17v1h-2v-1a4 4 0 0 0-3.8-3.995L7 13H6v-2h12Zm-6-9c5.185 0 9.449 3.947 9.95 9h-2.012a8 8 0 0 0-15.876 0H2.049C2.551 5.947 6.815 2 12 2Z" /></g><defs><clipPath id="a"><path fill="#fff" d="M0 0h24v24H0z"/></clipPath></defs></svg>