<svg width="24" height="24" fill="none" xmlns="http://www.w3.org/2000/svg"><g clip-path="url(#a)"><path d="M21 11.646V21a1 1 0 0 1-1 1H4a1 1 0 0 1-1-1v-9.354A3.985 3.985 0 0 1 2 9V3a1 1 0 0 1 1-1h18a1 1 0 0 1 1 1v6a3.99 3.99 0 0 1-1 2.646Zm-2 1.228a4.007 4.007 0 0 1-4-1.228A3.99 3.99 0 0 1 12 13a3.99 3.99 0 0 1-3-1.354 3.99 3.99 0 0 1-4 1.228V20h14v-7.126ZM14 9a1 1 0 0 1 2 0 2 2 0 1 0 4 0V4H4v5a2 2 0 0 0 4 0 1 1 0 0 1 2 0 2 2 0 1 0 4 0Z" fill="currentColor"/></g><defs><clipPath id="a"><path fill="#fff" d="M0 0h24v24H0z"/></clipPath></defs></svg>