<svg xmlns="http://www.w3.org/2000/svg" width="24" height="24" fill="none"><g clip-path="url(#a)"><g><path fill="currentColor" d="M15 1C15.552 1 16 1.448 16 2V7H17V6H19V7H20C20.552 7 21 7.448 21 8V20C21 20.552 20.552 21 20 21H19V22H17V21H7V22H5V21H4C3.448 21 3 20.552 3 20V8C3 7.448 3.448 7 4 7H5V6H7V7H8V2C8 1.448 8.448 1 9 1H15ZM9 10H7V18H9V10ZM13 10H11V18H13V10ZM17 10H15V18H17V10ZM14 3H10V7H14V3Z"/></g></g><defs><clipPath id="a"><rect width="24" height="24" fill="#fff"/></clipPath></defs></svg>