<svg width="24" height="24" fill="none" xmlns="http://www.w3.org/2000/svg"><g clip-path="url(#a)"><path d="M4 5v14h16V5H4ZM3 3h18a1 1 0 0 1 1 1v16a1 1 0 0 1-1 1H3a1 1 0 0 1-1-1V4a1 1 0 0 1 1-1Zm4.05 4.121 1.414 1.415A4.984 4.984 0 0 0 7 12.07c0 1.38.56 2.63 1.464 3.536L7.05 17.02A6.977 6.977 0 0 1 5 12.07c0-1.933.784-3.683 2.05-4.95v.001Zm9.9 0a6.977 6.977 0 0 1 2.05 4.95 6.977 6.977 0 0 1-2.05 4.95l-1.414-1.414A4.983 4.983 0 0 0 17 12.07c0-1.38-.56-2.63-1.464-3.535L16.95 7.12v.001ZM12 13.071a1 1 0 1 0 0-2 1 1 0 0 0 0 2Zm0 2a3 3 0 1 1 0-6 3 3 0 0 1 0 6Z" fill="currentColor"/></g><defs><clipPath id="a"><path fill="#fff" d="M0 0h24v24H0z"/></clipPath></defs></svg>