<svg xmlns="http://www.w3.org/2000/svg" width="24" height="24" fill="none"><g clip-path="url(#a)"><g><path fill="currentColor" d="M4 5V19H20V5H4ZM3 3H21C21.2652 3 21.5196 3.10536 21.7071 3.29289C21.8946 3.48043 22 3.73478 22 4V20C22 20.2652 21.8946 20.5196 21.7071 20.7071C21.5196 20.8946 21.2652 21 21 21H3C2.73478 21 2.48043 20.8946 2.29289 20.7071C2.10536 20.5196 2 20.2652 2 20V4C2 3.73478 2.10536 3.48043 2.29289 3.29289C2.48043 3.10536 2.73478 3 3 3ZM7.05 7.121L8.464 8.536C7.99926 8.99962 7.6307 9.55049 7.37946 10.157C7.12822 10.7634 6.99927 11.4136 7 12.07C7 13.45 7.56 14.7 8.464 15.606L7.05 17.02C6.39903 16.3707 5.88281 15.5991 5.531 14.7496C5.17919 13.9001 4.99873 12.9895 5 12.07C5 10.137 5.784 8.387 7.05 7.12V7.121ZM16.95 7.121C17.601 7.77034 18.1172 8.54192 18.469 9.39141C18.8208 10.2409 19.0013 11.1515 19 12.071C19.0013 12.9905 18.8208 13.9011 18.469 14.7506C18.1172 15.6001 17.601 16.3717 16.95 17.021L15.536 15.607C16.0011 15.143 16.3699 14.5917 16.6211 13.9847C16.8724 13.3776 17.0011 12.727 17 12.07C17 10.69 16.44 9.44 15.536 8.535L16.95 7.12V7.121ZM12 13.071C12.2652 13.071 12.5196 12.9656 12.7071 12.7781C12.8946 12.5906 13 12.3362 13 12.071C13 11.8058 12.8946 11.5514 12.7071 11.3639C12.5196 11.1764 12.2652 11.071 12 11.071C11.7348 11.071 11.4804 11.1764 11.2929 11.3639C11.1054 11.5514 11 11.8058 11 12.071C11 12.3362 11.1054 12.5906 11.2929 12.7781C11.4804 12.9656 11.7348 13.071 12 13.071ZM12 15.071C11.2044 15.071 10.4413 14.7549 9.87868 14.1923C9.31607 13.6297 9 12.8666 9 12.071C9 11.2754 9.31607 10.5123 9.87868 9.94968C10.4413 9.38707 11.2044 9.071 12 9.071C12.7956 9.071 13.5587 9.38707 14.1213 9.94968C14.6839 10.5123 15 11.2754 15 12.071C15 12.8666 14.6839 13.6297 14.1213 14.1923C13.5587 14.7549 12.7956 15.071 12 15.071Z"/></g></g><defs><clipPath id="a"><rect width="24" height="24" fill="#fff"/></clipPath></defs></svg>