<svg xmlns="http://www.w3.org/2000/svg" width="24" height="24" fill="none"><g clip-path="url(#a)"><g><path fill="#121212" d="M21.678 7.98002L20.263 9.39302L18.143 7.27302L16.021 9.39302L19.556 12.929L18.142 14.343L17.435 13.636L11.071 20H5.41403L3.29303 22.121L1.87903 20.707L4.00003 18.586V12.929L10.364 6.56502L9.65703 5.85802L11.071 4.44402L14.607 7.97902L16.727 5.85802L14.607 3.73702L16.021 2.32202L21.678 7.97902V7.98002ZM9.65703 14.342L6.82803 11.514L5.41403 12.928L8.24303 15.756L9.65703 14.342ZM12.485 11.514L9.65703 8.68602L8.24303 10.101L11.071 12.929L12.485 11.515V11.514Z"/></g></g><defs><clipPath id="a"><rect width="24" height="24" fill="white"/></clipPath></defs></svg>