<svg width="24" height="24" fill="none" xmlns="http://www.w3.org/2000/svg"><g clip-path="url(#a)"><path d="M16 1a1 1 0 0 1 1 1v.999L22 3v6l-2.02-.001 2.767 7.596A4 4 0 1 1 15.127 19h-4.253a4.002 4.002 0 0 1-7.8-.227A1.998 1.998 0 0 1 2 17v-5h9a1 1 0 0 0 .883.993L12 13h2a1 1 0 0 0 .993-.883L15 12V3h-3V1h4ZM7 16a2 2 0 1 0 0 4 2 2 0 0 0 0-4Zm12 0a2 2 0 1 0 0 4 2 2 0 0 0 0-4ZM10 3a1 1 0 0 1 1 1v7H2V4a1 1 0 0 1 1-1h7Zm10 2h-3v2h3V5ZM9 5H4v1h5V5Z" fill="#121212"/></g><defs><clipPath id="a"><path fill="#fff" d="M0 0h24v24H0z"/></clipPath></defs></svg>