<svg width="24" height="24" fill="none" xmlns="http://www.w3.org/2000/svg"><g clip-path="url(#a)"><path d="M17.172 14H14.5v1.375c.55-.221 1.153-.49 1.812-.81l-.082-.238.942-.327Zm.828-.287.12-.042c.641 1.851 1.034 3.012 1.185 3.5l-1.912.59c-.074-.24-.216-.672-.427-1.293-6.081 2.885-8.671 2.054-9.008-1.907l1.993-.17c.1 1.165.344 1.622.897 1.752.393.093.94.063 1.652-.104V14H9v-2h.513l-1.167-1.39c1.043-.876 1.858-1.83 2.448-2.864-.518.135-1.037.28-1.551.435a13.952 13.952 0 0 1-1.754 2.109l-1.4-1.428c1.272-1.248 2.333-2.91 3.176-4.994l1.854.75c-.15.371-.31.739-.48 1.101 3.702-.936 7.275-1.317 9.138-.68 1.223.418 1.919 1.391 2.187 2.584.17.756.313 2.689.313 5.123 0 2.807-.056 3.77-.34 4.622-.297.89-.696 1.418-1.407 1.984-.657.523-1.553.763-2.645.823-.673.037-1.368.003-2.095-.08-.2-.022-.398-.047-.596-.075l.264-1.982c.185.024.37.048.556.07.625.07 1.216.1 1.762.07.714-.04 1.245-.181 1.508-.39.426-.34.591-.558.756-1.054.186-.554.237-1.448.237-3.988 0-2.299-.133-4.102-.264-4.683-.13-.577-.41-.97-.883-1.132-1.207-.412-3.801-.194-6.652.417l.615.262c-.13.302-.273.6-.43.89H18v2h-3.5V12H18v1.713ZM12.5 10.5h-1.208c-.458.538-.958 1.04-1.494 1.5H12.5v-1.5Zm-10.039-.438L3.54 8.377c1.062.679 2.935 2.427 3.338 3.161 1.239 2.26.197 4.176-3.122 7.997l-1.51-1.311c2.687-3.094 3.5-4.59 2.878-5.724-.214-.39-1.857-1.924-2.662-2.438h-.001Zm2.68-2.479c-1.049 0-1.883-.762-1.888-1.693 0-.94.84-1.701 1.887-1.701 1.04 0 1.883.758 1.883 1.701 0 .935-.843 1.693-1.883 1.693h.001Z" fill="#121212"/></g><defs><clipPath id="a"><path fill="#fff" d="M0 0h24v24H0z"/></clipPath></defs></svg>