<svg xmlns="http://www.w3.org/2000/svg" width="24" height="24" fill="none"><g clip-path="url(#a)"><g><path fill="#121212" d="M10.83 13C11.0423 12.3997 11.058 11.7473 10.8749 11.1375C10.6918 10.5276 10.3194 9.99179 9.81165 9.60759C9.30385 9.2234 8.68698 9.01074 8.05031 9.0004C7.41363 8.99005 6.79017 9.18256 6.27016 9.55006C5.75015 9.91755 5.36056 10.441 5.15777 11.0446C4.95498 11.6482 4.94951 12.3007 5.14215 12.9076C5.33479 13.5145 5.71555 14.0444 6.22933 14.4206C6.7431 14.7967 7.36324 14.9997 8 15H16C16.6368 14.9997 17.2569 14.7967 17.7707 14.4206C18.2844 14.0444 18.6652 13.5145 18.8578 12.9076C19.0505 12.3007 19.045 11.6482 18.8422 11.0446C18.6394 10.441 18.2498 9.91755 17.7298 9.55006C17.2098 9.18256 16.5864 8.99005 15.9497 9.0004C15.313 9.01074 14.6961 9.2234 14.1883 9.60759C13.6806 9.99179 13.3082 10.5276 13.1251 11.1375C12.942 11.7473 12.9577 12.3997 13.17 13H10.83ZM3 3H21C21.2652 3 21.5196 3.10536 21.7071 3.29289C21.8946 3.48043 22 3.73478 22 4V20C22 20.2652 21.8946 20.5196 21.7071 20.7071C21.5196 20.8946 21.2652 21 21 21H3C2.73478 21 2.48043 20.8946 2.29289 20.7071C2.10536 20.5196 2 20.2652 2 20V4C2 3.73478 2.10536 3.48043 2.29289 3.29289C2.48043 3.10536 2.73478 3 3 3ZM16 13C15.7348 13 15.4804 12.8946 15.2929 12.7071C15.1054 12.5196 15 12.2652 15 12C15 11.7348 15.1054 11.4804 15.2929 11.2929C15.4804 11.1054 15.7348 11 16 11C16.2652 11 16.5196 11.1054 16.7071 11.2929C16.8946 11.4804 17 11.7348 17 12C17 12.2652 16.8946 12.5196 16.7071 12.7071C16.5196 12.8946 16.2652 13 16 13ZM8 13C7.73478 13 7.48043 12.8946 7.29289 12.7071C7.10536 12.5196 7 12.2652 7 12C7 11.7348 7.10536 11.4804 7.29289 11.2929C7.48043 11.1054 7.73478 11 8 11C8.26522 11 8.51957 11.1054 8.70711 11.2929C8.89464 11.4804 9 11.7348 9 12C9 12.2652 8.89464 12.5196 8.70711 12.7071C8.51957 12.8946 8.26522 13 8 13Z"/></g></g><defs><clipPath id="a"><rect width="24" height="24" fill="white"/></clipPath></defs></svg>