<svg xmlns="http://www.w3.org/2000/svg" width="24" height="24" fill="none"><g clip-path="url(#a)"><g><path fill="currentColor" d="M12 3V7H6.236L4.235 11H22V21C22 21.2652 21.8946 21.5196 21.7071 21.7071C21.5196 21.8946 21.2652 22 21 22H20C19.7348 22 19.4804 21.8946 19.2929 21.7071C19.1054 21.5196 19 21.2652 19 21V20H5V21C5 21.2652 4.89464 21.5196 4.70711 21.7071C4.51957 21.8946 4.26522 22 4 22H3C2.73478 22 2.48043 21.8946 2.29289 21.7071C2.10536 21.5196 2 21.2652 2 21V11L4.447 6.106C4.61313 5.77353 4.86862 5.49394 5.1848 5.29858C5.50098 5.10322 5.86534 4.99983 6.237 5H9V3H12ZM20 13H4V18H20V13ZM6.5 14C6.89782 14 7.27936 14.158 7.56066 14.4393C7.84196 14.7206 8 15.1022 8 15.5C8 15.8978 7.84196 16.2794 7.56066 16.5607C7.27936 16.842 6.89782 17 6.5 17C6.10218 17 5.72064 16.842 5.43934 16.5607C5.15804 16.2794 5 15.8978 5 15.5C5 15.1022 5.15804 14.7206 5.43934 14.4393C5.72064 14.158 6.10218 14 6.5 14ZM17.5 14C17.8978 14 18.2794 14.158 18.5607 14.4393C18.842 14.7206 19 15.1022 19 15.5C19 15.8978 18.842 16.2794 18.5607 16.5607C18.2794 16.842 17.8978 17 17.5 17C17.1022 17 16.7206 16.842 16.4393 16.5607C16.158 16.2794 16 15.8978 16 15.5C16 15.1022 16.158 14.7206 16.4393 14.4393C16.7206 14.158 17.1022 14 17.5 14ZM18.5 1C19.6935 1 20.8381 1.47411 21.682 2.31802C22.5259 3.16193 23 4.30653 23 5.5C23 6.69347 22.5259 7.83807 21.682 8.68198C20.8381 9.52589 19.6935 10 18.5 10C17.3065 10 16.1619 9.52589 15.318 8.68198C14.4741 7.83807 14 6.69347 14 5.5C14 4.30653 14.4741 3.16193 15.318 2.31802C16.1619 1.47411 17.3065 1 18.5 1ZM18.5 6.167C18.009 6.167 17.56 6.344 17.211 6.637L17.086 6.752L18.5 8.167L19.913 6.751C19.7275 6.56548 19.5072 6.4184 19.2647 6.31819C19.0222 6.21798 18.7624 6.1666 18.5 6.167ZM18.5 3.5C17.344 3.49826 16.2289 3.92714 15.372 4.703L15.199 4.868L16.143 5.81C16.4521 5.49989 16.8195 5.25394 17.224 5.08627C17.6285 4.9186 18.0621 4.83253 18.5 4.833C19.3104 4.83177 20.0932 5.12699 20.701 5.663L20.857 5.81L21.8 4.867C21.3671 4.43296 20.8528 4.08875 20.2864 3.85415C19.7201 3.61956 19.113 3.4992 18.5 3.5Z"/></g></g><defs><clipPath id="a"><rect width="24" height="24" fill="#fff"/></clipPath></defs></svg>