<svg width="24" height="24" fill="none" xmlns="http://www.w3.org/2000/svg"><g clip-path="url(#a)"><path d="M20.556 3.444a4 4 0 0 1 0 5.657l-8.2 8.2a3.999 3.999 0 0 1-2.387 1.147l-3.378.374-2.298 2.3a1 1 0 0 1-1.414-1.415l2.298-2.299.375-3.377c.1-.903.505-1.745 1.147-2.387l8.2-8.2a4 4 0 0 1 5.657 0Zm-9.192 9.192L9.95 14.05l2.121 2.122 1.414-1.415-2.12-2.121Zm2.828-2.828-1.414 1.414 2.121 2.121 1.415-1.414-2.122-2.121Zm2.83-2.829-1.415 1.414 2.12 2.122L19.143 9.1l-2.12-2.122-.002.001Z" /></g><defs><clipPath id="a"><path fill="#fff" d="M0 0h24v24H0z"/></clipPath></defs></svg>