<svg xmlns="http://www.w3.org/2000/svg" width="24" height="24" fill="none"><g clip-path="url(#a)"><g><path fill="currentColor" d="M17.6176 5.968L19.0706 4.515L20.4846 5.929L19.0316 7.382C20.4673 9.17917 21.1605 11.4579 20.9687 13.7501C20.7768 16.0424 19.7146 18.1742 18.0001 19.7077C16.2856 21.2412 14.0489 22.0601 11.7496 21.9961C9.45018 21.9321 7.26258 20.9901 5.63604 19.3635C4.00951 17.737 3.0675 15.5494 3.00349 13.25C2.93948 10.9506 3.75832 8.71402 5.29185 6.99951C6.82538 5.285 8.95718 4.22275 11.2494 4.03092C13.5417 3.83909 15.8204 4.53223 17.6176 5.968ZM11.9996 20C12.9188 20 13.8291 19.8189 14.6784 19.4672C15.5276 19.1154 16.2993 18.5998 16.9493 17.9497C17.5993 17.2997 18.1149 16.5281 18.4667 15.6788C18.8185 14.8295 18.9996 13.9193 18.9996 13C18.9996 12.0807 18.8185 11.1705 18.4667 10.3212C18.1149 9.47194 17.5993 8.70026 16.9493 8.05025C16.2993 7.40024 15.5276 6.88463 14.6784 6.53284C13.8291 6.18106 12.9188 6 11.9996 6C10.1431 6 8.36258 6.7375 7.04982 8.05025C5.73707 9.36301 4.99957 11.1435 4.99957 13C4.99957 14.8565 5.73707 16.637 7.04982 17.9497C8.36258 19.2625 10.1431 20 11.9996 20ZM10.9996 8H12.9996V14H10.9996V8ZM7.99957 1H15.9996V3H7.99957V1Z"/></g></g><defs><clipPath id="a"><rect width="24" height="24" fill="#fff"/></clipPath></defs></svg>