<svg width="24" height="24"  xmlns="http://www.w3.org/2000/svg"><g clip-path="url(#a)"><path d="m14.935 7.204-6-3L4 6.319v12.648l5.065-2.17 6 3L20 17.68V5.033l-5.065 2.17v.001ZM2 5l7-3 6 3 6.303-2.701a.5.5 0 0 1 .697.46V19l-7 3-6-3-6.303 2.701a.501.501 0 0 1-.697-.46V5Zm4 6h2v2H6v-2Zm4 0h2v2h-2v-2Zm5.998-.063L17.236 9.7l1.06 1.06-1.237 1.238 1.237 1.238-1.06 1.06-1.238-1.237-1.237 1.237-1.061-1.06 1.237-1.238-1.237-1.237L14.76 9.7l1.238 1.237Z" /></g><defs><clipPath id="a"><path fill="#fff" d="M0 0h24v24H0z"/></clipPath></defs></svg>