<svg xmlns="http://www.w3.org/2000/svg" width="24" height="24" fill="none"><g clip-path="url(#a)"><g><path fill="currentColor" d="M15.414 4.99999H21.008C21.556 4.99999 22 5.44499 22 5.99999V20C22 20.552 21.545 21 21.008 21H2.992C2.86113 20.9997 2.7316 20.9736 2.61084 20.9232C2.49008 20.8727 2.38047 20.7989 2.2883 20.706C2.19614 20.6131 2.12322 20.5029 2.07375 20.3818C2.02427 20.2606 1.99921 20.1309 2 20V5.99999C2 5.44799 2.455 4.99999 2.992 4.99999H8.586L6.05 2.46399L7.464 1.04999L11.414 4.99999H12.586L16.536 1.04999L17.95 2.46399L15.414 4.99999ZM4 6.99999V19H20V6.99999H4Z"/></g></g><defs><clipPath id="a"><rect width="24" height="24" fill="#fff"/></clipPath></defs></svg>