<svg xmlns="http://www.w3.org/2000/svg" width="24" height="24" fill="none"><g clip-path="url(#a)"><g><path fill="currentColor" d="M12 13C13.657 13 15 14.343 15 16C15 16.85 14.647 17.616 14.08 18.162L12.17 20H15V22H9V20.276L12.693 16.721C12.883 16.538 13 16.283 13 16C13 15.448 12.552 15 12 15C11.448 15 11 15.448 11 16H9C9 14.343 10.343 13 12 13ZM18 13V17H20V13H22V22H20V19H16V13H18ZM4 12C4 14.527 5.171 16.78 7 18.246V20.662C4.011 18.933 2 15.702 2 12H4ZM12 2C17.185 2 21.449 5.947 21.95 11H19.938C19.446 7.054 16.08 4 12 4C9.536 4 7.332 5.114 5.865 6.865L8 9H2V3L4.447 5.446C6.28 3.336 8.984 2 12 2Z"/></g></g><defs><clipPath id="a"><rect width="24" height="24" fill="#fff"/></clipPath></defs></svg>