<svg width="24" height="24" fill="none" xmlns="http://www.w3.org/2000/svg"><g clip-path="url(#a)"><path d="m8.667 19.273 1.006-1.742a6 6 0 0 0 8.282-4.781h2.012A7.97 7.97 0 0 1 18.928 16a7.998 7.998 0 0 1-1.452 1.835 2.494 2.494 0 0 0-2.734.902 2.493 2.493 0 0 0-.426.921 7.978 7.978 0 0 1-5.65-.385h.001Zm-1.3-.75a7.979 7.979 0 0 1-3.156-4.7A2.494 2.494 0 0 0 5 12c0-.72-.304-1.369-.791-1.825A8 8 0 0 1 5.072 8a7.97 7.97 0 0 1 2.295-2.524l1.006 1.742a6.001 6.001 0 0 0 0 9.563l-1.005 1.742h-.001Zm1.3-13.796a8.007 8.007 0 0 1 5.648-.387 2.497 2.497 0 0 0 3.161 1.825 8.007 8.007 0 0 1 2.49 5.085h-2.013A5.99 5.99 0 0 0 15 6.804a5.99 5.99 0 0 0-5.327-.335L8.667 4.727ZM16 5.072a1.5 1.5 0 1 1 1.482-2.607A1.5 1.5 0 0 1 16 5.072ZM4 12a1.5 1.5 0 1 1-3 0 1.5 1.5 0 0 1 3 0Zm12 6.928a1.501 1.501 0 1 1 1.518 2.59A1.501 1.501 0 0 1 16 18.928Z" /></g><defs><clipPath id="a"><path fill="#fff" d="M0 0h24v24H0z"/></clipPath></defs></svg>