<svg xmlns="http://www.w3.org/2000/svg" width="24" height="24" fill="none"><g clip-path="url(#a)"><g><path fill="#121212" d="M12 1L15 6H13V13.381L16 11.882L15.999 11H15V7H19V11H17.999L18 13.118L13 15.618V17.171C14.166 17.583 15 18.694 15 20C15 21.657 13.657 23 12 23C10.343 23 9 21.657 9 20C9 18.813 9.69 17.787 10.69 17.3L6 14L5.999 11.732C5.402 11.386 5 10.74 5 10C5 8.895 5.895 8 7 8C8.105 8 9 8.895 9 10C9 10.74 8.598 11.387 8 11.732V13L11 15.086V6H9L12 1Z"/></g></g><defs><clipPath id="a"><rect width="24" height="24" fill="white"/></clipPath></defs></svg>