<svg width="24" height="24"  xmlns="http://www.w3.org/2000/svg"><g clip-path="url(#a)"><path d="M1 22a8 8 0 0 1 16 0H1Zm8-9c-3.315 0-6-2.685-6-6s2.685-6 6-6 6 2.685 6 6-2.685 6-6 6Zm9.246-9.816c.5 1.21.756 2.507.754 3.816a9.972 9.972 0 0 1-.754 3.816l-1.677-1.22A7.989 7.989 0 0 0 17 7a7.991 7.991 0 0 0-.43-2.596l1.676-1.22Zm3.302-2.4A13.942 13.942 0 0 1 23 7c0 2.233-.523 4.344-1.452 6.216l-1.645-1.196A11.955 11.955 0 0 0 21 7a11.96 11.96 0 0 0-1.097-5.02L21.548.784Z" /></g><defs><clipPath id="a"><path fill="#fff" d="M0 0h24v24H0z"/></clipPath></defs></svg>