<svg width="24" height="24" fill="none" xmlns="http://www.w3.org/2000/svg"><g clip-path="url(#a)"><path d="M1 22a8 8 0 0 1 16 0h-2a6 6 0 1 0-12 0H1Zm8-9c-3.315 0-6-2.685-6-6s2.685-6 6-6 6 2.685 6 6-2.685 6-6 6Zm0-2c2.21 0 4-1.79 4-4s-1.79-4-4-4-4 1.79-4 4 1.79 4 4 4ZM21.548.784A13.942 13.942 0 0 1 23 7c0 2.233-.523 4.344-1.452 6.216l-1.645-1.196A11.955 11.955 0 0 0 21 7a11.96 11.96 0 0 0-1.097-5.02L21.548.784Zm-3.302 2.4c.5 1.21.756 2.507.754 3.816a9.972 9.972 0 0 1-.754 3.816l-1.677-1.22A7.989 7.989 0 0 0 17 7a7.991 7.991 0 0 0-.43-2.596l1.676-1.22Z" fill="currentColor"/></g><defs><clipPath id="a"><path fill="#fff" d="M0 0h24v24H0z"/></clipPath></defs></svg>