<svg xmlns="http://www.w3.org/2000/svg" width="24" height="24" fill="none"><g clip-path="url(#a)"><g><path fill="#121212" d="M11.9996 17C15.6616 17 18.8646 18.575 20.6066 20.925L18.7646 21.796C17.3466 20.116 14.8466 19 11.9996 19C9.15255 19 6.65255 20.116 5.23455 21.796L3.39355 20.924C5.13555 18.574 8.33755 17 11.9996 17ZM11.9996 2C13.3256 2 14.5974 2.52678 15.5351 3.46447C16.4728 4.40215 16.9996 5.67392 16.9996 7V10C16.9996 11.3261 16.4728 12.5979 15.5351 13.5355C14.5974 14.4732 13.3256 15 11.9996 15C10.6735 15 9.4017 14.4732 8.46402 13.5355C7.52634 12.5979 6.99955 11.3261 6.99955 10V7C6.99955 5.67392 7.52634 4.40215 8.46402 3.46447C9.4017 2.52678 10.6735 2 11.9996 2Z"/></g></g><defs><clipPath id="a"><rect width="24" height="24" fill="white"/></clipPath></defs></svg>