<svg xmlns="http://www.w3.org/2000/svg" width="24" height="24" fill="none"><g clip-path="url(#a)"><g><path fill="currentColor" d="M3.492 8.06499L4.778 19H19.222L20.508 8.06499L16.498 10.738L12 4.44099L7.502 10.738L3.492 8.06499ZM2.801 5.19999L7 7.99999L11.186 2.13999C11.2785 2.01036 11.4006 1.9047 11.5422 1.83179C11.6838 1.75889 11.8407 1.72086 12 1.72086C12.1593 1.72086 12.3162 1.75889 12.4578 1.83179C12.5994 1.9047 12.7215 2.01036 12.814 2.13999L17 7.99999L21.2 5.19999C21.359 5.09424 21.5449 5.0362 21.7357 5.03273C21.9266 5.02926 22.1145 5.0805 22.2772 5.18041C22.4399 5.28032 22.5706 5.42471 22.6538 5.59653C22.7371 5.76834 22.7694 5.96039 22.747 6.14999L21.104 20.117C21.0753 20.3602 20.9584 20.5845 20.7754 20.7473C20.5923 20.91 20.3559 21 20.111 21H3.889C3.64407 21 3.40766 20.91 3.22463 20.7473C3.04159 20.5845 2.92466 20.3602 2.896 20.117L1.253 6.14899C1.2308 5.95947 1.26329 5.76756 1.34662 5.59591C1.42996 5.42425 1.56066 5.28003 1.72331 5.18025C1.88596 5.08048 2.07376 5.02932 2.26454 5.03281C2.45532 5.03631 2.64112 5.09432 2.8 5.19999H2.801ZM12 15C11.4696 15 10.9609 14.7893 10.5858 14.4142C10.2107 14.0391 10 13.5304 10 13C10 12.4696 10.2107 11.9608 10.5858 11.5858C10.9609 11.2107 11.4696 11 12 11C12.5304 11 13.0391 11.2107 13.4142 11.5858C13.7893 11.9608 14 12.4696 14 13C14 13.5304 13.7893 14.0391 13.4142 14.4142C13.0391 14.7893 12.5304 15 12 15Z"/></g></g><defs><clipPath id="a"><rect width="24" height="24" fill="#fff"/></clipPath></defs></svg>