<svg width="24" height="24" fill="none" xmlns="http://www.w3.org/2000/svg"><g clip-path="url(#a)"><path d="M3.492 8.065 4.778 19h14.444l1.286-10.935-4.01 2.673L12 4.441l-4.498 6.297-4.01-2.673ZM2.801 5.2 7 8l4.186-5.86a1 1 0 0 1 1.628 0L17 8l4.2-2.8a1 1 0 0 1 1.547.95l-1.643 13.967a1 1 0 0 1-.993.883H3.889a1 1 0 0 1-.993-.883L1.253 6.149A1 1 0 0 1 2.8 5.2h.001ZM12 15a2 2 0 1 1 0-4 2 2 0 0 1 0 4Z" fill="currentColor"/></g><defs><clipPath id="a"><path fill="#fff" d="M0 0h24v24H0z"/></clipPath></defs></svg>