<svg xmlns="http://www.w3.org/2000/svg" width="24" height="24" fill="none"><g clip-path="url(#a)"><g><path fill="#121212" d="M4.873 3H19.127C19.2848 2.99998 19.4403 3.0373 19.5809 3.1089C19.7216 3.18051 19.8432 3.28437 19.936 3.412L23.759 8.668C23.827 8.76152 23.8604 8.8757 23.8537 8.99112C23.8469 9.10653 23.8004 9.21603 23.722 9.301L12.367 21.602C12.3202 21.6526 12.2634 21.693 12.2003 21.7206C12.1371 21.7482 12.0689 21.7624 12 21.7624C11.9311 21.7624 11.8629 21.7482 11.7997 21.7206C11.7366 21.693 11.6798 21.6526 11.633 21.602L0.277998 9.302C0.199349 9.21697 0.152663 9.10726 0.145915 8.99163C0.139167 8.876 0.172775 8.76161 0.240998 8.668L4.064 3.412C4.15678 3.28437 4.27844 3.18051 4.41905 3.1089C4.55965 3.0373 4.71521 2.99998 4.873 3Z"/></g></g><defs><clipPath id="a"><rect width="24" height="24" fill="white"/></clipPath></defs></svg>