<svg width="24" height="24"  xmlns="http://www.w3.org/2000/svg"><g clip-path="url(#a)"><path d="m19.39 3.161 1.413 1.414-2.475 2.475 2.475 2.475L18.328 12l2.475 2.476-2.475 2.475 2.475 2.475-1.414 1.414-3.89-3.89 2.476-2.474L15.5 12l2.475-2.475L15.5 7.05l3.89-3.889ZM13 19.945a.5.5 0 0 1-.817.387L6.89 16H3a1 1 0 0 1-1-1V9a1 1 0 0 1 1-1l2.584-.002-3.776-3.776 1.414-1.414L13 12.586v7.36ZM12.887 3.74a.5.5 0 0 1 .113.316v5.702L9.282 6.04l2.9-2.372a.5.5 0 0 1 .705.07v.001Z" /></g><defs><clipPath id="a"><path fill="#fff" d="M0 0h24v24H0z"/></clipPath></defs></svg>