<svg xmlns="http://www.w3.org/2000/svg" width="24" height="24" fill="none"><g clip-path="url(#a)"><g><path fill="currentColor" d="M11 21V19.93C9.33387 19.6891 7.81031 18.856 6.7084 17.5833C5.60648 16.3106 4.99998 14.6835 5 13V8C5 7.08075 5.18106 6.1705 5.53284 5.32122C5.88463 4.47194 6.40024 3.70026 7.05025 3.05025C7.70026 2.40024 8.47194 1.88463 9.32122 1.53284C10.1705 1.18106 11.0807 1 12 1C12.9193 1 13.8295 1.18106 14.6788 1.53284C15.5281 1.88463 16.2997 2.40024 16.9497 3.05025C17.5998 3.70026 18.1154 4.47194 18.4672 5.32122C18.8189 6.1705 19 7.08075 19 8V13C19 14.6835 18.3935 16.3106 17.2916 17.5833C16.1897 18.856 14.6661 19.6891 13 19.93V21H17V23H7V21H11ZM12 9C11.7348 9 11.4804 8.89464 11.2929 8.70711C11.1054 8.51957 11 8.26522 11 8C11 7.73478 11.1054 7.48043 11.2929 7.29289C11.4804 7.10536 11.7348 7 12 7C12.2652 7 12.5196 7.10536 12.7071 7.29289C12.8946 7.48043 13 7.73478 13 8C13 8.26522 12.8946 8.51957 12.7071 8.70711C12.5196 8.89464 12.2652 9 12 9ZM12 11C12.7956 11 13.5587 10.6839 14.1213 10.1213C14.6839 9.55871 15 8.79565 15 8C15 7.20435 14.6839 6.44129 14.1213 5.87868C13.5587 5.31607 12.7956 5 12 5C11.2044 5 10.4413 5.31607 9.87868 5.87868C9.31607 6.44129 9 7.20435 9 8C9 8.79565 9.31607 9.55871 9.87868 10.1213C10.4413 10.6839 11.2044 11 12 11Z"/></g></g><defs><clipPath id="a"><rect width="24" height="24" fill="#fff"/></clipPath></defs></svg>