<svg width="24" height="24" fill="none" xmlns="http://www.w3.org/2000/svg"><g clip-path="url(#a)"><path d="M8.667 11.511a1.279 1.279 0 0 1-1.285-1.285c0-.718.567-1.286 1.285-1.286.717 0 1.285.568 1.285 1.286 0 .717-.568 1.285-1.285 1.285Zm6.666 0a1.28 1.28 0 0 1-1.19-.792 1.275 1.275 0 0 1-.095-.493c0-.718.568-1.286 1.285-1.286.718 0 1.285.568 1.285 1.286 0 .717-.567 1.285-1.285 1.285Zm-8.51 7.704.715-.436a4 4 0 0 1 2.705-.536c.212.033.386.059.52.076.406.054.82.081 1.237.081 4.42 0 7.9-3.022 7.9-6.6S16.42 5.2 12 5.2s-7.9 3.022-7.9 6.6c0 1.366.5 2.673 1.432 3.781.048.057.12.137.214.235a3.999 3.999 0 0 1 1.1 3.102l-.024.297Zm-.63 2.727a1 1 0 0 1-1.527-.93l.188-2.26a2 2 0 0 0-.55-1.551A7.059 7.059 0 0 1 4 16.868c-1.194-1.421-1.9-3.173-1.9-5.068 0-4.75 4.432-8.6 9.9-8.6s9.9 3.85 9.9 8.6-4.432 8.6-9.9 8.6c-.51 0-1.01-.033-1.5-.098a25.86 25.86 0 0 1-.568-.084 2 2 0 0 0-1.353.268l-2.387 1.456Z" fill="currentColor"/></g><defs><clipPath id="a"><path fill="#fff" d="M0 0h24v24H0z"/></clipPath></defs></svg>