<svg width="24" height="24"  xmlns="http://www.w3.org/2000/svg"><g clip-path="url(#a)"><path d="M9.27 14.669a.662.662 0 0 1-.88-.27l-.043-.094-1.818-3.998a.473.473 0 0 1 0-.145.327.327 0 0 1 .335-.328.305.305 0 0 1 .196.066l2.18 1.527a.988.988 0 0 0 .546.167.891.891 0 0 0 .342-.066l10.047-4.5a10.73 10.73 0 0 0-8.171-3.526C6.478 3.502 2 7.232 2 11.87a7.83 7.83 0 0 0 3.46 6.296.662.662 0 0 1 .24.727l-.45 1.701a.944.944 0 0 0-.051.24.327.327 0 0 0 .334.334.414.414 0 0 0 .19-.058l2.18-1.265c.16-.098.343-.151.531-.152.099 0 .197.014.29.043 1.063.3 2.161.452 3.265.45 5.525 0 10.01-3.73 10.01-8.33a7.225 7.225 0 0 0-1.097-3.883L9.35 14.625l-.08.044Z" /></g><defs><clipPath id="a"><path fill="#fff" d="M0 0h24v24H0z"/></clipPath></defs></svg>