<svg width="24" height="24" fill="none" xmlns="http://www.w3.org/2000/svg"><g clip-path="url(#a)"><path d="m3.929 4.929 1.414 1.414A7.975 7.975 0 0 0 3 12c0 2.21.895 4.21 2.343 5.657L3.93 19.07A9.961 9.961 0 0 1 1 12a9.973 9.973 0 0 1 2.929-7.071Zm16.142 0A9.968 9.968 0 0 1 23 12a9.97 9.97 0 0 1-2.929 7.071l-1.414-1.414A7.975 7.975 0 0 0 21 12a7.976 7.976 0 0 0-2.342-5.656L20.07 4.93l.001-.001ZM13 5v6h3l-5 8v-6H8l5-8ZM6.757 7.757l1.415 1.415A3.984 3.984 0 0 0 7 12c0 1.105.448 2.105 1.172 2.828l-1.415 1.415A5.985 5.985 0 0 1 5 12c0-1.657.672-3.157 1.757-4.243Zm10.487.001A5.984 5.984 0 0 1 19 12a5.985 5.985 0 0 1-1.757 4.243l-1.415-1.415A3.984 3.984 0 0 0 17 12a3.986 3.986 0 0 0-1.17-2.827l1.414-1.415Z" /></g><defs><clipPath id="a"><path fill="#fff" d="M0 0h24v24H0z"/></clipPath></defs></svg>