<svg xmlns="http://www.w3.org/2000/svg" width="24" height="24" fill="none"><g clip-path="url(#a)"><g><path fill="currentColor" d="M11 15.934C9.11596 15.6786 7.39918 14.7172 6.19688 13.2443C4.99457 11.7714 4.39646 9.8969 4.52349 7.99985C4.65052 6.10279 5.49321 4.32475 6.88116 3.0253C8.2691 1.72585 10.0987 1.00195 12 1C13.9037 0.998168 15.7368 1.72028 17.1277 3.01993C18.5186 4.31959 19.3633 6.09953 19.4905 7.99891C19.6177 9.89829 19.0179 11.775 17.8126 13.2485C16.6074 14.722 14.8869 15.682 13 15.934V18H18V20H13V24H11V20H6.00003V18H11V15.934ZM12 14C13.4587 14 14.8577 13.4205 15.8891 12.3891C16.9206 11.3576 17.5 9.95869 17.5 8.5C17.5 7.04131 16.9206 5.64237 15.8891 4.61092C14.8577 3.57947 13.4587 3 12 3C10.5413 3 9.14239 3.57947 8.11094 4.61092C7.07949 5.64237 6.50003 7.04131 6.50003 8.5C6.50003 9.95869 7.07949 11.3576 8.11094 12.3891C9.14239 13.4205 10.5413 14 12 14Z"/></g></g><defs><clipPath id="a"><rect width="24" height="24" fill="#fff"/></clipPath></defs></svg>