<svg xmlns="http://www.w3.org/2000/svg" width="24" height="24" fill="none"><g clip-path="url(#a)"><g><path fill="#121212" d="M13.373 18.897H14.825L15.303 20.534L17.908 18.897H20.978V5.395H13.373V18.897ZM14.918 6.86H19.433V17.43H17.701L15.971 18.517L15.657 17.433L14.918 17.43V6.861V6.86ZM12.088 11.572H8.84599C8.94064 10.0539 8.986 8.53307 8.98199 7.012H12.154C12.154 7.012 12.276 5.612 11.622 5.628H6.13499C6.35099 4.814 6.62299 3.973 6.94799 3.104C6.94799 3.104 5.45499 3.104 4.94799 4.443C4.73699 4.995 4.12799 7.12 3.04399 9.291C3.40899 9.251 4.61699 9.218 5.32799 7.913C5.45899 7.547 5.48399 7.5 5.64599 7.011H7.43599C7.43599 7.662 7.36199 11.162 7.33199 11.569H4.09199C3.36299 11.569 3.12699 13.035 3.12699 13.035H7.19299C6.91999 16.131 5.45599 18.74 2.79999 20.8C4.06999 21.163 5.33599 20.743 5.96199 20.186C5.96199 20.186 7.38699 18.889 8.16799 15.888L11.514 19.918C11.514 19.918 12.004 18.25 11.437 17.437C10.967 16.883 9.69699 15.385 9.15599 14.842L8.24899 15.562C8.51899 14.695 8.68199 13.852 8.73699 13.038H12.559C12.559 13.038 12.554 11.572 12.089 11.572H12.088Z"/></g></g><defs><clipPath id="a"><rect width="24" height="24" fill="white"/></clipPath></defs></svg>