<svg width="24" height="24" viewBox="0 0 24 24" fill="none" xmlns="http://www.w3.org/2000/svg">
<g id="account-pin-box-fill" clip-path="url(#clip0_8_8078)">
<g id="Group">
<path id="Vector" d="M14 21L12 23L10 21H4.995C4.46589 21 3.95846 20.7898 3.58432 20.4157C3.21019 20.0415 3 19.5341 3 19.005V4.995C3 3.893 3.893 3 4.995 3H19.005C20.107 3 21 3.893 21 4.995V19.005C21 19.5341 20.7898 20.0415 20.4157 20.4157C20.0415 20.7898 19.5341 21 19.005 21H14ZM6.357 18H17.847C17.2026 17.0734 16.3435 16.3166 15.3431 15.7942C14.3427 15.2717 13.2306 14.9993 12.102 15C10.9734 14.9993 9.86134 15.2717 8.86091 15.7942C7.86048 16.3166 7.00137 17.0734 6.357 18ZM12 13C12.4596 13 12.9148 12.9095 13.3394 12.7336C13.764 12.5577 14.1499 12.2999 14.4749 11.9749C14.7999 11.6499 15.0577 11.264 15.2336 10.8394C15.4095 10.4148 15.5 9.95963 15.5 9.5C15.5 9.04037 15.4095 8.58525 15.2336 8.16061C15.0577 7.73597 14.7999 7.35013 14.4749 7.02513C14.1499 6.70012 13.764 6.44231 13.3394 6.26642C12.9148 6.09053 12.4596 6 12 6C11.0717 6 10.1815 6.36875 9.52513 7.02513C8.86875 7.6815 8.5 8.57174 8.5 9.5C8.5 10.4283 8.86875 11.3185 9.52513 11.9749C10.1815 12.6313 11.0717 13 12 13Z" fill="#121212"/>
</g>
</g>
<defs>
<clipPath id="clip0_8_8078">
<rect width="24" height="24" fill="white"/>
</clipPath>
</defs>
</svg>
