<svg width="24" height="24" viewBox="0 0 24 24" fill="none" xmlns="http://www.w3.org/2000/svg">
<g id="account-pin-circle-line" clip-path="url(#clip0_8_7794)">
<g id="Group">
<path id="Vector" d="M9.745 21.745C5.308 20.722 2 16.747 2 12C2 6.477 6.477 2 12 2C17.523 2 22 6.477 22 12C22 16.747 18.692 20.722 14.255 21.745L12 24L9.745 21.745ZM7.012 18.257C7.9438 19.0022 9.03132 19.5282 10.194 19.796L10.754 19.925L12 21.172L13.247 19.925L13.807 19.795C15.0456 19.5095 16.1978 18.9313 17.167 18.109C16.5158 17.4406 15.7372 16.9095 14.8772 16.5473C14.0171 16.185 13.0932 15.9989 12.16 16C10.124 16 8.29 16.87 7.012 18.257ZM5.616 16.82C6.45645 15.9281 7.47067 15.2177 8.59614 14.7327C9.72161 14.2477 10.9345 13.9984 12.16 14C13.3417 13.9985 14.512 14.2304 15.6037 14.6824C16.6955 15.1344 17.6873 15.7976 18.522 16.634C19.3781 15.4291 19.8836 14.0106 19.9826 12.5359C20.0815 11.0612 19.77 9.58789 19.0825 8.27946C18.395 6.97102 17.3585 5.87862 16.088 5.12345C14.8174 4.36827 13.3625 3.97984 11.8846 4.00125C10.4067 4.02267 8.96366 4.45308 7.71552 5.24476C6.46738 6.03643 5.46296 7.1584 4.81369 8.4862C4.16442 9.814 3.89569 11.2957 4.03732 12.7669C4.17894 14.2382 4.72537 15.6414 5.616 16.821V16.82ZM12 13C10.9391 13 9.92172 12.5786 9.17157 11.8284C8.42143 11.0783 8 10.0609 8 9C8 7.93913 8.42143 6.92172 9.17157 6.17157C9.92172 5.42143 10.9391 5 12 5C13.0609 5 14.0783 5.42143 14.8284 6.17157C15.5786 6.92172 16 7.93913 16 9C16 10.0609 15.5786 11.0783 14.8284 11.8284C14.0783 12.5786 13.0609 13 12 13ZM12 11C12.5304 11 13.0391 10.7893 13.4142 10.4142C13.7893 10.0391 14 9.53043 14 9C14 8.46957 13.7893 7.96086 13.4142 7.58579C13.0391 7.21071 12.5304 7 12 7C11.4696 7 10.9609 7.21071 10.5858 7.58579C10.2107 7.96086 10 8.46957 10 9C10 9.53043 10.2107 10.0391 10.5858 10.4142C10.9609 10.7893 11.4696 11 12 11Z" fill="currentColor"/>
</g>
</g>
<defs>
<clipPath id="clip0_8_7794">
<rect width="24" height="24" fill="white"/>
</clipPath>
</defs>
</svg>
