<svg width="24" height="24" viewBox="0 0 24 24"  xmlns="http://www.w3.org/2000/svg">
<g id="alarm-line" clip-path="url(#clip0_8_8403)">
<g id="Group">
<path id="Vector" d="M12 22C10.8181 22 9.64779 21.7672 8.55586 21.3149C7.46393 20.8626 6.47178 20.1997 5.63605 19.364C4.80032 18.5282 4.13739 17.5361 3.68509 16.4442C3.2328 15.3522 3.00001 14.1819 3.00001 13C3.00001 11.8181 3.2328 10.6478 3.68509 9.55586C4.13739 8.46393 4.80032 7.47178 5.63605 6.63605C6.47178 5.80032 7.46393 5.13739 8.55586 4.68509C9.64779 4.2328 10.8181 4.00001 12 4.00001C14.387 4.00001 16.6761 4.94822 18.364 6.63605C20.0518 8.32388 21 10.6131 21 13C21 15.387 20.0518 17.6761 18.364 19.364C16.6761 21.0518 14.387 22 12 22ZM12 20C12.9193 20 13.8295 19.819 14.6788 19.4672C15.5281 19.1154 16.2997 18.5998 16.9498 17.9498C17.5998 17.2997 18.1154 16.5281 18.4672 15.6788C18.819 14.8295 19 13.9193 19 13C19 12.0808 18.819 11.1705 18.4672 10.3212C18.1154 9.47195 17.5998 8.70027 16.9498 8.05026C16.2997 7.40025 15.5281 6.88464 14.6788 6.53285C13.8295 6.18107 12.9193 6.00001 12 6.00001C10.1435 6.00001 8.36302 6.73751 7.05026 8.05026C5.73751 9.36302 5.00001 11.1435 5.00001 13C5.00001 14.8565 5.73751 16.637 7.05026 17.9498C8.36302 19.2625 10.1435 20 12 20ZM13 13H16V15H11V8.00001H13V13ZM1.74701 6.28201L5.28201 2.74701L6.69701 4.16101L3.16001 7.69701L1.74701 6.28201ZM18.717 2.74701L22.253 6.28201L20.839 7.69701L17.303 4.16101L18.718 2.74701H18.717Z" />
</g>
</g>
<defs>
<clipPath id="clip0_8_8403">
<rect width="24" height="24" fill="white"/>
</clipPath>
</defs>
</svg>
