<svg width="24" height="24" viewBox="0 0 24 24" fill="none" xmlns="http://www.w3.org/2000/svg">
<g id="alarm-warning-fill" clip-path="url(#clip0_8_9075)">
<g id="Group">
<path id="Vector" d="M3.99962 20V14C3.99962 11.8783 4.84247 9.84344 6.34276 8.34315C7.84305 6.84285 9.87788 6 11.9996 6C14.1213 6 16.1562 6.84285 17.6565 8.34315C19.1568 9.84344 19.9996 11.8783 19.9996 14V20H20.9996V22H2.99962V20H3.99962ZM5.99962 14H7.99962C7.99962 12.9391 8.42104 11.9217 9.17119 11.1716C9.92134 10.4214 10.9388 10 11.9996 10V8C10.4083 8 8.88219 8.63214 7.75698 9.75736C6.63176 10.8826 5.99962 12.4087 5.99962 14ZM10.9996 2H12.9996V5H10.9996V2ZM19.7776 4.808L21.1916 6.222L19.0716 8.343L17.6566 6.929L19.7776 4.808ZM2.80762 6.222L4.22162 4.808L6.34262 6.928L4.92962 8.344L2.80762 6.222Z" />
</g>
</g>
<defs>
<clipPath id="clip0_8_9075">
<rect width="24" height="24" fill="white"/>
</clipPath>
</defs>
</svg>
