<svg width="24" height="24" viewBox="0 0 24 24" fill="none" xmlns="http://www.w3.org/2000/svg">
<g id="aliens-line" clip-path="url(#clip0_8_7718)">
<g id="Group">
<path id="Vector" d="M12 2C14.2543 2 16.4163 2.89553 18.0104 4.48959C19.6045 6.08365 20.5 8.24566 20.5 10.5C20.5 17 15 22.5 12 22.5C9 22.5 3.5 17 3.5 10.5C3.5 8.24566 4.39553 6.08365 5.98959 4.48959C7.58365 2.89553 9.74566 2 12 2ZM12 4C10.2761 4 8.62279 4.68482 7.40381 5.90381C6.18482 7.12279 5.5 8.77609 5.5 10.5C5.5 15.294 9.665 20.5 12 20.5C14.335 20.5 18.5 15.294 18.5 10.5C18.5 8.77609 17.8152 7.12279 16.5962 5.90381C15.3772 4.68482 13.7239 4 12 4ZM17.5 11C17.66 11 17.819 11.008 17.975 11.025C18.0459 11.6924 17.9665 12.3672 17.7428 13C17.5191 13.6328 17.1567 14.2075 16.6821 14.6821C16.2075 15.1567 15.6328 15.5191 15 15.7428C14.3672 15.9665 13.6924 16.0459 13.025 15.975C12.9584 15.3475 13.0245 14.713 13.219 14.1127C13.4136 13.5124 13.7322 12.9597 14.1542 12.4906C14.5762 12.0214 15.0922 11.6463 15.6686 11.3895C16.245 11.1327 16.869 11 17.5 11ZM6.5 11C7.13103 11 7.75501 11.1327 8.33142 11.3895C8.90783 11.6463 9.42379 12.0214 9.8458 12.4906C10.2678 12.9597 10.5864 13.5124 10.781 14.1127C10.9755 14.713 11.0416 15.3475 10.975 15.975C10.3076 16.0459 9.63277 15.9665 8.99998 15.7428C8.36719 15.5191 7.79245 15.1567 7.31786 14.6821C6.84328 14.2075 6.48086 13.6328 6.25716 13C6.03345 12.3672 5.95413 11.6924 6.025 11.025C6.18 11.008 6.34 11 6.5 11Z" fill="currentColor"/>
</g>
</g>
<defs>
<clipPath id="clip0_8_7718">
<rect width="24" height="24" fill="white"/>
</clipPath>
</defs>
</svg>
