<svg width="24" height="24" viewBox="0 0 24 24"  xmlns="http://www.w3.org/2000/svg">
<g id="ancient-gate-fill" clip-path="url(#clip0_8_613)">
<g id="Group">
<path id="Vector" d="M18.901 10C19.296 10.6856 19.946 11.1872 20.7093 11.3957C21.4726 11.6042 22.2873 11.5026 22.976 11.113C23.057 11.8366 22.9103 12.5675 22.5562 13.2039C22.2022 13.8402 21.6586 14.3502 21.001 14.663L21 21H15V19C15.0007 18.2191 14.697 17.4687 14.1532 16.9082C13.6095 16.3477 12.8686 16.0213 12.088 15.9984C11.3075 15.9755 10.5487 16.2578 9.97303 16.7855C9.39733 17.3131 9.05006 18.0444 9.005 18.824L9 19V21H3V14.664C2.34115 14.3517 1.79628 13.8414 1.44148 13.2044C1.08669 12.5675 0.939684 11.8356 1.021 11.111C1.70963 11.5014 2.52467 11.6036 3.2884 11.3955C4.05213 11.1874 4.70261 10.6858 5.098 10H18.901ZM17.036 3C17.1075 3.4961 17.2848 3.97105 17.5558 4.39272C17.8267 4.81438 18.1851 5.17293 18.6067 5.4441C19.0282 5.71527 19.5031 5.89273 19.9991 5.96448C20.4952 6.03624 21.0009 6.00061 21.482 5.86C21.3964 6.68858 21.018 7.45945 20.415 8.03408C19.812 8.60872 19.0237 8.94943 18.192 8.995L18 9H6C5.13397 9.00014 4.29864 8.6792 3.6555 8.09923C3.01236 7.51925 2.60707 6.72143 2.518 5.86C2.9991 6.00061 3.50479 6.03624 4.00086 5.96448C4.49693 5.89273 4.9718 5.71527 5.39334 5.4441C5.81488 5.17293 6.17327 4.81438 6.44424 4.39272C6.71522 3.97105 6.89247 3.4961 6.964 3H17.036Z" />
</g>
</g>
<defs>
<clipPath id="clip0_8_613">
<rect width="24" height="24" fill="white"/>
</clipPath>
</defs>
</svg>
