<svg width="24" height="24" viewBox="0 0 24 24"  xmlns="http://www.w3.org/2000/svg">
<g id="apps-2-fill" clip-path="url(#clip0_8_9023)">
<g id="Group">
<path id="Vector" d="M7 11.5C6.40905 11.5 5.82389 11.3836 5.27792 11.1575C4.73196 10.9313 4.23588 10.5998 3.81802 10.182C3.40016 9.76412 3.06869 9.26804 2.84254 8.72208C2.6164 8.17611 2.5 7.59095 2.5 7C2.5 6.40905 2.6164 5.82389 2.84254 5.27792C3.06869 4.73196 3.40016 4.23588 3.81802 3.81802C4.23588 3.40016 4.73196 3.06869 5.27792 2.84254C5.82389 2.6164 6.40905 2.5 7 2.5C8.19347 2.5 9.33807 2.97411 10.182 3.81802C11.0259 4.66193 11.5 5.80653 11.5 7C11.5 8.19347 11.0259 9.33807 10.182 10.182C9.33807 11.0259 8.19347 11.5 7 11.5ZM7 21.5C5.80653 21.5 4.66193 21.0259 3.81802 20.182C2.97411 19.3381 2.5 18.1935 2.5 17C2.5 15.8065 2.97411 14.6619 3.81802 13.818C4.66193 12.9741 5.80653 12.5 7 12.5C8.19347 12.5 9.33807 12.9741 10.182 13.818C11.0259 14.6619 11.5 15.8065 11.5 17C11.5 18.1935 11.0259 19.3381 10.182 20.182C9.33807 21.0259 8.19347 21.5 7 21.5ZM17 11.5C16.4091 11.5 15.8239 11.3836 15.2779 11.1575C14.732 10.9313 14.2359 10.5998 13.818 10.182C13.4002 9.76412 13.0687 9.26804 12.8425 8.72208C12.6164 8.17611 12.5 7.59095 12.5 7C12.5 6.40905 12.6164 5.82389 12.8425 5.27792C13.0687 4.73196 13.4002 4.23588 13.818 3.81802C14.2359 3.40016 14.732 3.06869 15.2779 2.84254C15.8239 2.6164 16.4091 2.5 17 2.5C18.1935 2.5 19.3381 2.97411 20.182 3.81802C21.0259 4.66193 21.5 5.80653 21.5 7C21.5 8.19347 21.0259 9.33807 20.182 10.182C19.3381 11.0259 18.1935 11.5 17 11.5ZM17 21.5C15.8065 21.5 14.6619 21.0259 13.818 20.182C12.9741 19.3381 12.5 18.1935 12.5 17C12.5 15.8065 12.9741 14.6619 13.818 13.818C14.6619 12.9741 15.8065 12.5 17 12.5C18.1935 12.5 19.3381 12.9741 20.182 13.818C21.0259 14.6619 21.5 15.8065 21.5 17C21.5 18.1935 21.0259 19.3381 20.182 20.182C19.3381 21.0259 18.1935 21.5 17 21.5Z" />
</g>
</g>
<defs>
<clipPath id="clip0_8_9023">
<rect width="24" height="24" fill="white"/>
</clipPath>
</defs>
</svg>
