<svg width="24" height="24" viewBox="0 0 24 24" fill="none" xmlns="http://www.w3.org/2000/svg">
<g id="archive-drawer-fill" clip-path="url(#clip0_8_798)">
<g id="Group">
<path id="Vector" d="M3 13H21V21.002C21 21.553 20.555 22 20.007 22H3.993C3.86225 21.9997 3.73283 21.9737 3.61215 21.9234C3.49146 21.8731 3.38188 21.7995 3.28966 21.7068C3.19743 21.6141 3.12438 21.5042 3.07468 21.3832C3.02498 21.2623 2.9996 21.1327 3 21.002V13ZM3 2.998C3 2.447 3.445 2 3.993 2H20.007C20.555 2 21 2.446 21 2.998V11H3V2.998ZM9 5V7H15V5H9ZM9 16V18H15V16H9Z" fill="currentColor"/>
</g>
</g>
<defs>
<clipPath id="clip0_8_798">
<rect width="24" height="24" fill="white"/>
</clipPath>
</defs>
</svg>
