<svg width="24" height="24" viewBox="0 0 24 24" fill="none" xmlns="http://www.w3.org/2000/svg">
<g id="arrow-go-forward-line" clip-path="url(#clip0_8_8259)">
<g id="Group">
<path id="Vector" d="M18.172 6.99999H11C9.4087 6.99999 7.88258 7.63213 6.75736 8.75735C5.63214 9.88257 5 11.4087 5 13C5 14.5913 5.63214 16.1174 6.75736 17.2426C7.88258 18.3678 9.4087 19 11 19H20V21H11C8.87827 21 6.84344 20.1571 5.34315 18.6568C3.84285 17.1566 3 15.1217 3 13C3 10.8783 3.84285 8.84342 5.34315 7.34313C6.84344 5.84284 8.87827 4.99999 11 4.99999H18.172L15.636 2.46399L17.05 1.04999L22 5.99999L17.05 10.95L15.636 9.53599L18.172 6.99999Z" fill="currentColor"/>
</g>
</g>
<defs>
<clipPath id="clip0_8_8259">
<rect width="24" height="24" fill="white"/>
</clipPath>
</defs>
</svg>
