<svg width="24" height="24" viewBox="0 0 24 24"  xmlns="http://www.w3.org/2000/svg">
<g id="attachment-2" clip-path="url(#clip0_8_2853)">
<g id="Group">
<path id="Vector" d="M14.828 7.75699L9.172 13.414C9.07649 13.5062 9.00031 13.6166 8.9479 13.7386C8.89549 13.8606 8.8679 13.9918 8.86675 14.1246C8.86559 14.2574 8.89089 14.3891 8.94118 14.5119C8.99146 14.6348 9.06571 14.7465 9.1596 14.8404C9.25349 14.9343 9.36515 15.0085 9.48804 15.0588C9.61094 15.1091 9.74262 15.1344 9.8754 15.1332C10.0082 15.1321 10.1394 15.1045 10.2614 15.0521C10.3834 14.9997 10.4938 14.9235 10.586 14.828L16.243 9.17199C16.8057 8.60934 17.1218 7.84621 17.1218 7.05049C17.1218 6.25478 16.8057 5.49165 16.243 4.92899C15.6803 4.36634 14.9172 4.05024 14.1215 4.05024C13.3258 4.05024 12.5627 4.36634 12 4.92899L6.343 10.586C5.86907 11.0481 5.49163 11.5998 5.23255 12.2089C4.97348 12.818 4.83794 13.4725 4.83379 14.1345C4.82965 14.7964 4.95698 15.4526 5.20839 16.0649C5.45981 16.6772 5.83032 17.2336 6.29841 17.7016C6.76651 18.1696 7.32288 18.54 7.93525 18.7914C8.54762 19.0427 9.2038 19.1699 9.86573 19.1657C10.5277 19.1615 11.1822 19.0258 11.7913 18.7667C12.4004 18.5075 12.9519 18.13 13.414 17.656L19.071 12L20.485 13.414L14.828 19.071C14.178 19.721 13.4062 20.2367 12.5569 20.5885C11.7076 20.9403 10.7973 21.1214 9.878 21.1214C8.9587 21.1214 8.0484 20.9403 7.19908 20.5885C6.34975 20.2367 5.57804 19.721 4.928 19.071C4.27795 18.4209 3.76231 17.6492 3.41051 16.7999C3.05871 15.9506 2.87764 15.0403 2.87764 14.121C2.87764 13.2017 3.05871 12.2914 3.41051 11.4421C3.76231 10.5928 4.27795 9.82104 4.928 9.17099L10.586 3.51499C11.529 2.6042 12.792 2.10023 14.103 2.11162C15.414 2.12302 16.668 2.64886 17.5951 3.5759C18.5221 4.50294 19.048 5.757 19.0594 7.06799C19.0708 8.37897 18.5668 9.64198 17.656 10.585L12 16.244C11.7213 16.5226 11.3905 16.7436 11.0265 16.8943C10.6624 17.0451 10.2722 17.1226 9.87814 17.1226C9.4841 17.1226 9.09392 17.0449 8.72989 16.8941C8.36586 16.7432 8.0351 16.5222 7.7565 16.2435C7.4779 15.9648 7.25691 15.634 7.10616 15.27C6.95541 14.9059 6.87784 14.5157 6.87789 14.1216C6.87794 13.7276 6.95559 13.3374 7.10643 12.9734C7.25727 12.6094 7.47833 12.2786 7.757 12L13.414 6.34299L14.828 7.75699Z" />
</g>
</g>
<defs>
<clipPath id="clip0_8_2853">
<rect width="24" height="24" fill="white"/>
</clipPath>
</defs>
</svg>
