<svg width="24" height="24" viewBox="0 0 24 24"  xmlns="http://www.w3.org/2000/svg">
<g id="battery-share-line" clip-path="url(#clip0_8_1752)">
<g id="Group">
<path id="Vector" d="M14 2C14.2652 2 14.5196 2.10536 14.7071 2.29289C14.8946 2.48043 15 2.73478 15 3V4H18C18.2652 4 18.5196 4.10536 18.7071 4.29289C18.8946 4.48043 19 4.73478 19 5V7H17V6H13V4H11V6H7V20H17V17H19V21C19 21.2652 18.8946 21.5196 18.7071 21.7071C18.5196 21.8946 18.2652 22 18 22H6C5.73478 22 5.48043 21.8946 5.29289 21.7071C5.10536 21.5196 5 21.2652 5 21V5C5 4.73478 5.10536 4.48043 5.29289 4.29289C5.48043 4.10536 5.73478 4 6 4H9V3C9 2.73478 9.10536 2.48043 9.29289 2.29289C9.48043 2.10536 9.73478 2 10 2H14ZM15 8L20 12L15 16V13H14C12.946 13 12 13.95 12 15V18H10V15C10 13.9391 10.4214 12.9217 11.1716 12.1716C11.9217 11.4214 12.9391 11 14 11H15V8Z" />
</g>
</g>
<defs>
<clipPath id="clip0_8_1752">
<rect width="24" height="24" fill="white"/>
</clipPath>
</defs>
</svg>
