<svg width="24" height="24" viewBox="0 0 24 24" fill="none" xmlns="http://www.w3.org/2000/svg">
<g id="bike-fill" clip-path="url(#clip0_8_6291)">
<g id="Group">
<path id="Vector" d="M5.5 12H4V7H2V5H8V7H6V9.795L15.813 7.166L15.233 5H12V3H15.978C16.2019 2.99506 16.4209 3.0654 16.6001 3.19976C16.7792 3.33411 16.9081 3.5247 16.966 3.741L18.519 9.537L16.587 10.054L16.331 9.098L5.5 12ZM5 21C3.93913 21 2.92172 20.5786 2.17157 19.8284C1.42143 19.0783 1 18.0609 1 17C1 15.9391 1.42143 14.9217 2.17157 14.1716C2.92172 13.4214 3.93913 13 5 13C6.06087 13 7.07828 13.4214 7.82843 14.1716C8.57857 14.9217 9 15.9391 9 17C9 18.0609 8.57857 19.0783 7.82843 19.8284C7.07828 20.5786 6.06087 21 5 21ZM5 18C5.26522 18 5.51957 17.8946 5.70711 17.7071C5.89464 17.5196 6 17.2652 6 17C6 16.7348 5.89464 16.4804 5.70711 16.2929C5.51957 16.1054 5.26522 16 5 16C4.73478 16 4.48043 16.1054 4.29289 16.2929C4.10536 16.4804 4 16.7348 4 17C4 17.2652 4.10536 17.5196 4.29289 17.7071C4.48043 17.8946 4.73478 18 5 18ZM18 21C16.6739 21 15.4021 20.4732 14.4645 19.5355C13.5268 18.5979 13 17.3261 13 16C13 14.6739 13.5268 13.4021 14.4645 12.4645C15.4021 11.5268 16.6739 11 18 11C19.3261 11 20.5979 11.5268 21.5355 12.4645C22.4732 13.4021 23 14.6739 23 16C23 17.3261 22.4732 18.5979 21.5355 19.5355C20.5979 20.4732 19.3261 21 18 21ZM18 17C18.2652 17 18.5196 16.8946 18.7071 16.7071C18.8946 16.5196 19 16.2652 19 16C19 15.7348 18.8946 15.4804 18.7071 15.2929C18.5196 15.1054 18.2652 15 18 15C17.7348 15 17.4804 15.1054 17.2929 15.2929C17.1054 15.4804 17 15.7348 17 16C17 16.2652 17.1054 16.5196 17.2929 16.7071C17.4804 16.8946 17.7348 17 18 17Z" fill="#121212"/>
</g>
</g>
<defs>
<clipPath id="clip0_8_6291">
<rect width="24" height="24" fill="white"/>
</clipPath>
</defs>
</svg>
