<svg width="24" height="24" viewBox="0 0 24 24" fill="none" xmlns="http://www.w3.org/2000/svg">
<g id="bike-line" clip-path="url(#clip0_8_6511)">
<g id="Group">
<path id="Vector" d="M5.5 12H4V7H2V5H8V7H6V9.795L15.813 7.166L15.233 5H12V3H15.978C16.2019 2.99506 16.4209 3.0654 16.6001 3.19976C16.7792 3.33411 16.9081 3.5247 16.966 3.741L18.519 9.537L16.587 10.054L16.331 9.098L5.5 12ZM5 19C5.53043 19 6.03914 18.7893 6.41421 18.4142C6.78929 18.0391 7 17.5304 7 17C7 16.4696 6.78929 15.9609 6.41421 15.5858C6.03914 15.2107 5.53043 15 5 15C4.46957 15 3.96086 15.2107 3.58579 15.5858C3.21071 15.9609 3 16.4696 3 17C3 17.5304 3.21071 18.0391 3.58579 18.4142C3.96086 18.7893 4.46957 19 5 19ZM5 21C3.93913 21 2.92172 20.5786 2.17157 19.8284C1.42143 19.0783 1 18.0609 1 17C1 15.9391 1.42143 14.9217 2.17157 14.1716C2.92172 13.4214 3.93913 13 5 13C6.06087 13 7.07828 13.4214 7.82843 14.1716C8.57857 14.9217 9 15.9391 9 17C9 18.0609 8.57857 19.0783 7.82843 19.8284C7.07828 20.5786 6.06087 21 5 21ZM18 19C18.7956 19 19.5587 18.6839 20.1213 18.1213C20.6839 17.5587 21 16.7956 21 16C21 15.2043 20.6839 14.4413 20.1213 13.8787C19.5587 13.3161 18.7956 13 18 13C17.2044 13 16.4413 13.3161 15.8787 13.8787C15.3161 14.4413 15 15.2043 15 16C15 16.7956 15.3161 17.5587 15.8787 18.1213C16.4413 18.6839 17.2044 19 18 19ZM18 21C16.6739 21 15.4021 20.4732 14.4645 19.5355C13.5268 18.5979 13 17.3261 13 16C13 14.6739 13.5268 13.4021 14.4645 12.4645C15.4021 11.5268 16.6739 11 18 11C19.3261 11 20.5979 11.5268 21.5355 12.4645C22.4732 13.4021 23 14.6739 23 16C23 17.3261 22.4732 18.5979 21.5355 19.5355C20.5979 20.4732 19.3261 21 18 21Z" fill="#121212"/>
</g>
</g>
<defs>
<clipPath id="clip0_8_6511">
<rect width="24" height="24" fill="white"/>
</clipPath>
</defs>
</svg>
