<svg width="24" height="24" viewBox="0 0 24 24" fill="none" xmlns="http://www.w3.org/2000/svg">
<g id="billiards-fill" clip-path="url(#clip0_8_7685)">
<g id="Group">
<path id="Vector" d="M12 2C17.523 2 22 6.477 22 12C22 17.523 17.523 22 12 22C6.477 22 2 17.523 2 12C2 6.477 6.477 2 12 2ZM12 6C10.4087 6 8.88258 6.63214 7.75736 7.75736C6.63214 8.88258 6 10.4087 6 12C6 13.5913 6.63214 15.1174 7.75736 16.2426C8.88258 17.3679 10.4087 18 12 18C13.5913 18 15.1174 17.3679 16.2426 16.2426C17.3679 15.1174 18 13.5913 18 12C18 10.4087 17.3679 8.88258 16.2426 7.75736C15.1174 6.63214 13.5913 6 12 6ZM12 7.75C12.4805 7.74998 12.9508 7.88844 13.3547 8.14878C13.7585 8.40913 14.0788 8.78033 14.2771 9.21797C14.4755 9.65561 14.5435 10.1411 14.4731 10.6164C14.4026 11.0917 14.1967 11.5367 13.88 11.898C14.445 12.354 14.8 13.015 14.8 13.75C14.8 15.13 13.546 16.25 12 16.25C10.454 16.25 9.2 15.13 9.2 13.75C9.2 13.015 9.555 12.354 10.12 11.897C9.80358 11.5357 9.59794 11.0908 9.52768 10.6157C9.45743 10.1405 9.52553 9.65522 9.72385 9.21777C9.92216 8.78032 10.2423 8.40925 10.6459 8.14896C11.0496 7.88866 11.5197 7.75015 12 7.75ZM12 12.75C11.247 12.75 10.7 13.238 10.7 13.75C10.7 14.262 11.247 14.75 12 14.75C12.753 14.75 13.3 14.262 13.3 13.75C13.3 13.238 12.753 12.75 12 12.75ZM12 9.25C11.7348 9.25 11.4804 9.35536 11.2929 9.54289C11.1054 9.73043 11 9.98478 11 10.25C11 10.5152 11.1054 10.7696 11.2929 10.9571C11.4804 11.1446 11.7348 11.25 12 11.25C12.2652 11.25 12.5196 11.1446 12.7071 10.9571C12.8946 10.7696 13 10.5152 13 10.25C13 9.98478 12.8946 9.73043 12.7071 9.54289C12.5196 9.35536 12.2652 9.25 12 9.25Z" fill="currentColor"/>
</g>
</g>
<defs>
<clipPath id="clip0_8_7685">
<rect width="24" height="24" fill="white"/>
</clipPath>
</defs>
</svg>
