<svg width="24" height="24" viewBox="0 0 24 24" fill="none" xmlns="http://www.w3.org/2000/svg">
<g id="blaze-fill" clip-path="url(#clip0_8_9608)">
<g id="Group">
<path id="Vector" d="M18.5 9C19.5 10.06 20 11.394 20 13C20 16.466 16.3 17.276 14.5 22C13.833 21.425 13.5 20.592 13.5 19.5C13.5 16.018 18.5 14.21 18.5 9ZM14.5 5C15.7 6.238 16.3 7.572 16.3 9C16.3 13.951 10.255 14.692 11.5 22C9.833 20.84 9 19.173 9 17C9 13.675 14.5 11 14.5 5ZM10 1C11.333 2.667 12 4.167 12 5.5C12 11.75 3.5 13.722 8 22C5.384 21.42 3.5 19 3.5 16C3.5 9.5 10 8.5 10 1Z" />
</g>
</g>
<defs>
<clipPath id="clip0_8_9608">
<rect width="24" height="24" fill="white"/>
</clipPath>
</defs>
</svg>
