<svg width="24" height="24" viewBox="0 0 24 24"  xmlns="http://www.w3.org/2000/svg">
<g id="boxing-line" clip-path="url(#clip0_8_7529)">
<g id="Group">
<path id="Vector" d="M16.5 2C17.9587 2 19.3576 2.57946 20.3891 3.61091C21.4205 4.64236 22 6.04131 22 7.5V10C22 10.888 21.614 11.686 21 12.235V17C21 17.6204 20.8076 18.2256 20.4495 18.7323C20.0913 19.2389 19.5849 19.622 19 19.829V21C19 21.2652 18.8946 21.5196 18.7071 21.7071C18.5196 21.8946 18.2652 22 18 22H6C5.73478 22 5.48043 21.8946 5.29289 21.7071C5.10536 21.5196 5 21.2652 5 21V19.83C4.41493 19.623 3.90842 19.2397 3.55024 18.7329C3.19206 18.226 2.99982 17.6206 3 17V6C3 4.93913 3.42143 3.92172 4.17157 3.17157C4.92172 2.42143 5.93913 2 7 2H16.5ZM9.5 11H5V17C5.00003 17.2449 5.08996 17.4813 5.25272 17.6644C5.41547 17.8474 5.63975 17.9643 5.883 17.993L6 18H18C18.2449 18 18.4813 17.91 18.6644 17.7473C18.8474 17.5845 18.9643 17.3603 18.993 17.117L19 17V13H12.964C12.8438 13.833 12.4274 14.5947 11.7912 15.1457C11.155 15.6967 10.3416 16 9.5 16H6V14H9.5C9.87288 14 10.2324 13.8611 10.5084 13.6104C10.7844 13.3597 10.9572 13.0152 10.993 12.644L11 12.5C11 12.1271 10.8611 11.7676 10.6104 11.4916C10.3597 11.2156 10.0152 11.0428 9.644 11.007L9.5 11ZM16.5 4H7C6.49542 3.99984 6.00943 4.19041 5.63945 4.5335C5.26947 4.87659 5.04284 5.34684 5.005 5.85L5 6V9H9.5C10.1624 8.99986 10.8113 9.18773 11.3712 9.54177C11.9312 9.8958 12.3791 10.4015 12.663 11H19C19.2449 11 19.4813 10.91 19.6644 10.7473C19.8474 10.5845 19.9643 10.3603 19.993 10.117L20 10V7.5C20.0001 6.60493 19.6572 5.74385 19.0419 5.09379C18.4267 4.44373 17.5857 4.0541 16.692 4.005L16.5 4Z" />
</g>
</g>
<defs>
<clipPath id="clip0_8_7529">
<rect width="24" height="24" fill="white"/>
</clipPath>
</defs>
</svg>
