<svg width="24" height="24" viewBox="0 0 24 24" fill="none" xmlns="http://www.w3.org/2000/svg">
<g id="brush-3-line" clip-path="url(#clip0_8_4612)">
<g id="Group">
<path id="Vector" d="M8 20V15H10V20H19V13H5V20H8ZM4 11H20V8H14V4H10V8H4V11ZM3 21V13H2V7C2 6.73478 2.10536 6.48043 2.29289 6.29289C2.48043 6.10536 2.73478 6 3 6H8V3C8 2.73478 8.10536 2.48043 8.29289 2.29289C8.48043 2.10536 8.73478 2 9 2H15C15.2652 2 15.5196 2.10536 15.7071 2.29289C15.8946 2.48043 16 2.73478 16 3V6H21C21.2652 6 21.5196 6.10536 21.7071 6.29289C21.8946 6.48043 22 6.73478 22 7V13H21V21C21 21.2652 20.8946 21.5196 20.7071 21.7071C20.5196 21.8946 20.2652 22 20 22H4C3.73478 22 3.48043 21.8946 3.29289 21.7071C3.10536 21.5196 3 21.2652 3 21Z" />
</g>
</g>
<defs>
<clipPath id="clip0_8_4612">
<rect width="24" height="24" fill="white"/>
</clipPath>
</defs>
</svg>
