<svg width="24" height="24" viewBox="0 0 24 24" fill="none" xmlns="http://www.w3.org/2000/svg">
<g id="brush-4-line" clip-path="url(#clip0_8_4704)">
<g id="Group">
<path id="Vector" d="M9 5V11.273H7V5H5V14H19V5H9ZM20 16H4V18H20V16ZM3 14V4C3 3.73478 3.10536 3.48043 3.29289 3.29289C3.48043 3.10536 3.73478 3 4 3H20C20.2652 3 20.5196 3.10536 20.7071 3.29289C20.8946 3.48043 21 3.73478 21 4V14H22V19C22 19.2652 21.8946 19.5196 21.7071 19.7071C21.5196 19.8946 21.2652 20 21 20H13V23H11V20H3C2.73478 20 2.48043 19.8946 2.29289 19.7071C2.10536 19.5196 2 19.2652 2 19V14H3Z" />
</g>
</g>
<defs>
<clipPath id="clip0_8_4704">
<rect width="24" height="24" fill="white"/>
</clipPath>
</defs>
</svg>
