<svg width="24" height="24" viewBox="0 0 24 24" fill="none" xmlns="http://www.w3.org/2000/svg">
<g id="building-fill" clip-path="url(#clip0_8_665)">
<g id="Group">
<path id="Vector" d="M21 19H23V21H1V19H3V4C3 3.73478 3.10536 3.48043 3.29289 3.29289C3.48043 3.10536 3.73478 3 4 3H14C14.2652 3 14.5196 3.10536 14.7071 3.29289C14.8946 3.48043 15 3.73478 15 4V19H17V9H20C20.2652 9 20.5196 9.10536 20.7071 9.29289C20.8946 9.48043 21 9.73478 21 10V19ZM7 11V13H11V11H7ZM7 7V9H11V7H7Z" />
</g>
</g>
<defs>
<clipPath id="clip0_8_665">
<rect width="24" height="24" fill="white"/>
</clipPath>
</defs>
</svg>
