<svg width="24" height="24" viewBox="0 0 24 24" fill="none" xmlns="http://www.w3.org/2000/svg">
<g id="building-4-line" clip-path="url(#clip0_8_621)">
<g id="Group">
<path id="Vector" d="M21 20H23V22H1V20H3V3C3 2.73478 3.10536 2.48043 3.29289 2.29289C3.48043 2.10536 3.73478 2 4 2H20C20.2652 2 20.5196 2.10536 20.7071 2.29289C20.8946 2.48043 21 2.73478 21 3V20ZM19 20V4H5V20H19ZM8 11H11V13H8V11ZM8 7H11V9H8V7ZM8 15H11V17H8V15ZM13 15H16V17H13V15ZM13 11H16V13H13V11ZM13 7H16V9H13V7Z" />
</g>
</g>
<defs>
<clipPath id="clip0_8_621">
<rect width="24" height="24" fill="white"/>
</clipPath>
</defs>
</svg>
