<svg width="24" height="24" viewBox="0 0 24 24" fill="none" xmlns="http://www.w3.org/2000/svg">
<g id="cactus-fill" clip-path="url(#clip0_8_7357)">
<g id="Group">
<path id="Vector" d="M12 2C14.21 2 16 3.79 16 6V15H17C17.55 15 18 14.55 18 14V8C18 7.448 18.448 7 19 7C19.552 7 20 7.448 20 8V14C20 15.657 18.657 17 17 17H16V20H18V22H6V20H8V14H7C5.343 14 4 12.657 4 11V9C4 8.448 4.448 8 5 8C5.552 8 6 8.448 6 9V11C6 11.55 6.45 12 7 12H8V6C8 3.79 9.79 2 12 2Z" fill="currentColor"/>
</g>
</g>
<defs>
<clipPath id="clip0_8_7357">
<rect width="24" height="24" fill="white"/>
</clipPath>
</defs>
</svg>
