<svg width="24" height="24" viewBox="0 0 24 24"  xmlns="http://www.w3.org/2000/svg">
<g id="cake-3-fill" clip-path="url(#clip0_8_7445)">
<g id="Group">
<path id="Vector" d="M15.5 2C16.0158 1.99995 16.5253 2.11392 16.992 2.33377C17.4587 2.55361 17.8709 2.87389 18.1994 3.27169C18.5278 3.66948 18.7642 4.13496 18.8917 4.6348C19.0193 5.13464 19.0347 5.65649 18.937 6.163L18.922 6.229C19.792 6.51921 20.5526 7.06819 21.102 7.8025C21.6515 8.5368 21.9636 9.4214 21.9965 10.3379C22.0295 11.2544 21.7817 12.1592 21.2864 12.931C20.7911 13.7029 20.0719 14.3051 19.225 14.657L18.139 21.164C18.1002 21.3975 17.9798 21.6097 17.7992 21.7627C17.6187 21.9158 17.3897 21.9999 17.153 22H6.847C6.61029 21.9999 6.3813 21.9158 6.20075 21.7627C6.02021 21.6097 5.89982 21.3975 5.861 21.164L4.832 14.994C4.13992 14.9547 3.4828 14.677 2.97232 14.2081C2.46185 13.7391 2.12952 13.1078 2.03184 12.4216C1.93415 11.7353 2.07713 11.0364 2.43648 10.4436C2.79583 9.85085 3.34936 9.40081 4.003 9.17L4 9C3.99989 7.98741 4.25605 6.99126 4.74463 6.10433C5.23321 5.21741 5.93831 4.46856 6.79426 3.92754C7.6502 3.38653 8.62915 3.07094 9.63992 3.01017C10.6507 2.9494 11.6604 3.14543 12.575 3.58C12.8929 3.09435 13.3268 2.69557 13.8375 2.41971C14.3482 2.14385 14.9196 1.9996 15.5 2ZM11 15H9V20H11V15ZM15 15H13V20H15V15ZM17.5 13C17.8696 13 18.2346 12.918 18.5688 12.76C18.9029 12.602 19.1979 12.3718 19.4324 12.0861C19.6669 11.8004 19.8351 11.4663 19.925 11.1077C20.0148 10.7492 20.0241 10.3752 19.952 10.0127C19.88 9.65012 19.7284 9.30807 19.5083 9.01114C19.2882 8.71421 19.0049 8.46979 18.679 8.29547C18.353 8.12116 17.9925 8.02128 17.6233 8.00305C17.2542 7.98481 16.8855 8.04866 16.544 8.19L16.369 8.271C15.9076 8.50877 15.3718 8.55783 14.8748 8.40779C14.3779 8.25776 13.9588 7.9204 13.706 7.467L13.636 7.33C13.3164 6.63443 12.8039 6.04517 12.1594 5.63216C11.5149 5.21916 10.7655 4.99975 10 5C7.858 5 6.109 6.684 6.005 8.767L6 8.964L6.003 9.134C6.01006 9.52668 5.90137 9.91274 5.69046 10.244C5.47955 10.5753 5.17576 10.8372 4.817 10.997L4.667 11.056C4.44495 11.1351 4.25793 11.2899 4.13887 11.4934C4.01981 11.6968 3.97635 11.9357 4.01614 12.168C4.05594 12.4003 4.17643 12.6112 4.35641 12.7633C4.53639 12.9155 4.7643 12.9993 5 13H17.5Z" />
</g>
</g>
<defs>
<clipPath id="clip0_8_7445">
<rect width="24" height="24" fill="white"/>
</clipPath>
</defs>
</svg>
