<svg width="24" height="24" viewBox="0 0 24 24" fill="none" xmlns="http://www.w3.org/2000/svg">
<g id="cake-fill" clip-path="url(#clip0_8_7401)">
<g id="Group">
<path id="Vector" d="M13 7V11H20C20.2652 11 20.5196 11.1054 20.7071 11.2929C20.8946 11.4804 21 11.7348 21 12V20H23V22H1V20H3V12C3 11.7348 3.10536 11.4804 3.29289 11.2929C3.48043 11.1054 3.73478 11 4 11H11V7H13ZM13.83 0.402C14.2278 1.09104 14.3356 1.90988 14.1297 2.6784C13.9238 3.44692 13.421 4.10216 12.732 4.5L11 5.5C10.6022 4.81096 10.4944 3.99212 10.7003 3.2236C10.9062 2.45509 11.409 1.79984 12.098 1.402L13.83 0.402Z" />
</g>
</g>
<defs>
<clipPath id="clip0_8_7401">
<rect width="24" height="24" fill="white"/>
</clipPath>
</defs>
</svg>
