<svg width="24" height="24" viewBox="0 0 24 24" fill="none" xmlns="http://www.w3.org/2000/svg">
<g id="calculator-fill" clip-path="url(#clip0_8_1350)">
<g id="Group">
<path id="Vector" d="M4 2H20C20.2652 2 20.5196 2.10536 20.7071 2.29289C20.8946 2.48043 21 2.73478 21 3V21C21 21.2652 20.8946 21.5196 20.7071 21.7071C20.5196 21.8946 20.2652 22 20 22H4C3.73478 22 3.48043 21.8946 3.29289 21.7071C3.10536 21.5196 3 21.2652 3 21V3C3 2.73478 3.10536 2.48043 3.29289 2.29289C3.48043 2.10536 3.73478 2 4 2ZM7 12V14H9V12H7ZM7 16V18H9V16H7ZM11 12V14H13V12H11ZM11 16V18H13V16H11ZM15 12V18H17V12H15ZM7 6V10H17V6H7Z" />
</g>
</g>
<defs>
<clipPath id="clip0_8_1350">
<rect width="24" height="24" fill="white"/>
</clipPath>
</defs>
</svg>
