<svg width="24" height="24" viewBox="0 0 24 24" fill="none" xmlns="http://www.w3.org/2000/svg">
<g id="camera-off-fill" clip-path="url(#clip0_8_6984)">
<g id="Group">
<path id="Vector" d="M19.5856 21.0001H2.99958C2.73436 21.0001 2.48001 20.8947 2.29247 20.7072C2.10493 20.5196 1.99958 20.2653 1.99958 20.0001V6.00007C1.99958 5.73485 2.10493 5.4805 2.29247 5.29296C2.48001 5.10542 2.73436 5.00007 2.99958 5.00007H3.58558L1.39258 2.80807L2.80758 1.39307L22.6066 21.1931L21.1916 22.6071L19.5856 21.0001ZM7.55558 8.97007C6.52142 10.1114 5.96578 11.6067 6.00369 13.1465C6.0416 14.6862 6.67016 16.1523 7.75923 17.2414C8.8483 18.3305 10.3145 18.959 11.8542 18.997C13.3939 19.0349 14.8892 18.4792 16.0306 17.4451L14.6136 16.0281C13.849 16.6891 12.8625 17.0362 11.8525 16.9996C10.8424 16.963 9.88368 16.5453 9.16899 15.8307C8.4543 15.116 8.03667 14.1572 8.00004 13.1472C7.96342 12.1371 8.31053 11.1506 8.97158 10.3861L7.55458 8.97007H7.55558ZM21.9996 17.7851L17.9546 13.7401C18.0673 12.8339 17.9718 11.914 17.6752 11.0504C17.3786 10.1867 16.8888 9.40219 16.2431 8.7565C15.5975 8.11082 14.8129 7.62103 13.9493 7.32444C13.0857 7.02786 12.1657 6.93231 11.2596 7.04507L8.10558 3.89207L8.99958 3.00007H14.9996L16.9996 5.00007H20.9996C21.2648 5.00007 21.5191 5.10542 21.7067 5.29296C21.8942 5.4805 21.9996 5.73485 21.9996 6.00007V17.7861V17.7851ZM13.5076 9.29307C14.0017 9.49485 14.4506 9.79319 14.828 10.1706C15.2055 10.548 15.5038 10.9969 15.7056 11.4911L13.5076 9.29307Z" fill="#121212"/>
</g>
</g>
<defs>
<clipPath id="clip0_8_6984">
<rect width="24" height="24" fill="white"/>
</clipPath>
</defs>
</svg>
