<svg width="24" height="24" viewBox="0 0 24 24" fill="none" xmlns="http://www.w3.org/2000/svg">
<g id="car-washing-line" clip-path="url(#clip0_8_6031)">
<g id="Group">
<path id="Vector" d="M19 21.0001H5V22.0001C5 22.2653 4.89464 22.5196 4.70711 22.7072C4.51957 22.8947 4.26522 23.0001 4 23.0001H3C2.73478 23.0001 2.48043 22.8947 2.29289 22.7072C2.10536 22.5196 2 22.2653 2 22.0001V12.0001L4.417 7.97105C4.59469 7.6749 4.84605 7.42981 5.1466 7.25964C5.44714 7.08948 5.78663 7.00005 6.132 7.00005H17.868C18.2134 7.00005 18.5529 7.08948 18.8534 7.25964C19.1539 7.42981 19.4053 7.6749 19.583 7.97105L22 12.0001V22.0001C22 22.2653 21.8946 22.5196 21.7071 22.7072C21.5196 22.8947 21.2652 23.0001 21 23.0001H20C19.7348 23.0001 19.4804 22.8947 19.2929 22.7072C19.1054 22.5196 19 22.2653 19 22.0001V21.0001ZM20 14.0001H4V19.0001H20V14.0001ZM4.332 12.0001H19.668L17.868 9.00005H6.132L4.332 12.0001ZM5.44 3.44005L6.5 2.37805L7.56 3.43805C7.76982 3.64781 7.91273 3.91509 7.97064 4.20607C8.02856 4.49705 7.99888 4.79868 7.88536 5.07279C7.77184 5.34691 7.57959 5.5812 7.3329 5.74604C7.08622 5.91089 6.79619 5.99887 6.4995 5.99887C6.20281 5.99887 5.91278 5.91089 5.6661 5.74604C5.41941 5.5812 5.22716 5.34691 5.11364 5.07279C5.00012 4.79868 4.97044 4.49705 5.02836 4.20607C5.08627 3.91509 5.22918 3.64781 5.439 3.43805L5.44 3.44005ZM10.94 3.44005L12 2.37805L13.06 3.43805C13.2698 3.64781 13.4127 3.91509 13.4706 4.20607C13.5286 4.49705 13.4989 4.79868 13.3854 5.07279C13.2718 5.34691 13.0796 5.5812 12.8329 5.74604C12.5862 5.91089 12.2962 5.99887 11.9995 5.99887C11.7028 5.99887 11.4128 5.91089 11.1661 5.74604C10.9194 5.5812 10.7272 5.34691 10.6136 5.07279C10.5001 4.79868 10.4704 4.49705 10.5284 4.20607C10.5863 3.91509 10.7292 3.64781 10.939 3.43805L10.94 3.44005ZM16.44 3.44005L17.5 2.37805L18.56 3.43805C18.7698 3.64781 18.9127 3.91509 18.9706 4.20607C19.0286 4.49705 18.9989 4.79868 18.8854 5.07279C18.7718 5.34691 18.5796 5.5812 18.3329 5.74604C18.0862 5.91089 17.7962 5.99887 17.4995 5.99887C17.2028 5.99887 16.9128 5.91089 16.6661 5.74604C16.4194 5.5812 16.2272 5.34691 16.1136 5.07279C16.0001 4.79868 15.9704 4.49705 16.0284 4.20607C16.0863 3.91509 16.2292 3.64781 16.439 3.43805L16.44 3.44005ZM6.5 18.0001C6.10218 18.0001 5.72064 17.842 5.43934 17.5607C5.15804 17.2794 5 16.8979 5 16.5001C5 16.1022 5.15804 15.7207 5.43934 15.4394C5.72064 15.1581 6.10218 15.0001 6.5 15.0001C6.89782 15.0001 7.27936 15.1581 7.56066 15.4394C7.84196 15.7207 8 16.1022 8 16.5001C8 16.8979 7.84196 17.2794 7.56066 17.5607C7.27936 17.842 6.89782 18.0001 6.5 18.0001ZM17.5 18.0001C17.1022 18.0001 16.7206 17.842 16.4393 17.5607C16.158 17.2794 16 16.8979 16 16.5001C16 16.1022 16.158 15.7207 16.4393 15.4394C16.7206 15.1581 17.1022 15.0001 17.5 15.0001C17.8978 15.0001 18.2794 15.1581 18.5607 15.4394C18.842 15.7207 19 16.1022 19 16.5001C19 16.8979 18.842 17.2794 18.5607 17.5607C18.2794 17.842 17.8978 18.0001 17.5 18.0001Z" fill="#121212"/>
</g>
</g>
<defs>
<clipPath id="clip0_8_6031">
<rect width="24" height="24" fill="white"/>
</clipPath>
</defs>
</svg>
