<svg width="24" height="24" viewBox="0 0 24 24"  xmlns="http://www.w3.org/2000/svg">
<g id="caravan-fill" clip-path="url(#clip0_8_6439)">
<g id="Group">
<path id="Vector" d="M14.172 3C14.702 3 15.211 3.21 15.586 3.586L20.414 8.414C20.789 8.789 21 9.298 21 9.828V17H23V19H14.874C14.429 20.726 12.864 22 11 22C9.136 22 7.57 20.726 7.126 19H3C2.448 19 2 18.552 2 18V5C2 3.895 2.895 3 4 3H14.172ZM11 16C9.895 16 9 16.895 9 18C9 19.105 9.895 20 11 20C12.105 20 13 19.105 13 18C13 16.895 12.105 16 11 16ZM14 7H6V13H14V7ZM12 9V11H8V9H12Z" />
</g>
</g>
<defs>
<clipPath id="clip0_8_6439">
<rect width="24" height="24" fill="white"/>
</clipPath>
</defs>
</svg>
