<svg width="24" height="24" viewBox="0 0 24 24" fill="none" xmlns="http://www.w3.org/2000/svg">
<g id="centos-line" clip-path="url(#clip0_8_5542)">
<g id="Group">
<path id="Vector" d="M12 2L16.292 6.292L17.353 5.232L16.121 4H20V7.879L18.767 6.646L17.707 7.707L22 12L17.708 16.293L18.767 17.352L20 16.121V20H16.12L17.352 18.767L16.293 17.707L12 22L7.707 17.707L6.646 18.767L7.879 20H4V16.12L5.231 17.352L6.292 16.292L2 12L6.293 7.707L5.231 6.646L4 7.879V4H7.879L6.646 5.23L7.708 6.292L12 2ZM12 13.413L9.12 16.292L12 19.172L14.879 16.292L12 13.412V13.413ZM7.707 9.12L4.828 12L7.706 14.878L10.586 11.998L7.707 9.121V9.12ZM16.292 9.12L13.415 11.998L16.293 14.877L19.172 12L16.292 9.121V9.12ZM12 4.828L9.122 7.707L12.001 10.585L14.878 7.706L12 4.828Z" />
</g>
</g>
<defs>
<clipPath id="clip0_8_5542">
<rect width="24" height="24" fill="white"/>
</clipPath>
</defs>
</svg>
