<svg width="24" height="24" viewBox="0 0 24 24" fill="none" xmlns="http://www.w3.org/2000/svg">
<g id="centos-fill" clip-path="url(#clip0_8_5750)">
<g id="Group">
<path id="Vector" d="M12 13.06L16.47 17.531L12 22L7.53 17.53L12 13.06ZM4 16.12L7.879 20H4V16.12ZM20 16.12V20H16.12L20 16.12ZM17.53 7.53L22 12L17.531 16.47L13.061 12L17.53 7.53ZM6.47 7.53L10.94 12L6.469 16.469L2 12L6.47 7.53ZM12 2L16.469 6.469L12 10.939L7.53 6.47L12 2ZM7.879 4L3.999 7.879L4 4H7.879ZM20 4V7.879L16.12 3.999L20 4Z" fill="currentColor"/>
</g>
</g>
<defs>
<clipPath id="clip0_8_5750">
<rect width="24" height="24" fill="white"/>
</clipPath>
</defs>
</svg>
