<svg width="24" height="24" viewBox="0 0 24 24"  xmlns="http://www.w3.org/2000/svg">
<g id="chat-smile-2-fill" clip-path="url(#clip0_8_1499)">
<g id="Group">
<path id="Vector" d="M7.291 20.824L2 22L3.176 16.709C2.40154 15.2604 1.99753 13.6426 2 12C2 6.477 6.477 2 12 2C17.523 2 22 6.477 22 12C22 17.523 17.523 22 12 22C10.3574 22.0025 8.73962 21.5985 7.291 20.824ZM7 12C7 13.3261 7.52679 14.5979 8.46447 15.5355C9.40215 16.4732 10.6739 17 12 17C13.3261 17 14.5979 16.4732 15.5355 15.5355C16.4732 14.5979 17 13.3261 17 12H15C15 12.7956 14.6839 13.5587 14.1213 14.1213C13.5587 14.6839 12.7957 15 12 15C11.2044 15 10.4413 14.6839 9.87868 14.1213C9.31607 13.5587 9 12.7956 9 12H7Z" />
</g>
</g>
<defs>
<clipPath id="clip0_8_1499">
<rect width="24" height="24" fill="white"/>
</clipPath>
</defs>
</svg>
