<svg width="24" height="24" viewBox="0 0 24 24" fill="none" xmlns="http://www.w3.org/2000/svg">
<g id="chat-private-fill" clip-path="url(#clip0_8_1571)">
<g id="Group">
<path id="Vector" d="M12 2C17.523 2 22 6.477 22 12C22 17.523 17.523 22 12 22C10.298 22 8.695 21.575 7.292 20.825L2 22L3.176 16.71C2.426 15.306 2 13.703 2 12C2 6.477 6.477 2 12 2ZM12 7C10.402 7 9 8.34 9 10V11H8V16H16V11H15V10C15 8.343 13.657 7 12 7ZM14 13V14H10V13H14ZM12 9C12.476 9 13 9.49 13 10V11H11V10C11 9.49 11.487 9 12 9Z" fill="currentColor"/>
</g>
</g>
<defs>
<clipPath id="clip0_8_1571">
<rect width="24" height="24" fill="white"/>
</clipPath>
</defs>
</svg>
