<svg width="24" height="24" viewBox="0 0 24 24" fill="none" xmlns="http://www.w3.org/2000/svg">
<g id="chat-private-line" clip-path="url(#clip0_8_1639)">
<g id="Group">
<path id="Vector" d="M12 2C17.523 2 22 6.477 22 12C22 17.523 17.523 22 12 22C10.298 22 8.695 21.575 7.292 20.825L2 22L3.176 16.71C2.426 15.306 2 13.703 2 12C2 6.477 6.477 2 12 2ZM12 4C7.582 4 4 7.582 4 12C4 13.335 4.326 14.618 4.94 15.766L5.29 16.42L4.634 19.366L7.582 18.712L8.235 19.061C9.383 19.675 10.665 20 12 20C16.418 20 20 16.418 20 12C20 7.582 16.418 4 12 4ZM12 7C13.657 7 15 8.343 15 10V11H16V16H8V11H9V10C9 8.343 10.343 7 12 7ZM14 13H10V14H14V13ZM12 9C11.448 9 11 9.45 11 10V11H13V10C13 9.448 12.552 9 12 9Z" fill="currentColor"/>
</g>
</g>
<defs>
<clipPath id="clip0_8_1639">
<rect width="24" height="24" fill="white"/>
</clipPath>
</defs>
</svg>
