<svg width="24" height="24" viewBox="0 0 24 24" fill="none" xmlns="http://www.w3.org/2000/svg">
<g id="chat-heart-fill" clip-path="url(#clip0_8_1463)">
<g id="Group">
<path id="Vector" d="M6.455 19L2 22.5V4C2 3.73478 2.10536 3.48043 2.29289 3.29289C2.48043 3.10536 2.73478 3 3 3H21C21.2652 3 21.5196 3.10536 21.7071 3.29289C21.8946 3.48043 22 3.73478 22 4V18C22 18.2652 21.8946 18.5196 21.7071 18.7071C21.5196 18.8946 21.2652 19 21 19H6.455ZM12.018 14.7L15.377 11.341C15.5859 11.1321 15.7517 10.884 15.8647 10.611C15.9778 10.3381 16.036 10.0455 16.036 9.75C16.036 9.45452 15.9778 9.16194 15.8647 8.88896C15.7517 8.61597 15.5859 8.36793 15.377 8.159C15.1681 7.95007 14.92 7.78433 14.647 7.67126C14.3741 7.55818 14.0815 7.49999 13.786 7.49999C13.4905 7.49999 13.1979 7.55818 12.925 7.67126C12.652 7.78433 12.4039 7.95007 12.195 8.159L12.018 8.336L11.841 8.159C11.6321 7.95007 11.384 7.78433 11.111 7.67126C10.8381 7.55818 10.5455 7.49999 10.25 7.49999C9.95452 7.49999 9.66194 7.55818 9.38896 7.67126C9.11597 7.78433 8.86793 7.95007 8.659 8.159C8.23704 8.58096 7.99999 9.15326 7.99999 9.75C7.99999 10.3467 8.23704 10.919 8.659 11.341L12.018 14.7Z" fill="#121212"/>
</g>
</g>
<defs>
<clipPath id="clip0_8_1463">
<rect width="24" height="24" fill="white"/>
</clipPath>
</defs>
</svg>
