<svg width="24" height="24" viewBox="0 0 24 24" fill="none" xmlns="http://www.w3.org/2000/svg">
<g id="chat-follow-up-line" clip-path="url(#clip0_8_1467)">
<g id="Group">
<path id="Vector" d="M21 3C21.552 3 22 3.448 22 4V18C22 18.552 21.552 19 21 19H6.455L2 22.5V4C2 3.448 2.448 3 3 3H21ZM20 5H4V18.385L5.763 17H20V5ZM17 7V15H15V7H17ZM11 8V9.999L13 10V12L11 11.999V14H9V11.999L7 12V10L9 9.999V8H11Z" fill="#121212"/>
</g>
</g>
<defs>
<clipPath id="clip0_8_1467">
<rect width="24" height="24" fill="white"/>
</clipPath>
</defs>
</svg>
