<svg width="24" height="24" viewBox="0 0 24 24" fill="none" xmlns="http://www.w3.org/2000/svg">
<g id="chat-2-fill" clip-path="url(#clip0_8_1635)">
<g id="Group">
<path id="Vector" d="M14.45 19L12 22.5L9.55 19H3C2.73478 19 2.48043 18.8946 2.29289 18.7071C2.10536 18.5196 2 18.2652 2 18V4C2 3.73478 2.10536 3.48043 2.29289 3.29289C2.48043 3.10536 2.73478 3 3 3H21C21.2652 3 21.5196 3.10536 21.7071 3.29289C21.8946 3.48043 22 3.73478 22 4V18C22 18.2652 21.8946 18.5196 21.7071 18.7071C21.5196 18.8946 21.2652 19 21 19H14.45Z" fill="#121212"/>
</g>
</g>
<defs>
<clipPath id="clip0_8_1635">
<rect width="24" height="24" fill="white"/>
</clipPath>
</defs>
</svg>
