<svg width="24" height="24" viewBox="0 0 24 24" fill="none" xmlns="http://www.w3.org/2000/svg">
<g id="closed-captioning-fill" clip-path="url(#clip0_8_6576)">
<g id="Group">
<path id="Vector" d="M21 3C21.552 3 22 3.448 22 4V20C22 20.552 21.552 21 21 21H3C2.448 21 2 20.552 2 20V4C2 3.448 2.448 3 3 3H21ZM9 8C6.792 8 5 9.792 5 12C5 14.208 6.792 16 9 16C10.1 16 11.1 15.55 11.828 14.828L10.414 13.414C10.053 13.776 9.553 14 9 14C7.895 14 7 13.105 7 12C7 10.895 7.895 10 9 10C9.55 10 10.048 10.22 10.415 10.587L11.829 9.173C11.105 8.448 10.105 8 9 8ZM16 8C13.792 8 12 9.792 12 12C12 14.208 13.792 16 16 16C17.104 16 18.104 15.552 18.828 14.828L17.414 13.414C17.052 13.776 16.552 14 16 14C14.895 14 14 13.105 14 12C14 10.895 14.895 10 16 10C16.553 10 17.053 10.224 17.415 10.587L18.829 9.173C18.105 8.448 17.105 8 16 8Z" fill="#121212"/>
</g>
</g>
<defs>
<clipPath id="clip0_8_6576">
<rect width="24" height="24" fill="white"/>
</clipPath>
</defs>
</svg>
