<svg width="24" height="24" viewBox="0 0 24 24" fill="none" xmlns="http://www.w3.org/2000/svg">
<g id="closed-captioning-line" clip-path="url(#clip0_8_6776)">
<g id="Group">
<path id="Vector" d="M21 3C21.552 3 22 3.448 22 4V20C22 20.552 21.552 21 21 21H3C2.448 21 2 20.552 2 20V4C2 3.448 2.448 3 3 3H21ZM20 5H4V19H20V5ZM9 8C10.105 8 11.105 8.448 11.829 9.173L10.415 10.587C10.053 10.224 9.553 10 9 10C7.895 10 7 10.895 7 12C7 13.105 7.895 14 9 14C9.553 14 10.053 13.776 10.414 13.414L11.828 14.828C11.104 15.552 10.104 16 9 16C6.792 16 5 14.208 5 12C5 9.792 6.792 8 9 8ZM16 8C17.105 8 18.105 8.448 18.829 9.173L17.415 10.587C17.053 10.224 16.553 10 16 10C14.895 10 14 10.895 14 12C14 13.105 14.895 14 16 14C16.552 14 17.052 13.776 17.414 13.414L18.828 14.828C18.104 15.552 17.104 16 16 16C13.792 16 12 14.208 12 12C12 9.792 13.792 8 16 8Z" fill="#121212"/>
</g>
</g>
<defs>
<clipPath id="clip0_8_6776">
<rect width="24" height="24" fill="white"/>
</clipPath>
</defs>
</svg>
