<svg width="24" height="24" viewBox="0 0 24 24" fill="none" xmlns="http://www.w3.org/2000/svg">
<g id="cloud-off-fill" clip-path="url(#clip0_8_990)">
<g id="Group">
<path id="Vector" d="M3.515 2.10001L22.607 21.192L21.192 22.607L19.178 20.592C18.4837 20.8624 17.7451 21.0008 17 21H7C5.58323 21.0009 4.21185 20.5004 3.12869 19.5872C2.04553 18.6739 1.32047 17.4069 1.08191 16.0103C0.843341 14.6138 1.10666 13.1779 1.82523 11.9569C2.54381 10.7358 3.67128 9.80849 5.008 9.33901C4.96521 8.47016 5.08492 7.60095 5.361 6.77601L2.1 3.51401L3.515 2.10001ZM17 9.00001C18.0519 9.00065 19.0852 9.2777 19.9963 9.8034C20.9075 10.3291 21.6645 11.085 22.1915 11.9954C22.7186 12.9057 22.9971 13.9386 22.9993 14.9905C23.0015 16.0424 22.7272 17.0765 22.204 17.989L14.01 9.79601C14.89 9.29001 15.91 9.00001 17 9.00001ZM12 2.00001C13.5423 2.00014 15.0414 2.5094 16.2647 3.44876C17.4879 4.38811 18.3668 5.705 18.765 7.19501C17.7065 6.95739 16.6109 6.93679 15.5442 7.13445C14.4776 7.3321 13.4621 7.74391 12.559 8.34501L7.694 3.48001C8.92318 2.51854 10.4395 1.99739 12 2.00001Z" fill="#121212"/>
</g>
</g>
<defs>
<clipPath id="clip0_8_990">
<rect width="24" height="24" fill="white"/>
</clipPath>
</defs>
</svg>
