<svg width="24" height="24" viewBox="0 0 24 24" fill="none" xmlns="http://www.w3.org/2000/svg">
<g id="cloudy-two-line" clip-path="url(#clip0_8_9344)">
<g id="Group">
<path id="Vector" d="M17 21H7C5.58323 21.0009 4.21184 20.5004 3.12868 19.5871C2.04552 18.6739 1.32047 17.4068 1.0819 16.0103C0.843337 14.6137 1.10665 13.1778 1.82523 11.9568C2.5438 10.7358 3.67127 9.80844 5.008 9.33896C4.96271 8.39262 5.11001 7.44694 5.44096 6.5592C5.7719 5.67146 6.27962 4.86014 6.93334 4.17438C7.58707 3.48863 8.37319 2.94272 9.2441 2.56972C10.115 2.19672 11.0526 2.00439 12 2.00439C12.9474 2.00439 13.885 2.19672 14.7559 2.56972C15.6268 2.94272 16.4129 3.48863 17.0667 4.17438C17.7204 4.86014 18.2281 5.67146 18.559 6.5592C18.89 7.44694 19.0373 8.39262 18.992 9.33896C20.3287 9.80844 21.4562 10.7358 22.1748 11.9568C22.8933 13.1778 23.1567 14.6137 22.9181 16.0103C22.6795 17.4068 21.9545 18.6739 20.8713 19.5871C19.7881 20.5004 18.4168 21.0009 17 21ZM7 19H17C17.5426 18.999 18.0794 18.8876 18.5777 18.6726C19.0759 18.4576 19.5252 18.1435 19.8982 17.7494C20.2712 17.3552 20.5601 16.8893 20.7473 16.38C20.9345 15.8707 21.0161 15.3286 20.9872 14.7867C20.9583 14.2448 20.8194 13.7145 20.579 13.228C20.3386 12.7415 20.0017 12.309 19.5889 11.9568C19.176 11.6046 18.6959 11.3401 18.1776 11.1794C17.6592 11.0187 17.1137 10.9651 16.574 11.022C16.9101 10.2608 17.0509 9.42786 16.9837 8.59856C16.9165 7.76926 16.6434 6.96984 16.1891 6.27275C15.7349 5.57566 15.1139 5.00294 14.3824 4.6065C13.6509 4.21006 12.832 4.00243 12 4.00243C11.168 4.00243 10.3491 4.21006 9.6176 4.6065C8.8861 5.00294 8.26509 5.57566 7.81086 6.27275C7.35663 6.96984 7.08354 7.76926 7.01633 8.59856C6.94913 9.42786 7.08994 10.2608 7.426 11.022C6.88633 10.9651 6.34075 11.0187 5.82244 11.1794C5.30414 11.3401 4.82396 11.6046 4.41111 11.9568C3.99827 12.309 3.66141 12.7415 3.42102 13.228C3.18062 13.7145 3.04174 14.2448 3.0128 14.7867C2.98387 15.3286 3.06549 15.8707 3.25271 16.38C3.43992 16.8893 3.72882 17.3552 4.10181 17.7494C4.4748 18.1435 4.92409 18.4576 5.42233 18.6726C5.92057 18.8876 6.45735 18.999 7 19Z" />
</g>
</g>
<defs>
<clipPath id="clip0_8_9344">
<rect width="24" height="24" fill="white"/>
</clipPath>
</defs>
</svg>
