<svg width="24" height="24" viewBox="0 0 24 24"  xmlns="http://www.w3.org/2000/svg">
<g id="cloudy-fill" clip-path="url(#clip0_8_9444)">
<g id="Group">
<path id="Vector" d="M9.00036 20.9861C7.54441 20.8999 6.13514 20.4404 4.9081 19.652C3.68106 18.8636 2.67754 17.7727 1.99405 16.4843C1.31056 15.1958 0.970101 13.7532 1.00542 12.2951C1.04075 10.837 1.45066 9.41259 2.19573 8.15876C2.94081 6.90492 3.99598 5.8639 5.25976 5.13582C6.52353 4.40774 7.95339 4.0171 9.41181 4.00147C10.8702 3.98583 12.3081 4.34573 13.5872 5.04655C14.8663 5.74737 15.9436 6.76553 16.7154 8.00311C18.3778 8.05621 19.9567 8.7446 21.1269 9.92658C22.2972 11.1086 22.9698 12.6942 23.0063 14.3571C23.0428 16.02 22.4404 17.6336 21.3232 18.8658C20.206 20.098 18.6589 20.8551 17.0004 20.9811V21.0001H9.00036V20.9861Z" />
</g>
</g>
<defs>
<clipPath id="clip0_8_9444">
<rect width="24" height="24" fill="white"/>
</clipPath>
</defs>
</svg>
