<svg width="24" height="24" viewBox="0 0 24 24"  xmlns="http://www.w3.org/2000/svg">
<g id="code-box-fill" clip-path="url(#clip0_8_2445)">
<g id="Group">
<path id="Vector" d="M3 3H21C21.2652 3 21.5196 3.10536 21.7071 3.29289C21.8946 3.48043 22 3.73478 22 4V20C22 20.2652 21.8946 20.5196 21.7071 20.7071C21.5196 20.8946 21.2652 21 21 21H3C2.73478 21 2.48043 20.8946 2.29289 20.7071C2.10536 20.5196 2 20.2652 2 20V4C2 3.73478 2.10536 3.48043 2.29289 3.29289C2.48043 3.10536 2.73478 3 3 3ZM16.464 15.536L20 12L16.464 8.464L15.05 9.88L17.172 12L15.05 14.121L16.464 15.536ZM6.828 12L8.95 9.879L7.536 8.464L4 12L7.536 15.536L8.95 14.12L6.828 12ZM11.244 17L14.884 7H12.756L9.116 17H11.244Z" />
</g>
</g>
<defs>
<clipPath id="clip0_8_2445">
<rect width="24" height="24" fill="white"/>
</clipPath>
</defs>
</svg>
