<svg width="24" height="24" viewBox="0 0 24 24" fill="none" xmlns="http://www.w3.org/2000/svg">
<g id="coins-line" clip-path="url(#clip0_8_2890)">
<g id="Group">
<path id="Vector" d="M14 2C15.83 1.99913 17.6049 2.62567 19.0288 3.77513C20.4528 4.92458 21.4396 6.52748 21.8247 8.31647C22.2098 10.1055 21.9699 11.9724 21.145 13.6059C20.3202 15.2395 18.9602 16.5408 17.292 17.293C16.7588 18.4719 15.9475 19.5039 14.9279 20.3004C13.9082 21.097 12.7106 21.6343 11.4376 21.8663C10.1647 22.0984 8.85449 22.0182 7.61936 21.6327C6.38423 21.2472 5.26103 20.5678 4.34611 19.6529C3.43118 18.738 2.75183 17.6148 2.36631 16.3796C1.98079 15.1445 1.90061 13.8343 2.13265 12.5614C2.36469 11.2884 2.90203 10.0908 3.69857 9.07114C4.49511 8.05148 5.52708 7.24024 6.70599 6.707C7.34014 5.30389 8.36558 4.1135 9.65934 3.27861C10.9531 2.44371 12.4602 1.99976 14 2ZM9.99999 8C9.21206 8 8.43185 8.1552 7.70389 8.45672C6.97594 8.75825 6.31451 9.20021 5.75735 9.75736C5.2002 10.3145 4.75825 10.9759 4.45672 11.7039C4.15519 12.4319 3.99999 13.2121 3.99999 14C3.99999 14.7879 4.15519 15.5681 4.45672 16.2961C4.75825 17.0241 5.2002 17.6855 5.75735 18.2426C6.31451 18.7998 6.97594 19.2417 7.70389 19.5433C8.43185 19.8448 9.21206 20 9.99999 20C11.5913 20 13.1174 19.3679 14.2426 18.2426C15.3679 17.1174 16 15.5913 16 14C16 12.4087 15.3679 10.8826 14.2426 9.75736C13.1174 8.63214 11.5913 8 9.99999 8ZM11 9V10H13V12H8.99999C8.87505 11.9998 8.75454 12.0463 8.66221 12.1305C8.56988 12.2147 8.51241 12.3304 8.50112 12.4548C8.48983 12.5793 8.52554 12.7034 8.60121 12.8028C8.67689 12.9023 8.78705 12.9697 8.90999 12.992L8.99999 13H11C11.663 13 12.2989 13.2634 12.7678 13.7322C13.2366 14.2011 13.5 14.837 13.5 15.5C13.5 16.163 13.2366 16.7989 12.7678 17.2678C12.2989 17.7366 11.663 18 11 18V19H8.99999V18H6.99999V16H11C11.1249 16.0002 11.2454 15.9537 11.3378 15.8695C11.4301 15.7853 11.4876 15.6696 11.4989 15.5452C11.5102 15.4207 11.4745 15.2966 11.3988 15.1972C11.3231 15.0977 11.2129 15.0303 11.09 15.008L11 15H8.99999C8.33695 15 7.70107 14.7366 7.23223 14.2678C6.76339 13.7989 6.49999 13.163 6.49999 12.5C6.49999 11.837 6.76339 11.2011 7.23223 10.7322C7.70107 10.2634 8.33695 10 8.99999 10V9H11ZM14 4C13.1527 3.99901 12.3148 4.17794 11.5418 4.52496C10.7688 4.87198 10.0783 5.37918 9.51599 6.013C10.6463 5.94439 11.7782 6.1165 12.837 6.51795C13.8958 6.9194 14.8573 7.54105 15.6579 8.34178C16.4586 9.14252 17.0801 10.1041 17.4814 11.1629C17.8828 12.2218 18.0547 13.3537 17.986 14.484C18.8952 13.6756 19.5372 12.6099 19.8268 11.4283C20.1164 10.2467 20.04 9.00492 19.6076 7.86772C19.1753 6.73053 18.4074 5.75164 17.4059 5.06088C16.4044 4.37013 15.2166 4.00014 14 4Z" />
</g>
</g>
<defs>
<clipPath id="clip0_8_2890">
<rect width="24" height="24" fill="white"/>
</clipPath>
</defs>
</svg>
