<svg width="24" height="24" viewBox="0 0 24 24"  xmlns="http://www.w3.org/2000/svg">
<g id="coins-fill" clip-path="url(#clip0_8_3078)">
<g id="Group">
<path id="Vector" d="M14 2C15.83 1.99913 17.6049 2.62567 19.0288 3.77513C20.4528 4.92458 21.4396 6.52748 21.8247 8.31647C22.2098 10.1055 21.9699 11.9724 21.145 13.6059C20.3202 15.2395 18.9602 16.5408 17.292 17.293C16.7588 18.4719 15.9475 19.5039 14.9279 20.3004C13.9082 21.097 12.7106 21.6343 11.4376 21.8663C10.1647 22.0984 8.85449 22.0182 7.61936 21.6327C6.38423 21.2472 5.26103 20.5678 4.34611 19.6529C3.43118 18.738 2.75183 17.6148 2.36631 16.3796C1.98079 15.1445 1.90061 13.8343 2.13265 12.5614C2.36469 11.2884 2.90203 10.0908 3.69857 9.07114C4.49511 8.05148 5.52708 7.24024 6.70599 6.707C7.34014 5.30389 8.36558 4.1135 9.65934 3.27861C10.9531 2.44371 12.4602 1.99976 14 2ZM11 9H8.99999V10C8.35011 9.99842 7.72515 10.25 7.25758 10.7013C6.79001 11.1527 6.51659 11.7684 6.49526 12.418C6.47393 13.0675 6.70638 13.6998 7.14334 14.1809C7.58029 14.6619 8.1874 14.9539 8.836 14.995L8.99999 15H11L11.09 15.008C11.2053 15.0289 11.3096 15.0896 11.3847 15.1795C11.4598 15.2694 11.5009 15.3828 11.5009 15.5C11.5009 15.6172 11.4598 15.7306 11.3847 15.8205C11.3096 15.9104 11.2053 15.9711 11.09 15.992L11 16H6.99999V18H8.99999V19H11V18C11.6499 18.0016 12.2748 17.75 12.7424 17.2987C13.21 16.8473 13.4834 16.2316 13.5047 15.582C13.5261 14.9325 13.2936 14.3002 12.8567 13.8191C12.4197 13.3381 11.8126 13.0461 11.164 13.005L11 13H8.99999L8.90999 12.992C8.79471 12.9711 8.69042 12.9104 8.61532 12.8205C8.54022 12.7306 8.49908 12.6172 8.49908 12.5C8.49908 12.3828 8.54022 12.2694 8.61532 12.1795C8.69042 12.0896 8.79471 12.0289 8.90999 12.008L8.99999 12H13V10H11V9ZM14 4C13.1527 3.99901 12.3148 4.17794 11.5418 4.52496C10.7688 4.87198 10.0783 5.37918 9.51599 6.013C10.6463 5.94439 11.7782 6.1165 12.837 6.51795C13.8958 6.9194 14.8573 7.54105 15.6579 8.34178C16.4586 9.14252 17.0801 10.1041 17.4814 11.1629C17.8828 12.2218 18.0547 13.3537 17.986 14.484C18.8952 13.6756 19.5372 12.6099 19.8268 11.4283C20.1164 10.2467 20.04 9.00492 19.6076 7.86772C19.1753 6.73053 18.4074 5.75164 17.4059 5.06088C16.4044 4.37013 15.2166 4.00014 14 4Z" />
</g>
</g>
<defs>
<clipPath id="clip0_8_3078">
<rect width="24" height="24" fill="white"/>
</clipPath>
</defs>
</svg>
