<svg width="24" height="24" viewBox="0 0 24 24" fill="none" xmlns="http://www.w3.org/2000/svg">
<g id="compasses-2-line" clip-path="url(#clip0_8_4340)">
<g id="Group">
<path id="Vector" d="M16.33 13.5C17.1628 12.8455 17.8359 12.0103 18.2984 11.0575C18.761 10.1047 19.0009 9.05916 19 8H21C21.001 9.41043 20.6701 10.8013 20.0339 12.0601C19.3977 13.3189 18.4742 14.4103 17.338 15.246L19.866 19.624C20.1312 20.0834 20.2031 20.6293 20.0658 21.1416C19.9285 21.6539 19.5933 22.0908 19.134 22.356L15.607 16.248C14.4697 16.7456 13.2414 17.0016 12 17C10.7586 17.0016 9.53035 16.7456 8.393 16.248L4.866 22.356C4.40666 22.0908 4.07148 21.6539 3.93421 21.1416C3.79693 20.6293 3.8688 20.0834 4.134 19.624L9.197 10.854C8.69197 10.3574 8.32776 9.73574 8.14157 9.05239C7.95538 8.36905 7.95387 7.64852 8.13721 6.9644C8.32054 6.28028 8.68215 5.65707 9.1851 5.1584C9.68805 4.65973 10.3143 4.30347 11 4.126V2H13V4.126C13.6857 4.30347 14.312 4.65973 14.8149 5.1584C15.3179 5.65707 15.6795 6.28028 15.8628 6.9644C16.0461 7.64852 16.0446 8.36905 15.8584 9.05239C15.6722 9.73574 15.308 10.3574 14.803 10.854L16.33 13.5ZM14.6 14.502L13.072 11.855C12.3713 12.0495 11.6308 12.0495 10.93 11.855L9.402 14.502C10.206 14.823 11.082 15 12.001 15C12.919 15 13.796 14.823 14.6 14.502ZM12 10C12.5304 10 13.0391 9.78929 13.4142 9.41421C13.7893 9.03914 14 8.53043 14 8C14 7.46957 13.7893 6.96086 13.4142 6.58579C13.0391 6.21071 12.5304 6 12 6C11.4696 6 10.9609 6.21071 10.5858 6.58579C10.2107 6.96086 10 7.46957 10 8C10 8.53043 10.2107 9.03914 10.5858 9.41421C10.9609 9.78929 11.4696 10 12 10Z" fill="currentColor"/>
</g>
</g>
<defs>
<clipPath id="clip0_8_4340">
<rect width="24" height="24" fill="white"/>
</clipPath>
</defs>
</svg>
