<svg width="24" height="24" viewBox="0 0 24 24" fill="none" xmlns="http://www.w3.org/2000/svg">
<g id="compasses-fill" clip-path="url(#clip0_8_4464)">
<g id="Group">
<path id="Vector" d="M11 4.126V2H13V4.126C13.6857 4.30347 14.312 4.65973 14.8149 5.1584C15.3179 5.65707 15.6795 6.28028 15.8628 6.9644C16.0461 7.64852 16.0446 8.36905 15.8584 9.05239C15.6722 9.73574 15.308 10.3574 14.803 10.854L20.866 21.356L19.134 22.356L13.071 11.855C12.3703 12.0495 11.6298 12.0495 10.929 11.855L4.866 22.356L3.134 21.356L9.197 10.854C8.69197 10.3574 8.32776 9.73574 8.14157 9.05239C7.95538 8.36905 7.95387 7.64852 8.13721 6.9644C8.32054 6.28028 8.68215 5.65707 9.1851 5.1584C9.68805 4.65973 10.3143 4.30347 11 4.126ZM12 9C12.2652 9 12.5196 8.89464 12.7071 8.70711C12.8946 8.51957 13 8.26522 13 8C13 7.73478 12.8946 7.48043 12.7071 7.29289C12.5196 7.10536 12.2652 7 12 7C11.7348 7 11.4804 7.10536 11.2929 7.29289C11.1054 7.48043 11 7.73478 11 8C11 8.26522 11.1054 8.51957 11.2929 8.70711C11.4804 8.89464 11.7348 9 12 9Z" fill="currentColor"/>
</g>
</g>
<defs>
<clipPath id="clip0_8_4464">
<rect width="24" height="24" fill="white"/>
</clipPath>
</defs>
</svg>
