<svg width="24" height="24" viewBox="0 0 24 24" fill="none" xmlns="http://www.w3.org/2000/svg">
<g id="contrast-drop-fill" clip-path="url(#clip0_8_4468)">
<g id="Group">
<path id="Vector" d="M5.636 6.63597L12 0.271973L18.364 6.63597C19.6227 7.89465 20.4798 9.4983 20.8271 11.2441C21.1743 12.9899 20.9961 14.7995 20.3149 16.4441C19.6337 18.0886 18.4802 19.4942 17.0001 20.4831C15.5201 21.4721 13.78 21.9999 12 21.9999C10.22 21.9999 8.47992 21.4721 6.99988 20.4831C5.51984 19.4942 4.36628 18.0886 3.68509 16.4441C3.0039 14.7995 2.82566 12.9899 3.17292 11.2441C3.52018 9.4983 4.37734 7.89465 5.636 6.63597ZM7.05 8.04997C6.07069 9.02918 5.40384 10.2769 5.13383 11.6352C4.86381 12.9935 5.00278 14.4014 5.53313 15.6807C6.06348 16.96 6.96138 18.0532 8.11323 18.8221C9.26508 19.5909 10.6191 20.0009 12.004 20L12 3.09997L7.05 8.04997Z" fill="currentColor"/>
</g>
</g>
<defs>
<clipPath id="clip0_8_4468">
<rect width="24" height="24" fill="white"/>
</clipPath>
</defs>
</svg>
