<svg width="24" height="24" viewBox="0 0 24 24" fill="none" xmlns="http://www.w3.org/2000/svg">
<g id="copyleft-line" clip-path="url(#clip0_8_1006)">
<g id="Group">
<path id="Vector" d="M12 22C6.48 22 2 17.52 2 12C2 6.48 6.48 2 12 2C17.52 2 22 6.48 22 12C22 17.52 17.52 22 12 22ZM12 20C16.42 20 20 16.42 20 12C20 7.58 16.42 4 12 4C7.58 4 4 7.58 4 12C4 16.42 7.58 20 12 20ZM12 17C10.18 17 8.587 16.027 7.712 14.572L9.426 13.543C9.951 14.416 10.907 15 12 15C13.658 15 15 13.658 15 12C15 10.342 13.658 9 12 9C10.907 9 9.952 9.583 9.427 10.456L7.712 9.428C8.587 7.973 10.18 7 12 7C14.76 7 17 9.24 17 12C17 14.76 14.76 17 12 17Z" fill="#121212"/>
</g>
</g>
<defs>
<clipPath id="clip0_8_1006">
<rect width="24" height="24" fill="white"/>
</clipPath>
</defs>
</svg>
