<svg width="24" height="24" viewBox="0 0 24 24"  xmlns="http://www.w3.org/2000/svg">
<g id="copyleft-fill" clip-path="url(#clip0_8_790)">
<g id="Group">
<path id="Vector" d="M12 22C6.48 22 2 17.52 2 12C2 6.48 6.48 2 12 2C17.52 2 22 6.48 22 12C22 17.52 17.52 22 12 22ZM12 17C14.76 17 17 14.76 17 12C17 9.24 14.76 7 12 7C10.18 7 8.587 7.973 7.712 9.428L9.427 10.456C9.952 9.583 10.907 9 12 9C13.658 9 15 10.342 15 12C15 13.658 13.658 15 12 15C10.907 15 9.95 14.416 9.426 13.543L7.712 14.573C8.587 16.026 10.18 17 12 17Z" />
</g>
</g>
<defs>
<clipPath id="clip0_8_790">
<rect width="24" height="24" fill="white"/>
</clipPath>
</defs>
</svg>
