<svg width="24" height="24" viewBox="0 0 24 24" fill="none" xmlns="http://www.w3.org/2000/svg">
<g id="coupon-2-line" clip-path="url(#clip0_8_3114)">
<g id="Group">
<path id="Vector" d="M2 9.5V4C2 3.73478 2.10536 3.48043 2.29289 3.29289C2.48043 3.10536 2.73478 3 3 3H21C21.2652 3 21.5196 3.10536 21.7071 3.29289C21.8946 3.48043 22 3.73478 22 4V9.5C21.337 9.5 20.7011 9.76339 20.2322 10.2322C19.7634 10.7011 19.5 11.337 19.5 12C19.5 12.663 19.7634 13.2989 20.2322 13.7678C20.7011 14.2366 21.337 14.5 22 14.5V20C22 20.2652 21.8946 20.5196 21.7071 20.7071C21.5196 20.8946 21.2652 21 21 21H3C2.73478 21 2.48043 20.8946 2.29289 20.7071C2.10536 20.5196 2 20.2652 2 20V14.5C2.66304 14.5 3.29893 14.2366 3.76777 13.7678C4.23661 13.2989 4.5 12.663 4.5 12C4.5 11.337 4.23661 10.7011 3.76777 10.2322C3.29893 9.76339 2.66304 9.5 2 9.5ZM14 5H4V7.968C4.75121 8.3403 5.38347 8.91505 5.8255 9.62746C6.26754 10.3399 6.50176 11.1616 6.50176 12C6.50176 12.8384 6.26754 13.6601 5.8255 14.3725C5.38347 15.085 4.75121 15.6597 4 16.032V19H14V5ZM16 5V19H20V16.032C19.2488 15.6597 18.6165 15.085 18.1745 14.3725C17.7325 13.6601 17.4982 12.8384 17.4982 12C17.4982 11.1616 17.7325 10.3399 18.1745 9.62746C18.6165 8.91505 19.2488 8.3403 20 7.968V5H16Z" />
</g>
</g>
<defs>
<clipPath id="clip0_8_3114">
<rect width="24" height="24" fill="white"/>
</clipPath>
</defs>
</svg>
