<svg width="24" height="24" viewBox="0 0 24 24" fill="none" xmlns="http://www.w3.org/2000/svg">
<g id="creative-commons-zero-fill" clip-path="url(#clip0_8_1114)">
<g id="Group">
<path id="Vector" d="M12 2C17.52 2 22 6.48 22 12C22 17.52 17.52 22 12 22C6.48 22 2 17.52 2 12C2 6.48 6.48 2 12 2ZM12 6C9.239 6 7 8.686 7 12C7 15.314 9.239 18 12 18C14.761 18 17 15.314 17 12C17 8.686 14.761 6 12 6ZM14.325 9.472C14.747 10.162 15 11.042 15 12C15 14.21 13.657 16 12 16C11.622 16 11.26 15.907 10.927 15.737L10.763 15.645L14.325 9.472ZM12 8C12.378 8 12.74 8.093 13.073 8.263L13.237 8.355L9.675 14.528C9.253 13.838 9 12.958 9 12C9 9.79 10.343 8 12 8Z" />
</g>
</g>
<defs>
<clipPath id="clip0_8_1114">
<rect width="24" height="24" fill="white"/>
</clipPath>
</defs>
</svg>
