<svg width="24" height="24" viewBox="0 0 24 24" fill="none" xmlns="http://www.w3.org/2000/svg">
<g id="creative-commons-line" clip-path="url(#clip0_8_822)">
<g id="Group">
<path id="Vector" d="M12 2C17.523 2 22 6.477 22 12C22 17.523 17.523 22 12 22C6.477 22 2 17.523 2 12C2 6.477 6.477 2 12 2ZM12 4C9.87827 4 7.84344 4.84285 6.34315 6.34315C4.84285 7.84344 4 9.87827 4 12C4 14.1217 4.84285 16.1566 6.34315 17.6569C7.84344 19.1571 9.87827 20 12 20C14.1217 20 16.1566 19.1571 17.6569 17.6569C19.1571 16.1566 20 14.1217 20 12C20 9.87827 19.1571 7.84344 17.6569 6.34315C16.1566 4.84285 14.1217 4 12 4ZM9 8C10.105 8 11.105 8.448 11.829 9.173L10.415 10.587C10.1354 10.3071 9.77912 10.1165 9.39117 10.0391C9.00322 9.96176 8.60104 10.0012 8.2355 10.1524C7.86996 10.3036 7.55747 10.5599 7.33757 10.8887C7.11766 11.2175 7.00021 11.6042 7.00007 11.9998C6.99993 12.3954 7.11711 12.7821 7.33678 13.1111C7.55646 13.4401 7.86876 13.6966 8.23419 13.848C8.59963 13.9995 9.00178 14.0392 9.38978 13.9622C9.77779 13.8851 10.1342 13.6947 10.414 13.415L11.828 14.828C11.2684 15.3868 10.5558 15.7671 9.78014 15.9211C9.00449 16.0751 8.2006 15.9958 7.47 15.6932C6.7394 15.3906 6.11485 14.8783 5.67523 14.221C5.23561 13.5637 5.00065 12.7908 5 12C5 9.792 6.792 8 9 8ZM16 8C17.105 8 18.105 8.448 18.829 9.173L17.415 10.587C17.1354 10.3071 16.7791 10.1165 16.3912 10.0391C16.0032 9.96176 15.601 10.0012 15.2355 10.1524C14.87 10.3036 14.5575 10.5599 14.3376 10.8887C14.1177 11.2175 14.0002 11.6042 14.0001 11.9998C13.9999 12.3954 14.1171 12.7821 14.3368 13.1111C14.5565 13.4401 14.8688 13.6966 15.2342 13.848C15.5996 13.9995 16.0018 14.0392 16.3898 13.9622C16.7778 13.8851 17.1342 13.6947 17.414 13.415L18.828 14.828C18.2684 15.3868 17.5558 15.7671 16.7801 15.9211C16.0045 16.0751 15.2006 15.9958 14.47 15.6932C13.7394 15.3906 13.1148 14.8783 12.6752 14.221C12.2356 13.5637 12.0006 12.7908 12 12C12 9.792 13.792 8 16 8Z" fill="#121212"/>
</g>
</g>
<defs>
<clipPath id="clip0_8_822">
<rect width="24" height="24" fill="white"/>
</clipPath>
</defs>
</svg>
