<svg width="24" height="24" viewBox="0 0 24 24" fill="none" xmlns="http://www.w3.org/2000/svg">
<g id="creative-commons-sa-line" clip-path="url(#clip0_8_826)">
<g id="Group">
<path id="Vector" d="M12 2C17.52 2 22 6.48 22 12C22 17.52 17.52 22 12 22C6.48 22 2 17.52 2 12C2 6.48 6.48 2 12 2ZM12 4C7.585 4 4 7.585 4 12C4 16.415 7.585 20 12 20C16.415 20 20 16.415 20 12C20 7.585 16.415 4 12 4ZM12 6C14.761 6 17 8.686 17 12C17 15.314 14.761 18 12 18C9.823 18 7.971 16.33 7.285 14L9.402 14.001C9.92 15.196 10.89 16 12 16C13.657 16 15 14.21 15 12C15 9.79 13.657 8 12 8C10.89 8 9.92 8.805 9.401 10H11L8.5 13L6 10H7.284C7.971 7.67 9.823 6 12 6Z" fill="currentColor"/>
</g>
</g>
<defs>
<clipPath id="clip0_8_826">
<rect width="24" height="24" fill="white"/>
</clipPath>
</defs>
</svg>
