<svg width="24" height="24" viewBox="0 0 24 24" fill="none" xmlns="http://www.w3.org/2000/svg">
<g id="creative-commons-fill" clip-path="url(#clip0_8_938)">
<g id="Group">
<path id="Vector" d="M12 2C17.523 2 22 6.477 22 12C22 17.523 17.523 22 12 22C6.477 22 2 17.523 2 12C2 6.477 6.477 2 12 2ZM9 8C6.792 8 5 9.792 5 12C5.0005 12.7722 5.22445 13.5278 5.64485 14.1756C6.06524 14.8233 6.66411 15.3356 7.36918 15.6505C8.07425 15.9655 8.85541 16.0697 9.61838 15.9505C10.3813 15.8313 11.0935 15.4939 11.669 14.979L11.828 14.828L10.414 13.414C10.1394 13.6886 9.79082 13.8774 9.41077 13.9572C9.03071 14.037 8.63563 14.0045 8.27376 13.8635C7.91189 13.7226 7.59889 13.4793 7.37295 13.1635C7.14702 12.8476 7.01794 12.4728 7.00146 12.0848C6.98498 11.6968 7.08182 11.3124 7.28015 10.9785C7.47849 10.6446 7.76974 10.3757 8.11835 10.2046C8.46697 10.0334 8.85786 9.9675 9.24332 10.0148C9.62878 10.0621 9.99212 10.2206 10.289 10.471L10.415 10.587L11.829 9.173C11.458 8.80071 11.0171 8.50542 10.5316 8.30411C10.0461 8.10281 9.52558 7.99946 9 8ZM16 8C13.792 8 12 9.792 12 12C12.0005 12.7722 12.2245 13.5278 12.6448 14.1756C13.0652 14.8233 13.6641 15.3356 14.3692 15.6505C15.0743 15.9655 15.8554 16.0697 16.6184 15.9505C17.3813 15.8313 18.0935 15.4939 18.669 14.979L18.828 14.828L17.414 13.414C17.1394 13.6886 16.7908 13.8774 16.4108 13.9572C16.0307 14.037 15.6356 14.0045 15.2738 13.8635C14.9119 13.7226 14.5989 13.4793 14.373 13.1635C14.147 12.8476 14.0179 12.4728 14.0015 12.0848C13.985 11.6968 14.0818 11.3124 14.2802 10.9785C14.4785 10.6446 14.7697 10.3757 15.1184 10.2046C15.467 10.0334 15.8579 9.9675 16.2433 10.0148C16.6288 10.0621 16.9921 10.2206 17.289 10.471L17.415 10.587L18.829 9.173C18.458 8.80071 18.0171 8.50542 17.5316 8.30411C17.0461 8.10281 16.5256 7.99946 16 8Z" />
</g>
</g>
<defs>
<clipPath id="clip0_8_938">
<rect width="24" height="24" fill="white"/>
</clipPath>
</defs>
</svg>
