<svg width="24" height="24" viewBox="0 0 24 24" fill="none" xmlns="http://www.w3.org/2000/svg">
<g id="delete-row" clip-path="url(#clip0_8_2490)">
<g id="Group">
<path id="Vector" d="M20 5C20.552 5 21 5.448 21 6V12C21 12.552 20.552 13 20 13C20.628 13.835 21 14.874 21 16C21 18.761 18.761 21 16 21C13.239 21 11 18.761 11 16C11 14.874 11.372 13.835 12 13H4C3.448 13 3 12.552 3 12V6C3 5.448 3.448 5 4 5H20ZM13 15V17H19V15H13ZM19 7H5V11H19V7Z" fill="#121212"/>
</g>
</g>
<defs>
<clipPath id="clip0_8_2490">
<rect width="24" height="24" fill="white"/>
</clipPath>
</defs>
</svg>
