<svg width="24" height="24" viewBox="0 0 24 24" fill="none" xmlns="http://www.w3.org/2000/svg">
<g id="device-fill" clip-path="url(#clip0_8_1808)">
<g id="Group">
<path id="Vector" d="M19 6H11C10.7348 6 10.4804 6.10536 10.2929 6.29289C10.1054 6.48043 10 6.73478 10 7V20H4C3.73478 20 3.48043 19.8946 3.29289 19.7071C3.10536 19.5196 3 19.2652 3 19V3C3 2.73478 3.10536 2.48043 3.29289 2.29289C3.48043 2.10536 3.73478 2 4 2H18C18.2652 2 18.5196 2.10536 18.7071 2.29289C18.8946 2.48043 19 2.73478 19 3V6ZM13 8H21C21.2652 8 21.5196 8.10536 21.7071 8.29289C21.8946 8.48043 22 8.73478 22 9V21C22 21.2652 21.8946 21.5196 21.7071 21.7071C21.5196 21.8946 21.2652 22 21 22H13C12.7348 22 12.4804 21.8946 12.2929 21.7071C12.1054 21.5196 12 21.2652 12 21V9C12 8.73478 12.1054 8.48043 12.2929 8.29289C12.4804 8.10536 12.7348 8 13 8Z" fill="#121212"/>
</g>
</g>
<defs>
<clipPath id="clip0_8_1808">
<rect width="24" height="24" fill="white"/>
</clipPath>
</defs>
</svg>
