<svg width="24" height="24" viewBox="0 0 24 24" fill="none" xmlns="http://www.w3.org/2000/svg">
<g id="device-recover-line" clip-path="url(#clip0_8_1836)">
<g id="Group">
<path id="Vector" d="M19 2C19.2652 2 19.5196 2.10536 19.7071 2.29289C19.8946 2.48043 20 2.73478 20 3V21C20 21.2652 19.8946 21.5196 19.7071 21.7071C19.5196 21.8946 19.2652 22 19 22H5C4.73478 22 4.48043 21.8946 4.29289 21.7071C4.10536 21.5196 4 21.2652 4 21V3C4 2.73478 4.10536 2.48043 4.29289 2.29289C4.48043 2.10536 4.73478 2 5 2H19ZM18 4H6V20H18V4ZM12 7C13.088 6.99988 14.1464 7.35466 15.0145 8.0105C15.8826 8.66634 16.5131 9.58746 16.8104 10.6341C17.1076 11.6807 17.0553 12.7957 16.6615 13.81C16.2676 14.8242 15.5537 15.6823 14.628 16.254L12.5 12H15C15 11.4067 14.8241 10.8266 14.4944 10.3333C14.1648 9.83994 13.6962 9.45542 13.1481 9.22836C12.5999 9.0013 11.9967 8.94189 11.4147 9.05764C10.8328 9.1734 10.2982 9.45912 9.87868 9.87868C9.45912 10.2982 9.1734 10.8328 9.05764 11.4147C8.94189 11.9967 9.0013 12.5999 9.22836 13.1481C9.45542 13.6962 9.83994 14.1648 10.3333 14.4944C10.8266 14.8241 11.4067 15 12 15L12.955 16.909C12.2711 17.0413 11.5671 17.0292 10.8881 16.8736C10.2091 16.7179 9.57013 16.4221 9.01215 16.005C8.45417 15.588 7.98949 15.059 7.64789 14.4519C7.30629 13.8448 7.09531 13.173 7.02849 12.4797C6.96166 11.7863 7.04046 11.0866 7.25983 10.4254C7.4792 9.76426 7.8343 9.15624 8.30237 8.64033C8.77043 8.12442 9.34114 7.71201 9.97789 7.42954C10.6146 7.14706 11.3034 7.00076 12 7Z" fill="#121212"/>
</g>
</g>
<defs>
<clipPath id="clip0_8_1836">
<rect width="24" height="24" fill="white"/>
</clipPath>
</defs>
</svg>
