<svg width="24" height="24" viewBox="0 0 24 24"  xmlns="http://www.w3.org/2000/svg">
<g id="direction-line" clip-path="url(#clip0_8_6115)">
<g id="Group">
<path id="Vector" d="M12.0004 3.51501L3.51537 12L12.0004 20.485L20.4854 12L12.0004 3.51501ZM12.7074 1.39301L22.6074 11.293C22.7948 11.4805 22.9002 11.7348 22.9002 12C22.9002 12.2652 22.7948 12.5195 22.6074 12.707L12.7074 22.607C12.5198 22.7945 12.2655 22.8998 12.0004 22.8998C11.7352 22.8998 11.4809 22.7945 11.2934 22.607L1.39337 12.707C1.2059 12.5195 1.10059 12.2652 1.10059 12C1.10059 11.7348 1.2059 11.4805 1.39337 11.293L11.2934 1.39301C11.4809 1.20554 11.7352 1.10022 12.0004 1.10022C12.2655 1.10022 12.5198 1.20554 12.7074 1.39301ZM13.0004 10V7.50001L16.5004 11L13.0004 14.5V12H10.0004V15H8.00037V11C8.00037 10.7348 8.10573 10.4804 8.29327 10.2929C8.4808 10.1054 8.73516 10 9.00037 10H13.0004Z" />
</g>
</g>
<defs>
<clipPath id="clip0_8_6115">
<rect width="24" height="24" fill="white"/>
</clipPath>
</defs>
</svg>
