<svg width="24" height="24" viewBox="0 0 24 24" fill="none" xmlns="http://www.w3.org/2000/svg">
<g id="disc-line" clip-path="url(#clip0_8_7104)">
<g id="Group">
<path id="Vector" d="M15 4.58199V12C14.9997 12.6367 14.7967 13.2569 14.4206 13.7707C14.0444 14.2844 13.5145 14.6652 12.9076 14.8578C12.3007 15.0505 11.6482 15.045 11.0446 14.8422C10.441 14.6394 9.91755 14.2498 9.55006 13.7298C9.18256 13.2098 8.99005 12.5864 9.0004 11.9497C9.01074 11.313 9.2234 10.6961 9.60759 10.1883C9.99179 9.68054 10.5276 9.30816 11.1375 9.12508C11.7473 8.94201 12.3997 8.95773 13 9.16999V2.04999C18.053 2.55099 22 6.81499 22 12C22 17.523 17.523 22 12 22C6.477 22 2 17.523 2 12C2 6.81499 5.947 2.55099 11 2.04999V4.06199C8.98271 4.31867 7.13885 5.33386 5.84319 6.90121C4.54752 8.46856 3.89728 10.4705 4.02462 12.5C4.15196 14.5296 5.04733 16.4345 6.52874 17.8276C8.01016 19.2207 9.96645 19.9975 12 20C13.8573 20.001 15.6572 19.3558 17.0908 18.1749C18.5244 16.994 19.5024 15.3511 19.8572 13.528C20.2119 11.7048 19.9213 9.81503 19.035 8.18277C18.1488 6.5505 16.7222 5.27745 15 4.58199Z" fill="currentColor"/>
</g>
</g>
<defs>
<clipPath id="clip0_8_7104">
<rect width="24" height="24" fill="white"/>
</clipPath>
</defs>
</svg>
