<svg width="24" height="24" viewBox="0 0 24 24" fill="none" xmlns="http://www.w3.org/2000/svg">
<g id="dislike-line" clip-path="url(#clip0_8_4945)">
<g id="Group">
<path id="Vector" d="M2.80758 1.39307L21.1916 19.7781L19.7776 21.1921L16.0306 17.4451L11.9996 21.4851L3.51958 12.9931C1.47958 10.7091 1.49158 7.24007 3.55358 4.97007L1.39258 2.80807L2.80758 1.39307ZM4.97958 11.6231L11.9996 18.6541L14.6166 16.0311L4.97158 6.38607C3.67758 7.88307 3.67158 10.1211 4.97958 11.6231ZM20.2426 4.75707C22.5046 7.02507 22.5826 10.6371 20.4786 12.9931L18.8436 14.6291L17.4296 13.2151L19.0196 11.6231C20.3936 10.0471 20.3186 7.66507 18.8266 6.17007C17.3266 4.66807 14.9066 4.60707 13.3366 6.01707L12.0016 7.21507L10.6656 6.01807C10.3156 5.70407 9.92458 5.46307 9.51058 5.29507L7.26058 3.04507C8.92858 2.83907 10.6676 3.33407 12.0006 4.52907C14.3496 2.42007 17.9796 2.49007 20.2426 4.75707Z" />
</g>
</g>
<defs>
<clipPath id="clip0_8_4945">
<rect width="24" height="24" fill="white"/>
</clipPath>
</defs>
</svg>
