<svg width="24" height="24" viewBox="0 0 24 24" fill="none" xmlns="http://www.w3.org/2000/svg">
<g id="disqus-fill" clip-path="url(#clip0_8_5758)">
<g id="Group">
<path id="Vector" d="M12 2C17.523 2 22 6.477 22 12C22 17.523 17.523 22 12 22C9.47 22 7.16 21.06 5.399 19.512L1.5 20L2.924 16.203C2.33 14.925 2 13.501 2 12C2 6.477 6.477 2 12 2ZM8 7V17H11.733L11.996 16.996C15.371 16.893 17.333 14.785 17.333 11.971V11.944L17.33 11.729C17.23 8.956 15.21 7 11.79 7H8ZM11.831 9.458C13.459 9.458 14.54 10.386 14.54 11.987V12.015L14.535 12.198C14.456 13.698 13.397 14.543 11.831 14.543H10.723V9.458H11.831Z" fill="currentColor"/>
</g>
</g>
<defs>
<clipPath id="clip0_8_5758">
<rect width="24" height="24" fill="white"/>
</clipPath>
</defs>
</svg>
