<svg width="24" height="24" viewBox="0 0 24 24" fill="none" xmlns="http://www.w3.org/2000/svg">
<g id="donut-chart-line" clip-path="url(#clip0_8_1202)">
<g id="Group">
<path id="Vector" d="M11 2.04995V4.06195C7.054 4.55395 4 7.91995 4 12C4 16.418 7.582 20 12 20C13.849 20 15.55 19.3729 16.906 18.32L18.329 19.743C16.605 21.153 14.4 22 12 22C6.477 22 2 17.523 2 12C2 6.81495 5.947 2.55095 11 2.04995ZM21.95 13C21.75 15.011 20.956 16.8469 19.743 18.3279L18.32 16.906C19.18 15.799 19.756 14.461 19.938 13H21.951H21.95ZM13.002 2.04995C17.726 2.51895 21.482 6.27595 21.952 11H19.939C19.488 7.38195 16.62 4.51395 13.002 4.06195V2.04895V2.04995Z" fill="currentColor"/>
</g>
</g>
<defs>
<clipPath id="clip0_8_1202">
<rect width="24" height="24" fill="white"/>
</clipPath>
</defs>
</svg>
