<svg width="24" height="24" viewBox="0 0 24 24" fill="none" xmlns="http://www.w3.org/2000/svg">
<g id="door-lock-box-fill" clip-path="url(#clip0_8_7437)">
<g id="Group">
<path id="Vector" d="M4 3H20C20.2652 3 20.5196 3.10536 20.7071 3.29289C20.8946 3.48043 21 3.73478 21 4V20C21 20.2652 20.8946 20.5196 20.7071 20.7071C20.5196 20.8946 20.2652 21 20 21H4C3.73478 21 3.48043 20.8946 3.29289 20.7071C3.10536 20.5196 3 20.2652 3 20V4C3 3.73478 3.10536 3.48043 3.29289 3.29289C3.48043 3.10536 3.73478 3 4 3ZM11 12.792V16H13V12.792C13.5264 12.5623 13.9576 12.1583 14.2212 11.648C14.4848 11.1377 14.5646 10.5522 14.4473 9.98994C14.3299 9.4277 14.0226 8.92302 13.5769 8.56075C13.1312 8.19847 12.5744 8.00071 12 8.00071C11.4256 8.00071 10.8688 8.19847 10.4231 8.56075C9.97744 8.92302 9.67008 9.4277 9.55273 9.98994C9.43539 10.5522 9.51521 11.1377 9.77878 11.648C10.0424 12.1583 10.4736 12.5623 11 12.792Z" fill="currentColor"/>
</g>
</g>
<defs>
<clipPath id="clip0_8_7437">
<rect width="24" height="24" fill="white"/>
</clipPath>
</defs>
</svg>
