<svg width="24" height="24" viewBox="0 0 24 24" fill="none" xmlns="http://www.w3.org/2000/svg">
<g id="door-lock-fill" clip-path="url(#clip0_8_7589)">
<g id="Group">
<path id="Vector" d="M12 22C6.477 22 2 17.523 2 12C2 6.477 6.477 2 12 2C17.523 2 22 6.477 22 12C22 17.523 17.523 22 12 22ZM11 12.792V16H13V12.792C13.5264 12.5623 13.9576 12.1583 14.2212 11.648C14.4848 11.1377 14.5646 10.5522 14.4473 9.98994C14.3299 9.4277 14.0226 8.92302 13.5769 8.56075C13.1312 8.19847 12.5744 8.00071 12 8.00071C11.4256 8.00071 10.8688 8.19847 10.4231 8.56075C9.97744 8.92302 9.67008 9.4277 9.55273 9.98994C9.43539 10.5522 9.51521 11.1377 9.77878 11.648C10.0424 12.1583 10.4736 12.5623 11 12.792Z" fill="#121212"/>
</g>
</g>
<defs>
<clipPath id="clip0_8_7589">
<rect width="24" height="24" fill="white"/>
</clipPath>
</defs>
</svg>
