<svg width="24" height="24" viewBox="0 0 24 24" fill="none" xmlns="http://www.w3.org/2000/svg">
<g id="door-fill" clip-path="url(#clip0_8_7345)">
<g id="Group">
<path id="Vector" d="M18 3C18.552 3 19 3.448 19 4V20C19 20.552 18.552 21 18 21H6C5.448 21 5 20.552 5 20V4C5 3.448 5.448 3 6 3H18ZM14 11C13.448 11 13 11.448 13 12C13 12.552 13.448 13 14 13C14.552 13 15 12.552 15 12C15 11.448 14.552 11 14 11Z" fill="#121212"/>
</g>
</g>
<defs>
<clipPath id="clip0_8_7345">
<rect width="24" height="24" fill="white"/>
</clipPath>
</defs>
</svg>
