<svg width="24" height="24" viewBox="0 0 24 24" fill="none" xmlns="http://www.w3.org/2000/svg">
<g id="douban-fill" clip-path="url(#clip0_8_5490)">
<g id="Group">
<path id="Vector" d="M16.314 19.138H20.379C20.4605 19.1379 20.5412 19.1538 20.6166 19.1849C20.6919 19.216 20.7604 19.2617 20.8181 19.3192C20.8757 19.3768 20.9215 19.4452 20.9527 19.5205C20.9839 19.5958 21 19.6765 21 19.758V20.379C21.0001 20.4605 20.9842 20.5412 20.9531 20.6166C20.922 20.6919 20.8763 20.7604 20.8188 20.8181C20.7612 20.8757 20.6928 20.9215 20.6175 20.9527C20.5422 20.9839 20.4615 21 20.38 21H3.62C3.45557 21 3.29787 20.9347 3.18159 20.8184C3.06532 20.7021 3 20.5444 3 20.38V19.759C2.99987 19.6775 3.01581 19.5968 3.04691 19.5214C3.07801 19.4461 3.12366 19.3776 3.18124 19.3199C3.23883 19.2623 3.30722 19.2165 3.38251 19.1853C3.45779 19.1541 3.5385 19.138 3.62 19.138H7.374L6.414 16.034H8.604C8.73457 16.0337 8.8619 16.0746 8.96784 16.1509C9.07379 16.2272 9.15294 16.3351 9.194 16.459L10.086 19.138H13.6L14.825 15.103H5.172C5.00757 15.103 4.84987 15.0377 4.73359 14.9214C4.61732 14.8051 4.552 14.6474 4.552 14.483V7.345C4.552 7.18057 4.61732 7.02287 4.73359 6.90659C4.84987 6.79032 5.00757 6.725 5.172 6.725H18.828C18.9924 6.725 19.1501 6.79032 19.2664 6.90659C19.3827 7.02287 19.448 7.18057 19.448 7.345V14.483C19.448 14.6474 19.3827 14.8051 19.2664 14.9214C19.1501 15.0377 18.9924 15.103 18.828 15.103H17.539L16.314 19.138ZM3.931 3H20.069C20.2334 3 20.3911 3.06532 20.5074 3.18159C20.6237 3.29787 20.689 3.45557 20.689 3.62V4.241C20.6891 4.3225 20.6732 4.40323 20.6421 4.47857C20.611 4.55391 20.5653 4.62237 20.5078 4.68005C20.4502 4.73773 20.3818 4.78349 20.3065 4.81471C20.2312 4.84593 20.1505 4.862 20.069 4.862H3.931C3.76657 4.862 3.60887 4.79668 3.49259 4.68041C3.37632 4.56413 3.311 4.40643 3.311 4.242V3.62C3.311 3.45574 3.37618 3.29819 3.49224 3.18195C3.6083 3.0657 3.76574 3.00026 3.93 3H3.931ZM7.19 8.586C7.16956 8.58587 7.1493 8.58978 7.13038 8.59751C7.11146 8.60524 7.09425 8.61664 7.07975 8.63104C7.06525 8.64545 7.05375 8.66258 7.04589 8.68145C7.03804 8.70032 7.034 8.72056 7.034 8.741V12.776C7.034 12.862 7.104 12.931 7.19 12.931H16.81C16.896 12.931 16.966 12.861 16.966 12.776V8.74C16.966 8.71956 16.962 8.69932 16.9541 8.68045C16.9463 8.66158 16.9347 8.64445 16.9202 8.63004C16.9058 8.61564 16.8885 8.60424 16.8696 8.59651C16.8507 8.58878 16.8304 8.58487 16.81 8.585H7.19V8.586Z" />
</g>
</g>
<defs>
<clipPath id="clip0_8_5490">
<rect width="24" height="24" fill="white"/>
</clipPath>
</defs>
</svg>
