<svg width="24" height="24" viewBox="0 0 24 24" fill="none" xmlns="http://www.w3.org/2000/svg">
<g id="drizzle-fill" clip-path="url(#clip0_8_9588)">
<g id="Group">
<path id="Vector" d="M11.0004 18V21H9.00041V18C7.54447 17.9995 6.11626 17.6018 4.8697 16.8496C3.62313 16.0973 2.60548 15.0192 1.9264 13.7313C1.24733 12.4434 0.932592 10.9947 1.0161 9.54113C1.09961 8.08759 1.57821 6.6844 2.40031 5.48277C3.22241 4.28114 4.35685 3.32665 5.68136 2.72215C7.00588 2.11765 8.47025 1.88606 9.91666 2.05236C11.3631 2.21865 12.7367 2.77651 13.8895 3.66582C15.0422 4.55512 15.9305 5.74216 16.4584 7.099C17.2108 6.9543 17.985 6.96837 18.7316 7.14031C19.4782 7.31225 20.1806 7.63828 20.7939 8.09749C21.4072 8.5567 21.9177 9.13897 22.2928 9.80698C22.668 10.475 22.8994 11.214 22.9723 11.9767C23.0452 12.7393 22.958 13.5088 22.7162 14.2358C22.4744 14.9627 22.0834 15.6312 21.5682 16.1983C21.0531 16.7653 20.4251 17.2185 19.7246 17.5288C19.0241 17.8391 18.2665 17.9996 17.5004 18H11.0004ZM13.0004 20H15.0004V23H13.0004V20Z" fill="currentColor"/>
</g>
</g>
<defs>
<clipPath id="clip0_8_9588">
<rect width="24" height="24" fill="white"/>
</clipPath>
</defs>
</svg>
