<svg width="24" height="24" viewBox="0 0 24 24" fill="none" xmlns="http://www.w3.org/2000/svg">
<g id="dropbox-line" clip-path="url(#clip0_8_5482)">
<g id="Group">
<path id="Vector" d="M8.64597 17.26L12.038 19.422L15.43 17.261L17.29 18.446L12.038 21.792L6.78597 18.446L8.64597 17.261V17.26ZM7.76897 8.97996L10.162 7.42696L7.73697 5.85296L5.27997 7.36996L7.76997 8.97996H7.76897ZM9.60897 10.17L12 11.719L14.39 10.172L12 8.61896L9.60897 10.171V10.17ZM13.84 12.91L16.264 14.478L18.714 12.976L16.229 11.364L13.84 12.909V12.91ZM12 6.23396L16.237 3.48596L22.46 7.32996L18.068 10.173L22.461 13.023L16.235 16.842L12 14.1L7.76497 16.84L1.53497 13.023L5.93097 10.172L1.53897 7.32996L7.76297 3.48696L12 6.23496V6.23396ZM13.837 7.42596L16.23 8.97996L18.719 7.36996L16.263 5.85296L13.837 7.42696V7.42596ZM10.16 12.91L7.76997 11.364L5.28397 12.977L7.73497 14.479L10.16 12.91Z" fill="currentColor"/>
</g>
</g>
<defs>
<clipPath id="clip0_8_5482">
<rect width="24" height="24" fill="white"/>
</clipPath>
</defs>
</svg>
