<svg width="24" height="24" viewBox="0 0 24 24" fill="none" xmlns="http://www.w3.org/2000/svg">
<g id="dual-sim-2-line" clip-path="url(#clip0_8_2188)">
<g id="Group">
<path id="Vector" d="M15 2L19.707 6.707C19.8946 6.89449 19.9999 7.14881 20 7.414V21C20 21.2652 19.8946 21.5196 19.7071 21.7071C19.5196 21.8946 19.2652 22 19 22H5C4.73478 22 4.48043 21.8946 4.29289 21.7071C4.10536 21.5196 4 21.2652 4 21V3C4 2.73478 4.10536 2.48043 4.29289 2.29289C4.48043 2.10536 4.73478 2 5 2H15ZM14.171 4H6V20H18V7.829L14.171 4ZM12 7.5C12.6065 7.5 13.1988 7.68385 13.6988 8.02731C14.1987 8.37077 14.5828 8.85771 14.8004 9.42389C15.0179 9.99007 15.0588 10.6089 14.9175 11.1988C14.7762 11.7886 14.4595 12.3218 14.009 12.728L14.001 12.72L14.007 12.73L12.595 14H15V16H9V14.547L12.67 11.243C12.7937 11.1314 12.8875 10.9906 12.943 10.8336C12.9984 10.6765 13.0138 10.508 12.9876 10.3435C12.9614 10.179 12.8945 10.0236 12.7931 9.89149C12.6916 9.75937 12.5587 9.6547 12.4065 9.58699C12.2543 9.51927 12.0876 9.49065 11.9215 9.50373C11.7554 9.5168 11.5952 9.57116 11.4555 9.66187C11.3158 9.75257 11.2009 9.87675 11.1214 10.0231C11.0418 10.1695 11.0001 10.3334 11 10.5H9C9 9.70435 9.31607 8.94129 9.87868 8.37868C10.4413 7.81607 11.2044 7.5 12 7.5Z" fill="#121212"/>
</g>
</g>
<defs>
<clipPath id="clip0_8_2188">
<rect width="24" height="24" fill="white"/>
</clipPath>
</defs>
</svg>
