<svg width="24" height="24" viewBox="0 0 24 24" fill="none" xmlns="http://www.w3.org/2000/svg">
<g id="dual-sim-2-fill" clip-path="url(#clip0_8_1992)">
<g id="Group">
<path id="Vector" d="M15 2L19.707 6.707C19.8946 6.89449 19.9999 7.14881 20 7.414V21C20 21.2652 19.8946 21.5196 19.7071 21.7071C19.5196 21.8946 19.2652 22 19 22H5C4.73478 22 4.48043 21.8946 4.29289 21.7071C4.10536 21.5196 4 21.2652 4 21V3C4 2.73478 4.10536 2.48043 4.29289 2.29289C4.48043 2.10536 4.73478 2 5 2H15ZM12 7.5C11.2348 7.49996 10.4985 7.79233 9.94174 8.31728C9.38499 8.84224 9.04989 9.56011 9.005 10.324L9 10.5H11C11 10.3383 11.0391 10.1789 11.1142 10.0356C11.1893 9.89235 11.298 9.76942 11.431 9.67738C11.564 9.58534 11.7173 9.52694 11.8779 9.50718C12.0384 9.48743 12.2013 9.50691 12.3527 9.56396C12.5041 9.62101 12.6393 9.71393 12.7469 9.83473C12.8544 9.95554 12.9311 10.1006 12.9702 10.2576C13.0094 10.4145 13.0099 10.5786 12.9717 10.7358C12.9335 10.893 12.8578 11.0385 12.751 11.16L12.669 11.243L9 14.547V16H15V14H12.595L14.007 12.73L14.001 12.72L14.009 12.728C14.4595 12.3218 14.7762 11.7886 14.9175 11.1988C15.0588 10.6089 15.0179 9.99007 14.8004 9.42389C14.5828 8.85771 14.1987 8.37077 13.6988 8.02731C13.1988 7.68385 12.6065 7.5 12 7.5Z" fill="#121212"/>
</g>
</g>
<defs>
<clipPath id="clip0_8_1992">
<rect width="24" height="24" fill="white"/>
</clipPath>
</defs>
</svg>
