<svg width="24" height="24" viewBox="0 0 24 24" fill="none" xmlns="http://www.w3.org/2000/svg">
<g id="dual-sim-1-line" clip-path="url(#clip0_8_1928)">
<g id="Group">
<path id="Vector" d="M15 2L19.707 6.707C19.8946 6.89449 19.9999 7.14881 20 7.414V21C20 21.2652 19.8946 21.5196 19.7071 21.7071C19.5196 21.8946 19.2652 22 19 22H5C4.73478 22 4.48043 21.8946 4.29289 21.7071C4.10536 21.5196 4 21.2652 4 21V3C4 2.73478 4.10536 2.48043 4.29289 2.29289C4.48043 2.10536 4.73478 2 5 2H15ZM14.171 4H6V20H18V7.829L14.171 4ZM13 16H11V10H10V8H13V16Z" fill="#121212"/>
</g>
</g>
<defs>
<clipPath id="clip0_8_1928">
<rect width="24" height="24" fill="white"/>
</clipPath>
</defs>
</svg>
