<svg width="24" height="24" viewBox="0 0 24 24"  xmlns="http://www.w3.org/2000/svg">
<g id="dv-fill" clip-path="url(#clip0_8_6548)">
<g id="Group">
<path id="Vector" d="M4 14.745C2.77702 13.8934 1.85772 12.6738 1.37592 11.2635C0.894123 9.85329 0.874962 8.32611 1.32123 6.90423C1.7675 5.48236 2.6559 4.24002 3.85714 3.35803C5.05837 2.47604 6.50974 2.00043 8 2.00043C9.49026 2.00043 10.9416 2.47604 12.1429 3.35803C13.3441 4.24002 14.2325 5.48236 14.6788 6.90423C15.125 8.32611 15.1059 9.85329 14.6241 11.2635C14.1423 12.6738 13.223 13.8934 12 14.745V21C12 21.2652 11.8946 21.5196 11.7071 21.7071C11.5196 21.8946 11.2652 22 11 22H5C4.73478 22 4.48043 21.8946 4.29289 21.7071C4.10536 21.5196 4 21.2652 4 21V14.745ZM8 14C9.32608 14 10.5979 13.4732 11.5355 12.5355C12.4732 11.5978 13 10.3261 13 8.99999C13 7.67391 12.4732 6.40214 11.5355 5.46446C10.5979 4.52677 9.32608 3.99999 8 3.99999C6.67392 3.99999 5.40215 4.52677 4.46447 5.46446C3.52678 6.40214 3 7.67391 3 8.99999C3 10.3261 3.52678 11.5978 4.46447 12.5355C5.40215 13.4732 6.67392 14 8 14ZM7 18V20H9V18H7ZM8 12C7.20435 12 6.44129 11.6839 5.87868 11.1213C5.31607 10.5587 5 9.79564 5 8.99999C5 8.20434 5.31607 7.44128 5.87868 6.87867C6.44129 6.31606 7.20435 5.99999 8 5.99999C8.79565 5.99999 9.55871 6.31606 10.1213 6.87867C10.6839 7.44128 11 8.20434 11 8.99999C11 9.79564 10.6839 10.5587 10.1213 11.1213C9.55871 11.6839 8.79565 12 8 12ZM14 17V15.708C14.9449 14.8647 15.7007 13.8311 16.2177 12.675C16.7348 11.5189 17.0014 10.2664 17 8.99999C17.0032 6.78558 16.1867 4.64833 14.708 2.99999H21C21.2652 2.99999 21.5196 3.10535 21.7071 3.29288C21.8946 3.48042 22 3.73477 22 3.99999V16C22 16.2652 21.8946 16.5196 21.7071 16.7071C21.5196 16.8946 21.2652 17 21 17H14ZM18 6.99999V8.99999H20V6.99999H18Z" />
</g>
</g>
<defs>
<clipPath id="clip0_8_6548">
<rect width="24" height="24" fill="white"/>
</clipPath>
</defs>
</svg>
