<svg width="24" height="24" viewBox="0 0 24 24" fill="none" xmlns="http://www.w3.org/2000/svg">
<g id="dv-line" clip-path="url(#clip0_8_6744)">
<g id="Group">
<path id="Vector" d="M11.6076 2.99994H20.9996C21.2648 2.99994 21.5192 3.1053 21.7067 3.29284C21.8943 3.48037 21.9996 3.73473 21.9996 3.99994V15.9999C21.9996 16.2652 21.8943 16.5195 21.7067 16.7071C21.5192 16.8946 21.2648 16.9999 20.9996 16.9999H13.9996V14.9999H19.9996V4.99994H13.7446C14.5636 6.17284 15.0018 7.5694 14.9996 8.99994C15.0004 10.1286 14.7279 11.2406 14.2055 12.241C13.683 13.2415 12.9262 14.1006 11.9996 14.7449V20.9999C11.9996 21.2652 11.8943 21.5195 11.7067 21.7071C11.5192 21.8946 11.2648 21.9999 10.9996 21.9999H4.99961C4.73439 21.9999 4.48004 21.8946 4.2925 21.7071C4.10497 21.5195 3.99961 21.2652 3.99961 20.9999V14.7449C3.19858 14.2593 2.50318 13.6177 1.95462 12.8584C1.40606 12.099 1.0155 11.2373 0.806076 10.3242C0.59665 9.41114 0.572623 8.46533 0.735417 7.54281C0.89821 6.62029 1.24451 5.73983 1.75381 4.95359C2.2631 4.16736 2.92503 3.49135 3.70036 2.96561C4.4757 2.43988 5.34867 2.07511 6.26756 1.89293C7.18645 1.71075 8.13255 1.71486 9.04982 1.90501C9.96709 2.09516 10.8369 2.46749 11.6076 2.99994ZM5.99961 13.5839V19.9999H9.99961V13.5839C11.0527 13.1244 11.9154 12.3164 12.4428 11.2955C12.9701 10.2747 13.1299 9.10348 12.8952 7.97874C12.6605 6.854 12.0456 5.84437 11.1541 5.11964C10.2625 4.39491 9.14858 3.99928 7.99961 3.99928C6.85064 3.99928 5.73671 4.39491 4.84515 5.11964C3.95358 5.84437 3.33875 6.854 3.10405 7.97874C2.86936 9.10348 3.02911 10.2747 3.55644 11.2955C4.08377 12.3164 4.94652 13.1244 5.99961 13.5839ZM7.99961 11.9999C7.20396 11.9999 6.4409 11.6839 5.87829 11.1213C5.31568 10.5587 4.99961 9.79559 4.99961 8.99994C4.99961 8.20429 5.31568 7.44123 5.87829 6.87862C6.4409 6.31601 7.20396 5.99994 7.99961 5.99994C8.79526 5.99994 9.55832 6.31601 10.1209 6.87862C10.6835 7.44123 10.9996 8.20429 10.9996 8.99994C10.9996 9.79559 10.6835 10.5587 10.1209 11.1213C9.55832 11.6839 8.79526 11.9999 7.99961 11.9999ZM7.99961 9.99994C8.26483 9.99994 8.51918 9.89459 8.70672 9.70705C8.89425 9.51951 8.99961 9.26516 8.99961 8.99994C8.99961 8.73473 8.89425 8.48037 8.70672 8.29284C8.51918 8.1053 8.26483 7.99994 7.99961 7.99994C7.73439 7.99994 7.48004 8.1053 7.2925 8.29284C7.10497 8.48037 6.99961 8.73473 6.99961 8.99994C6.99961 9.26516 7.10497 9.51951 7.2925 9.70705C7.48004 9.89459 7.73439 9.99994 7.99961 9.99994ZM16.9996 6.99994H18.9996V8.99994H16.9996V6.99994ZM6.99961 16.9999H8.99961V18.9999H6.99961V16.9999Z" fill="#121212"/>
</g>
</g>
<defs>
<clipPath id="clip0_8_6744">
<rect width="24" height="24" fill="white"/>
</clipPath>
</defs>
</svg>
