<svg width="24" height="24" viewBox="0 0 24 24" fill="none" xmlns="http://www.w3.org/2000/svg">
<g id="e-bike-fill" clip-path="url(#clip0_8_6255)">
<g id="Group">
<path id="Vector" d="M15.5 6.93702C16.5645 7.55123 17.4484 8.43498 18.0628 9.49932C18.6772 10.5637 19.0004 11.7711 19 13V21H14.83C14.6234 21.5856 14.2403 22.0926 13.7334 22.4512C13.2265 22.8099 12.6209 23.0025 12 23.0025C11.3791 23.0025 10.7735 22.8099 10.2666 22.4512C9.75974 22.0926 9.3766 21.5856 9.17 21H5V13C4.99955 11.7711 5.3228 10.5637 5.93721 9.49932C6.55163 8.43498 7.43554 7.55123 8.5 6.93702C8.33569 6.64189 8.20967 6.32702 8.125 6.00002H5V4.00002H8.126C8.34844 3.14178 8.84957 2.3817 9.55074 1.83909C10.2519 1.29649 11.1134 1.00208 12 1.00208C12.8866 1.00208 13.7481 1.29649 14.4493 1.83909C15.1504 2.3817 15.6516 3.14178 15.874 4.00002H19V6.00002H15.874C15.789 6.33002 15.662 6.64502 15.501 6.93702H15.5ZM12 14C11.7348 14 11.4804 14.1054 11.2929 14.2929C11.1054 14.4804 11 14.7348 11 15V20C11 20.2652 11.1054 20.5196 11.2929 20.7071C11.4804 20.8947 11.7348 21 12 21C12.2652 21 12.5196 20.8947 12.7071 20.7071C12.8946 20.5196 13 20.2652 13 20V15C13 14.7348 12.8946 14.4804 12.7071 14.2929C12.5196 14.1054 12.2652 14 12 14ZM12 7.00002C12.5304 7.00002 13.0391 6.78931 13.4142 6.41423C13.7893 6.03916 14 5.53045 14 5.00002C14 4.46959 13.7893 3.96088 13.4142 3.58581C13.0391 3.21073 12.5304 3.00002 12 3.00002C11.4696 3.00002 10.9609 3.21073 10.5858 3.58581C10.2107 3.96088 10 4.46959 10 5.00002C10 5.53045 10.2107 6.03916 10.5858 6.41423C10.9609 6.78931 11.4696 7.00002 12 7.00002Z" />
</g>
</g>
<defs>
<clipPath id="clip0_8_6255">
<rect width="24" height="24" fill="white"/>
</clipPath>
</defs>
</svg>
