<svg width="24" height="24" viewBox="0 0 24 24" fill="none" xmlns="http://www.w3.org/2000/svg">
<g id="edge-line" clip-path="url(#clip0_8_5338)">
<g id="Group">
<path id="Vector" d="M8.007 14.001C8.0024 14.0839 8.00006 14.167 8 14.25C8 16.632 9.753 19 13 19C15.373 19 17.528 18.345 19 17.447V20.797C17.211 21.564 15.113 22 13 22C7.498 22 5 18.53 5 14.25C5 11.019 7.041 8.25 9.943 7.086C8.539 8.663 8 10.341 8 10.996L18 11C18 7.594 15.452 5 12 5C7 5 3.999 8.988 3 10.999C3.29 6.237 7.01 2 12 2C17.2 2 21 6.03 21 11V14H8L8.007 14.001Z" fill="currentColor"/>
</g>
</g>
<defs>
<clipPath id="clip0_8_5338">
<rect width="24" height="24" fill="white"/>
</clipPath>
</defs>
</svg>
