<svg width="24" height="24" viewBox="0 0 24 24"  xmlns="http://www.w3.org/2000/svg">
<g id="eye-2-fill" clip-path="url(#clip0_8_8787)">
<g id="Group">
<path id="Vector" d="M12 2C17.523 2 22 6.477 22 12C22 17.523 17.523 22 12 22C6.477 22 2 17.523 2 12C2 6.477 6.477 2 12 2ZM12 7C11.487 7 10.993 7.077 10.527 7.22C10.8959 7.38622 11.2189 7.63949 11.4684 7.95807C11.7178 8.27665 11.8862 8.65101 11.9591 9.04901C12.032 9.44701 12.0072 9.85676 11.8868 10.2431C11.7664 10.6294 11.5541 10.9807 11.268 11.2668C10.982 11.553 10.6307 11.7654 10.2445 11.8859C9.8582 12.0064 9.44847 12.0313 9.05044 11.9586C8.65242 11.8858 8.27801 11.7175 7.95935 11.4682C7.6407 11.2188 7.38733 10.8959 7.221 10.527C6.9109 11.5329 6.92617 12.611 7.26465 13.6078C7.60312 14.6045 8.24753 15.469 9.10606 16.078C9.96459 16.6871 10.9934 17.0097 12.046 16.9998C13.0986 16.9899 14.1212 16.6481 14.9682 16.023C15.8151 15.3979 16.4432 14.5215 16.7629 13.5186C17.0826 12.5157 17.0776 11.4375 16.7487 10.4376C16.4198 9.43767 15.7837 8.56707 14.931 7.94983C14.0783 7.33258 13.0526 7.00019 12 7Z" />
</g>
</g>
<defs>
<clipPath id="clip0_8_8787">
<rect width="24" height="24" fill="white"/>
</clipPath>
</defs>
</svg>
