<svg width="24" height="24" viewBox="0 0 24 24" fill="none" xmlns="http://www.w3.org/2000/svg">
<g id="eye-2-line" clip-path="url(#clip0_8_9139)">
<g id="Group">
<path id="Vector" d="M12 2C17.523 2 22 6.477 22 12C22 17.523 17.523 22 12 22C6.477 22 2 17.523 2 12C2 6.477 6.477 2 12 2ZM12 4C9.87827 4 7.84344 4.84285 6.34315 6.34315C4.84285 7.84344 4 9.87827 4 12C4 14.1217 4.84285 16.1566 6.34315 17.6569C7.84344 19.1571 9.87827 20 12 20C14.1217 20 16.1566 19.1571 17.6569 17.6569C19.1571 16.1566 20 14.1217 20 12C20 9.87827 19.1571 7.84344 17.6569 6.34315C16.1566 4.84285 14.1217 4 12 4ZM12 7C13.0526 7.0004 14.0782 7.33297 14.9307 7.95034C15.7832 8.56771 16.4192 9.43837 16.748 10.4383C17.0767 11.4382 17.0815 12.5164 16.7617 13.5192C16.4419 14.522 15.8137 15.3984 14.9668 16.0233C14.1198 16.6483 13.0972 16.99 12.0446 16.9998C10.9921 17.0096 9.96332 16.687 9.10486 16.0779C8.24639 15.4688 7.60204 14.6043 7.26361 13.6076C6.92517 12.611 6.90991 11.5329 7.22 10.527C7.45392 11.0497 7.86027 11.4762 8.37106 11.7352C8.88184 11.9941 9.46606 12.0698 10.0259 11.9495C10.5858 11.8292 11.0874 11.5202 11.4468 11.0743C11.8061 10.6284 12.0014 10.0727 12 9.5C12.0001 9.01847 11.8612 8.54714 11.5999 8.14268C11.3386 7.73821 10.966 7.41781 10.527 7.22C10.993 7.077 11.487 7 12 7Z" />
</g>
</g>
<defs>
<clipPath id="clip0_8_9139">
<rect width="24" height="24" fill="white"/>
</clipPath>
</defs>
</svg>
