<svg width="24" height="24" viewBox="0 0 24 24" fill="none" xmlns="http://www.w3.org/2000/svg">
<g id="eye-fill" clip-path="url(#clip0_8_8507)">
<g id="Group">
<path id="Vector" d="M1.18066 12C2.12066 6.88 6.60766 3 11.9997 3C17.3917 3 21.8777 6.88 22.8187 12C21.8787 17.12 17.3917 21 11.9997 21C6.60766 21 2.12166 17.12 1.18066 12ZM11.9997 17C13.3257 17 14.5975 16.4732 15.5352 15.5355C16.4729 14.5979 16.9997 13.3261 16.9997 12C16.9997 10.6739 16.4729 9.40215 15.5352 8.46447C14.5975 7.52678 13.3257 7 11.9997 7C10.6736 7 9.40181 7.52678 8.46413 8.46447C7.52645 9.40215 6.99966 10.6739 6.99966 12C6.99966 13.3261 7.52645 14.5979 8.46413 15.5355C9.40181 16.4732 10.6736 17 11.9997 17ZM11.9997 15C11.204 15 10.441 14.6839 9.87834 14.1213C9.31573 13.5587 8.99966 12.7956 8.99966 12C8.99966 11.2044 9.31573 10.4413 9.87834 9.87868C10.441 9.31607 11.204 9 11.9997 9C12.7953 9 13.5584 9.31607 14.121 9.87868C14.6836 10.4413 14.9997 11.2044 14.9997 12C14.9997 12.7956 14.6836 13.5587 14.121 14.1213C13.5584 14.6839 12.7953 15 11.9997 15Z" />
</g>
</g>
<defs>
<clipPath id="clip0_8_8507">
<rect width="24" height="24" fill="white"/>
</clipPath>
</defs>
</svg>
