<svg width="24" height="24" viewBox="0 0 24 24"  xmlns="http://www.w3.org/2000/svg">
<g id="fahrenheit-fill" clip-path="url(#clip0_8_9584)">
<g id="Group">
<path id="Vector" d="M12 12H19V14H12V21H10V8C10 6.93913 10.4214 5.92172 11.1716 5.17157C11.9217 4.42143 12.9391 4 14 4H21V6H14C13.4696 6 12.9609 6.21071 12.5858 6.58579C12.2107 6.96086 12 7.46957 12 8V12ZM4.5 10C4.04037 10 3.58525 9.90947 3.16061 9.73358C2.73597 9.55769 2.35013 9.29988 2.02513 8.97487C1.70012 8.64987 1.44231 8.26403 1.26642 7.83939C1.09053 7.41475 1 6.95963 1 6.5C1 6.04037 1.09053 5.58525 1.26642 5.16061C1.44231 4.73597 1.70012 4.35013 2.02513 4.02513C2.35013 3.70012 2.73597 3.44231 3.16061 3.26642C3.58525 3.09053 4.04037 3 4.5 3C5.42826 3 6.3185 3.36875 6.97487 4.02513C7.63125 4.6815 8 5.57174 8 6.5C8 7.42826 7.63125 8.3185 6.97487 8.97487C6.3185 9.63125 5.42826 10 4.5 10ZM4.5 8C4.89782 8 5.27936 7.84196 5.56066 7.56066C5.84196 7.27936 6 6.89782 6 6.5C6 6.10218 5.84196 5.72064 5.56066 5.43934C5.27936 5.15804 4.89782 5 4.5 5C4.10218 5 3.72064 5.15804 3.43934 5.43934C3.15804 5.72064 3 6.10218 3 6.5C3 6.89782 3.15804 7.27936 3.43934 7.56066C3.72064 7.84196 4.10218 8 4.5 8Z" />
</g>
</g>
<defs>
<clipPath id="clip0_8_9584">
<rect width="24" height="24" fill="white"/>
</clipPath>
</defs>
</svg>
