<svg width="24" height="24" viewBox="0 0 24 24" fill="none" xmlns="http://www.w3.org/2000/svg">
<g id="file-unknow-line" clip-path="url(#clip0_8_4171)">
<g id="Group">
<path id="Vector" d="M11 15H13V17H11V15ZM13 13.355V14H11V12.5C11 12.2348 11.1054 11.9804 11.2929 11.7929C11.4804 11.6054 11.7348 11.5 12 11.5C12.2841 11.5 12.5623 11.4193 12.8023 11.2673C13.0423 11.1154 13.2343 10.8984 13.3558 10.6416C13.4773 10.3848 13.5234 10.0988 13.4887 9.81684C13.454 9.53489 13.34 9.26858 13.1598 9.04891C12.9797 8.82924 12.7409 8.66523 12.4712 8.57597C12.2015 8.48671 11.912 8.47587 11.6364 8.54471C11.3608 8.61354 11.1104 8.75923 10.9144 8.96482C10.7183 9.1704 10.5847 9.42743 10.529 9.706L8.567 9.313C8.68863 8.70508 8.96951 8.14037 9.38092 7.67659C9.79233 7.2128 10.3195 6.86658 10.9086 6.67332C11.4977 6.48006 12.1275 6.44669 12.7337 6.57661C13.3399 6.70654 13.9007 6.99511 14.3588 7.41282C14.8169 7.83054 15.1559 8.36241 15.3411 8.95406C15.5263 9.54572 15.5511 10.1759 15.4129 10.7803C15.2747 11.3847 14.9785 11.9415 14.5545 12.3939C14.1306 12.8462 13.5941 13.1779 13 13.355ZM15 4H5V20H19V8H15V4ZM3 2.992C3 2.444 3.447 2 3.999 2H16L21 7V20.993C21.0009 21.1243 20.976 21.2545 20.9266 21.3762C20.8772 21.4979 20.8043 21.6087 20.7121 21.7022C20.6199 21.7957 20.5101 21.8701 20.3892 21.9212C20.2682 21.9723 20.1383 21.9991 20.007 22H3.993C3.73038 21.9982 3.47902 21.8931 3.29322 21.7075C3.10742 21.5219 3.00209 21.2706 3 21.008V2.992Z" fill="#121212"/>
</g>
</g>
<defs>
<clipPath id="clip0_8_4171">
<rect width="24" height="24" fill="white"/>
</clipPath>
</defs>
</svg>
