<svg width="24" height="24" viewBox="0 0 24 24" fill="none" xmlns="http://www.w3.org/2000/svg">
<g id="file-hwp-fill" clip-path="url(#clip0_8_3867)">
<g id="Group">
<path id="Vector" d="M16 2L21 7V20.993C21.0009 21.1243 20.976 21.2545 20.9266 21.3762C20.8772 21.4979 20.8043 21.6087 20.7121 21.7022C20.6199 21.7957 20.5101 21.8701 20.3892 21.9212C20.2682 21.9723 20.1383 21.9991 20.007 22H3.993C3.73038 21.9982 3.47902 21.8931 3.29322 21.7075C3.10742 21.5219 3.00209 21.2706 3 21.008V2.992C3 2.444 3.447 2 3.999 2H16ZM9.333 14.667H8V18H16V16.667L9.333 16.666V14.666V14.667ZM12 14.333C11.8687 14.333 11.7386 14.3589 11.6173 14.4091C11.496 14.4594 11.3858 14.533 11.2929 14.6259C11.2 14.7188 11.1264 14.829 11.0761 14.9503C11.0259 15.0716 11 15.2017 11 15.333C11 15.4643 11.0259 15.5944 11.0761 15.7157C11.1264 15.837 11.2 15.9472 11.2929 16.0401C11.3858 16.133 11.496 16.2066 11.6173 16.2569C11.7386 16.3071 11.8687 16.333 12 16.333C12.2652 16.333 12.5196 16.2276 12.7071 16.0401C12.8946 15.8526 13 15.5982 13 15.333C13 15.0678 12.8946 14.8134 12.7071 14.6259C12.5196 14.4384 12.2652 14.333 12 14.333ZM12 9C11.337 9 10.7011 9.26339 10.2322 9.73223C9.76339 10.2011 9.5 10.837 9.5 11.5C9.5 12.163 9.76339 12.7989 10.2322 13.2678C10.7011 13.7366 11.337 14 12 14C12.663 14 13.2989 13.7366 13.7678 13.2678C14.2366 12.7989 14.5 12.163 14.5 11.5C14.5 10.837 14.2366 10.2011 13.7678 9.73223C13.2989 9.26339 12.663 9 12 9ZM12 10.333C12.3095 10.333 12.6063 10.456 12.8252 10.6748C13.044 10.8937 13.167 11.1905 13.167 11.5C13.167 11.8095 13.044 12.1063 12.8252 12.3252C12.6063 12.544 12.3095 12.667 12 12.667C11.6905 12.667 11.3937 12.544 11.1748 12.3252C10.956 12.1063 10.833 11.8095 10.833 11.5C10.833 11.1905 10.956 10.8937 11.1748 10.6748C11.3937 10.456 11.6905 10.333 12 10.333ZM12.667 6H11.333V7.333H8V8.667H16V7.333H12.666V6H12.667Z" fill="#121212"/>
</g>
</g>
<defs>
<clipPath id="clip0_8_3867">
<rect width="24" height="24" fill="white"/>
</clipPath>
</defs>
</svg>
