<svg width="24" height="24" viewBox="0 0 24 24" fill="none" xmlns="http://www.w3.org/2000/svg">
<g id="file-shield-2-fill" clip-path="url(#clip0_8_3991)">
<g id="Group">
<path id="Vector" d="M21 10H11V17.382C11 18.945 11.777 20.405 13.074 21.274L14.157 22H3.993C3.72981 22 3.47739 21.8955 3.2912 21.7095C3.105 21.5235 3.00027 21.2712 3 21.008V2.992C3 2.455 3.447 2 3.998 2H15.997L21 7V10ZM13 12H21V17.382C21 18.279 20.554 19.116 19.813 19.612L17 21.499L14.187 19.614C13.8212 19.3681 13.5216 19.036 13.3146 18.6469C13.1076 18.2578 12.9996 17.8237 13 17.383V12Z" fill="currentColor"/>
</g>
</g>
<defs>
<clipPath id="clip0_8_3991">
<rect width="24" height="24" fill="white"/>
</clipPath>
</defs>
</svg>
