<svg width="24" height="24" viewBox="0 0 24 24"  xmlns="http://www.w3.org/2000/svg">
<g id="file-music-fill" clip-path="url(#clip0_8_3811)">
<g id="Group">
<path id="Vector" d="M16 2L21 7V21.008C20.9997 21.2712 20.895 21.5235 20.7088 21.7095C20.5226 21.8955 20.2702 22 20.007 22H3.993C3.73038 21.9982 3.47902 21.8931 3.29322 21.7075C3.10742 21.5219 3.00209 21.2706 3 21.008V2.992C3 2.444 3.445 2 3.993 2H16ZM11 12.05C10.4945 11.9468 9.96953 12.0025 9.49698 12.2095C9.02443 12.4165 8.62749 12.7646 8.36059 13.2061C8.09368 13.6476 7.9699 14.1608 8.0062 14.6754C8.0425 15.19 8.23711 15.6808 8.56335 16.0804C8.88958 16.4801 9.33146 16.769 9.82839 16.9076C10.3253 17.0462 10.8529 17.0276 11.3389 16.8545C11.8249 16.6814 12.2454 16.3622 12.5428 15.9407C12.8402 15.5191 12.9999 15.0159 13 14.5V10H16V8H11V12.05Z" />
</g>
</g>
<defs>
<clipPath id="clip0_8_3811">
<rect width="24" height="24" fill="white"/>
</clipPath>
</defs>
</svg>
