<svg width="24" height="24" viewBox="0 0 24 24" fill="none" xmlns="http://www.w3.org/2000/svg">
<g id="file-search-fill" clip-path="url(#clip0_8_3787)">
<g id="Group">
<path id="Vector" d="M16 2L21 7V21.008C20.9997 21.2712 20.895 21.5235 20.7088 21.7095C20.5226 21.8955 20.2702 22 20.007 22H3.993C3.73038 21.9982 3.47902 21.8931 3.29322 21.7075C3.10742 21.5219 3.00209 21.2706 3 21.008V2.992C3 2.444 3.445 2 3.993 2H16ZM13.529 14.446L15.739 16.656L17.154 15.243L14.944 13.033C15.4365 12.1941 15.6066 11.2045 15.4224 10.2493C15.2383 9.29406 14.7125 8.43863 13.9434 7.84294C13.1743 7.24725 12.2146 6.95209 11.2436 7.01265C10.2727 7.07321 9.3571 7.48535 8.668 8.172C7.97903 8.86039 7.56489 9.77651 7.50326 10.7485C7.44164 11.7205 7.73675 12.6816 8.33326 13.4515C8.92976 14.2214 9.78667 14.7472 10.7432 14.9303C11.6998 15.1134 12.6903 14.9412 13.529 14.446ZM12.911 12.414C12.7265 12.605 12.5058 12.7574 12.2618 12.8622C12.0178 12.967 11.7554 13.0222 11.4898 13.0245C11.2242 13.0268 10.9609 12.9762 10.7151 12.8756C10.4693 12.7751 10.246 12.6266 10.0582 12.4388C9.87042 12.251 9.72192 12.0277 9.62136 11.7819C9.5208 11.5361 9.47019 11.2728 9.4725 11.0072C9.47481 10.7416 9.52998 10.4792 9.6348 10.2352C9.73961 9.99118 9.89198 9.77049 10.083 9.586C10.4602 9.22168 10.9654 9.02009 11.4898 9.02465C12.0142 9.02921 12.5158 9.23955 12.8866 9.61036C13.2575 9.98118 13.4678 10.4828 13.4723 11.0072C13.4769 11.5316 13.2753 12.0368 12.911 12.414Z" fill="currentColor"/>
</g>
</g>
<defs>
<clipPath id="clip0_8_3787">
<rect width="24" height="24" fill="white"/>
</clipPath>
</defs>
</svg>
