<svg width="24" height="24" viewBox="0 0 24 24" fill="none" xmlns="http://www.w3.org/2000/svg">
<g id="file-cloud-fill" clip-path="url(#clip0_8_3479)">
<g id="Group">
<path id="Vector" d="M14.997 2L21 8L21.001 12.26C20.0173 11.4435 18.7784 10.9977 17.5 11L17.279 11.004C16.0835 11.0522 14.9362 11.4888 14.011 12.2476C13.0859 13.0064 12.4333 14.046 12.152 15.209L12.136 15.283L12.106 15.303C11.5787 15.6563 11.1276 16.1117 10.7793 16.6423C10.431 17.1729 10.1926 17.768 10.0781 18.3922C9.96366 19.0165 9.97546 19.6574 10.1128 20.2771C10.2502 20.8967 10.5104 21.4826 10.878 22H3.993C3.74992 22 3.51528 21.9108 3.33356 21.7493C3.15183 21.5879 3.03564 21.3654 3.007 21.124L3 21.008V2.992C3 2.494 3.387 2.065 3.885 2.007L4.002 2H14.997ZM17.5 13C18.4283 13 19.3185 13.3687 19.9749 14.0251C20.6313 14.6815 21 15.5717 21 16.5L20.999 16.603C21.6246 16.7793 22.1675 17.1714 22.5315 17.7099C22.8955 18.2484 23.057 18.8983 22.9874 19.5446C22.9178 20.1908 22.6215 20.7914 22.1511 21.24C21.6808 21.6886 21.0668 21.9561 20.418 21.995L20.25 22H14.75L14.582 21.995C13.9333 21.9557 13.3196 21.6879 12.8495 21.2392C12.3795 20.7905 12.0835 20.1898 12.0142 19.5437C11.9448 18.8975 12.1064 18.2477 12.4705 17.7094C12.8346 17.1711 13.3775 16.7792 14.003 16.603L14 16.5C14 15.5717 14.3687 14.6815 15.0251 14.0251C15.6815 13.3687 16.5717 13 17.5 13Z" />
</g>
</g>
<defs>
<clipPath id="clip0_8_3479">
<rect width="24" height="24" fill="white"/>
</clipPath>
</defs>
</svg>
