<svg width="24" height="24" viewBox="0 0 24 24" fill="none" xmlns="http://www.w3.org/2000/svg">
<g id="file-zip-fill" clip-path="url(#clip0_8_4179)">
<g id="Group">
<path id="Vector" d="M10 2V4H12V2H20.007C20.555 2 21 2.444 21 2.992V21.008C20.9979 21.2706 20.8926 21.5219 20.7068 21.7075C20.521 21.8931 20.2696 21.9982 20.007 22H3.993C3.72981 22 3.47739 21.8955 3.2912 21.7095C3.105 21.5235 3.00027 21.2712 3 21.008V2.992C3.00209 2.72938 3.10742 2.47813 3.29322 2.29251C3.47902 2.1069 3.73038 2.00183 3.993 2H10ZM12 4V6H14V4H12ZM10 6V8H12V6H10ZM12 8V10H14V8H12ZM10 10V12H12V10H10ZM12 12V14H10V17H14V12H12Z" />
</g>
</g>
<defs>
<clipPath id="clip0_8_4179">
<rect width="24" height="24" fill="white"/>
</clipPath>
</defs>
</svg>
