<svg width="24" height="24" viewBox="0 0 24 24" fill="none" xmlns="http://www.w3.org/2000/svg">
<g id="file-mark-line" clip-path="url(#clip0_8_3655)">
<g id="Group">
<path id="Vector" d="M20 22H4C3.73478 22 3.48043 21.8946 3.29289 21.7071C3.10536 21.5196 3 21.2652 3 21V3C3 2.73478 3.10536 2.48043 3.29289 2.29289C3.48043 2.10536 3.73478 2 4 2H20C20.2652 2 20.5196 2.10536 20.7071 2.29289C20.8946 2.48043 21 2.73478 21 3V21C21 21.2652 20.8946 21.5196 20.7071 21.7071C20.5196 21.8946 20.2652 22 20 22ZM7 4H5V20H19V4H14V13L10.5 11L7 13V4Z" fill="#121212"/>
</g>
</g>
<defs>
<clipPath id="clip0_8_3655">
<rect width="24" height="24" fill="white"/>
</clipPath>
</defs>
</svg>
