<svg width="24" height="24" viewBox="0 0 24 24" fill="none" xmlns="http://www.w3.org/2000/svg">
<g id="file-gif-fill" clip-path="url(#clip0_8_3903)">
<g id="Group">
<path id="Vector" d="M16 2L21 7V20.993C21 21.549 20.555 22 20.007 22H3.993C3.445 22 3 21.545 3 21.008V2.992C3 2.444 3.447 2 3.999 2H16ZM13 10H12V15H13V10ZM11 10H9C7.895 10 7 10.895 7 12V13C7 14.105 7.895 15 9 15H10C10.552 15 11 14.552 11 14V12H9V13H10V14H9C8.448 14 8 13.552 8 13V12C8 11.448 8.448 11 9 11H11V10ZM17 10H14V15H15V13H17V12H15V11H17V10Z" />
</g>
</g>
<defs>
<clipPath id="clip0_8_3903">
<rect width="24" height="24" fill="white"/>
</clipPath>
</defs>
</svg>
