<svg width="24" height="24" viewBox="0 0 24 24" fill="none" xmlns="http://www.w3.org/2000/svg">
<g id="file-user-fill" clip-path="url(#clip0_8_3911)">
<g id="Group">
<path id="Vector" d="M16 2L21 7V21.008C20.9997 21.2712 20.895 21.5235 20.7088 21.7095C20.5226 21.8955 20.2702 22 20.007 22H3.993C3.73038 21.9982 3.47902 21.8931 3.29322 21.7075C3.10742 21.5219 3.00209 21.2706 3 21.008V2.992C3 2.444 3.445 2 3.993 2H16ZM12 11.5C12.663 11.5 13.2989 11.2366 13.7678 10.7678C14.2366 10.2989 14.5 9.66304 14.5 9C14.5 8.33696 14.2366 7.70107 13.7678 7.23223C13.2989 6.76339 12.663 6.5 12 6.5C11.337 6.5 10.7011 6.76339 10.2322 7.23223C9.76339 7.70107 9.5 8.33696 9.5 9C9.5 9.66304 9.76339 10.2989 10.2322 10.7678C10.7011 11.2366 11.337 11.5 12 11.5ZM7.527 17H16.473C16.3518 15.8984 15.8283 14.8803 15.0029 14.1407C14.1775 13.4012 13.1082 12.9922 12 12.9922C10.8918 12.9922 9.82248 13.4012 8.99708 14.1407C8.17168 14.8803 7.64822 15.8984 7.527 17Z" />
</g>
</g>
<defs>
<clipPath id="clip0_8_3911">
<rect width="24" height="24" fill="white"/>
</clipPath>
</defs>
</svg>
