<svg width="24" height="24" viewBox="0 0 24 24"  xmlns="http://www.w3.org/2000/svg">
<g id="finder-fill" clip-path="url(#clip0_8_5826)">
<g id="Group">
<path id="Vector" d="M21 3C21.552 3 22 3.448 22 4V20C22 20.552 21.552 21 21 21H3C2.448 21 2 20.552 2 20V4C2 3.448 2.448 3 3 3H21ZM20 5H11.535C10.845 6.977 10.5 9.644 10.5 13H13.5C13.385 13.92 13.35 14.878 13.393 15.877C14.619 15.666 16.097 15.1 17.42 14.167L18.555 15.832C16.913 16.927 15.252 17.611 13.579 17.875C13.631 18.245 13.692 18.62 13.763 19H20V5ZM6.555 14.168L5.445 15.832C7.602 17.27 9.792 18 12 18V16C10.208 16 8.398 15.397 6.555 14.168ZM17 7C17.552 7 18 7.448 18 8V9C18 9.552 17.552 10 17 10C16.448 10 16 9.552 16 9V8C16 7.448 16.448 7 17 7ZM7 7C6.448 7 6 7.452 6 8V9C6 9.552 6.448 10 7 10C7.552 10 8 9.55 8 9V8C8 7.448 7.552 7 7 7Z" />
</g>
</g>
<defs>
<clipPath id="clip0_8_5826">
<rect width="24" height="24" fill="white"/>
</clipPath>
</defs>
</svg>
