<svg width="24" height="24" viewBox="0 0 24 24" fill="none" xmlns="http://www.w3.org/2000/svg">
<g id="finder-line" clip-path="url(#clip0_8_5694)">
<g id="Group">
<path id="Vector" d="M21 3C21.552 3 22 3.448 22 4V20C22 20.552 21.552 21 21 21H3C2.448 21 2 20.552 2 20V4C2 3.448 2.448 3 3 3H21ZM10.48 4.999L4 5V19H12.746C12.684 18.656 12.63 18.316 12.583 17.98C12.286 17.993 12.092 18 12 18C9.792 18 7.602 17.27 5.445 15.832L6.555 14.168C8.398 15.397 10.208 16 12 16C12.133 16 12.265 15.997 12.398 15.99C12.374 15.493 12.374 14.58 12.405 14H9.5V13C9.5 9.725 9.82 7.06 10.48 4.999ZM12.6 4.999C11.935 6.582 11.556 9.41 11.51 12H14.633L14.493 13.124C14.392 13.929 14.356 14.769 14.385 15.644C15.398 15.344 16.416 14.854 17.445 14.168L18.555 15.832C17.235 16.712 15.903 17.327 14.562 17.672C14.619 18.105 14.692 18.548 14.781 18.999L20 19V5L12.6 4.999ZM7 7C7.552 7 8 7.448 8 8V9C8 9.552 7.552 10 7 10C6.448 10 6 9.552 6 9V8C6 7.448 6.448 7 7 7ZM17 7C17.552 7 18 7.448 18 8V9C18 9.552 17.552 10 17 10C16.448 10 16 9.552 16 9V8C16 7.448 16.448 7 17 7Z" fill="#121212"/>
</g>
</g>
<defs>
<clipPath id="clip0_8_5694">
<rect width="24" height="24" fill="white"/>
</clipPath>
</defs>
</svg>
