<svg width="24" height="24" viewBox="0 0 24 24"  xmlns="http://www.w3.org/2000/svg">
<g id="first-aid-kit-fill" clip-path="url(#clip0_8_4877)">
<g id="Group">
<path id="Vector" d="M16 1C16.552 1 17 1.448 17 2V5H21C21.552 5 22 5.448 22 6V20C22 20.552 21.552 21 21 21H3C2.448 21 2 20.552 2 20V6C2 5.448 2.448 5 3 5H7V2C7 1.448 7.448 1 8 1H16ZM13 9H11V12H8V14H10.999L11 17H13L12.999 14H16V12H13V9ZM15 3H9V5H15V3Z" />
</g>
</g>
<defs>
<clipPath id="clip0_8_4877">
<rect width="24" height="24" fill="white"/>
</clipPath>
</defs>
</svg>
