<svg width="24" height="24" viewBox="0 0 24 24" fill="none" xmlns="http://www.w3.org/2000/svg">
<g id="flag-2-line" clip-path="url(#clip0_8_1130)">
<g id="Group">
<path id="Vector" d="M4 17V22H2V3H21.138C21.2256 2.99985 21.3118 3.02275 21.3878 3.06639C21.4638 3.11002 21.527 3.17288 21.5711 3.24864C21.6151 3.3244 21.6385 3.41042 21.6388 3.49806C21.6392 3.5857 21.6165 3.6719 21.573 3.748L18 10L21.573 16.252C21.6165 16.3281 21.6392 16.4143 21.6388 16.5019C21.6385 16.5896 21.6151 16.6756 21.5711 16.7514C21.527 16.8271 21.4638 16.89 21.3878 16.9336C21.3118 16.9773 21.2256 17.0001 21.138 17H4ZM4 5V15H18.554L15.696 10L18.554 5H4Z" />
</g>
</g>
<defs>
<clipPath id="clip0_8_1130">
<rect width="24" height="24" fill="white"/>
</clipPath>
</defs>
</svg>
