<svg width="24" height="24" viewBox="0 0 24 24" fill="none" xmlns="http://www.w3.org/2000/svg">
<g id="flow-chart" clip-path="url(#clip0_8_2544)">
<g id="Group">
<path id="Vector" d="M6 21.5C4.067 21.5 2.5 19.933 2.5 18C2.5 16.067 4.067 14.5 6 14.5C7.585 14.5 8.924 15.554 9.355 17H15V15H17V9.242L14.757 7H9V9H3V3H9V5H14.757L18 1.756L22.243 6L19 9.241V15H21V21H15V19H9.355C8.925 20.446 7.585 21.5 6 21.5ZM6 16.5C5.172 16.5 4.5 17.172 4.5 18C4.5 18.828 5.172 19.5 6 19.5C6.828 19.5 7.5 18.828 7.5 18C7.5 17.172 6.828 16.5 6 16.5ZM19 17H17V19H19V17ZM18 4.586L16.586 6L18 7.414L19.414 6L18 4.586ZM7 5H5V7H7V5Z" fill="currentColor"/>
</g>
</g>
<defs>
<clipPath id="clip0_8_2544">
<rect width="24" height="24" fill="white"/>
</clipPath>
</defs>
</svg>
