<svg width="24" height="24" viewBox="0 0 24 24" fill="none" xmlns="http://www.w3.org/2000/svg">
<g id="focus-3-fill" clip-path="url(#clip0_8_4696)">
<g id="Group">
<path id="Vector" d="M13 1L13.001 4.062C14.7632 4.28479 16.4013 5.08743 17.6572 6.34351C18.9131 7.5996 19.7155 9.23775 19.938 11H23V13L19.938 13.001C19.7153 14.7631 18.9128 16.401 17.6569 17.6569C16.401 18.9128 14.7631 19.7153 13.001 19.938L13 23H11V19.938C9.23775 19.7155 7.5996 18.9131 6.34351 17.6572C5.08743 16.4013 4.28479 14.7632 4.062 13.001L1 13V11H4.062C4.28459 9.23761 5.08713 7.59934 6.34324 6.34324C7.59934 5.08713 9.23761 4.28459 11 4.062V1H13ZM12 10C11.4696 10 10.9609 10.2107 10.5858 10.5858C10.2107 10.9609 10 11.4696 10 12C10 12.5304 10.2107 13.0391 10.5858 13.4142C10.9609 13.7893 11.4696 14 12 14C12.5304 14 13.0391 13.7893 13.4142 13.4142C13.7893 13.0391 14 12.5304 14 12C14 11.4696 13.7893 10.9609 13.4142 10.5858C13.0391 10.2107 12.5304 10 12 10Z" />
</g>
</g>
<defs>
<clipPath id="clip0_8_4696">
<rect width="24" height="24" fill="white"/>
</clipPath>
</defs>
</svg>
