<svg width="24" height="24" viewBox="0 0 24 24" fill="none" xmlns="http://www.w3.org/2000/svg">
<g id="folder-unknow-line" clip-path="url(#clip0_8_4135)">
<g id="Group">
<path id="Vector" d="M12.414 5H21C21.2652 5 21.5196 5.10536 21.7071 5.29289C21.8946 5.48043 22 5.73478 22 6V20C22 20.2652 21.8946 20.5196 21.7071 20.7071C21.5196 20.8946 21.2652 21 21 21H3C2.73478 21 2.48043 20.8946 2.29289 20.7071C2.10536 20.5196 2 20.2652 2 20V4C2 3.73478 2.10536 3.48043 2.29289 3.29289C2.48043 3.10536 2.73478 3 3 3H10.414L12.414 5ZM4 5V19H20V7H11.586L9.586 5H4ZM11 16H13V18H11V16ZM8.567 10.813C8.69692 10.1628 9.00882 9.56285 9.4664 9.08298C9.92397 8.60311 10.5084 8.26304 11.1517 8.10236C11.795 7.94167 12.4707 7.96697 13.1002 8.17532C13.7297 8.38366 14.287 8.76647 14.7075 9.27922C15.1279 9.79196 15.394 10.4136 15.475 11.0717C15.5559 11.7298 15.4483 12.3973 15.1646 12.9966C14.881 13.596 14.433 14.1024 13.8727 14.4571C13.3125 14.8118 12.6631 15 12 15H11V13H12C12.2841 13 12.5623 12.9193 12.8023 12.7673C13.0423 12.6154 13.2343 12.3984 13.3558 12.1416C13.4773 11.8848 13.5234 11.5988 13.4887 11.3168C13.454 11.0349 13.34 10.7686 13.1598 10.5489C12.9797 10.3292 12.7409 10.1652 12.4712 10.076C12.2015 9.98671 11.912 9.97587 11.6364 10.0447C11.3608 10.1135 11.1104 10.2592 10.9144 10.4648C10.7183 10.6704 10.5847 10.9274 10.529 11.206L8.567 10.813Z" fill="currentColor"/>
</g>
</g>
<defs>
<clipPath id="clip0_8_4135">
<rect width="24" height="24" fill="white"/>
</clipPath>
</defs>
</svg>
