<svg width="24" height="24" viewBox="0 0 24 24" fill="none" xmlns="http://www.w3.org/2000/svg">
<g id="folder-unknow-fill" clip-path="url(#clip0_8_4011)">
<g id="Group">
<path id="Vector" d="M12.414 5H21C21.2652 5 21.5196 5.10536 21.7071 5.29289C21.8946 5.48043 22 5.73478 22 6V20C22 20.2652 21.8946 20.5196 21.7071 20.7071C21.5196 20.8946 21.2652 21 21 21H3C2.73478 21 2.48043 20.8946 2.29289 20.7071C2.10536 20.5196 2 20.2652 2 20V4C2 3.73478 2.10536 3.48043 2.29289 3.29289C2.48043 3.10536 2.73478 3 3 3H10.414L12.414 5ZM11 16V18H13V16H11ZM8.567 10.813L10.529 11.206C10.5847 10.9274 10.7183 10.6704 10.9144 10.4648C11.1104 10.2592 11.3608 10.1135 11.6364 10.0447C11.912 9.97587 12.2015 9.98671 12.4712 10.076C12.7409 10.1652 12.9797 10.3292 13.1598 10.5489C13.34 10.7686 13.454 11.0349 13.4887 11.3168C13.5234 11.5988 13.4773 11.8848 13.3558 12.1416C13.2343 12.3984 13.0423 12.6154 12.8023 12.7673C12.5623 12.9193 12.2841 13 12 13H11V15H12C12.6628 14.9998 13.3119 14.8114 13.8718 14.4568C14.4317 14.1021 14.8794 13.5958 15.1628 12.9967C15.4462 12.3976 15.5537 11.7303 15.4727 11.0725C15.3917 10.4147 15.1257 9.79337 14.7055 9.28085C14.2852 8.76833 13.7281 8.38567 13.0989 8.17736C12.4698 7.96906 11.7944 7.94368 11.1513 8.10418C10.5083 8.26468 9.92403 8.60447 9.46653 9.084C9.00903 9.56354 8.69709 10.1631 8.567 10.813Z" fill="#121212"/>
</g>
</g>
<defs>
<clipPath id="clip0_8_4011">
<rect width="24" height="24" fill="white"/>
</clipPath>
</defs>
</svg>
