<svg width="24" height="24" viewBox="0 0 24 24"  xmlns="http://www.w3.org/2000/svg">
<g id="folder-zip-fill" clip-path="url(#clip0_8_4059)">
<g id="Group">
<path id="Vector" d="M21 5C21.2652 5 21.5196 5.10536 21.7071 5.29289C21.8946 5.48043 22 5.73478 22 6V20C22 20.2652 21.8946 20.5196 21.7071 20.7071C21.5196 20.8946 21.2652 21 21 21H3C2.73478 21 2.48043 20.8946 2.29289 20.7071C2.10536 20.5196 2 20.2652 2 20V4C2 3.73478 2.10536 3.48043 2.29289 3.29289C2.48043 3.10536 2.73478 3 3 3H10.414L12.414 5H16V7H18V5H21ZM18 13H16V15H14V18H18V13ZM16 11H14V13H16V11ZM18 9H16V11H18V9ZM16 7H14V9H16V7Z" />
</g>
</g>
<defs>
<clipPath id="clip0_8_4059">
<rect width="24" height="24" fill="white"/>
</clipPath>
</defs>
</svg>
