<svg width="24" height="24" viewBox="0 0 24 24" fill="none" xmlns="http://www.w3.org/2000/svg">
<g id="folder-keyhole-fill" clip-path="url(#clip0_8_3419)">
<g id="Group">
<path id="Vector" d="M10.414 3L12.414 5H21C21.2652 5 21.5196 5.10536 21.7071 5.29289C21.8946 5.48043 22 5.73478 22 6V20C22 20.2652 21.8946 20.5196 21.7071 20.7071C21.5196 20.8946 21.2652 21 21 21H3C2.73478 21 2.48043 20.8946 2.29289 20.7071C2.10536 20.5196 2 20.2652 2 20V4C2 3.73478 2.10536 3.48043 2.29289 3.29289C2.48043 3.10536 2.73478 3 3 3H10.414ZM12 9C11.5597 9.00002 11.1318 9.1453 10.7825 9.41332C10.4333 9.68133 10.1822 10.0571 10.0682 10.4824C9.95429 10.9076 9.98384 11.3586 10.1523 11.7653C10.3208 12.1721 10.6187 12.5119 11 12.732V17H13L13.001 12.732C13.3823 12.5118 13.6803 12.1719 13.8488 11.7651C14.0172 11.3582 14.0467 10.9072 13.9326 10.4819C13.8186 10.0566 13.5673 9.6808 13.2179 9.41286C12.8684 9.14492 12.4403 8.9998 12 9Z" fill="currentColor"/>
</g>
</g>
<defs>
<clipPath id="clip0_8_3419">
<rect width="24" height="24" fill="white"/>
</clipPath>
</defs>
</svg>
