<svg width="24" height="24" viewBox="0 0 24 24" fill="none" xmlns="http://www.w3.org/2000/svg">
<g id="folder-open-fill" clip-path="url(#clip0_8_3495)">
<g id="Group">
<path id="Vector" d="M3 21C2.73478 21 2.48043 20.8946 2.29289 20.7071C2.10536 20.5196 2 20.2652 2 20V4C2 3.73478 2.10536 3.48043 2.29289 3.29289C2.48043 3.10536 2.73478 3 3 3H10.414L12.414 5H20C20.2652 5 20.5196 5.10536 20.7071 5.29289C20.8946 5.48043 21 5.73478 21 6V9H4V18.996L6 11H22.5L20.19 20.243C20.1358 20.4592 20.011 20.6512 19.8352 20.7883C19.6595 20.9255 19.4429 21 19.22 21H3Z" fill="currentColor"/>
</g>
</g>
<defs>
<clipPath id="clip0_8_3495">
<rect width="24" height="24" fill="white"/>
</clipPath>
</defs>
</svg>
