<svg width="24" height="24" viewBox="0 0 24 24" fill="none" xmlns="http://www.w3.org/2000/svg">
<g id="folder-chart-2-fill" clip-path="url(#clip0_8_3515)">
<g id="Group">
<path id="Vector" d="M12.414 5H21C21.2652 5 21.5196 5.10536 21.7071 5.29289C21.8946 5.48043 22 5.73478 22 6V20C22 20.2652 21.8946 20.5196 21.7071 20.7071C21.5196 20.8946 21.2652 21 21 21H3C2.73478 21 2.48043 20.8946 2.29289 20.7071C2.10536 20.5196 2 20.2652 2 20V4C2 3.73478 2.10536 3.48043 2.29289 3.29289C2.48043 3.10536 2.73478 3 3 3H10.414L12.414 5ZM12 9C11.2089 9 10.4355 9.2346 9.77772 9.67412C9.11992 10.1136 8.60723 10.7384 8.30448 11.4693C8.00173 12.2002 7.92252 13.0044 8.07686 13.7804C8.2312 14.5563 8.61216 15.269 9.17157 15.8284C9.73098 16.3878 10.4437 16.7688 11.2196 16.9231C11.9956 17.0775 12.7998 16.9983 13.5307 16.6955C14.2616 16.3928 14.8864 15.8801 15.3259 15.2223C15.7654 14.5645 16 13.7911 16 13H12V9Z" fill="#121212"/>
</g>
</g>
<defs>
<clipPath id="clip0_8_3515">
<rect width="24" height="24" fill="white"/>
</clipPath>
</defs>
</svg>
