<svg width="24" height="24" viewBox="0 0 24 24" fill="none" xmlns="http://www.w3.org/2000/svg">
<g id="folder-user-line" clip-path="url(#clip0_8_3519)">
<g id="Group">
<path id="Vector" d="M12.414 5H21C21.2652 5 21.5196 5.10536 21.7071 5.29289C21.8946 5.48043 22 5.73478 22 6V20C22 20.2652 21.8946 20.5196 21.7071 20.7071C21.5196 20.8946 21.2652 21 21 21H3C2.73478 21 2.48043 20.8946 2.29289 20.7071C2.10536 20.5196 2 20.2652 2 20V4C2 3.73478 2.10536 3.48043 2.29289 3.29289C2.48043 3.10536 2.73478 3 3 3H10.414L12.414 5ZM4 5V19H20V7H11.586L9.586 5H4ZM8 18C8 16.9391 8.42143 15.9217 9.17157 15.1716C9.92172 14.4214 10.9391 14 12 14C13.0609 14 14.0783 14.4214 14.8284 15.1716C15.5786 15.9217 16 16.9391 16 18H8ZM12 13C11.337 13 10.7011 12.7366 10.2322 12.2678C9.76339 11.7989 9.5 11.163 9.5 10.5C9.5 9.83696 9.76339 9.20107 10.2322 8.73223C10.7011 8.26339 11.337 8 12 8C12.663 8 13.2989 8.26339 13.7678 8.73223C14.2366 9.20107 14.5 9.83696 14.5 10.5C14.5 11.163 14.2366 11.7989 13.7678 12.2678C13.2989 12.7366 12.663 13 12 13Z" fill="currentColor"/>
</g>
</g>
<defs>
<clipPath id="clip0_8_3519">
<rect width="24" height="24" fill="white"/>
</clipPath>
</defs>
</svg>
