<svg width="24" height="24" viewBox="0 0 24 24" fill="none" xmlns="http://www.w3.org/2000/svg">
<g id="folder-user-fill" clip-path="url(#clip0_8_3675)">
<g id="Group">
<path id="Vector" d="M12.414 5H21C21.2652 5 21.5196 5.10536 21.7071 5.29289C21.8946 5.48043 22 5.73478 22 6V20C22 20.2652 21.8946 20.5196 21.7071 20.7071C21.5196 20.8946 21.2652 21 21 21H3C2.73478 21 2.48043 20.8946 2.29289 20.7071C2.10536 20.5196 2 20.2652 2 20V4C2 3.73478 2.10536 3.48043 2.29289 3.29289C2.48043 3.10536 2.73478 3 3 3H10.414L12.414 5ZM12 13C12.663 13 13.2989 12.7366 13.7678 12.2678C14.2366 11.7989 14.5 11.163 14.5 10.5C14.5 9.83696 14.2366 9.20107 13.7678 8.73223C13.2989 8.26339 12.663 8 12 8C11.337 8 10.7011 8.26339 10.2322 8.73223C9.76339 9.20107 9.5 9.83696 9.5 10.5C9.5 11.163 9.76339 11.7989 10.2322 12.2678C10.7011 12.7366 11.337 13 12 13ZM8 18H16C16 16.9391 15.5786 15.9217 14.8284 15.1716C14.0783 14.4214 13.0609 14 12 14C10.9391 14 9.92172 14.4214 9.17157 15.1716C8.42143 15.9217 8 16.9391 8 18Z" />
</g>
</g>
<defs>
<clipPath id="clip0_8_3675">
<rect width="24" height="24" fill="white"/>
</clipPath>
</defs>
</svg>
