<svg width="24" height="24" viewBox="0 0 24 24"  xmlns="http://www.w3.org/2000/svg">
<g id="folder-shield-line" clip-path="url(#clip0_8_3923)">
<g id="Group">
<path id="Vector" d="M12.414 5H21C21.2652 5 21.5196 5.10536 21.7071 5.29289C21.8946 5.48043 22 5.73478 22 6V20C22 20.2652 21.8946 20.5196 21.7071 20.7071C21.5196 20.8946 21.2652 21 21 21H3C2.73478 21 2.48043 20.8946 2.29289 20.7071C2.10536 20.5196 2 20.2652 2 20V4C2 3.73478 2.10536 3.48043 2.29289 3.29289C2.48043 3.10536 2.73478 3 3 3H10.414L12.414 5ZM4 5V19H20V7H11.586L9.586 5H4ZM8 9H16V13.904C16 14.796 15.554 15.628 14.813 16.123L12 17.998L9.187 16.123C8.8218 15.8794 8.52239 15.5494 8.31532 15.1623C8.10826 14.7752 7.99995 14.343 8 13.904V9ZM10 13.904C10 14.127 10.111 14.335 10.297 14.459L12 15.594L13.703 14.459C13.7944 14.3981 13.8693 14.3156 13.9211 14.2187C13.9729 14.1219 14 14.0138 14 13.904V11H10V13.904Z" />
</g>
</g>
<defs>
<clipPath id="clip0_8_3923">
<rect width="24" height="24" fill="white"/>
</clipPath>
</defs>
</svg>
