<svg width="24" height="24" viewBox="0 0 24 24" fill="none" xmlns="http://www.w3.org/2000/svg">
<g id="gatsby-line" clip-path="url(#clip0_8_5126)">
<g id="Group">
<path id="Vector" d="M11.751 21.997C6.52999 21.869 2.30099 17.74 2.01499 12.559L2.00299 12.246L11.751 21.997ZM12 2C13.6081 1.99884 15.1927 2.38599 16.6191 3.12853C18.0455 3.87107 19.2716 4.94705 20.193 6.265L18.555 7.413C17.7228 6.22462 16.5833 5.28479 15.2582 4.69405C13.9331 4.10331 12.4724 3.88387 11.0323 4.0592C9.59212 4.23453 8.22672 4.79804 7.08211 5.68946C5.93749 6.58087 5.05672 7.76666 4.53399 9.12L14.88 19.466C16.067 19.0067 17.1276 18.2714 17.9741 17.3209C18.8206 16.3704 19.4287 15.2321 19.748 14H15.5V12H22C22 16.726 18.721 20.686 14.315 21.73L2.26899 9.686C3.31399 5.28 7.27399 2 12 2Z" fill="currentColor"/>
</g>
</g>
<defs>
<clipPath id="clip0_8_5126">
<rect width="24" height="24" fill="white"/>
</clipPath>
</defs>
</svg>
