<svg width="24" height="24" viewBox="0 0 24 24" fill="none" xmlns="http://www.w3.org/2000/svg">
<g id="ghost-smile-line" clip-path="url(#clip0_8_7926)">
<g id="Group">
<path id="Vector" d="M12 2C14.3869 2 16.6761 2.94821 18.364 4.63604C20.0518 6.32387 21 8.61305 21 11V18.5C21.0004 19.2479 20.7611 19.9763 20.3173 20.5784C19.8735 21.1804 19.2486 21.6245 18.534 21.8455C17.8194 22.0664 17.0529 22.0527 16.3467 21.8062C15.6406 21.5598 15.0319 21.0936 14.61 20.476C14.3488 20.9387 13.9693 21.3236 13.5105 21.5915C13.0516 21.8594 12.5298 22.0005 11.9985 22.0005C11.4672 22.0005 10.9454 21.8594 10.4865 21.5915C10.0277 21.3236 9.64823 20.9387 9.387 20.476C8.97402 21.0788 8.3827 21.5373 7.69598 21.7871C7.00927 22.0369 6.26158 22.0655 5.5578 21.8689C4.85401 21.6722 4.22941 21.2603 3.7716 20.6907C3.31379 20.1212 3.04572 19.4226 3.005 18.693L3 18.499V11C3 8.61305 3.94821 6.32387 5.63604 4.63604C7.32387 2.94821 9.61305 2 12 2ZM12 4C10.185 3.99997 8.44098 4.70489 7.13577 5.96607C5.83056 7.22726 5.06623 8.94609 5.004 10.76L5 11V18.446L5.002 18.584C5.01923 18.8838 5.12604 19.1715 5.3086 19.4099C5.49116 19.6483 5.74107 19.8264 6.02599 19.9212C6.31091 20.016 6.61773 20.0231 6.90672 19.9416C7.19572 19.8601 7.45361 19.6937 7.647 19.464L7.735 19.348C7.92648 19.0672 8.18636 18.8399 8.49009 18.6874C8.79382 18.535 9.13139 18.4624 9.47094 18.4766C9.81049 18.4908 10.1408 18.5913 10.4307 18.7687C10.7207 18.946 10.9606 19.1942 11.128 19.49C11.2147 19.6443 11.3409 19.7728 11.4936 19.8623C11.6463 19.9518 11.8201 19.9992 11.9971 19.9995C12.1741 19.9998 12.3481 19.9531 12.5011 19.8641C12.6541 19.7751 12.7807 19.647 12.868 19.493C13.0281 19.2088 13.2552 18.9681 13.5296 18.7919C13.8041 18.6156 14.1174 18.5091 14.4424 18.4817C14.7674 18.4543 15.0942 18.5068 15.3943 18.6346C15.6943 18.7624 15.9586 18.9617 16.164 19.215L16.261 19.345C16.4346 19.5999 16.6826 19.7952 16.9711 19.9041C17.2597 20.013 17.5748 20.0303 17.8735 19.9537C18.1723 19.8771 18.4402 19.7102 18.6407 19.4759C18.8412 19.2415 18.9645 18.951 18.994 18.644L19 18.5V11C19 9.14348 18.2625 7.36301 16.9497 6.05025C15.637 4.7375 13.8565 4 12 4ZM16 13C16 14.0436 15.5922 15.0458 14.8636 15.7929C14.135 16.54 13.1433 16.9727 12.1 16.9988C11.0568 17.0249 10.0447 16.6423 9.27963 15.9326C8.51457 15.2228 8.05716 14.2422 8.005 13.2L8 13H10C10 13.5304 10.2107 14.0391 10.5858 14.4142C10.9609 14.7893 11.4696 15 12 15C12.5304 15 13.0391 14.7893 13.4142 14.4142C13.7893 14.0391 14 13.5304 14 13H16ZM12 7C12.5304 7 13.0391 7.21071 13.4142 7.58579C13.7893 7.96086 14 8.46957 14 9C14 9.53043 13.7893 10.0391 13.4142 10.4142C13.0391 10.7893 12.5304 11 12 11C11.4696 11 10.9609 10.7893 10.5858 10.4142C10.2107 10.0391 10 9.53043 10 9C10 8.46957 10.2107 7.96086 10.5858 7.58579C10.9609 7.21071 11.4696 7 12 7Z" />
</g>
</g>
<defs>
<clipPath id="clip0_8_7926">
<rect width="24" height="24" fill="white"/>
</clipPath>
</defs>
</svg>
