<svg width="24" height="24" viewBox="0 0 24 24" fill="none" xmlns="http://www.w3.org/2000/svg">
<g id="git-branch-line" clip-path="url(#clip0_8_2341)">
<g id="Group">
<path id="Vector" d="M7.105 15.21C7.75865 15.4691 8.30057 15.9495 8.63618 16.5674C8.9718 17.1853 9.0798 17.9014 8.94135 18.5907C8.8029 19.2801 8.42678 19.899 7.87863 20.3393C7.33048 20.7797 6.6451 21.0136 5.94209 21.0003C5.23908 20.9869 4.56308 20.7271 4.03206 20.2662C3.50103 19.8054 3.1487 19.1727 3.03653 18.4785C2.92437 17.7844 3.0595 17.0729 3.41835 16.4682C3.7772 15.8636 4.33698 15.4041 5 15.17V8.83001C4.33251 8.59411 3.76991 8.12982 3.41164 7.51921C3.05337 6.9086 2.92251 6.19099 3.04219 5.49322C3.16186 4.79546 3.52437 4.16247 4.06563 3.70614C4.60689 3.24981 5.29205 2.99952 6 2.99952C6.70795 2.99952 7.39311 3.24981 7.93437 3.70614C8.47563 4.16247 8.83814 4.79546 8.95781 5.49322C9.07749 6.19099 8.94662 6.9086 8.58836 7.51921C8.23009 8.12982 7.66749 8.59411 7 8.83001V12C7.836 11.372 8.874 11 10 11H14C14.6581 11 15.298 10.7837 15.8211 10.3844C16.3442 9.98507 16.7215 9.42485 16.895 8.79001C16.2382 8.52992 15.6942 8.04644 15.3587 7.4247C15.0233 6.80297 14.918 6.08283 15.0613 5.39107C15.2046 4.69931 15.5873 4.08027 16.1421 3.64295C16.697 3.20563 17.3883 2.97806 18.0944 3.0003C18.8005 3.02254 19.4761 3.29316 20.0023 3.76453C20.5285 4.2359 20.8715 4.87779 20.971 5.5772C21.0705 6.27661 20.92 6.98869 20.5461 7.58809C20.1723 8.18748 19.5989 8.63577 18.927 8.85401C18.7256 10.0147 18.1209 11.067 17.2196 11.8255C16.3182 12.584 15.178 12.9999 14 13H10C9.34189 13 8.70202 13.2163 8.17891 13.6156C7.6558 14.015 7.27846 14.5752 7.105 15.21ZM6 17C5.73478 17 5.48043 17.1054 5.29289 17.2929C5.10536 17.4804 5 17.7348 5 18C5 18.2652 5.10536 18.5196 5.29289 18.7071C5.48043 18.8947 5.73478 19 6 19C6.26522 19 6.51957 18.8947 6.70711 18.7071C6.89464 18.5196 7 18.2652 7 18C7 17.7348 6.89464 17.4804 6.70711 17.2929C6.51957 17.1054 6.26522 17 6 17ZM6 5.00001C5.73478 5.00001 5.48043 5.10537 5.29289 5.29291C5.10536 5.48044 5 5.7348 5 6.00001C5 6.26523 5.10536 6.51958 5.29289 6.70712C5.48043 6.89466 5.73478 7.00001 6 7.00001C6.26522 7.00001 6.51957 6.89466 6.70711 6.70712C6.89464 6.51958 7 6.26523 7 6.00001C7 5.7348 6.89464 5.48044 6.70711 5.29291C6.51957 5.10537 6.26522 5.00001 6 5.00001ZM18 5.00001C17.7348 5.00001 17.4804 5.10537 17.2929 5.29291C17.1054 5.48044 17 5.7348 17 6.00001C17 6.26523 17.1054 6.51958 17.2929 6.70712C17.4804 6.89466 17.7348 7.00001 18 7.00001C18.2652 7.00001 18.5196 6.89466 18.7071 6.70712C18.8946 6.51958 19 6.26523 19 6.00001C19 5.7348 18.8946 5.48044 18.7071 5.29291C18.5196 5.10537 18.2652 5.00001 18 5.00001Z" />
</g>
</g>
<defs>
<clipPath id="clip0_8_2341">
<rect width="24" height="24" fill="white"/>
</clipPath>
</defs>
</svg>
