<svg width="24" height="24" viewBox="0 0 24 24" fill="none" xmlns="http://www.w3.org/2000/svg">
<g id="git-commit-fill" clip-path="url(#clip0_8_2317)">
<g id="Group">
<path id="Vector" d="M15.874 13C15.6516 13.8582 15.1504 14.6183 14.4493 15.1609C13.7481 15.7035 12.8866 15.9979 12 15.9979C11.1134 15.9979 10.2519 15.7035 9.55074 15.1609C8.84957 14.6183 8.34844 13.8582 8.126 13H3V11H8.126C8.34844 10.1417 8.84957 9.38167 9.55074 8.83906C10.2519 8.29646 11.1134 8.00204 12 8.00204C12.8866 8.00204 13.7481 8.29646 14.4493 8.83906C15.1504 9.38167 15.6516 10.1417 15.874 11H21V13H15.874Z" fill="currentColor"/>
</g>
</g>
<defs>
<clipPath id="clip0_8_2317">
<rect width="24" height="24" fill="white"/>
</clipPath>
</defs>
</svg>
