<svg width="24" height="24" viewBox="0 0 24 24" fill="none" xmlns="http://www.w3.org/2000/svg">
<g id="git-merge-line" clip-path="url(#clip0_8_2433)">
<g id="Group">
<path id="Vector" d="M7.10501 8.79001C7.27847 9.42485 7.65581 9.98506 8.17892 10.3844C8.70202 10.7837 9.3419 11 10 11H14C15.178 11.0001 16.3182 11.416 17.2196 12.1745C18.1209 12.933 18.7256 13.9853 18.927 15.146C19.6057 15.3674 20.1832 15.8236 20.5559 16.4325C20.9286 17.0414 21.0719 17.7633 20.9603 18.4684C20.8486 19.1735 20.4892 19.8157 19.9467 20.2797C19.4041 20.7437 18.7139 20.9991 18 21C17.3015 21.0006 16.6248 20.7574 16.0864 20.3124C15.548 19.8674 15.1818 19.2485 15.0509 18.5624C14.9199 17.8763 15.0325 17.166 15.3691 16.5541C15.7058 15.9421 16.2454 15.4667 16.895 15.21C16.7215 14.5752 16.3442 14.015 15.8211 13.6156C15.298 13.2163 14.6581 13 14 13H10C8.9179 13.0016 7.86474 12.6506 7.00001 12V15.17C7.6675 15.4059 8.2301 15.8702 8.58837 16.4808C8.94663 17.0914 9.07749 17.809 8.95782 18.5068C8.83814 19.2046 8.47564 19.8376 7.93438 20.2939C7.39312 20.7502 6.70796 21.0005 6.00001 21.0005C5.29205 21.0005 4.60689 20.7502 4.06563 20.2939C3.52438 19.8376 3.16187 19.2046 3.0422 18.5068C2.92252 17.809 3.05338 17.0914 3.41165 16.4808C3.76991 15.8702 4.33251 15.4059 5.00001 15.17V8.83001C4.33698 8.59592 3.77721 8.13645 3.41836 7.53178C3.05951 6.92711 2.92438 6.21563 3.03654 5.5215C3.1487 4.82736 3.50104 4.19465 4.03207 3.73377C4.56309 3.27289 5.23909 3.01311 5.9421 2.99975C6.64511 2.98639 7.33049 3.22031 7.87864 3.66068C8.42679 4.10105 8.80291 4.71992 8.94136 5.40929C9.07981 6.09866 8.97181 6.81476 8.63619 7.43263C8.30058 8.05049 7.75866 8.5309 7.10501 8.79001ZM6.00001 7.00001C6.26522 7.00001 6.51958 6.89465 6.70711 6.70712C6.89465 6.51958 7.00001 6.26523 7.00001 6.00001C7.00001 5.73479 6.89465 5.48044 6.70711 5.2929C6.51958 5.10537 6.26522 5.00001 6.00001 5.00001C5.73479 5.00001 5.48044 5.10537 5.2929 5.2929C5.10536 5.48044 5.00001 5.73479 5.00001 6.00001C5.00001 6.26523 5.10536 6.51958 5.2929 6.70712C5.48044 6.89465 5.73479 7.00001 6.00001 7.00001ZM6.00001 19C6.26522 19 6.51958 18.8947 6.70711 18.7071C6.89465 18.5196 7.00001 18.2652 7.00001 18C7.00001 17.7348 6.89465 17.4804 6.70711 17.2929C6.51958 17.1054 6.26522 17 6.00001 17C5.73479 17 5.48044 17.1054 5.2929 17.2929C5.10536 17.4804 5.00001 17.7348 5.00001 18C5.00001 18.2652 5.10536 18.5196 5.2929 18.7071C5.48044 18.8947 5.73479 19 6.00001 19ZM18 19C18.2652 19 18.5196 18.8947 18.7071 18.7071C18.8947 18.5196 19 18.2652 19 18C19 17.7348 18.8947 17.4804 18.7071 17.2929C18.5196 17.1054 18.2652 17 18 17C17.7348 17 17.4804 17.1054 17.2929 17.2929C17.1054 17.4804 17 17.7348 17 18C17 18.2652 17.1054 18.5196 17.2929 18.7071C17.4804 18.8947 17.7348 19 18 19Z" fill="currentColor"/>
</g>
</g>
<defs>
<clipPath id="clip0_8_2433">
<rect width="24" height="24" fill="white"/>
</clipPath>
</defs>
</svg>
