<svg width="24" height="24" viewBox="0 0 24 24" fill="none" xmlns="http://www.w3.org/2000/svg">
<g id="git-branch-fill" clip-path="url(#clip0_8_2305)">
<g id="Group">
<path id="Vector" d="M7.105 15.21C7.75865 15.4691 8.30057 15.9495 8.63618 16.5674C8.9718 17.1853 9.0798 17.9014 8.94135 18.5907C8.8029 19.2801 8.42678 19.899 7.87863 20.3393C7.33048 20.7797 6.6451 21.0136 5.94209 21.0003C5.23908 20.9869 4.56308 20.7271 4.03206 20.2662C3.50103 19.8054 3.1487 19.1727 3.03653 18.4785C2.92437 17.7844 3.0595 17.0729 3.41835 16.4682C3.7772 15.8636 4.33698 15.4041 5 15.17V8.83001C4.33251 8.59411 3.76991 8.12982 3.41164 7.51921C3.05337 6.9086 2.92251 6.19099 3.04219 5.49322C3.16186 4.79546 3.52437 4.16247 4.06563 3.70614C4.60689 3.24981 5.29205 2.99952 6 2.99952C6.70795 2.99952 7.39311 3.24981 7.93437 3.70614C8.47563 4.16247 8.83814 4.79546 8.95781 5.49322C9.07749 6.19099 8.94662 6.9086 8.58836 7.51921C8.23009 8.12982 7.66749 8.59411 7 8.83001V12C7.836 11.372 8.874 11 10 11H14C14.6581 11 15.298 10.7837 15.8211 10.3844C16.3442 9.98507 16.7215 9.42485 16.895 8.79001C16.2382 8.52992 15.6942 8.04644 15.3587 7.4247C15.0233 6.80297 14.918 6.08283 15.0613 5.39107C15.2046 4.69931 15.5873 4.08027 16.1421 3.64295C16.697 3.20563 17.3883 2.97806 18.0944 3.0003C18.8005 3.02254 19.4761 3.29316 20.0023 3.76453C20.5285 4.2359 20.8715 4.87779 20.971 5.5772C21.0705 6.27661 20.92 6.98869 20.5461 7.58809C20.1723 8.18748 19.5989 8.63577 18.927 8.85401C18.7256 10.0147 18.1209 11.067 17.2196 11.8255C16.3182 12.584 15.178 12.9999 14 13H10C9.34189 13 8.70202 13.2163 8.17891 13.6156C7.6558 14.015 7.27846 14.5752 7.105 15.21Z" />
</g>
</g>
<defs>
<clipPath id="clip0_8_2305">
<rect width="24" height="24" fill="white"/>
</clipPath>
</defs>
</svg>
