<svg width="24" height="24" viewBox="0 0 24 24"  xmlns="http://www.w3.org/2000/svg">
<g id="globe-line" clip-path="url(#clip0_8_6307)">
<g id="Group">
<path id="Vector" d="M13.0004 21H18.0004V23H6.00041V21H11.0004V19.95C9.41488 19.7908 7.89035 19.2551 6.55377 18.3875C5.21719 17.5199 4.10725 16.3454 3.31641 14.962L5.05341 13.97C5.66419 15.0373 6.51278 15.9494 7.53326 16.6355C8.55374 17.3215 9.71864 17.7631 10.9375 17.926C12.1563 18.0888 13.3963 17.9684 14.5611 17.5743C15.7259 17.1801 16.7841 16.5227 17.6536 15.6532C18.5231 14.7837 19.1805 13.7255 19.5746 12.5607C19.9688 11.3959 20.0891 10.156 19.9263 8.93712C19.7635 7.71828 19.3219 6.55337 18.6358 5.53289C17.9497 4.51241 17.0377 3.66382 15.9704 3.05304L16.9624 1.31604C18.4934 2.19059 19.7659 3.45454 20.6507 4.97967C21.5355 6.5048 22.0012 8.23684 22.0004 10C22.0004 15.185 18.0534 19.449 13.0004 19.95V21ZM12.0004 17C11.0812 17 10.1709 16.819 9.32162 16.4672C8.47234 16.1154 7.70067 15.5998 7.05066 14.9498C6.40065 14.2998 5.88503 13.5281 5.53325 12.6788C5.18147 11.8295 5.00041 10.9193 5.00041 10C5.00041 9.08079 5.18147 8.17054 5.53325 7.32126C5.88503 6.47198 6.40065 5.7003 7.05066 5.05029C7.70067 4.40028 8.47234 3.88467 9.32162 3.53288C10.1709 3.1811 11.0812 3.00004 12.0004 3.00004C13.8569 3.00004 15.6374 3.73754 16.9502 5.05029C18.2629 6.36305 19.0004 8.14352 19.0004 10C19.0004 11.8566 18.2629 13.637 16.9502 14.9498C15.6374 16.2625 13.8569 17 12.0004 17ZM12.0004 15C13.3265 15 14.5983 14.4733 15.5359 13.5356C16.4736 12.5979 17.0004 11.3261 17.0004 10C17.0004 8.67396 16.4736 7.40219 15.5359 6.46451C14.5983 5.52682 13.3265 5.00004 12.0004 5.00004C10.6743 5.00004 9.40255 5.52682 8.46487 6.46451C7.52719 7.40219 7.00041 8.67396 7.00041 10C7.00041 11.3261 7.52719 12.5979 8.46487 13.5356C9.40255 14.4733 10.6743 15 12.0004 15Z" />
</g>
</g>
<defs>
<clipPath id="clip0_8_6307">
<rect width="24" height="24" fill="white"/>
</clipPath>
</defs>
</svg>
