<svg width="24" height="24" viewBox="0 0 24 24"  xmlns="http://www.w3.org/2000/svg">
<g id="government-fill" clip-path="url(#clip0_8_549)">
<g id="Group">
<path id="Vector" d="M2 19V8H1V6H4V4C4 3.73478 4.10536 3.48043 4.29289 3.29289C4.48043 3.10536 4.73478 3 5 3H19C19.2652 3 19.5196 3.10536 19.7071 3.29289C19.8946 3.48043 20 3.73478 20 4V6H23V8H22V19H23V21H1V19H2ZM13 19V12H11V19H13ZM8 19V12H6V19H8ZM18 19V12H16V19H18ZM6 5V6H18V5H6Z" />
</g>
</g>
<defs>
<clipPath id="clip0_8_549">
<rect width="24" height="24" fill="white"/>
</clipPath>
</defs>
</svg>
