<svg width="24" height="24" viewBox="0 0 24 24"  xmlns="http://www.w3.org/2000/svg">
<g id="h-2" clip-path="url(#clip0_8_2663)">
<g id="Group">
<path id="Vector" d="M4 4V11H11V4H13V20H11V13H4V20H2V4H4ZM18.5 8C20.571 8 22.25 9.679 22.25 11.75C22.25 12.607 21.962 13.398 21.478 14.03L21.33 14.21L18.034 18H22V20H15V18.444L19.82 12.898C20.088 12.591 20.25 12.189 20.25 11.75C20.25 10.784 19.466 10 18.5 10C17.582 10 16.829 10.707 16.756 11.606L16.75 11.75H14.75C14.75 9.679 16.429 8 18.5 8Z" />
</g>
</g>
<defs>
<clipPath id="clip0_8_2663">
<rect width="24" height="24" fill="white"/>
</clipPath>
</defs>
</svg>
