<svg width="24" height="24" viewBox="0 0 24 24" fill="none" xmlns="http://www.w3.org/2000/svg">
<g id="hail-fill" clip-path="url(#clip0_8_9556)">
<g id="Group">
<path id="Vector" d="M18.995 17.794C18.9642 17.1937 18.7986 16.608 18.5104 16.0805C18.2222 15.5531 17.8188 15.0973 17.3302 14.7472C16.8416 14.3971 16.2804 14.1615 15.6882 14.0582C15.0961 13.9548 14.4883 13.9861 13.91 14.15C13.6996 13.1861 13.1405 12.3339 12.3401 11.7571C11.5397 11.1803 10.5544 10.9195 9.57349 11.0249C8.59255 11.1303 7.68514 11.5945 7.02556 12.3282C6.36597 13.0619 6.00073 14.0134 5.99997 15C5.99997 16.08 6.42797 17.059 7.12197 17.778C5.78512 17.4546 4.55422 16.7921 3.5481 15.8543C2.54198 14.9165 1.79464 13.7351 1.37822 12.4243C0.961799 11.1134 0.890374 9.71738 1.17084 8.37088C1.4513 7.02438 2.07418 5.77293 2.97934 4.73736C3.8845 3.70178 5.04136 2.91707 6.33823 2.45897C7.6351 2.00087 9.02817 1.88487 10.3829 2.12216C11.7377 2.35945 13.0084 2.94201 14.0724 3.81362C15.1364 4.68522 15.9577 5.81641 16.457 7.09797C17.8537 6.81978 19.3039 7.0942 20.5023 7.8635C21.7008 8.63279 22.5542 9.83698 22.8829 11.2227C23.2115 12.6084 22.9899 14.0676 22.2646 15.2932C21.5393 16.5188 20.3668 17.4152 18.994 17.794H18.995ZM9.99997 17C9.46954 17 8.96083 16.7893 8.58576 16.4142C8.21069 16.0391 7.99997 15.5304 7.99997 15C7.99997 14.4695 8.21069 13.9608 8.58576 13.5858C8.96083 13.2107 9.46954 13 9.99997 13C10.5304 13 11.0391 13.2107 11.4142 13.5858C11.7893 13.9608 12 14.4695 12 15C12 15.5304 11.7893 16.0391 11.4142 16.4142C11.0391 16.7893 10.5304 17 9.99997 17ZM15 20C14.4695 20 13.9608 19.7893 13.5858 19.4142C13.2107 19.0391 13 18.5304 13 18C13 17.4695 13.2107 16.9608 13.5858 16.5858C13.9608 16.2107 14.4695 16 15 16C15.5304 16 16.0391 16.2107 16.4142 16.5858C16.7893 16.9608 17 17.4695 17 18C17 18.5304 16.7893 19.0391 16.4142 19.4142C16.0391 19.7893 15.5304 20 15 20ZM9.99997 23C9.46954 23 8.96083 22.7893 8.58576 22.4142C8.21069 22.0391 7.99997 21.5304 7.99997 21C7.99997 20.4695 8.21069 19.9608 8.58576 19.5858C8.96083 19.2107 9.46954 19 9.99997 19C10.5304 19 11.0391 19.2107 11.4142 19.5858C11.7893 19.9608 12 20.4695 12 21C12 21.5304 11.7893 22.0391 11.4142 22.4142C11.0391 22.7893 10.5304 23 9.99997 23Z" fill="currentColor"/>
</g>
</g>
<defs>
<clipPath id="clip0_8_9556">
<rect width="24" height="24" fill="white"/>
</clipPath>
</defs>
</svg>
