<svg width="24" height="24" viewBox="0 0 24 24" fill="none" xmlns="http://www.w3.org/2000/svg">
<g id="hammer-fill" clip-path="url(#clip0_8_4836)">
<g id="Group">
<path id="Vector" d="M17 8V2H20C20.2652 2 20.5196 2.10536 20.7071 2.29289C20.8946 2.48043 21 2.73478 21 3V7C21 7.26522 20.8946 7.51957 20.7071 7.70711C20.5196 7.89464 20.2652 8 20 8H17ZM15 22C15 22.2652 14.8946 22.5196 14.7071 22.7071C14.5196 22.8946 14.2652 23 14 23H10C9.73478 23 9.48043 22.8946 9.29289 22.7071C9.10536 22.5196 9 22.2652 9 22V8H2.5V6.074C2.50012 5.89937 2.54598 5.72781 2.633 5.5764C2.72002 5.42499 2.84517 5.29902 2.996 5.211L8.5 2H15V22Z" fill="#121212"/>
</g>
</g>
<defs>
<clipPath id="clip0_8_4836">
<rect width="24" height="24" fill="white"/>
</clipPath>
</defs>
</svg>
