<svg width="24" height="24" viewBox="0 0 24 24"  xmlns="http://www.w3.org/2000/svg">
<g id="hand-sanitizer-fill" clip-path="url(#clip0_8_5041)">
<g id="Group">
<path id="Vector" d="M17 2V4L13 3.999V6H16V8C18.21 8 20 9.79 20 12V20C20 21.105 19.105 22 18 22H6.00001C4.89501 22 4.00001 21.105 4.00001 20V12C4.00001 9.79 5.79001 8 8.00001 8V6H11V3.999L7.50001 4C6.87001 4 6.13001 4.49 5.30001 5.6L3.70001 4.4C4.87001 2.84 6.13001 2 7.50001 2H17ZM13 12H11V14H9.00001V16H10.999L11 18H13L12.999 16H15V14H13V12Z" />
</g>
</g>
<defs>
<clipPath id="clip0_8_5041">
<rect width="24" height="24" fill="white"/>
</clipPath>
</defs>
</svg>
