<svg width="24" height="24" viewBox="0 0 24 24"  xmlns="http://www.w3.org/2000/svg">
<g id="haze-fill" clip-path="url(#clip0_8_9416)">
<g id="Group">
<path id="Vector" d="M6.083 13C5.93845 12.14 5.98311 11.2588 6.21388 10.4178C6.44464 9.57676 6.85597 8.79617 7.41921 8.13036C7.98245 7.46455 8.68406 6.92953 9.47518 6.56255C10.2663 6.19557 11.1279 6.00546 12 6.00546C12.8721 6.00546 13.7337 6.19557 14.5248 6.56255C15.3159 6.92953 16.0175 7.46455 16.5808 8.13036C17.144 8.79617 17.5554 9.57676 17.7861 10.4178C18.0169 11.2588 18.0616 12.14 17.917 13H6.083ZM2 15H12V17H2V15ZM14 15H22V17H14V15ZM16 19H20V21H16V19ZM4 19H14V21H4V19ZM11 1H13V4H11V1ZM3.515 4.929L4.929 3.515L7.05 5.636L5.636 7.05L3.515 4.93V4.929ZM19.07 3.515L20.484 4.929L18.363 7.05L16.949 5.636L19.07 3.515ZM23 11V13H20V11H23ZM4 11V13H1V11H4Z" />
</g>
</g>
<defs>
<clipPath id="clip0_8_9416">
<rect width="24" height="24" fill="white"/>
</clipPath>
</defs>
</svg>
