<svg width="24" height="24" viewBox="0 0 24 24"  xmlns="http://www.w3.org/2000/svg">
<g id="haze-two-line" clip-path="url(#clip0_8_9432)">
<g id="Group">
<path id="Vector" d="M12 19C12.3978 19 12.7794 19.158 13.0607 19.4393C13.342 19.7206 13.5 20.1022 13.5 20.5C13.5 20.8978 13.342 21.2794 13.0607 21.5607C12.7794 21.842 12.3978 22 12 22C11.6022 22 11.2206 21.842 10.9393 21.5607C10.658 21.2794 10.5 20.8978 10.5 20.5C10.5 20.1022 10.658 19.7206 10.9393 19.4393C11.2206 19.158 11.6022 19 12 19ZM19.5 19C19.8978 19 20.2794 19.158 20.5607 19.4393C20.842 19.7206 21 20.1022 21 20.5C21 20.8978 20.842 21.2794 20.5607 21.5607C20.2794 21.842 19.8978 22 19.5 22C19.1022 22 18.7206 21.842 18.4393 21.5607C18.158 21.2794 18 20.8978 18 20.5C18 20.1022 18.158 19.7206 18.4393 19.4393C18.7206 19.158 19.1022 19 19.5 19ZM4.5 19C4.89782 19 5.27936 19.158 5.56066 19.4393C5.84196 19.7206 6 20.1022 6 20.5C6 20.8978 5.84196 21.2794 5.56066 21.5607C5.27936 21.842 4.89782 22 4.5 22C4.10218 22 3.72064 21.842 3.43934 21.5607C3.15804 21.2794 3 20.8978 3 20.5C3 20.1022 3.15804 19.7206 3.43934 19.4393C3.72064 19.158 4.10218 19 4.5 19ZM17 7C18.3261 7 19.5979 7.52678 20.5355 8.46447C21.4732 9.40215 22 10.6739 22 12C22 13.3261 21.4732 14.5979 20.5355 15.5355C19.5979 16.4732 18.3261 17 17 17C15.156 17 13.49 15.96 12 13.878C10.51 15.96 8.844 17 7 17C5.67392 17 4.40215 16.4732 3.46447 15.5355C2.52678 14.5979 2 13.3261 2 12C2 10.6739 2.52678 9.40215 3.46447 8.46447C4.40215 7.52678 5.67392 7 7 7C8.844 7 10.51 8.04 12 10.122C13.49 8.04 15.156 7 17 7ZM7 9C6.20435 9 5.44129 9.31607 4.87868 9.87868C4.31607 10.4413 4 11.2044 4 12C4 12.7956 4.31607 13.5587 4.87868 14.1213C5.44129 14.6839 6.20435 15 7 15C8.254 15 9.51 14.125 10.759 12.146L10.848 11.999L10.758 11.854C9.561 9.958 8.358 9.074 7.157 9.004L7 9ZM17 9C15.746 9 14.49 9.875 13.241 11.854L13.151 12L13.241 12.146C14.439 14.042 15.641 14.926 16.843 14.996L17 15C17.7956 15 18.5587 14.6839 19.1213 14.1213C19.6839 13.5587 20 12.7956 20 12C20 11.2044 19.6839 10.4413 19.1213 9.87868C18.5587 9.31607 17.7956 9 17 9ZM12 2C12.197 2 12.392 2.0388 12.574 2.11418C12.756 2.18956 12.9214 2.30005 13.0607 2.43934C13.1999 2.57863 13.3104 2.74399 13.3858 2.92597C13.4612 3.10796 13.5 3.30302 13.5 3.5C13.5 3.69698 13.4612 3.89204 13.3858 4.07403C13.3104 4.25601 13.1999 4.42137 13.0607 4.56066C12.9214 4.69995 12.756 4.81044 12.574 4.88582C12.392 4.9612 12.197 5 12 5C11.6022 5 11.2206 4.84196 10.9393 4.56066C10.658 4.27936 10.5 3.89782 10.5 3.5C10.5 3.10218 10.658 2.72064 10.9393 2.43934C11.2206 2.15804 11.6022 2 12 2ZM4.5 2C4.69698 2 4.89204 2.0388 5.07403 2.11418C5.25601 2.18956 5.42137 2.30005 5.56066 2.43934C5.69995 2.57863 5.81044 2.74399 5.88582 2.92597C5.9612 3.10796 6 3.30302 6 3.5C6 3.69698 5.9612 3.89204 5.88582 4.07403C5.81044 4.25601 5.69995 4.42137 5.56066 4.56066C5.42137 4.69995 5.25601 4.81044 5.07403 4.88582C4.89204 4.9612 4.69698 5 4.5 5C4.10218 5 3.72064 4.84196 3.43934 4.56066C3.15804 4.27936 3 3.89782 3 3.5C3 3.10218 3.15804 2.72064 3.43934 2.43934C3.72064 2.15804 4.10218 2 4.5 2ZM19.5 2C19.697 2 19.892 2.0388 20.074 2.11418C20.256 2.18956 20.4214 2.30005 20.5607 2.43934C20.6999 2.57863 20.8104 2.74399 20.8858 2.92597C20.9612 3.10796 21 3.30302 21 3.5C21 3.69698 20.9612 3.89204 20.8858 4.07403C20.8104 4.25601 20.6999 4.42137 20.5607 4.56066C20.4214 4.69995 20.256 4.81044 20.074 4.88582C19.892 4.9612 19.697 5 19.5 5C19.1022 5 18.7206 4.84196 18.4393 4.56066C18.158 4.27936 18 3.89782 18 3.5C18 3.10218 18.158 2.72064 18.4393 2.43934C18.7206 2.15804 19.1022 2 19.5 2Z" />
</g>
</g>
<defs>
<clipPath id="clip0_8_9432">
<rect width="24" height="24" fill="white"/>
</clipPath>
</defs>
</svg>
