<svg width="24" height="24" viewBox="0 0 24 24"  xmlns="http://www.w3.org/2000/svg">
<g id="health-book-line" clip-path="url(#clip0_8_5097)">
<g id="Group">
<path id="Vector" d="M20 2C20.552 2 21 2.448 21 3V21C21 21.552 20.552 22 20 22H6C5.448 22 5 21.552 5 21V19H3V17H5V15H3V13H5V11H3V9H5V7H3V5H5V3C5 2.448 5.448 2 6 2H20ZM19 4H7V20H19V4ZM14 8V11H17V13H13.999L14 16H12L11.999 13H9V11H12V8H14Z" />
</g>
</g>
<defs>
<clipPath id="clip0_8_5097">
<rect width="24" height="24" fill="white"/>
</clipPath>
</defs>
</svg>
