<svg width="24" height="24" viewBox="0 0 24 24" fill="none" xmlns="http://www.w3.org/2000/svg">
<g id="health-book-fill" clip-path="url(#clip0_8_5029)">
<g id="Group">
<path id="Vector" d="M20 2C20.552 2 21 2.448 21 3V21C21 21.552 20.552 22 20 22H6C5.448 22 5 21.552 5 21V19H3V17H5V15H3V13H5V11H3V9H5V7H3V5H5V3C5 2.448 5.448 2 6 2H20ZM14 8H12V11H9V13H11.999L12 16H14L13.999 13H17V11H14V8Z" />
</g>
</g>
<defs>
<clipPath id="clip0_8_5029">
<rect width="24" height="24" fill="white"/>
</clipPath>
</defs>
</svg>
