<svg width="24" height="24" viewBox="0 0 24 24"  xmlns="http://www.w3.org/2000/svg">
<g id="heavy-showers-line" clip-path="url(#clip0_8_9520)">
<g id="Group">
<path id="Vector" d="M4.99975 16.9302C3.89314 16.2904 2.95595 15.3948 2.26667 14.3183C1.57739 13.2418 1.1561 12.0158 1.03808 10.743C0.92006 9.47025 1.10875 8.18771 1.58834 7.00284C2.06793 5.81797 2.82446 4.76528 3.79457 3.93292C4.76467 3.10057 5.92011 2.51279 7.16409 2.21883C8.40808 1.92486 9.7044 1.93326 10.9445 2.24332C12.1845 2.55339 13.3323 3.15609 14.2915 4.00095C15.2507 4.8458 15.9936 5.90822 16.4578 7.0992C17.8531 6.82338 19.301 7.09882 20.4975 7.8677C21.6941 8.63658 22.5463 9.83911 22.8752 11.2229C23.2042 12.6066 22.9842 14.064 22.2616 15.2891C21.539 16.5141 20.3699 17.4117 18.9998 17.7932V15.6632C19.4619 15.4439 19.8704 15.1259 20.1965 14.7317C20.5225 14.3375 20.7581 13.8766 20.8868 13.3815C21.0155 12.8863 21.0341 12.369 20.9412 11.8659C20.8484 11.3629 20.6464 10.8863 20.3495 10.4697C20.0525 10.0531 19.6679 9.70666 19.2226 9.45477C18.7774 9.20289 18.2823 9.05168 17.7723 9.01178C17.2623 8.97189 16.7497 9.04428 16.2707 9.22386C15.7917 9.40344 15.3578 9.68585 14.9998 10.0512V10.0002C14.9998 8.99935 14.7494 8.0144 14.2715 7.13503C13.7936 6.25566 13.1033 5.50981 12.2635 4.96539C11.4237 4.42097 10.461 4.09529 9.46317 4.01799C8.46531 3.94068 7.46397 4.11423 6.55033 4.52281C5.63668 4.93139 4.83976 5.56203 4.23212 6.35731C3.62448 7.15259 3.22544 8.08723 3.07132 9.07614C2.9172 10.065 3.01291 11.0768 3.34973 12.0193C3.68654 12.9617 4.25377 13.805 4.99975 14.4722V16.9302ZM6.99975 14.0002H8.99975V20.0002H6.99975V14.0002ZM14.9998 14.0002H16.9998V20.0002H14.9998V14.0002ZM10.9998 17.0002H12.9998V23.0002H10.9998V17.0002Z" />
</g>
</g>
<defs>
<clipPath id="clip0_8_9520">
<rect width="24" height="24" fill="white"/>
</clipPath>
</defs>
</svg>
