<svg width="24" height="24" viewBox="0 0 24 24" fill="none" xmlns="http://www.w3.org/2000/svg">
<g id="home-smile-fill" clip-path="url(#clip0_8_693)">
<g id="Group">
<path id="Vector" d="M20 20C20 20.2653 19.8946 20.5196 19.7071 20.7071C19.5196 20.8947 19.2652 21 19 21H5C4.73478 21 4.48043 20.8947 4.29289 20.7071C4.10536 20.5196 4 20.2653 4 20V11H1L11.327 1.61204C11.5111 1.44452 11.7511 1.35168 12 1.35168C12.2489 1.35168 12.4889 1.44452 12.673 1.61204L23 11H20V20ZM7.5 13C7.5 14.1935 7.97411 15.3381 8.81802 16.182C9.66193 17.0259 10.8065 17.5 12 17.5C13.1935 17.5 14.3381 17.0259 15.182 16.182C16.0259 15.3381 16.5 14.1935 16.5 13H14.5C14.5 13.6631 14.2366 14.299 13.7678 14.7678C13.2989 15.2366 12.663 15.5 12 15.5C11.337 15.5 10.7011 15.2366 10.2322 14.7678C9.76339 14.299 9.5 13.6631 9.5 13H7.5Z" fill="currentColor"/>
</g>
</g>
<defs>
<clipPath id="clip0_8_693">
<rect width="24" height="24" fill="white"/>
</clipPath>
</defs>
</svg>
