<svg width="24" height="24" viewBox="0 0 24 24" fill="none" xmlns="http://www.w3.org/2000/svg">
<g id="home-smile-2-fill" clip-path="url(#clip0_8_533)">
<g id="Group">
<path id="Vector" d="M21 20C21 20.2652 20.8946 20.5195 20.7071 20.7071C20.5196 20.8946 20.2652 21 20 21H4C3.73478 21 3.48043 20.8946 3.29289 20.7071C3.10536 20.5195 3 20.2652 3 20V9.31396C2.99994 9.16291 3.0341 9.01381 3.09991 8.87785C3.16573 8.7419 3.26149 8.62261 3.38 8.52896L11.38 2.21796C11.5565 2.07845 11.775 2.00256 12 2.00256C12.225 2.00256 12.4435 2.07845 12.62 2.21796L20.62 8.52796C20.7386 8.62172 20.8345 8.74116 20.9003 8.8773C20.9661 9.01345 21.0002 9.16274 21 9.31396V20ZM7 12C7 13.326 7.52678 14.5978 8.46447 15.5355C9.40215 16.4732 10.6739 17 12 17C13.3261 17 14.5979 16.4732 15.5355 15.5355C16.4732 14.5978 17 13.326 17 12H15C15 12.7956 14.6839 13.5587 14.1213 14.1213C13.5587 14.6839 12.7956 15 12 15C11.2044 15 10.4413 14.6839 9.87868 14.1213C9.31607 13.5587 9 12.7956 9 12H7Z" />
</g>
</g>
<defs>
<clipPath id="clip0_8_533">
<rect width="24" height="24" fill="white"/>
</clipPath>
</defs>
</svg>
