<svg width="24" height="24" viewBox="0 0 24 24" fill="none" xmlns="http://www.w3.org/2000/svg">
<g id="home-wifi-fill" clip-path="url(#clip0_8_721)">
<g id="Group">
<path id="Vector" d="M20 20C20 20.2653 19.8946 20.5196 19.7071 20.7071C19.5196 20.8947 19.2652 21 19 21H5C4.73478 21 4.48043 20.8947 4.29289 20.7071C4.10536 20.5196 4 20.2653 4 20V11H1L11.327 1.61204C11.5111 1.44452 11.7511 1.35168 12 1.35168C12.2489 1.35168 12.4889 1.44452 12.673 1.61204L23 11H20V20ZM7 11V13C7.65661 13 8.30679 13.1294 8.91342 13.3806C9.52004 13.6319 10.0712 14.0002 10.5355 14.4645C10.9998 14.9288 11.3681 15.48 11.6194 16.0866C11.8707 16.6933 12 17.3434 12 18H14C14 16.1435 13.2625 14.363 11.9497 13.0503C10.637 11.7375 8.85652 11 7 11ZM7 15V18H10C10 17.2044 9.68393 16.4413 9.12132 15.8787C8.55871 15.3161 7.79565 15 7 15Z" fill="currentColor"/>
</g>
</g>
<defs>
<clipPath id="clip0_8_721">
<rect width="24" height="24" fill="white"/>
</clipPath>
</defs>
</svg>
