<svg width="24" height="24" viewBox="0 0 24 24" fill="none" xmlns="http://www.w3.org/2000/svg">
<g id="home-8-fill" clip-path="url(#clip0_8_529)">
<g id="Group">
<path id="Vector" d="M20 20C20 20.2653 19.8946 20.5196 19.7071 20.7071C19.5196 20.8947 19.2652 21 19 21H5C4.73478 21 4.48043 20.8947 4.29289 20.7071C4.10536 20.5196 4 20.2653 4 20V11H1L11.327 1.61204C11.5111 1.44452 11.7511 1.35168 12 1.35168C12.2489 1.35168 12.4889 1.44452 12.673 1.61204L23 11H20V20ZM9 10V16H15V10H9ZM11 12H13V14H11V12Z" fill="currentColor"/>
</g>
</g>
<defs>
<clipPath id="clip0_8_529">
<rect width="24" height="24" fill="white"/>
</clipPath>
</defs>
</svg>
