<svg width="24" height="24" viewBox="0 0 24 24"  xmlns="http://www.w3.org/2000/svg">
<g id="home-heart-fill" clip-path="url(#clip0_8_557)">
<g id="Group">
<path id="Vector" d="M20 20C20 20.2653 19.8946 20.5196 19.7071 20.7071C19.5196 20.8947 19.2652 21 19 21H5C4.73478 21 4.48043 20.8947 4.29289 20.7071C4.10536 20.5196 4 20.2653 4 20V11H1L11.327 1.61204C11.5111 1.44452 11.7511 1.35168 12 1.35168C12.2489 1.35168 12.4889 1.44452 12.673 1.61204L23 11H20V20ZM12 17L15.359 13.641C15.5679 13.4321 15.7337 13.1841 15.8467 12.9111C15.9598 12.6381 16.018 12.3455 16.018 12.05C16.018 11.7546 15.9598 11.462 15.8467 11.189C15.7337 10.916 15.5679 10.668 15.359 10.459C15.1501 10.2501 14.902 10.0844 14.629 9.9713C14.3561 9.85823 14.0635 9.80003 13.768 9.80003C13.4725 9.80003 13.1799 9.85823 12.907 9.9713C12.634 10.0844 12.3859 10.2501 12.177 10.459L12 10.636L11.823 10.459C11.6141 10.2501 11.366 10.0844 11.093 9.9713C10.8201 9.85823 10.5275 9.80003 10.232 9.80003C9.93652 9.80003 9.64394 9.85823 9.37096 9.9713C9.09797 10.0844 8.84993 10.2501 8.641 10.459C8.43207 10.668 8.26633 10.916 8.15326 11.189C8.04018 11.462 7.98199 11.7546 7.98199 12.05C7.98199 12.3455 8.04018 12.6381 8.15326 12.9111C8.26633 13.1841 8.43207 13.4321 8.641 13.641L12 17Z" />
</g>
</g>
<defs>
<clipPath id="clip0_8_557">
<rect width="24" height="24" fill="white"/>
</clipPath>
</defs>
</svg>
