<svg width="24" height="24" viewBox="0 0 24 24" fill="none" xmlns="http://www.w3.org/2000/svg">
<g id="home-smile-2-line" clip-path="url(#clip0_8_593)">
<g id="Group">
<path id="Vector" d="M19 19V9.79896L12 4.27696L5 9.79896V19H19ZM21 20C21 20.2652 20.8946 20.5195 20.7071 20.7071C20.5196 20.8946 20.2652 21 20 21H4C3.73478 21 3.48043 20.8946 3.29289 20.7071C3.10536 20.5195 3 20.2652 3 20V9.31396C2.99994 9.16291 3.0341 9.01381 3.09991 8.87785C3.16573 8.7419 3.26149 8.62261 3.38 8.52896L11.38 2.21796C11.5565 2.07845 11.775 2.00256 12 2.00256C12.225 2.00256 12.4435 2.07845 12.62 2.21796L20.62 8.52796C20.7386 8.62172 20.8345 8.74116 20.9003 8.8773C20.9661 9.01345 21.0002 9.16274 21 9.31396V20ZM7 12H9C9 12.7956 9.31607 13.5587 9.87868 14.1213C10.4413 14.6839 11.2044 15 12 15C12.7956 15 13.5587 14.6839 14.1213 14.1213C14.6839 13.5587 15 12.7956 15 12H17C17 13.326 16.4732 14.5978 15.5355 15.5355C14.5979 16.4732 13.3261 17 12 17C10.6739 17 9.40215 16.4732 8.46447 15.5355C7.52678 14.5978 7 13.326 7 12Z" fill="#121212"/>
</g>
</g>
<defs>
<clipPath id="clip0_8_593">
<rect width="24" height="24" fill="white"/>
</clipPath>
</defs>
</svg>
