<svg width="24" height="24" viewBox="0 0 24 24"  xmlns="http://www.w3.org/2000/svg">
<g id="hospital-fill" clip-path="url(#clip0_8_565)">
<g id="Group">
<path id="Vector" d="M21 20H23V22H1V20H3V3C3 2.73478 3.10536 2.48043 3.29289 2.29289C3.48043 2.10536 3.73478 2 4 2H20C20.2652 2 20.5196 2.10536 20.7071 2.29289C20.8946 2.48043 21 2.73478 21 3V20ZM11 8H9V10H11V12H13V10H15V8H13V6H11V8ZM14 20H16V14H8V20H10V16H14V20Z" />
</g>
</g>
<defs>
<clipPath id="clip0_8_565">
<rect width="24" height="24" fill="white"/>
</clipPath>
</defs>
</svg>
