<svg width="24" height="24" viewBox="0 0 24 24"  xmlns="http://www.w3.org/2000/svg">
<g id="hotspot-line" clip-path="url(#clip0_8_2224)">
<g id="Group">
<path id="Vector" d="M11 2V4H7V20H17V11H19V21C19 21.2652 18.8946 21.5196 18.7071 21.7071C18.5196 21.8946 18.2652 22 18 22H6C5.73478 22 5.48043 21.8946 5.29289 21.7071C5.10536 21.5196 5 21.2652 5 21V3C5 2.73478 5.10536 2.48043 5.29289 2.29289C5.48043 2.10536 5.73478 2 6 2H11ZM13 7C13.5304 7 14.0391 7.21071 14.4142 7.58579C14.7893 7.96086 15 8.46957 15 9H13V7ZM13 4C14.3261 4 15.5979 4.52678 16.5355 5.46447C17.4732 6.40215 18 7.67392 18 9H16C16 8.20435 15.6839 7.44129 15.1213 6.87868C14.5587 6.31607 13.7956 6 13 6V4ZM13 1C15.1217 1 17.1566 1.84285 18.6569 3.34315C20.1571 4.84344 21 6.87827 21 9H19C19 7.4087 18.3679 5.88258 17.2426 4.75736C16.1174 3.63214 14.5913 3 13 3V1Z" />
</g>
</g>
<defs>
<clipPath id="clip0_8_2224">
<rect width="24" height="24" fill="white"/>
</clipPath>
</defs>
</svg>
