<svg width="24" height="24" viewBox="0 0 24 24" fill="none" xmlns="http://www.w3.org/2000/svg">
<g id="image-edit-line" clip-path="url(#clip0_8_6852)">
<g id="Group">
<path id="Vector" d="M20 3C20.552 3 21 3.448 21 4V5.757L19 7.757V5H5V13.1L9 9.1L13.328 13.429L11.913 14.842L9 11.93L5 15.929V19H15.533L16.241 19.001L17.57 17.671L18.9 19H19V16.242L21 14.242V20C21 20.552 20.552 21 20 21H4C3.45 21 3 20.55 3 20V4C3 3.448 3.448 3 4 3H20ZM21.778 7.808L23.192 9.222L15.414 17L13.998 16.998L14 15.586L21.778 7.808ZM15.5 7C16.328 7 17 7.672 17 8.5C17 9.328 16.328 10 15.5 10C14.672 10 14 9.328 14 8.5C14 7.672 14.672 7 15.5 7Z" />
</g>
</g>
<defs>
<clipPath id="clip0_8_6852">
<rect width="24" height="24" fill="white"/>
</clipPath>
</defs>
</svg>
