<svg width="24" height="24" viewBox="0 0 24 24" fill="none" xmlns="http://www.w3.org/2000/svg">
<g id="insert-row-top" clip-path="url(#clip0_8_2758)">
<g id="Group">
<path id="Vector" d="M20 13C20.552 13 21 13.448 21 14V20C21 20.552 20.552 21 20 21H4C3.448 21 3 20.552 3 20V14C3 13.448 3.448 13 4 13H20ZM19 15H5V19H19V15ZM12 1C14.761 1 17 3.239 17 6C17 8.761 14.761 11 12 11C9.239 11 7 8.761 7 6C7 3.239 9.239 1 12 1ZM13 3H11V4.999L9 5V7L11 6.999V9H13V6.999L15 7V5L13 4.999V3Z" fill="currentColor"/>
</g>
</g>
<defs>
<clipPath id="clip0_8_2758">
<rect width="24" height="24" fill="white"/>
</clipPath>
</defs>
</svg>
