<svg width="24" height="24" viewBox="0 0 24 24" fill="none" xmlns="http://www.w3.org/2000/svg">
<g id="key-fill" clip-path="url(#clip0_8_7509)">
<g id="Group">
<path id="Vector" d="M17 14H12.659C12.1872 15.3344 11.2589 16.4591 10.038 17.1753C8.81721 17.8914 7.38252 18.1529 5.98752 17.9136C4.59253 17.6742 3.32706 16.9495 2.41478 15.8673C1.5025 14.7852 1.00214 13.4154 1.00214 12C1.00214 10.5846 1.5025 9.21482 2.41478 8.13268C3.32706 7.05054 4.59253 6.32575 5.98752 6.08641C7.38252 5.84707 8.81721 6.10858 10.038 6.82474C11.2589 7.54089 12.1872 8.66557 12.659 10H23V14H21V18H17V14ZM6.99999 14C7.53042 14 8.03913 13.7893 8.4142 13.4142C8.78928 13.0391 8.99999 12.5304 8.99999 12C8.99999 11.4696 8.78928 10.9609 8.4142 10.5858C8.03913 10.2107 7.53042 10 6.99999 10C6.46956 10 5.96085 10.2107 5.58578 10.5858C5.2107 10.9609 4.99999 11.4696 4.99999 12C4.99999 12.5304 5.2107 13.0391 5.58578 13.4142C5.96085 13.7893 6.46956 14 6.99999 14Z" />
</g>
</g>
<defs>
<clipPath id="clip0_8_7509">
<rect width="24" height="24" fill="white"/>
</clipPath>
</defs>
</svg>
