<svg width="24" height="24" viewBox="0 0 24 24" fill="none" xmlns="http://www.w3.org/2000/svg">
<g id="layout-2-line" clip-path="url(#clip0_8_4388)">
<g id="Group">
<path id="Vector" d="M21 20C21 20.2652 20.8946 20.5196 20.7071 20.7071C20.5196 20.8946 20.2652 21 20 21H4C3.73478 21 3.48043 20.8946 3.29289 20.7071C3.10536 20.5196 3 20.2652 3 20V4C3 3.73478 3.10536 3.48043 3.29289 3.29289C3.48043 3.10536 3.73478 3 4 3H20C20.2652 3 20.5196 3.10536 20.7071 3.29289C20.8946 3.48043 21 3.73478 21 4V20ZM11 5H5V19H11V5ZM19 13H13V19H19V13ZM19 5H13V11H19V5Z" fill="currentColor"/>
</g>
</g>
<defs>
<clipPath id="clip0_8_4388">
<rect width="24" height="24" fill="white"/>
</clipPath>
</defs>
</svg>
