<svg width="24" height="24" viewBox="0 0 24 24"  xmlns="http://www.w3.org/2000/svg">
<g id="layout-2-fill" clip-path="url(#clip0_8_4212)">
<g id="Group">
<path id="Vector" d="M11 3V21H4C3.73478 21 3.48043 20.8946 3.29289 20.7071C3.10536 20.5196 3 20.2652 3 20V4C3 3.73478 3.10536 3.48043 3.29289 3.29289C3.48043 3.10536 3.73478 3 4 3H11ZM21 13V20C21 20.2652 20.8946 20.5196 20.7071 20.7071C20.5196 20.8946 20.2652 21 20 21H13V13H21ZM20 3C20.2652 3 20.5196 3.10536 20.7071 3.29289C20.8946 3.48043 21 3.73478 21 4V11H13V3H20Z" />
</g>
</g>
<defs>
<clipPath id="clip0_8_4212">
<rect width="24" height="24" fill="white"/>
</clipPath>
</defs>
</svg>
