<svg width="24" height="24" viewBox="0 0 24 24"  xmlns="http://www.w3.org/2000/svg">
<g id="live-fill" clip-path="url(#clip0_8_7072)">
<g id="Group">
<path id="Vector" d="M16 4C16.2652 4 16.5196 4.10536 16.7071 4.29289C16.8946 4.48043 17 4.73478 17 5V9.2L22.213 5.55C22.288 5.49746 22.3759 5.4665 22.4672 5.4605C22.5586 5.4545 22.6498 5.4737 22.731 5.51599C22.8122 5.55829 22.8802 5.62206 22.9276 5.70035C22.9751 5.77865 23.0001 5.86846 23 5.96V18.04C23.0001 18.1315 22.9751 18.2214 22.9276 18.2996C22.8802 18.3779 22.8122 18.4417 22.731 18.484C22.6498 18.5263 22.5586 18.5455 22.4672 18.5395C22.3759 18.5335 22.288 18.5025 22.213 18.45L17 14.8V19C17 19.2652 16.8946 19.5196 16.7071 19.7071C16.5196 19.8946 16.2652 20 16 20H2C1.73478 20 1.48043 19.8946 1.29289 19.7071C1.10536 19.5196 1 19.2652 1 19V5C1 4.73478 1.10536 4.48043 1.29289 4.29289C1.48043 4.10536 1.73478 4 2 4H16ZM7.4 8.829C7.30779 8.82898 7.2184 8.86082 7.14697 8.91914C7.07553 8.97745 7.02644 9.05865 7.008 9.149L7 9.228V14.77C6.99999 14.8348 7.01572 14.8986 7.04582 14.9559C7.07592 15.0133 7.11951 15.0625 7.17282 15.0993C7.22614 15.1361 7.28759 15.1594 7.3519 15.1672C7.4162 15.1749 7.48144 15.167 7.542 15.144L7.615 15.108L11.97 12.336C12.0208 12.3035 12.0636 12.2599 12.0952 12.2085C12.1268 12.1571 12.1464 12.0993 12.1524 12.0392C12.1585 11.9792 12.1509 11.9186 12.1302 11.8619C12.1095 11.8053 12.0763 11.754 12.033 11.712L11.97 11.662L7.615 8.89C7.55048 8.85 7.47591 8.82919 7.4 8.83V8.829Z" />
</g>
</g>
<defs>
<clipPath id="clip0_8_7072">
<rect width="24" height="24" fill="white"/>
</clipPath>
</defs>
</svg>
