<svg width="24" height="24" viewBox="0 0 24 24"  xmlns="http://www.w3.org/2000/svg">
<g id="loader-three-line" clip-path="url(#clip0_8_9267)">
<g id="Group">
<path id="Vector" d="M3.05471 13H5.06971C5.312 14.6648 6.14558 16.1867 7.41794 17.2872C8.69031 18.3878 10.3164 18.9935 11.9987 18.9935C13.681 18.9935 15.3071 18.3878 16.5795 17.2872C17.8518 16.1867 18.6854 14.6648 18.9277 13H20.9437C20.6972 15.1998 19.6486 17.2317 17.9985 18.7072C16.3483 20.1828 14.2123 20.9985 11.9987 20.9985C9.78508 20.9985 7.64907 20.1828 5.99893 18.7072C4.3488 17.2317 3.30025 15.1998 3.05371 13H3.05471ZM3.05471 11C3.30125 8.80012 4.3498 6.76825 5.99993 5.29272C7.65007 3.81718 9.78608 3.00146 11.9997 3.00146C14.2133 3.00146 16.3493 3.81718 17.9995 5.29272C19.6496 6.76825 20.6982 8.80012 20.9447 11H18.9297C18.6874 9.3352 17.8538 7.8133 16.5815 6.71271C15.3091 5.61212 13.683 5.00643 12.0007 5.00643C10.3184 5.00643 8.69231 5.61212 7.41994 6.71271C6.14758 7.8133 5.314 9.3352 5.07171 11H3.05471Z" />
</g>
</g>
<defs>
<clipPath id="clip0_8_9267">
<rect width="24" height="24" fill="white"/>
</clipPath>
</defs>
</svg>
