<svg width="24" height="24" viewBox="0 0 24 24" fill="none" xmlns="http://www.w3.org/2000/svg">
<g id="mac-line" clip-path="url(#clip0_8_1820)">
<g id="Group">
<path id="Vector" d="M14 18V20L16 21V22H7.99999L7.99599 21.004L10 20V18H2.992C2.86068 17.9992 2.73081 17.9725 2.60983 17.9215C2.48885 17.8704 2.37914 17.7959 2.28699 17.7024C2.19483 17.6088 2.12204 17.498 2.0728 17.3763C2.02355 17.2546 1.99881 17.1243 1.99999 16.993V4.007C1.99999 3.451 2.455 3 2.992 3H21.008C21.556 3 22 3.449 22 4.007V16.993C22 17.549 21.545 18 21.008 18H14ZM3.99999 5V14H20V5H3.99999Z" fill="#121212"/>
</g>
</g>
<defs>
<clipPath id="clip0_8_1820">
<rect width="24" height="24" fill="white"/>
</clipPath>
</defs>
</svg>
