<svg width="24" height="24" viewBox="0 0 24 24" fill="none" xmlns="http://www.w3.org/2000/svg">
<g id="mac-fill" clip-path="url(#clip0_8_1712)">
<g id="Group">
<path id="Vector" d="M14 18V20L16 21V22H8L7.996 21.004L10 20V18H2.992C2.86069 17.9992 2.73082 17.9725 2.60984 17.9215C2.48886 17.8704 2.37915 17.7959 2.28699 17.7024C2.19484 17.6088 2.12205 17.498 2.0728 17.3763C2.02356 17.2546 1.99882 17.1243 2 16.993V4.007C2 3.451 2.455 3 2.992 3H21.008C21.556 3 22 3.449 22 4.007V16.993C22 17.549 21.545 18 21.008 18H14ZM4 14V16H20V14H4Z" fill="currentColor"/>
</g>
</g>
<defs>
<clipPath id="clip0_8_1712">
<rect width="24" height="24" fill="white"/>
</clipPath>
</defs>
</svg>
