<svg width="24" height="24" viewBox="0 0 24 24" fill="none" xmlns="http://www.w3.org/2000/svg">
<g id="mail-download-fill" clip-path="url(#clip0_8_1166)">
<g id="Group">
<path id="Vector" d="M22 12.803C20.8561 12.142 19.5259 11.877 18.216 12.0492C16.9061 12.2214 15.6896 12.8211 14.7554 13.7554C13.8211 14.6896 13.2214 15.9061 13.0492 17.216C12.877 18.5259 13.142 19.8561 13.803 21H3C2.73478 21 2.48043 20.8946 2.29289 20.7071C2.10536 20.5196 2 20.2652 2 20V4C2 3.73478 2.10536 3.48043 2.29289 3.29289C2.48043 3.10536 2.73478 3 3 3H21C21.2652 3 21.5196 3.10536 21.7071 3.29289C21.8946 3.48043 22 3.73478 22 4V12.803ZM12.06 11.683L5.648 6.238L4.353 7.762L12.073 14.317L19.654 7.757L18.346 6.244L12.061 11.683H12.06ZM20 18H23L19 22L15 18H18V14H20V18Z" />
</g>
</g>
<defs>
<clipPath id="clip0_8_1166">
<rect width="24" height="24" fill="white"/>
</clipPath>
</defs>
</svg>
