<svg width="24" height="24" viewBox="0 0 24 24"  xmlns="http://www.w3.org/2000/svg">
<g id="mail-download-line" clip-path="url(#clip0_8_1278)">
<g id="Group">
<path id="Vector" d="M20 7.238L12.072 14.338L4 7.216V19H13V21H3C2.73478 21 2.48043 20.8946 2.29289 20.7071C2.10536 20.5196 2 20.2652 2 20V4C2 3.73478 2.10536 3.48043 2.29289 3.29289C2.48043 3.10536 2.73478 3 3 3H21C21.2652 3 21.5196 3.10536 21.7071 3.29289C21.8946 3.48043 22 3.73478 22 4V12H20V7.238ZM19.501 5H4.511L12.061 11.662L19.502 5H19.501ZM20 18H23L19 22L15 18H18V14H20V18Z" />
</g>
</g>
<defs>
<clipPath id="clip0_8_1278">
<rect width="24" height="24" fill="white"/>
</clipPath>
</defs>
</svg>
