<svg width="24" height="24" viewBox="0 0 24 24"  xmlns="http://www.w3.org/2000/svg">
<g id="map-pin-user-fill" clip-path="url(#clip0_8_6375)">
<g id="Group">
<path id="Vector" d="M17.084 15.812C18.0244 14.8184 18.653 13.571 18.8922 12.224C19.1314 10.8769 18.9706 9.48938 18.4297 8.23277C17.8888 6.97615 16.9916 5.90556 15.8489 5.15334C14.7062 4.40112 13.3681 4.00023 12 4.00023C10.6319 4.00023 9.29384 4.40112 8.15112 5.15334C7.00841 5.90556 6.11117 6.97615 5.5703 8.23277C5.02943 9.48938 4.86863 10.8769 5.1078 12.224C5.34696 13.571 5.9756 14.8184 6.916 15.812C7.45567 14.9508 8.20536 14.241 9.09467 13.7491C9.98398 13.2572 10.9837 12.9994 12 13C13.0163 12.9994 14.016 13.2572 14.9053 13.7491C15.7946 14.241 16.5443 14.9508 17.084 15.812ZM12 23.728L5.636 17.364C4.37734 16.1053 3.52019 14.5017 3.17293 12.7558C2.82567 11.01 3.00391 9.20041 3.6851 7.55588C4.36629 5.91136 5.51984 4.50575 6.99988 3.51683C8.47992 2.5279 10.22 2.00006 12 2.00006C13.78 2.00006 15.5201 2.5279 17.0001 3.51683C18.4802 4.50575 19.6337 5.91136 20.3149 7.55588C20.9961 9.20041 21.1743 11.01 20.8271 12.7558C20.4798 14.5017 19.6227 16.1053 18.364 17.364L12 23.728ZM12 12C11.2044 12 10.4413 11.6839 9.87868 11.1213C9.31607 10.5587 9 9.79563 9 8.99998C9 8.20433 9.31607 7.44127 9.87868 6.87866C10.4413 6.31605 11.2044 5.99998 12 5.99998C12.7957 5.99998 13.5587 6.31605 14.1213 6.87866C14.6839 7.44127 15 8.20433 15 8.99998C15 9.79563 14.6839 10.5587 14.1213 11.1213C13.5587 11.6839 12.7957 12 12 12Z" />
</g>
</g>
<defs>
<clipPath id="clip0_8_6375">
<rect width="24" height="24" fill="white"/>
</clipPath>
</defs>
</svg>
