<svg width="24" height="24" viewBox="0 0 24 24" fill="none" xmlns="http://www.w3.org/2000/svg">
<g id="map-pin-3-line" clip-path="url(#clip0_8_5875)">
<g id="Group">
<path id="Vector" d="M11.0004 19.945C8.71644 19.6867 6.61777 18.5645 5.13477 16.8083C3.65176 15.0522 2.89681 12.7952 3.0247 10.5002C3.15259 8.20518 4.15364 6.04606 5.82258 4.46555C7.49152 2.88503 9.70189 2.00289 12.0004 2C14.3018 1.99833 16.5164 2.87834 18.189 4.45914C19.8616 6.03994 20.865 8.20142 20.9931 10.4992C21.1211 12.7971 20.364 15.0567 18.8775 16.8135C17.3909 18.5704 15.2878 19.691 13.0004 19.945V24H11.0004V19.945ZM12.0004 18C12.9197 18 13.83 17.8189 14.6792 17.4672C15.5285 17.1154 16.3002 16.5998 16.9502 15.9497C17.6002 15.2997 18.1158 14.5281 18.4676 13.6788C18.8194 12.8295 19.0004 11.9193 19.0004 11C19.0004 10.0807 18.8194 9.1705 18.4676 8.32122C18.1158 7.47194 17.6002 6.70026 16.9502 6.05025C16.3002 5.40024 15.5285 4.88463 14.6792 4.53285C13.83 4.18106 12.9197 4 12.0004 4C10.1439 4 8.36346 4.7375 7.0507 6.05025C5.73795 7.36301 5.00045 9.14349 5.00045 11C5.00045 12.8565 5.73795 14.637 7.0507 15.9497C8.36346 17.2625 10.1439 18 12.0004 18Z" />
</g>
</g>
<defs>
<clipPath id="clip0_8_5875">
<rect width="24" height="24" fill="white"/>
</clipPath>
</defs>
</svg>
