<svg width="24" height="24" viewBox="0 0 24 24" fill="none" xmlns="http://www.w3.org/2000/svg">
<g id="map-pin-5-fill" clip-path="url(#clip0_8_5999)">
<g id="Group">
<path id="Vector" d="M17.657 15.657L12 21.314L6.343 15.657C5.22422 14.5382 4.46234 13.1127 4.15369 11.5609C3.84504 10.009 4.00349 8.40053 4.60901 6.93874C5.21452 5.47696 6.2399 4.22755 7.55548 3.34852C8.87107 2.46949 10.4178 2.00031 12 2.00031C13.5822 2.00031 15.1289 2.46949 16.4445 3.34852C17.7601 4.22755 18.7855 5.47696 19.391 6.93874C19.9965 8.40053 20.155 10.009 19.8463 11.5609C19.5377 13.1127 18.7758 14.5382 17.657 15.657ZM5 22H19V24H5V22Z" fill="#121212"/>
</g>
</g>
<defs>
<clipPath id="clip0_8_5999">
<rect width="24" height="24" fill="white"/>
</clipPath>
</defs>
</svg>
