<svg width="24" height="24" viewBox="0 0 24 24" fill="none" xmlns="http://www.w3.org/2000/svg">
<g id="map-pin-4-fill" clip-path="url(#clip0_8_5995)">
<g id="Group">
<path id="Vector" d="M11 17.938C8.98272 17.6813 7.13886 16.6661 5.84319 15.0988C4.54753 13.5314 3.89728 11.5295 4.02462 9.49997C4.15197 7.47041 5.04734 5.56549 6.52875 4.17238C8.01016 2.77927 9.96645 2.00252 12 2C14.036 1.99849 15.9961 2.77334 17.4807 4.16668C18.9653 5.56002 19.8628 7.467 19.9903 9.49904C20.1178 11.5311 19.4657 13.5353 18.1669 15.1033C16.8681 16.6712 15.0203 17.685 13 17.938V21H11V17.938ZM5 22H19V24H5V22Z" />
</g>
</g>
<defs>
<clipPath id="clip0_8_5995">
<rect width="24" height="24" fill="white"/>
</clipPath>
</defs>
</svg>
