<svg width="24" height="24" viewBox="0 0 24 24"  xmlns="http://www.w3.org/2000/svg">
<g id="map-pin-time-fill" clip-path="url(#clip0_8_6251)">
<g id="Group">
<path id="Vector" d="M13 11V5.99998H11V13H17V11H13ZM18.364 17.364L12 23.728L5.636 17.364C4.37734 16.1053 3.52019 14.5017 3.17293 12.7558C2.82567 11.01 3.00391 9.20041 3.6851 7.55588C4.36629 5.91136 5.51984 4.50575 6.99988 3.51683C8.47992 2.5279 10.22 2.00006 12 2.00006C13.78 2.00006 15.5201 2.5279 17.0001 3.51683C18.4802 4.50575 19.6337 5.91136 20.3149 7.55588C20.9961 9.20041 21.1743 11.01 20.8271 12.7558C20.4798 14.5017 19.6227 16.1053 18.364 17.364Z" />
</g>
</g>
<defs>
<clipPath id="clip0_8_6251">
<rect width="24" height="24" fill="white"/>
</clipPath>
</defs>
</svg>
