<svg width="24" height="24" viewBox="0 0 24 24" fill="none" xmlns="http://www.w3.org/2000/svg">
<g id="markdown-fill" clip-path="url(#clip0_8_3791)">
<g id="Group">
<path id="Vector" d="M3 3H21C21.2652 3 21.5196 3.10536 21.7071 3.29289C21.8946 3.48043 22 3.73478 22 4V20C22 20.2652 21.8946 20.5196 21.7071 20.7071C21.5196 20.8946 21.2652 21 21 21H3C2.73478 21 2.48043 20.8946 2.29289 20.7071C2.10536 20.5196 2 20.2652 2 20V4C2 3.73478 2.10536 3.48043 2.29289 3.29289C2.48043 3.10536 2.73478 3 3 3ZM7 15.5V11.5L9 13.5L11 11.5V15.5H13V8.5H11L9 10.5L7 8.5H5V15.5H7ZM18 12.5V8.5H16V12.5H14L17 15.5L20 12.5H18Z" fill="currentColor"/>
</g>
</g>
<defs>
<clipPath id="clip0_8_3791">
<rect width="24" height="24" fill="white"/>
</clipPath>
</defs>
</svg>
