<svg width="24" height="24" viewBox="0 0 24 24"  xmlns="http://www.w3.org/2000/svg">
<g id="mastercard-line" clip-path="url(#clip0_8_5746)">
<g id="Group">
<path id="Vector" d="M12 18.294C10.8911 18.9455 9.62977 19.2925 8.34366 19.2998C7.05755 19.3072 5.79232 18.9746 4.67606 18.3358C3.55979 17.697 2.63212 16.7746 1.98693 15.662C1.34174 14.5494 1.00195 13.2861 1.00195 12C1.00195 10.7138 1.34174 9.45052 1.98693 8.33792C2.63212 7.22532 3.55979 6.30293 4.67606 5.66411C5.79232 5.02529 7.05755 4.69272 8.34366 4.70007C9.62977 4.70742 10.8911 5.05442 12 5.70595C13.1089 5.05442 14.3702 4.70742 15.6563 4.70007C16.9425 4.69272 18.2077 5.02529 19.3239 5.66411C20.4402 6.30293 21.3679 7.22532 22.0131 8.33792C22.6583 9.45052 22.9981 10.7138 22.9981 12C22.9981 13.2861 22.6583 14.5494 22.0131 15.662C21.3679 16.7746 20.4402 17.697 19.3239 18.3358C18.2077 18.9746 16.9425 19.3072 15.6563 19.2998C14.3702 19.2925 13.1089 18.9455 12 18.294ZM13.702 16.91C14.5067 17.237 15.3794 17.3612 16.2434 17.2718C17.1074 17.1823 17.9361 16.8819 18.6567 16.3969C19.3773 15.9119 19.9676 15.2573 20.3758 14.4905C20.784 13.7238 20.9975 12.8685 20.9975 12C20.9975 11.1314 20.784 10.2761 20.3758 9.50936C19.9676 8.74264 19.3773 8.088 18.6567 7.60302C17.9361 7.11805 17.1074 6.81761 16.2434 6.72814C15.3794 6.63867 14.5067 6.76292 13.702 7.08995C14.9255 8.43222 15.6026 10.1837 15.6 12C15.6 13.89 14.881 15.614 13.702 16.91ZM10.298 7.08995C9.49332 6.76292 8.6206 6.63867 7.75662 6.72814C6.89265 6.81761 6.0639 7.11805 5.34331 7.60302C4.62271 8.088 4.03236 8.74264 3.62418 9.50936C3.21601 10.2761 3.00253 11.1314 3.00253 12C3.00253 12.8685 3.21601 13.7238 3.62418 14.4905C4.03236 15.2573 4.62271 15.9119 5.34331 16.3969C6.0639 16.8819 6.89265 17.1823 7.75662 17.2718C8.6206 17.3612 9.49332 17.237 10.298 16.91C9.07446 15.5677 8.3974 13.8162 8.4 12C8.4 10.11 9.119 8.38595 10.298 7.08995ZM12 8.20495C11.4928 8.69819 11.0899 9.28826 10.815 9.94015C10.5402 10.592 10.3991 11.2925 10.4 12C10.4 13.488 11.013 14.832 12 15.795C12.5072 15.3017 12.9101 14.7116 13.185 14.0598C13.4598 13.4079 13.6009 12.7074 13.6 12C13.6009 11.2925 13.4598 10.592 13.185 9.94015C12.9101 9.28826 12.5072 8.69819 12 8.20495Z" />
</g>
</g>
<defs>
<clipPath id="clip0_8_5746">
<rect width="24" height="24" fill="white"/>
</clipPath>
</defs>
</svg>
