<svg width="24" height="24" viewBox="0 0 24 24" fill="none" xmlns="http://www.w3.org/2000/svg">
<g id="merge-cells-vertical" clip-path="url(#clip0_8_2612)">
<g id="Group">
<path id="Vector" d="M21 20C21 20.552 20.552 21 20 21H4C3.448 21 3 20.552 3 20V4C3 3.448 3.448 3 4 3H20C20.552 3 21 3.448 21 4V20ZM19 11V5H13.001V7H15L12 10L9 7H11V5H5V11H7V13H5V19H11V17H9L12 14L15 17H13.001V19H19V13H17V11H19ZM11 13H9V11H11V13ZM15 13H13V11H15V13Z" fill="currentColor"/>
</g>
</g>
<defs>
<clipPath id="clip0_8_2612">
<rect width="24" height="24" fill="white"/>
</clipPath>
</defs>
</svg>
