<svg width="24" height="24" viewBox="0 0 24 24" fill="none" xmlns="http://www.w3.org/2000/svg">
<g id="merge-cells-horizontal" clip-path="url(#clip0_8_2671)">
<g id="Group">
<path id="Vector" d="M20 3C20.552 3 21 3.448 21 4V20C21 20.552 20.552 21 20 21H4C3.448 21 3 20.552 3 20V4C3 3.448 3.448 3 4 3H20ZM11 5H5V10.999H7V9L10 12L7 15V13H5V19H11V17H13V19H19V13H17V15L14 12L17 9V10.999H19V5H13V7H11V5ZM13 13V15H11V13H13ZM13 9V11H11V9H13Z" />
</g>
</g>
<defs>
<clipPath id="clip0_8_2671">
<rect width="24" height="24" fill="white"/>
</clipPath>
</defs>
</svg>
