<svg width="24" height="24" viewBox="0 0 24 24" fill="none" xmlns="http://www.w3.org/2000/svg">
<g id="meteor-line" clip-path="url(#clip0_8_9524)">
<g id="Group">
<path id="Vector" d="M21 1V13C20.9998 14.5736 20.587 16.1197 19.8027 17.484C19.0185 18.8483 17.8902 19.9831 16.5305 20.7752C15.1708 21.5674 13.6272 21.9892 12.0536 21.9986C10.48 22.0079 8.93142 21.6045 7.56238 20.8286C6.19334 20.0527 5.05166 18.9314 4.25124 17.5766C3.45081 16.2217 3.01961 14.6807 3.00065 13.1072C2.98169 11.5336 3.37563 9.98265 4.14318 8.6089C4.91073 7.23516 6.02505 6.08667 7.375 5.278L14 1.453V4.223L21 1ZM19 4.122L12 7.346V4.916L8.597 6.881C7.54678 7.46485 6.66461 8.30931 6.03548 9.33305C5.40634 10.3568 5.05146 11.5253 5.005 12.726L5 13C4.9991 14.8363 5.71983 16.5995 7.0068 17.9093C8.29378 19.2192 10.0439 19.9709 11.88 20.0024C13.716 20.0339 15.4909 19.3426 16.8221 18.0776C18.1532 16.8127 18.9339 15.0753 18.996 13.24L19 13V4.122ZM12 8C13.3261 8 14.5979 8.52678 15.5355 9.46447C16.4732 10.4021 17 11.6739 17 13C17 14.3261 16.4732 15.5979 15.5355 16.5355C14.5979 17.4732 13.3261 18 12 18C10.6739 18 9.40215 17.4732 8.46447 16.5355C7.52678 15.5979 7 14.3261 7 13C7 11.6739 7.52678 10.4021 8.46447 9.46447C9.40215 8.52678 10.6739 8 12 8ZM12 10C11.2044 10 10.4413 10.3161 9.87868 10.8787C9.31607 11.4413 9 12.2044 9 13C9 13.7956 9.31607 14.5587 9.87868 15.1213C10.4413 15.6839 11.2044 16 12 16C12.7956 16 13.5587 15.6839 14.1213 15.1213C14.6839 14.5587 15 13.7956 15 13C15 12.2044 14.6839 11.4413 14.1213 10.8787C13.5587 10.3161 12.7956 10 12 10Z" fill="#121212"/>
</g>
</g>
<defs>
<clipPath id="clip0_8_9524">
<rect width="24" height="24" fill="white"/>
</clipPath>
</defs>
</svg>
