<svg width="24" height="24" viewBox="0 0 24 24"  xmlns="http://www.w3.org/2000/svg">
<g id="mic-2-fill" clip-path="url(#clip0_8_6952)">
<g id="Group">
<path id="Vector" d="M12.0004 1C12.657 1 13.3072 1.12933 13.9138 1.3806C14.5204 1.63188 15.0716 2.00017 15.5359 2.46447C16.0002 2.92876 16.3685 3.47995 16.6198 4.08658C16.8711 4.69321 17.0004 5.34339 17.0004 6V12C17.0004 13.3261 16.4736 14.5979 15.5359 15.5355C14.5982 16.4732 13.3265 17 12.0004 17C10.6743 17 9.40253 16.4732 8.46485 15.5355C7.52717 14.5979 7.00038 13.3261 7.00038 12V6C7.00038 4.67392 7.52717 3.40215 8.46485 2.46447C9.40253 1.52678 10.6743 1 12.0004 1ZM2.19238 13.962L4.15438 13.569C4.51877 15.3814 5.49941 17.0118 6.92969 18.1832C8.35997 19.3545 10.1517 19.9946 12.0004 19.9946C13.8491 19.9946 15.6408 19.3545 17.0711 18.1832C18.5014 17.0118 19.482 15.3814 19.8464 13.569L21.8084 13.962C20.8964 18.545 16.8504 22 12.0004 22C7.15038 22 3.10438 18.545 2.19238 13.962Z" />
</g>
</g>
<defs>
<clipPath id="clip0_8_6952">
<rect width="24" height="24" fill="white"/>
</clipPath>
</defs>
</svg>
