<svg width="24" height="24" viewBox="0 0 24 24" fill="none" xmlns="http://www.w3.org/2000/svg">
<g id="mic-fill" clip-path="url(#clip0_8_7244)">
<g id="Group">
<path id="Vector" d="M11.9997 1C12.6563 1 13.3065 1.12933 13.9131 1.3806C14.5197 1.63188 15.0709 2.00017 15.5352 2.46447C15.9995 2.92876 16.3678 3.47995 16.6191 4.08658C16.8704 4.69321 16.9997 5.34339 16.9997 6V10C16.9997 11.3261 16.4729 12.5979 15.5352 13.5355C14.5975 14.4732 13.3258 15 11.9997 15C10.6736 15 9.40184 14.4732 8.46415 13.5355C7.52647 12.5979 6.99969 11.3261 6.99969 10V6C6.99969 4.67392 7.52647 3.40215 8.46415 2.46447C9.40184 1.52678 10.6736 1 11.9997 1ZM3.05469 11H5.06969C5.31198 12.6648 6.14556 14.1867 7.41792 15.2873C8.69028 16.3879 10.3164 16.9936 11.9987 16.9936C13.681 16.9936 15.3071 16.3879 16.5795 15.2873C17.8518 14.1867 18.6854 12.6648 18.9277 11H20.9437C20.7163 13.0287 19.8063 14.9199 18.3629 16.3635C16.9195 17.8071 15.0284 18.7174 12.9997 18.945V23H10.9997V18.945C8.97082 18.7176 7.07947 17.8074 5.63586 16.3638C4.19226 14.9202 3.2821 13.0289 3.05469 11Z" fill="currentColor"/>
</g>
</g>
<defs>
<clipPath id="clip0_8_7244">
<rect width="24" height="24" fill="white"/>
</clipPath>
</defs>
</svg>
