<svg width="24" height="24" viewBox="0 0 24 24" fill="none" xmlns="http://www.w3.org/2000/svg">
<g id="mickey-line" clip-path="url(#clip0_8_8126)">
<g id="Group">
<path id="Vector" d="M18.4997 2C19.6168 1.9994 20.6942 2.41432 21.5223 3.16405C22.3504 3.91378 22.8701 4.94472 22.9802 6.05637C23.0903 7.16801 22.7831 8.28088 22.1181 9.17852C21.4532 10.0762 20.4782 10.6944 19.3827 10.913L19.3937 10.94C19.8889 12.1362 20.0863 13.4346 19.9692 14.7239C19.852 16.0131 19.4237 17.2547 18.721 18.342C18.0183 19.4293 17.0623 20.3298 15.935 20.9663C14.8076 21.6027 13.5427 21.9561 12.2487 21.996L11.9997 22C10.6815 22.0003 9.38364 21.6749 8.22152 21.0527C7.05941 20.4305 6.06906 19.5307 5.33853 18.4334C4.60801 17.3362 4.15994 16.0754 4.03419 14.7632C3.90844 13.451 4.10889 12.1281 4.61771 10.912C3.52145 10.6945 2.54537 10.0768 1.87958 9.17913C1.21379 8.28146 0.905952 7.16811 1.01602 6.05591C1.12609 4.94371 1.64619 3.9123 2.47503 3.16255C3.30386 2.41279 4.38209 1.99837 5.49971 2C6.65056 2.00007 7.75763 2.44106 8.59333 3.2323C9.42902 4.02354 9.9298 5.10488 9.99271 6.254L10.0657 6.235C10.6984 6.07835 11.3479 5.99943 11.9997 6L12.2497 6.004C12.8425 6.02199 13.4315 6.10584 14.0057 6.254C14.0686 5.10471 14.5696 4.02322 15.4055 3.23196C16.2414 2.44069 17.3487 1.99982 18.4997 2ZM11.9997 8C11.2118 8 10.4316 8.1552 9.70361 8.45673C8.97566 8.75826 8.31422 9.20021 7.75707 9.75736C7.19992 10.3145 6.75797 10.976 6.45644 11.7039C6.15491 12.4319 5.99971 13.2121 5.99971 14C5.99971 14.7879 6.15491 15.5682 6.45644 16.2961C6.75797 17.0241 7.19992 17.6855 7.75707 18.2426C8.31422 18.7998 8.97566 19.2418 9.70361 19.5433C10.4316 19.8448 11.2118 20 11.9997 20C13.591 20 15.1171 19.3679 16.2424 18.2426C17.3676 17.1174 17.9997 15.5913 17.9997 14C17.9997 12.4087 17.3676 10.8826 16.2424 9.75736C15.1171 8.63215 13.591 8 11.9997 8ZM5.49971 4C4.83667 4 4.20079 4.2634 3.73195 4.73224C3.26311 5.20108 2.99971 5.83696 2.99971 6.5C2.99971 7.16305 3.26311 7.79893 3.73195 8.26777C4.20079 8.73661 4.83667 9 5.49971 9L5.66371 8.995L5.76671 8.985C6.28629 8.33919 6.90257 7.77756 7.59371 7.32L7.92371 7.114C8.0172 6.74503 8.02519 6.35958 7.94709 5.98704C7.86899 5.61451 7.70686 5.26472 7.47305 4.96436C7.23924 4.664 6.93994 4.421 6.59796 4.25387C6.25598 4.08675 5.88035 3.99992 5.49971 4ZM18.4997 4C18.1361 3.99988 17.7769 4.07906 17.4471 4.23203C17.1172 4.38499 16.8247 4.60806 16.5899 4.88568C16.3552 5.16329 16.1838 5.48878 16.0877 5.83944C15.9916 6.1901 15.9732 6.55749 16.0337 6.916L16.0767 7.116L16.1047 7.132C16.9177 7.6191 17.6381 8.24608 18.2327 8.984C18.5714 9.02245 18.9143 8.99124 19.2405 8.8923C19.5666 8.79336 19.8691 8.62877 20.1293 8.40865C20.3895 8.18853 20.602 7.91753 20.7536 7.61229C20.9053 7.30706 20.9929 6.97404 21.0111 6.6337C21.0294 6.29336 20.9778 5.95288 20.8596 5.63319C20.7415 5.3135 20.5592 5.02135 20.324 4.77469C20.0888 4.52803 19.8056 4.33207 19.4919 4.19885C19.1782 4.06563 18.8405 3.99796 18.4997 4Z" />
</g>
</g>
<defs>
<clipPath id="clip0_8_8126">
<rect width="24" height="24" fill="white"/>
</clipPath>
</defs>
</svg>
