<svg width="24" height="24" viewBox="0 0 24 24"  xmlns="http://www.w3.org/2000/svg">
<g id="mickey-fill" clip-path="url(#clip0_8_7962)">
<g id="Group">
<path id="Vector" d="M18.4997 2C19.6168 1.9994 20.6942 2.41432 21.5223 3.16405C22.3504 3.91378 22.8701 4.94472 22.9802 6.05637C23.0903 7.16801 22.7831 8.28088 22.1181 9.17852C21.4532 10.0762 20.4782 10.6944 19.3827 10.913C19.8902 12.1288 20.0895 13.4512 19.963 14.7626C19.8366 16.074 19.3881 17.3338 18.6576 18.4303C17.9271 19.5267 16.9371 20.4257 15.7756 21.0475C14.6141 21.6693 13.317 21.9946 11.9995 21.9945C10.682 21.9944 9.3849 21.6689 8.22345 21.047C7.06201 20.425 6.07214 19.5259 5.34178 18.4294C4.61142 17.3328 4.16317 16.0729 4.03686 14.7615C3.91054 13.4501 4.11007 12.1278 4.61771 10.912C3.52145 10.6945 2.54537 10.0768 1.87958 9.17913C1.21379 8.28146 0.905952 7.16811 1.01602 6.05591C1.12609 4.94371 1.64619 3.9123 2.47503 3.16255C3.30386 2.41279 4.38209 1.99837 5.49971 2C6.65056 2.00007 7.75763 2.44106 8.59333 3.2323C9.42902 4.02354 9.9298 5.10488 9.99271 6.254C10.6483 6.08473 11.3227 5.99938 11.9997 6C12.6927 6 13.3647 6.08801 14.0057 6.254C14.0686 5.10471 14.5696 4.02322 15.4055 3.23196C16.2414 2.44069 17.3487 1.99982 18.4997 2Z" />
</g>
</g>
<defs>
<clipPath id="clip0_8_7962">
<rect width="24" height="24" fill="white"/>
</clipPath>
</defs>
</svg>
