<svg width="24" height="24" viewBox="0 0 24 24" fill="none" xmlns="http://www.w3.org/2000/svg">
<g id="microscope-fill" clip-path="url(#clip0_8_5045)">
<g id="Group">
<path id="Vector" d="M13.196 2.26796L16.446 7.89796C16.722 8.37496 16.558 8.98696 16.08 9.26296L14.78 10.013L15.781 11.745L14.049 12.745L13.049 11.012L11.75 11.763C11.272 12.039 10.66 11.875 10.384 11.397L8.546 8.21496C6.494 8.83696 5 10.745 5 13C5 13.625 5.115 14.224 5.324 14.776C6.1 14.284 7.016 14 8 14C9.684 14 11.174 14.833 12.08 16.109L19.768 11.67L20.768 13.402L12.89 17.951C12.962 18.289 13 18.641 13 19C13 19.343 12.966 19.677 12.9 20H21V22L4 22.001C3.372 21.165 3 20.126 3 19C3 17.993 3.298 17.055 3.81 16.27C3.293 15.295 3 14.182 3 13C3 10.005 4.881 7.44896 7.527 6.44996L7.134 5.76796C6.582 4.81096 6.909 3.58796 7.866 3.03596L10.464 1.53596C11.421 0.98396 12.644 1.31096 13.196 2.26796Z" fill="#121212"/>
</g>
</g>
<defs>
<clipPath id="clip0_8_5045">
<rect width="24" height="24" fill="white"/>
</clipPath>
</defs>
</svg>
