<svg width="24" height="24" viewBox="0 0 24 24"  xmlns="http://www.w3.org/2000/svg">
<g id="mind-map" clip-path="url(#clip0_8_2529)">
<g id="Group">
<path id="Vector" d="M18 3C19.657 3 21 4.343 21 6C21 7.657 19.657 9 18 9H15C13.694 9 12.583 8.166 12.171 7H11C9.9 7 9 7.9 9 9V9.171C10.166 9.583 11 10.694 11 12C11 13.306 10.166 14.417 9 14.829V15C9 16.1 9.9 17 11 17H12.17C12.582 15.835 13.694 15 15 15H18C19.657 15 21 16.343 21 18C21 19.657 19.657 21 18 21H15C13.694 21 12.583 20.166 12.171 19H11C8.79 19 7 17.21 7 15H5C3.343 15 2 13.657 2 12C2 10.343 3.343 9 5 9H7C7 6.79 8.79 5 11 5H12.17C12.582 3.835 13.694 3 15 3H18ZM18 17H15C14.448 17 14 17.448 14 18C14 18.552 14.448 19 15 19H18C18.552 19 19 18.552 19 18C19 17.448 18.552 17 18 17ZM8 11H5C4.448 11 4 11.448 4 12C4 12.552 4.448 13 5 13H8C8.552 13 9 12.552 9 12C9 11.448 8.552 11 8 11ZM18 5H15C14.448 5 14 5.448 14 6C14 6.552 14.448 7 15 7H18C18.552 7 19 6.552 19 6C19 5.448 18.552 5 18 5Z" />
</g>
</g>
<defs>
<clipPath id="clip0_8_2529">
<rect width="24" height="24" fill="white"/>
</clipPath>
</defs>
</svg>
