<svg width="24" height="24" viewBox="0 0 24 24" fill="none" xmlns="http://www.w3.org/2000/svg">
<g id="mini-program-line" clip-path="url(#clip0_8_5242)">
<g id="Group">
<path id="Vector" d="M12 22C6.477 22 2 17.523 2 12C2 6.477 6.477 2 12 2C17.523 2 22 6.477 22 12C22 17.523 17.523 22 12 22ZM12 20C14.1217 20 16.1566 19.1571 17.6569 17.6569C19.1571 16.1566 20 14.1217 20 12C20 9.87827 19.1571 7.84344 17.6569 6.34315C16.1566 4.84285 14.1217 4 12 4C9.87827 4 7.84344 4.84285 6.34315 6.34315C4.84285 7.84344 4 9.87827 4 12C4 14.1217 4.84285 16.1566 6.34315 17.6569C7.84344 19.1571 9.87827 20 12 20ZM13 14C12.9998 14.6274 12.831 15.2432 12.5113 15.783C12.1915 16.3228 11.7325 16.7667 11.1823 17.0682C10.6322 17.3698 10.0111 17.518 9.38402 17.4972C8.75697 17.4764 8.14704 17.2874 7.61806 16.9501C7.08908 16.6127 6.66051 16.1394 6.37719 15.5796C6.09387 15.0198 5.96623 14.3942 6.00763 13.7682C6.04902 13.1421 6.25793 12.5387 6.61248 12.0211C6.96704 11.5035 7.45421 11.0908 8.023 10.826C8.14204 10.7705 8.27085 10.739 8.40206 10.7333C8.53328 10.7276 8.66433 10.7478 8.78774 10.7928C8.91115 10.8377 9.0245 10.9065 9.12131 10.9953C9.21813 11.084 9.29652 11.191 9.352 11.31C9.40748 11.429 9.43898 11.5578 9.44468 11.6891C9.45038 11.8203 9.43019 11.9513 9.38525 12.0747C9.3403 12.1981 9.27149 12.3115 9.18274 12.4083C9.09399 12.5051 8.98704 12.5835 8.868 12.639C8.62412 12.7523 8.41518 12.9291 8.26306 13.1508C8.11094 13.3726 8.02123 13.6312 8.00333 13.8995C7.98543 14.1678 8.03999 14.436 8.1613 14.676C8.28261 14.916 8.46621 15.119 8.69288 15.2637C8.91955 15.4084 9.18096 15.4895 9.44972 15.4985C9.71849 15.5075 9.98474 15.4441 10.2206 15.3149C10.4565 15.1857 10.6532 14.9955 10.7904 14.7642C10.9275 14.5329 10.9999 14.2689 11 14V10C11.0002 9.37261 11.169 8.75679 11.4887 8.21701C11.8085 7.67723 12.2675 7.23332 12.8177 6.93175C13.3678 6.63019 13.9889 6.48205 14.616 6.50284C15.243 6.52363 15.853 6.71258 16.3819 7.04993C16.9109 7.38728 17.3395 7.86061 17.6228 8.42039C17.9061 8.98017 18.0338 9.60581 17.9924 10.2318C17.951 10.8579 17.7421 11.4613 17.3875 11.9789C17.033 12.4965 16.5458 12.9092 15.977 13.174C15.858 13.2295 15.7292 13.261 15.5979 13.2667C15.4667 13.2724 15.3357 13.2522 15.2123 13.2072C15.0889 13.1623 14.9755 13.0935 14.8787 13.0047C14.7819 12.916 14.7035 12.809 14.648 12.69C14.5359 12.4496 14.524 12.1745 14.6148 11.9253C14.7055 11.676 14.8916 11.4731 15.132 11.361C15.3759 11.2477 15.5848 11.0709 15.7369 10.8492C15.8891 10.6274 15.9788 10.3688 15.9967 10.1005C16.0146 9.83218 15.96 9.56397 15.8387 9.32397C15.7174 9.08397 15.5338 8.881 15.3071 8.7363C15.0804 8.5916 14.819 8.5105 14.5503 8.50148C14.2815 8.49247 14.0153 8.55588 13.7794 8.68506C13.5435 8.81425 13.3468 9.00447 13.2096 9.2358C13.0725 9.46714 13.0001 9.73108 13 10V14Z" fill="#121212"/>
</g>
</g>
<defs>
<clipPath id="clip0_8_5242">
<rect width="24" height="24" fill="white"/>
</clipPath>
</defs>
</svg>
