<svg width="24" height="24" viewBox="0 0 24 24" fill="none" xmlns="http://www.w3.org/2000/svg">
<g id="mini-program-fill" clip-path="url(#clip0_8_5386)">
<g id="Group">
<path id="Vector" d="M15.84 12.691L15.773 12.711C15.6385 12.7506 15.4992 12.7715 15.359 12.773C14.749 12.773 14.405 12.361 14.589 11.852C14.725 11.48 15.08 11.166 15.514 11.021C16.186 10.776 16.656 10.217 16.656 9.566C16.656 8.689 15.803 7.979 14.751 7.979C13.699 7.979 12.847 8.689 12.847 9.566V14.434C12.847 15.604 12.168 16.631 11.153 17.212C10.5729 17.5425 9.91658 17.7155 9.249 17.714C7.265 17.714 5.651 16.243 5.651 14.434C5.651 13.858 5.815 13.317 6.102 12.847C6.546 12.117 7.286 11.56 8.172 11.306C8.32078 11.2586 8.47586 11.234 8.632 11.233C9.244 11.233 9.59 11.647 9.405 12.157C9.279 12.504 8.939 12.802 8.544 12.96C8.49709 12.9757 8.45072 12.9931 8.405 13.012C7.777 13.272 7.344 13.81 7.344 14.434C7.344 15.311 8.197 16.021 9.249 16.021C10.301 16.021 11.153 15.311 11.153 14.434V9.566C11.153 8.396 11.832 7.369 12.847 6.788C13.4271 6.45755 14.0834 6.28449 14.751 6.286C16.735 6.286 18.349 7.757 18.349 9.566C18.349 10.142 18.185 10.683 17.898 11.153C17.456 11.879 16.72 12.435 15.84 12.691ZM2 12C2 17.523 6.477 22 12 22C17.523 22 22 17.523 22 12C22 6.477 17.523 2 12 2C6.477 2 2 6.477 2 12Z" />
</g>
</g>
<defs>
<clipPath id="clip0_8_5386">
<rect width="24" height="24" fill="white"/>
</clipPath>
</defs>
</svg>
