<svg width="24" height="24" viewBox="0 0 24 24" fill="none" xmlns="http://www.w3.org/2000/svg">
<g id="money-euro-box-line" clip-path="url(#clip0_8_3230)">
<g id="Group">
<path id="Vector" d="M3 3H21C21.2652 3 21.5196 3.10536 21.7071 3.29289C21.8946 3.48043 22 3.73478 22 4V20C22 20.2652 21.8946 20.5196 21.7071 20.7071C21.5196 20.8946 21.2652 21 21 21H3C2.73478 21 2.48043 20.8946 2.29289 20.7071C2.10536 20.5196 2 20.2652 2 20V4C2 3.73478 2.10536 3.48043 2.29289 3.29289C2.48043 3.10536 2.73478 3 3 3ZM4 5V19H20V5H4ZM10.05 11H15V13H10.05C10.1366 13.4253 10.3325 13.8208 10.6184 14.1474C10.9042 14.4741 11.2702 14.7207 11.6803 14.8629C12.0903 15.0052 12.5304 15.0383 12.9571 14.9589C13.3839 14.8794 13.7826 14.6903 14.114 14.41L15.814 15.543C15.2298 16.1789 14.475 16.6333 13.6397 16.852C12.8043 17.0707 11.9237 17.0445 11.1029 16.7764C10.282 16.5083 9.55568 16.0097 9.01045 15.3401C8.46523 14.6705 8.12418 13.8581 8.028 13H7V11H8.027C8.12285 10.1414 8.46382 9.32861 9.00916 8.6586C9.55451 7.98859 10.2812 7.48972 11.1024 7.22157C11.9236 6.95342 12.8047 6.92732 13.6404 7.14639C14.476 7.36546 15.2309 7.82045 15.815 8.457L14.114 9.59C13.7826 9.30972 13.3839 9.12056 12.9571 9.04114C12.5304 8.96172 12.0903 8.99478 11.6803 9.13706C11.2702 9.27933 10.9042 9.52593 10.6184 9.85258C10.3325 10.1792 10.1366 10.5747 10.05 11Z" fill="#121212"/>
</g>
</g>
<defs>
<clipPath id="clip0_8_3230">
<rect width="24" height="24" fill="white"/>
</clipPath>
</defs>
</svg>
