<svg width="24" height="24" viewBox="0 0 24 24"  xmlns="http://www.w3.org/2000/svg">
<g id="moon-cloudy-fill" clip-path="url(#clip0_8_9484)">
<g id="Group">
<path id="Vector" d="M8.67033 5.00694C9.32663 3.61857 10.4213 2.48455 11.7856 1.77962C13.1499 1.07469 14.7082 0.837969 16.2203 1.10594C15.9626 1.89582 15.9285 2.74164 16.122 3.54968C16.3154 4.35772 16.7288 5.09642 17.3163 5.68394C17.9038 6.27145 18.6425 6.68484 19.4506 6.87829C20.2586 7.07174 21.1044 7.0377 21.8943 6.77994C21.9643 7.17594 22.0003 7.58394 22.0003 7.99994C22.0021 9.17935 21.7044 10.3399 21.1353 11.3729C21.9738 12.1115 22.5673 13.088 22.8371 14.1723C23.1068 15.2567 23.0398 16.3974 22.6451 17.4428C22.2504 18.4881 21.5467 19.3884 20.6276 20.0239C19.7085 20.6594 18.6177 20.9998 17.5003 20.9999H9.00033C6.90796 20.9987 4.89934 20.1779 3.40506 18.7133C1.91077 17.2486 1.04975 15.2569 1.00659 13.165C0.963423 11.0731 1.74154 9.04749 3.17414 7.52249C4.60675 5.99749 6.57979 5.09444 8.67033 5.00694ZM10.8473 5.21394C12.1076 5.51424 13.2762 6.11552 14.2533 6.96629C15.2303 7.81706 15.9866 8.89196 16.4573 10.0989C17.4479 9.9091 18.4715 9.99383 19.4173 10.3439C19.6433 9.91894 19.8103 9.45894 19.9053 8.97394C18.3931 8.83456 16.9774 8.17023 15.9037 7.09621C14.83 6.02218 14.1662 4.60622 14.0273 3.09394C12.7285 3.35193 11.585 4.11429 10.8473 5.21394Z" />
</g>
</g>
<defs>
<clipPath id="clip0_8_9484">
<rect width="24" height="24" fill="white"/>
</clipPath>
</defs>
</svg>
