<svg width="24" height="24" viewBox="0 0 24 24" fill="none" xmlns="http://www.w3.org/2000/svg">
<g id="motorbike-line" clip-path="url(#clip0_8_6411)">
<g id="Group">
<path id="Vector" d="M4 13.256V12H2V10H8.365L11.2 8H14.691L13.6 5H11V3H15L16.092 6H20V9H17.184L18.64 13.002C19.7448 13.0371 20.798 13.4776 21.5988 14.2395C22.3996 15.0014 22.892 16.0313 22.982 17.133C23.0721 18.2346 22.7536 19.3309 22.0872 20.2127C21.4209 21.0946 20.4532 21.7003 19.3688 21.9145C18.2845 22.1286 17.1592 21.9362 16.2076 21.3738C15.256 20.8115 14.5447 19.9186 14.2093 18.8654C13.8738 17.8122 13.9377 16.6724 14.3888 15.6633C14.8398 14.6542 15.6465 13.8464 16.655 13.394L15.419 10H14.472L12.89 15.87L12.888 15.869L12.89 15.875L9.965 16.939C10.0706 17.7812 9.93577 18.6362 9.57617 19.4051C9.21657 20.174 8.64683 20.8255 7.93273 21.2844C7.21864 21.7433 6.38931 21.9908 5.54052 21.9985C4.69172 22.0061 3.85806 21.7736 3.13581 21.3276C2.41356 20.8817 1.83216 20.2405 1.45875 19.4783C1.08534 18.716 0.935149 17.8636 1.02551 17.0196C1.11588 16.1756 1.44311 15.3744 1.96944 14.7084C2.49576 14.0424 3.19971 13.5389 4 13.256ZM6 13.027C6.66345 13.1013 7.30206 13.3222 7.86954 13.6739C8.43702 14.0255 8.91916 14.499 9.281 15.06L11.238 14.347L12.403 10H11.856L9 12H6V13.027ZM5.5 20C6.16304 20 6.79893 19.7366 7.26777 19.2678C7.73661 18.7989 8 18.163 8 17.5C8 16.837 7.73661 16.2011 7.26777 15.7322C6.79893 15.2634 6.16304 15 5.5 15C4.83696 15 4.20108 15.2634 3.73224 15.7322C3.2634 16.2011 3 16.837 3 17.5C3 18.163 3.2634 18.7989 3.73224 19.2678C4.20108 19.7366 4.83696 20 5.5 20ZM18.5 20C19.163 20 19.7989 19.7366 20.2678 19.2678C20.7366 18.7989 21 18.163 21 17.5C21 16.837 20.7366 16.2011 20.2678 15.7322C19.7989 15.2634 19.163 15 18.5 15C17.837 15 17.2011 15.2634 16.7322 15.7322C16.2634 16.2011 16 16.837 16 17.5C16 18.163 16.2634 18.7989 16.7322 19.2678C17.2011 19.7366 17.837 20 18.5 20Z" fill="#121212"/>
</g>
</g>
<defs>
<clipPath id="clip0_8_6411">
<rect width="24" height="24" fill="white"/>
</clipPath>
</defs>
</svg>
