<svg width="24" height="24" viewBox="0 0 24 24"  xmlns="http://www.w3.org/2000/svg">
<g id="mouse-fill" clip-path="url(#clip0_8_2152)">
<g id="Group">
<path id="Vector" d="M11.141 2H12.859C14.873 2 15.953 2.278 16.931 2.801C17.8973 3.31249 18.6875 4.10269 19.199 5.069C19.722 6.047 20 7.127 20 9.141V14.859C20 16.873 19.722 17.953 19.199 18.931C18.6875 19.8973 17.8973 20.6875 16.931 21.199C15.953 21.722 14.873 22 12.859 22H11.14C9.126 22 8.046 21.722 7.068 21.199C6.10169 20.6875 5.31149 19.8973 4.8 18.931C4.278 17.953 4 16.873 4 14.859V9.14C4 7.126 4.278 6.046 4.801 5.068C5.31292 4.10192 6.10347 3.31206 7.07 2.801C8.047 2.278 9.127 2 11.141 2ZM11 6V11H13V6H11Z" />
</g>
</g>
<defs>
<clipPath id="clip0_8_2152">
<rect width="24" height="24" fill="white"/>
</clipPath>
</defs>
</svg>
