<svg width="24" height="24" viewBox="0 0 24 24" fill="none" xmlns="http://www.w3.org/2000/svg">
<g id="mv-fill" clip-path="url(#clip0_8_7060)">
<g id="Group">
<path id="Vector" d="M2 3.993C2.00183 3.73038 2.1069 3.47902 2.29251 3.29322C2.47813 3.10742 2.72938 3.00209 2.992 3H21.008C21.556 3 22 3.445 22 3.993V20.007C21.9982 20.2696 21.8931 20.521 21.7075 20.7068C21.5219 20.8926 21.2706 20.9979 21.008 21H2.992C2.72881 20.9997 2.4765 20.895 2.29049 20.7088C2.10448 20.5226 2 20.2702 2 20.007V3.993ZM12 12.171C11.3996 11.9587 10.7473 11.943 10.1374 12.1261C9.52744 12.3092 8.99162 12.6817 8.60744 13.1895C8.22326 13.6974 8.01065 14.3143 8.00039 14.9511C7.99013 15.5878 8.18274 16.2113 8.55035 16.7312C8.91795 17.2512 9.44149 17.6407 10.0452 17.8434C10.6489 18.0461 11.3014 18.0514 11.9083 17.8586C12.5152 17.6658 13.045 17.2849 13.4211 16.771C13.7971 16.2571 13.9999 15.6368 14 15V7.999H17V6H12V12.17V12.171Z" fill="currentColor"/>
</g>
</g>
<defs>
<clipPath id="clip0_8_7060">
<rect width="24" height="24" fill="white"/>
</clipPath>
</defs>
</svg>
