<svg width="24" height="24" viewBox="0 0 24 24" fill="none" xmlns="http://www.w3.org/2000/svg">
<g id="notification-off-fill" clip-path="url(#clip0_8_6648)">
<g id="Group">
<path id="Vector" d="M18.5856 20.0001H3.99958C3.90672 20.0001 3.8157 19.9742 3.73671 19.9254C3.65772 19.8766 3.59389 19.8067 3.55236 19.7237C3.51084 19.6406 3.49326 19.5476 3.5016 19.4552C3.50994 19.3627 3.54386 19.2744 3.59958 19.2001L3.99958 18.6671V10.0001C3.99958 8.67007 4.32358 7.41607 4.89858 6.31307L1.39258 2.80807L2.80758 1.39307L22.6066 21.1931L21.1916 22.6071L18.5856 20.0001ZM19.9996 15.7861L7.55858 3.34507C8.76332 2.54101 10.1638 2.07912 11.6105 2.00867C13.0572 1.93822 14.4959 2.26186 15.773 2.94505C17.0502 3.62824 18.1179 4.64535 18.8623 5.88785C19.6067 7.13036 19.9997 8.55165 19.9996 10.0001V15.7861ZM9.49958 21.0001H14.4996C14.4996 21.6631 14.2362 22.299 13.7673 22.7678C13.2985 23.2367 12.6626 23.5001 11.9996 23.5001C11.3365 23.5001 10.7007 23.2367 10.2318 22.7678C9.76297 22.299 9.49958 21.6631 9.49958 21.0001Z" fill="#121212"/>
</g>
</g>
<defs>
<clipPath id="clip0_8_6648">
<rect width="24" height="24" fill="white"/>
</clipPath>
</defs>
</svg>
