<svg width="24" height="24" viewBox="0 0 24 24"  xmlns="http://www.w3.org/2000/svg">
<g id="number-9" clip-path="url(#clip0_8_2616)">
<g id="Group">
<path id="Vector" d="M12 1.5C13.1431 1.49975 14.266 1.80094 15.2555 2.37319C16.245 2.94544 17.0661 3.76852 17.636 4.7594C18.2059 5.75028 18.5044 6.87392 18.5014 8.01698C18.4984 9.16005 18.1941 10.2821 17.619 11.27L11.423 21.999H9.114L13.553 14.313C12.6603 14.5319 11.7313 14.559 10.8273 14.3924C9.92332 14.2258 9.06496 13.8695 8.30886 13.3468C7.55277 12.8241 6.91612 12.147 6.44096 11.3601C5.9658 10.5733 5.66292 9.69461 5.55232 8.78211C5.44172 7.8696 5.52591 6.94402 5.79934 6.06645C6.07277 5.18888 6.52922 4.37928 7.13855 3.69109C7.74788 3.0029 8.49625 2.45177 9.33425 2.07408C10.1722 1.69638 11.0808 1.50072 12 1.5ZM12 3.5C10.8065 3.5 9.66193 3.97411 8.81802 4.81802C7.97411 5.66193 7.5 6.80653 7.5 8C7.5 9.19347 7.97411 10.3381 8.81802 11.182C9.66193 12.0259 10.8065 12.5 12 12.5C13.1935 12.5 14.3381 12.0259 15.182 11.182C16.0259 10.3381 16.5 9.19347 16.5 8C16.5 6.80653 16.0259 5.66193 15.182 4.81802C14.3381 3.97411 13.1935 3.5 12 3.5Z" />
</g>
</g>
<defs>
<clipPath id="clip0_8_2616">
<rect width="24" height="24" fill="white"/>
</clipPath>
</defs>
</svg>
