<svg width="24" height="24" viewBox="0 0 24 24" fill="none" xmlns="http://www.w3.org/2000/svg">
<g id="number-6" clip-path="url(#clip0_8_2667)">
<g id="Group">
<path id="Vector" d="M14.886 2L10.448 9.686C11.905 9.32742 13.4412 9.48395 14.7959 10.129C16.1506 10.7741 17.2404 11.868 17.8804 13.2251C18.5204 14.5823 18.6712 16.119 18.3072 17.5746C17.9432 19.0303 17.0867 20.3151 15.8832 21.2112C14.6797 22.1073 13.2033 22.5594 11.7044 22.4909C10.2055 22.4223 8.77646 21.8373 7.65979 20.8351C6.54312 19.8329 5.80757 18.4752 5.57795 16.9924C5.34833 15.5096 5.63877 13.993 6.40001 12.7L12.576 2H14.886ZM12 11.5C10.8065 11.5 9.66194 11.9741 8.81803 12.818C7.97411 13.6619 7.50001 14.8065 7.50001 16C7.50001 17.1935 7.97411 18.3381 8.81803 19.182C9.66194 20.0259 10.8065 20.5 12 20.5C13.1935 20.5 14.3381 20.0259 15.182 19.182C16.0259 18.3381 16.5 17.1935 16.5 16C16.5 14.8065 16.0259 13.6619 15.182 12.818C14.3381 11.9741 13.1935 11.5 12 11.5Z" fill="#121212"/>
</g>
</g>
<defs>
<clipPath id="clip0_8_2667">
<rect width="24" height="24" fill="white"/>
</clipPath>
</defs>
</svg>
