<svg width="24" height="24" viewBox="0 0 24 24" fill="none" xmlns="http://www.w3.org/2000/svg">
<g id="number-3" clip-path="url(#clip0_8_2770)">
<g id="Group">
<path id="Vector" d="M18 2V3.362L12.809 9.55C13.9833 9.69734 15.0952 10.1625 16.0246 10.8952C16.954 11.628 17.6658 12.6005 18.0831 13.7081C18.5004 14.8156 18.6075 16.016 18.3928 17.1799C18.1781 18.3438 17.6497 19.427 16.8646 20.3127C16.0795 21.1984 15.0676 21.8529 13.9379 22.2058C12.8081 22.5586 11.6035 22.5964 10.4539 22.315C9.30435 22.0336 8.25338 21.4437 7.41439 20.6089C6.57539 19.7741 5.9802 18.7262 5.69299 17.578L7.63299 17.092C7.90154 18.1556 8.54917 19.0845 9.45424 19.7043C10.3593 20.3242 11.4595 20.5922 12.5483 20.4581C13.637 20.324 14.6393 19.7971 15.367 18.9762C16.0946 18.1553 16.4975 17.097 16.5 16C16.5002 15.2335 16.3047 14.4797 15.9319 13.81C15.5591 13.1403 15.0215 12.5769 14.3699 12.1733C13.7183 11.7696 12.9745 11.5391 12.2088 11.5035C11.4432 11.4679 10.6812 11.6285 9.99499 11.97L9.76699 12.092L9.07699 10.885L14.855 4H6.49999V2H18Z" fill="currentColor"/>
</g>
</g>
<defs>
<clipPath id="clip0_8_2770">
<rect width="24" height="24" fill="white"/>
</clipPath>
</defs>
</svg>
