<svg width="24" height="24" viewBox="0 0 24 24" fill="none" xmlns="http://www.w3.org/2000/svg">
<g id="number-8" clip-path="url(#clip0_8_2588)">
<g id="Group">
<path id="Vector" d="M12 1.5C13.1486 1.50014 14.2684 1.85991 15.2022 2.52881C16.136 3.19772 16.8369 4.1422 17.2066 5.22972C17.5764 6.31725 17.5963 7.49323 17.2637 8.59267C16.9311 9.6921 16.2626 10.6598 15.352 11.36C17.24 12.41 18.5 14.32 18.5 16.5C18.5 19.814 15.59 22.5 12 22.5C8.41 22.5 5.5 19.814 5.5 16.5C5.5 14.319 6.761 12.41 8.647 11.359C7.73677 10.6586 7.06863 9.69091 6.73628 8.59156C6.40394 7.49222 6.42408 6.31641 6.79387 5.22909C7.16366 4.14177 7.86456 3.19749 8.79823 2.52871C9.73191 1.85993 10.8515 1.5002 12 1.5ZM12 12.5C9.48 12.5 7.5 14.328 7.5 16.5C7.5 18.672 9.48 20.5 12 20.5C14.52 20.5 16.5 18.672 16.5 16.5C16.5 14.328 14.52 12.5 12 12.5ZM12 3.5C11.0717 3.5 10.1815 3.86875 9.52513 4.52513C8.86875 5.1815 8.5 6.07174 8.5 7C8.5 7.92826 8.86875 8.8185 9.52513 9.47487C10.1815 10.1313 11.0717 10.5 12 10.5C12.9283 10.5 13.8185 10.1313 14.4749 9.47487C15.1313 8.8185 15.5 7.92826 15.5 7C15.5 6.07174 15.1313 5.1815 14.4749 4.52513C13.8185 3.86875 12.9283 3.5 12 3.5Z" fill="#121212"/>
</g>
</g>
<defs>
<clipPath id="clip0_8_2588">
<rect width="24" height="24" fill="white"/>
</clipPath>
</defs>
</svg>
