<svg width="24" height="24" viewBox="0 0 24 24" fill="none" xmlns="http://www.w3.org/2000/svg">
<g id="omega" clip-path="url(#clip0_8_2506)">
<g id="Group">
<path id="Vector" d="M14 20V17.843C15.863 16.651 17.5 13.968 17.5 10.884C17.5 7.811 15.5 4.855 12 4.855C8.5 4.855 6.5 7.811 6.5 10.885C6.5 13.968 8.137 16.651 10 17.843V20H3V18H7.76C5.666 16.505 4 13.989 4 10.884C4 6.247 7.5 3 12 3C16.5 3 20 6.247 20 10.884C20 13.989 18.334 16.505 16.24 18H21V20H14Z" />
</g>
</g>
<defs>
<clipPath id="clip0_8_2506">
<rect width="24" height="24" fill="white"/>
</clipPath>
</defs>
</svg>
