<svg width="24" height="24" viewBox="0 0 24 24" fill="none" xmlns="http://www.w3.org/2000/svg">
<g id="open-source-line" clip-path="url(#clip0_8_5218)">
<g id="Group">
<path id="Vector" d="M12 2C17.523 2 22 6.477 22 12C22 16.4 19.159 20.136 15.211 21.473L14.985 21.547L12.081 13.997C13.15 13.95 14 13.054 14 12C14 10.895 13.105 10 12 10C10.895 10 10 10.895 10 12C10 13.077 10.851 13.955 11.917 13.998L9.014 21.547L8.789 21.473C4.84 20.136 2 16.4 2 12C2 6.477 6.477 2 12 2ZM12 4C7.582 4 4 7.582 4 12C4 14.92 5.564 17.475 7.901 18.872L9.381 15.023C8.534 14.29 8 13.207 8 12C8 9.79 9.79 8 12 8C14.21 8 16 9.79 16 12C16 13.207 15.465 14.29 14.62 15.023C15.185 16.497 15.679 17.78 16.099 18.873C18.435 17.475 20 14.92 20 12C20 7.582 16.418 4 12 4Z" />
</g>
</g>
<defs>
<clipPath id="clip0_8_5218">
<rect width="24" height="24" fill="white"/>
</clipPath>
</defs>
</svg>
