<svg width="24" height="24" viewBox="0 0 24 24" fill="none" xmlns="http://www.w3.org/2000/svg">
<g id="page-separator" clip-path="url(#clip0_8_2537)">
<g id="Group">
<path id="Vector" d="M17 21V17H7V21H5V16C5 15.7348 5.10536 15.4804 5.29289 15.2929C5.48043 15.1054 5.73478 15 6 15H18C18.2652 15 18.5196 15.1054 18.7071 15.2929C18.8946 15.4804 19 15.7348 19 16V21H17ZM7 3V7H17V3H19V8C19 8.26522 18.8946 8.51957 18.7071 8.70711C18.5196 8.89464 18.2652 9 18 9H6C5.73478 9 5.48043 8.89464 5.29289 8.70711C5.10536 8.51957 5 8.26522 5 8V3H7ZM2 9L6 12L2 15V9ZM22 9V15L18 12L22 9Z" fill="#121212"/>
</g>
</g>
<defs>
<clipPath id="clip0_8_2537">
<rect width="24" height="24" fill="white"/>
</clipPath>
</defs>
</svg>
