<svg width="24" height="24" viewBox="0 0 24 24"  xmlns="http://www.w3.org/2000/svg">
<g id="paint-line" clip-path="url(#clip0_8_4712)">
<g id="Group">
<path id="Vector" d="M19.228 18.732L20.996 16.964L22.763 18.732C23.1127 19.0816 23.3509 19.527 23.4474 20.012C23.5439 20.497 23.4945 20.9997 23.3053 21.4565C23.1161 21.9134 22.7956 22.3039 22.3845 22.5786C21.9734 22.8533 21.49 23 20.9955 23C20.501 23 20.0176 22.8533 19.6065 22.5786C19.1954 22.3039 18.8749 21.9134 18.6857 21.4565C18.4965 20.9997 18.4471 20.497 18.5436 20.012C18.6401 19.527 18.8783 19.0816 19.228 18.732ZM8.878 1.07996L20.192 12.393C20.285 12.4858 20.3587 12.5961 20.4091 12.7175C20.4594 12.8389 20.4853 12.969 20.4853 13.1005C20.4853 13.2319 20.4594 13.362 20.4091 13.4834C20.3587 13.6048 20.285 13.7151 20.192 13.808L11.707 22.293C11.5195 22.4804 11.2652 22.5857 11 22.5857C10.7348 22.5857 10.4805 22.4804 10.293 22.293L1.808 13.808C1.71502 13.7151 1.64126 13.6048 1.59094 13.4834C1.54061 13.362 1.51471 13.2319 1.51471 13.1005C1.51471 12.969 1.54061 12.8389 1.59094 12.7175C1.64126 12.5961 1.71502 12.4858 1.808 12.393L9.586 4.61496L7.464 2.49396L8.88 1.07996H8.878ZM11 6.02996L3.929 13.1L11 20.173L18.071 13.102L11 6.02896V6.02996Z" />
</g>
</g>
<defs>
<clipPath id="clip0_8_4712">
<rect width="24" height="24" fill="white"/>
</clipPath>
</defs>
</svg>
