<svg width="24" height="24" viewBox="0 0 24 24" fill="none" xmlns="http://www.w3.org/2000/svg">
<g id="pantone-fill" clip-path="url(#clip0_8_4488)">
<g id="Group">
<path id="Vector" d="M3.99999 18.922L2.64999 18.377C2.40414 18.2776 2.20787 18.0845 2.10435 17.8404C2.00083 17.5962 1.99854 17.3209 2.09799 17.075L3.99999 12.367V18.922ZM8.85999 21H6.99999C6.73478 21 6.48042 20.8947 6.29289 20.7071C6.10535 20.5196 5.99999 20.2653 5.99999 20V13.922L8.85999 21ZM6.02199 5.96804L15.294 2.22204C15.5397 2.1229 15.8148 2.12535 16.0587 2.22885C16.3026 2.33235 16.4955 2.52843 16.595 2.77404L22.215 16.682C22.2642 16.8038 22.2889 16.9341 22.2878 17.0655C22.2866 17.1969 22.2596 17.3267 22.2082 17.4476C22.1569 17.5685 22.0822 17.6781 21.9885 17.7702C21.8948 17.8622 21.7838 17.9349 21.662 17.984L12.39 21.73C12.2682 21.7793 12.1379 21.804 12.0065 21.8028C11.8752 21.8017 11.7453 21.7746 11.6244 21.7233C11.5035 21.6719 11.3939 21.5973 11.3019 21.5035C11.2098 21.4098 11.1371 21.2989 11.088 21.177L5.46999 7.27004C5.37091 7.02417 5.37351 6.74903 5.4772 6.50507C5.5809 6.26112 5.77721 6.06831 6.02299 5.96904L6.02199 5.96804ZM8.99999 9.00004C9.26521 9.00004 9.51956 8.89468 9.7071 8.70714C9.89464 8.51961 9.99999 8.26525 9.99999 8.00004C9.99999 7.73482 9.89464 7.48047 9.7071 7.29293C9.51956 7.10539 9.26521 7.00004 8.99999 7.00004C8.73478 7.00004 8.48042 7.10539 8.29289 7.29293C8.10535 7.48047 7.99999 7.73482 7.99999 8.00004C7.99999 8.26525 8.10535 8.51961 8.29289 8.70714C8.48042 8.89468 8.73478 9.00004 8.99999 9.00004Z" fill="currentColor"/>
</g>
</g>
<defs>
<clipPath id="clip0_8_4488">
<rect width="24" height="24" fill="white"/>
</clipPath>
</defs>
</svg>
