<svg width="24" height="24" viewBox="0 0 24 24" fill="none" xmlns="http://www.w3.org/2000/svg">
<g id="paragraph" clip-path="url(#clip0_8_2604)">
<g id="Group">
<path id="Vector" d="M12 6V21H10V16C8.4087 16 6.88258 15.3679 5.75736 14.2426C4.63214 13.1174 4 11.5913 4 10C4 8.4087 4.63214 6.88258 5.75736 5.75736C6.88258 4.63214 8.4087 4 10 4H20V6H17V21H15V6H12ZM10 6C8.93913 6 7.92172 6.42143 7.17157 7.17157C6.42143 7.92172 6 8.93913 6 10C6 11.0609 6.42143 12.0783 7.17157 12.8284C7.92172 13.5786 8.93913 14 10 14V6Z" fill="currentColor"/>
</g>
</g>
<defs>
<clipPath id="clip0_8_2604">
<rect width="24" height="24" fill="white"/>
</clipPath>
</defs>
</svg>
