<svg width="24" height="24" viewBox="0 0 24 24"  xmlns="http://www.w3.org/2000/svg">
<g id="parentheses-fill" clip-path="url(#clip0_8_2465)">
<g id="Group">
<path id="Vector" d="M6.923 21C5.113 18.664 4 15.493 4 12C4 8.507 5.113 5.336 6.923 3H8.937C7.235 5.388 6.2 8.542 6.2 12C6.2 15.458 7.235 18.612 8.937 21H6.923ZM17.074 21H15.06C16.762 18.612 17.797 15.458 17.797 12C17.797 8.542 16.762 5.388 15.06 3H17.074C18.884 5.336 19.997 8.507 19.997 12C19.997 15.493 18.885 18.664 17.074 21Z" />
</g>
</g>
<defs>
<clipPath id="clip0_8_2465">
<rect width="24" height="24" fill="white"/>
</clipPath>
</defs>
</svg>
