<svg width="24" height="24" viewBox="0 0 24 24" fill="none" xmlns="http://www.w3.org/2000/svg">
<g id="parking-line" clip-path="url(#clip0_8_6283)">
<g id="Group">
<path id="Vector" d="M6 3H13C14.5913 3 16.1174 3.63214 17.2426 4.75736C18.3679 5.88258 19 7.4087 19 9C19 10.5913 18.3679 12.1174 17.2426 13.2426C16.1174 14.3679 14.5913 15 13 15H8V21H6V3ZM8 5V13H13C14.0609 13 15.0783 12.5786 15.8284 11.8284C16.5786 11.0783 17 10.0609 17 9C17 7.93913 16.5786 6.92172 15.8284 6.17157C15.0783 5.42143 14.0609 5 13 5H8Z" />
</g>
</g>
<defs>
<clipPath id="clip0_8_6283">
<rect width="24" height="24" fill="white"/>
</clipPath>
</defs>
</svg>
