<svg width="24" height="24" viewBox="0 0 24 24" fill="none" xmlns="http://www.w3.org/2000/svg">
<g id="patreon-line" clip-path="url(#clip0_8_5646)">
<g id="Group">
<path id="Vector" d="M15 17C13.0109 17 11.1032 16.2098 9.6967 14.8033C8.29018 13.3968 7.5 11.4891 7.5 9.5C7.5 7.51088 8.29018 5.60322 9.6967 4.1967C11.1032 2.79018 13.0109 2 15 2C16.9891 2 18.8968 2.79018 20.3033 4.1967C21.7098 5.60322 22.5 7.51088 22.5 9.5C22.5 11.4891 21.7098 13.3968 20.3033 14.8033C18.8968 16.2098 16.9891 17 15 17ZM15 15C16.4587 15 17.8576 14.4205 18.8891 13.3891C19.9205 12.3576 20.5 10.9587 20.5 9.5C20.5 8.04131 19.9205 6.64236 18.8891 5.61091C17.8576 4.57946 16.4587 4 15 4C13.5413 4 12.1424 4.57946 11.1109 5.61091C10.0795 6.64236 9.5 8.04131 9.5 9.5C9.5 10.9587 10.0795 12.3576 11.1109 13.3891C12.1424 14.4205 13.5413 15 15 15ZM2 2H7V22H2V2ZM4 4V20H5V4H4Z" fill="#121212"/>
</g>
</g>
<defs>
<clipPath id="clip0_8_5646">
<rect width="24" height="24" fill="white"/>
</clipPath>
</defs>
</svg>
