<svg width="24" height="24" viewBox="0 0 24 24" fill="none" xmlns="http://www.w3.org/2000/svg">
<g id="pen-nib-fill" clip-path="url(#clip0_8_4452)">
<g id="Group">
<path id="Vector" d="M4.929 21.485L10.775 15.639C11.2003 15.753 11.6513 15.7235 12.0581 15.555C12.4648 15.3865 12.8047 15.0886 13.0248 14.7073C13.245 14.326 13.3332 13.8827 13.2757 13.4462C13.2182 13.0097 13.0183 12.6043 12.707 12.293C12.3957 11.9817 11.9903 11.7818 11.5538 11.7243C11.1173 11.6668 10.674 11.755 10.2927 11.9752C9.91145 12.1954 9.61346 12.5352 9.445 12.942C9.27654 13.3487 9.24701 13.7997 9.361 14.225L3.515 20.071L2.455 19.011C5.282 15.711 6.343 12.057 7.757 5.92901L14.121 5.22201L19.778 10.879L19.071 17.243C12.943 18.657 9.289 19.718 5.99 22.546L4.929 21.486V21.485ZM16.596 2.04001L22.943 8.38601C23.0084 8.4513 23.0544 8.53344 23.076 8.62331C23.0975 8.71318 23.0937 8.80726 23.065 8.89511C23.0363 8.98296 22.9839 9.06113 22.9134 9.12096C22.843 9.18078 22.7573 9.21991 22.666 9.23401L21.192 9.46401L15.536 3.80801L15.748 2.32301C15.7612 2.23118 15.7996 2.14483 15.8591 2.07361C15.9186 2.0024 15.9966 1.94912 16.0846 1.91976C16.1726 1.89039 16.2671 1.88608 16.3574 1.90732C16.4477 1.92856 16.5303 1.9745 16.596 2.04001Z" />
</g>
</g>
<defs>
<clipPath id="clip0_8_4452">
<rect width="24" height="24" fill="white"/>
</clipPath>
</defs>
</svg>
