<svg width="24" height="24" viewBox="0 0 24 24" fill="none" xmlns="http://www.w3.org/2000/svg">
<g id="phone-camera-line" clip-path="url(#clip0_8_6896)">
<g id="Group">
<path id="Vector" d="M14.803 4C14.4451 4.61814 14.2012 5.29558 14.083 6H3V18H21V12.917C21.7044 12.7988 22.3819 12.5549 23 12.197V19C23 19.553 22.56 20.001 21.998 20.001H2.002C1.87043 20.0013 1.74009 19.9756 1.61847 19.9254C1.49685 19.8752 1.38633 19.8015 1.29325 19.7085C1.20016 19.6155 1.12635 19.505 1.07602 19.3835C1.0257 19.2619 0.999869 19.1316 1 19V5C1 4.448 1.44 4 2.002 4H14.802H14.803ZM20 9C20.5304 9 21.0391 8.78929 21.4142 8.41421C21.7893 8.03914 22 7.53043 22 7C22 6.46957 21.7893 5.96086 21.4142 5.58579C21.0391 5.21071 20.5304 5 20 5C19.4696 5 18.9609 5.21071 18.5858 5.58579C18.2107 5.96086 18 6.46957 18 7C18 7.53043 18.2107 8.03914 18.5858 8.41421C18.9609 8.78929 19.4696 9 20 9ZM20 11C18.9391 11 17.9217 10.5786 17.1716 9.82843C16.4214 9.07828 16 8.06087 16 7C16 5.93913 16.4214 4.92172 17.1716 4.17157C17.9217 3.42143 18.9391 3 20 3C21.0609 3 22.0783 3.42143 22.8284 4.17157C23.5786 4.92172 24 5.93913 24 7C24 8.06087 23.5786 9.07828 22.8284 9.82843C22.0783 10.5786 21.0609 11 20 11ZM18 13H20V16H18V13Z" fill="#121212"/>
</g>
</g>
<defs>
<clipPath id="clip0_8_6896">
<rect width="24" height="24" fill="white"/>
</clipPath>
</defs>
</svg>
