<svg width="24" height="24" viewBox="0 0 24 24" fill="none" xmlns="http://www.w3.org/2000/svg">
<g id="phone-find-line" clip-path="url(#clip0_8_2216)">
<g id="Group">
<path id="Vector" d="M18 2C18.2652 2 18.5196 2.10536 18.7071 2.29289C18.8946 2.48043 19 2.73478 19 3V11H17V4H7V20H11V22H6C5.73478 22 5.48043 21.8946 5.29289 21.7071C5.10536 21.5196 5 21.2652 5 21V3C5 2.73478 5.10536 2.48043 5.29289 2.29289C5.48043 2.10536 5.73478 2 6 2H18ZM15 12C15.7053 11.9999 16.3982 12.1863 17.0082 12.5403C17.6183 12.8943 18.1239 13.4034 18.4738 14.0158C18.8236 14.6283 19.0054 15.3223 19.0005 16.0276C18.9956 16.733 18.8043 17.4245 18.446 18.032L20.656 20.242L19.243 21.657L17.031 19.447C16.5011 19.759 15.9064 19.9446 15.2931 19.9894C14.6798 20.0342 14.0645 19.937 13.4949 19.7053C12.9253 19.4737 12.4167 19.1139 12.0088 18.6538C11.6008 18.1937 11.3044 17.6457 11.1426 17.0525C10.9808 16.4592 10.958 15.8367 11.0759 15.2332C11.1937 14.6296 11.4492 14.0614 11.8223 13.5727C12.1955 13.0839 12.6763 12.6878 13.2274 12.415C13.7785 12.1423 14.3851 12.0003 15 12ZM15 14C14.4696 14 13.9609 14.2107 13.5858 14.5858C13.2107 14.9609 13 15.4696 13 16C13 16.5304 13.2107 17.0391 13.5858 17.4142C13.9609 17.7893 14.4696 18 15 18C15.5304 18 16.0391 17.7893 16.4142 17.4142C16.7893 17.0391 17 16.5304 17 16C17 15.4696 16.7893 14.9609 16.4142 14.5858C16.0391 14.2107 15.5304 14 15 14Z" />
</g>
</g>
<defs>
<clipPath id="clip0_8_2216">
<rect width="24" height="24" fill="white"/>
</clipPath>
</defs>
</svg>
