<svg width="24" height="24" viewBox="0 0 24 24" fill="none" xmlns="http://www.w3.org/2000/svg">
<g id="pin-distance-fill" clip-path="url(#clip0_8_6151)">
<g id="Group">
<path id="Vector" d="M11.39 10.39L7.5 14.277L3.61 10.39C2.84107 9.62071 2.3175 8.6407 2.10549 7.57388C1.89349 6.50705 2.00255 5.40132 2.41891 4.39648C2.83527 3.39163 3.54022 2.5328 4.44463 1.92857C5.34905 1.32434 6.41232 1.00183 7.5 1.00183C8.58769 1.00183 9.65096 1.32434 10.5554 1.92857C11.4598 2.5328 12.1647 3.39163 12.5811 4.39648C12.9975 5.40132 13.1065 6.50705 12.8945 7.57388C12.6825 8.6407 12.1589 9.62071 11.39 10.39ZM7.5 8.50001C8.03044 8.50001 8.53914 8.28929 8.91422 7.91422C9.28929 7.53915 9.5 7.03044 9.5 6.50001C9.5 5.96957 9.28929 5.46086 8.91422 5.08579C8.53914 4.71072 8.03044 4.50001 7.5 4.50001C6.96957 4.50001 6.46086 4.71072 6.08579 5.08579C5.71072 5.46086 5.5 5.96957 5.5 6.50001C5.5 7.03044 5.71072 7.53915 6.08579 7.91422C6.46086 8.28929 6.96957 8.50001 7.5 8.50001ZM20.39 19.39L16.5 23.278L12.61 19.389C11.8411 18.6197 11.3175 17.6397 11.1055 16.5729C10.8935 15.5061 11.0026 14.4003 11.4189 13.3955C11.8353 12.3906 12.5402 11.5318 13.4446 10.9276C14.349 10.3233 15.4123 10.0008 16.5 10.0008C17.5877 10.0008 18.651 10.3233 19.5554 10.9276C20.4598 11.5318 21.1647 12.3906 21.5811 13.3955C21.9974 14.4003 22.1065 15.5061 21.8945 16.5729C21.6825 17.6397 21.1589 18.6197 20.39 19.389V19.39ZM16.5 17.5C17.0304 17.5 17.5391 17.2893 17.9142 16.9142C18.2893 16.5391 18.5 16.0304 18.5 15.5C18.5 14.9696 18.2893 14.4609 17.9142 14.0858C17.5391 13.7107 17.0304 13.5 16.5 13.5C15.9696 13.5 15.4609 13.7107 15.0858 14.0858C14.7107 14.4609 14.5 14.9696 14.5 15.5C14.5 16.0304 14.7107 16.5391 15.0858 16.9142C15.4609 17.2893 15.9696 17.5 16.5 17.5Z" />
</g>
</g>
<defs>
<clipPath id="clip0_8_6151">
<rect width="24" height="24" fill="white"/>
</clipPath>
</defs>
</svg>
