<svg width="24" height="24" viewBox="0 0 24 24" fill="none" xmlns="http://www.w3.org/2000/svg">
<g id="pixelfed-line" clip-path="url(#clip0_8_5534)">
<g id="Group">
<path id="Vector" d="M12 2C17.523 2 22 6.477 22 12C22 17.523 17.523 22 12 22C6.477 22 2 17.523 2 12C2 6.477 6.477 2 12 2ZM12 4C7.582 4 4 7.582 4 12C4 16.418 7.582 20 12 20C16.418 20 20 16.418 20 12C20 7.582 16.418 4 12 4ZM13.031 8.099C14.744 8.099 16.132 9.444 16.132 11.104C16.132 12.764 14.744 14.109 13.032 14.109H11.213L8.618 16.58V9.832C8.618 8.875 9.419 8.099 10.408 8.099H13.031Z" fill="currentColor"/>
</g>
</g>
<defs>
<clipPath id="clip0_8_5534">
<rect width="24" height="24" fill="white"/>
</clipPath>
</defs>
</svg>
