<svg width="24" height="24" viewBox="0 0 24 24" fill="none" xmlns="http://www.w3.org/2000/svg">
<g id="plant-line" clip-path="url(#clip0_8_7473)">
<g id="Group">
<path id="Vector" d="M6 2C8.69 2 11.024 3.517 12.197 5.741C13.374 4.083 15.31 3 17.5 3H21V5.5C21 9.09 18.09 12 14.5 12H13V13H18V20C18 21.105 17.105 22 16 22H8C6.895 22 6 21.105 6 20V13H11V11H9C5.134 11 2 7.866 2 4V2H6ZM16 15H8V20H16V15ZM19 5H17.5C15.015 5 13 7.015 13 9.5V10H14.5C16.985 10 19 7.985 19 5.5V5ZM6 4H4C4 6.761 6.239 9 9 9H11C11 6.239 8.761 4 6 4Z" fill="currentColor"/>
</g>
</g>
<defs>
<clipPath id="clip0_8_7473">
<rect width="24" height="24" fill="white"/>
</clipPath>
</defs>
</svg>
