<svg width="24" height="24" viewBox="0 0 24 24" fill="none" xmlns="http://www.w3.org/2000/svg">
<g id="play-mini-fill" clip-path="url(#clip0_8_6828)">
<g id="Group">
<path id="Vector" d="M7.752 5.439L18.26 11.569C18.3353 11.6131 18.3978 11.6761 18.4412 11.7518C18.4846 11.8275 18.5074 11.9132 18.5074 12.0005C18.5074 12.0878 18.4846 12.1735 18.4412 12.2492C18.3978 12.3249 18.3353 12.3879 18.26 12.432L7.752 18.562C7.67587 18.6064 7.58935 18.6299 7.5012 18.6301C7.41305 18.6304 7.32642 18.6073 7.25007 18.5632C7.17373 18.5191 7.11039 18.4557 7.06647 18.3793C7.02256 18.3028 6.99963 18.2161 7 18.128V5.871C6.99998 5.78302 7.02317 5.69659 7.06723 5.62045C7.11129 5.5443 7.17466 5.48112 7.25094 5.4373C7.32723 5.39347 7.41373 5.37055 7.5017 5.37085C7.58968 5.37115 7.67602 5.39466 7.752 5.439Z" />
</g>
</g>
<defs>
<clipPath id="clip0_8_6828">
<rect width="24" height="24" fill="white"/>
</clipPath>
</defs>
</svg>
