<svg width="24" height="24" viewBox="0 0 24 24" fill="none" xmlns="http://www.w3.org/2000/svg">
<g id="play-mini-line" clip-path="url(#clip0_8_6684)">
<g id="Group">
<path id="Vector" d="M9.00001 8.482V15.518L15.03 12L9.00001 8.482ZM7.75201 5.44L18.26 11.57C18.3353 11.6141 18.3978 11.6771 18.4412 11.7528C18.4846 11.8285 18.5074 11.9142 18.5074 12.0015C18.5074 12.0888 18.4846 12.1745 18.4412 12.2502C18.3978 12.3259 18.3353 12.3889 18.26 12.433L7.75201 18.563C7.6758 18.6075 7.58919 18.631 7.50095 18.6312C7.41272 18.6313 7.32602 18.6081 7.24964 18.564C7.17327 18.5198 7.10994 18.4562 7.0661 18.3796C7.02225 18.303 6.99945 18.2162 7.00001 18.128V5.871C6.99998 5.78302 7.02317 5.69659 7.06723 5.62045C7.11129 5.5443 7.17466 5.48112 7.25095 5.4373C7.32723 5.39347 7.41373 5.37055 7.50171 5.37085C7.58968 5.37115 7.67602 5.39466 7.75201 5.439V5.44Z" fill="currentColor"/>
</g>
</g>
<defs>
<clipPath id="clip0_8_6684">
<rect width="24" height="24" fill="white"/>
</clipPath>
</defs>
</svg>
