<svg width="24" height="24" viewBox="0 0 24 24" fill="none" xmlns="http://www.w3.org/2000/svg">
<g id="polaroid-fill" clip-path="url(#clip0_8_6992)">
<g id="Group">
<path id="Vector" d="M20.659 10C20.1872 8.66557 19.2589 7.54089 18.038 6.82474C16.8172 6.10858 15.3825 5.84707 13.9875 6.08641C12.5925 6.32575 11.3271 7.05054 10.4148 8.13268C9.50251 9.21482 9.00215 10.5846 9.00215 12C9.00215 13.4154 9.50251 14.7852 10.4148 15.8673C11.3271 16.9495 12.5925 17.6742 13.9875 17.9136C15.3825 18.1529 16.8172 17.8914 18.038 17.1753C19.2589 16.4591 20.1872 15.3344 20.659 14H21V20C21 20.2652 20.8946 20.5196 20.7071 20.7071C20.5196 20.8946 20.2652 21 20 21H4C3.73478 21 3.48043 20.8946 3.29289 20.7071C3.10536 20.5196 3 20.2652 3 20V4C3 3.73478 3.10536 3.48043 3.29289 3.29289C3.48043 3.10536 3.73478 3 4 3H20C20.2652 3 20.5196 3.10536 20.7071 3.29289C20.8946 3.48043 21 3.73478 21 4V10H20.659ZM5 6V9H7V6H5ZM15 16C13.9391 16 12.9217 15.5786 12.1716 14.8284C11.4214 14.0783 11 13.0609 11 12C11 10.9391 11.4214 9.92172 12.1716 9.17157C12.9217 8.42143 13.9391 8 15 8C16.0609 8 17.0783 8.42143 17.8284 9.17157C18.5786 9.92172 19 10.9391 19 12C19 13.0609 18.5786 14.0783 17.8284 14.8284C17.0783 15.5786 16.0609 16 15 16ZM15 14C15.5304 14 16.0391 13.7893 16.4142 13.4142C16.7893 13.0391 17 12.5304 17 12C17 11.4696 16.7893 10.9609 16.4142 10.5858C16.0391 10.2107 15.5304 10 15 10C14.4696 10 13.9609 10.2107 13.5858 10.5858C13.2107 10.9609 13 11.4696 13 12C13 12.5304 13.2107 13.0391 13.5858 13.4142C13.9609 13.7893 14.4696 14 15 14Z" />
</g>
</g>
<defs>
<clipPath id="clip0_8_6992">
<rect width="24" height="24" fill="white"/>
</clipPath>
</defs>
</svg>
