<svg width="24" height="24" viewBox="0 0 24 24"  xmlns="http://www.w3.org/2000/svg">
<g id="polaroid-line" clip-path="url(#clip0_8_7296)">
<g id="Group">
<path id="Vector" d="M21 6H19V5H5V19H19V18H21V20C21 20.2652 20.8946 20.5196 20.7071 20.7071C20.5196 20.8946 20.2652 21 20 21H4C3.73478 21 3.48043 20.8946 3.29289 20.7071C3.10536 20.5196 3 20.2652 3 20V4C3 3.73478 3.10536 3.48043 3.29289 3.29289C3.48043 3.10536 3.73478 3 4 3H20C20.2652 3 20.5196 3.10536 20.7071 3.29289C20.8946 3.48043 21 3.73478 21 4V6ZM6 6H8V9H6V6ZM15 16C16.0609 16 17.0783 15.5786 17.8284 14.8284C18.5786 14.0783 19 13.0609 19 12C19 10.9391 18.5786 9.92172 17.8284 9.17157C17.0783 8.42143 16.0609 8 15 8C13.9391 8 12.9217 8.42143 12.1716 9.17157C11.4214 9.92172 11 10.9391 11 12C11 13.0609 11.4214 14.0783 12.1716 14.8284C12.9217 15.5786 13.9391 16 15 16ZM15 18C13.4087 18 11.8826 17.3679 10.7574 16.2426C9.63214 15.1174 9 13.5913 9 12C9 10.4087 9.63214 8.88258 10.7574 7.75736C11.8826 6.63214 13.4087 6 15 6C16.5913 6 18.1174 6.63214 19.2426 7.75736C20.3679 8.88258 21 10.4087 21 12C21 13.5913 20.3679 15.1174 19.2426 16.2426C18.1174 17.3679 16.5913 18 15 18ZM15 14C14.4696 14 13.9609 13.7893 13.5858 13.4142C13.2107 13.0391 13 12.5304 13 12C13 11.4696 13.2107 10.9609 13.5858 10.5858C13.9609 10.2107 14.4696 10 15 10C15.5304 10 16.0391 10.2107 16.4142 10.5858C16.7893 10.9609 17 11.4696 17 12C17 12.5304 16.7893 13.0391 16.4142 13.4142C16.0391 13.7893 15.5304 14 15 14Z" />
</g>
</g>
<defs>
<clipPath id="clip0_8_7296">
<rect width="24" height="24" fill="white"/>
</clipPath>
</defs>
</svg>
