<svg width="24" height="24" viewBox="0 0 24 24" fill="none" xmlns="http://www.w3.org/2000/svg">
<g id="price-tag-3-fill" clip-path="url(#clip0_8_3234)">
<g id="Group">
<path id="Vector" d="M10.9 2.10001L20.799 3.51501L22.213 13.415L13.021 22.607C12.8335 22.7945 12.5792 22.8998 12.314 22.8998C12.0488 22.8998 11.7945 22.7945 11.607 22.607L1.707 12.707C1.51953 12.5195 1.41422 12.2652 1.41422 12C1.41422 11.7348 1.51953 11.4805 1.707 11.293L10.9 2.10001ZM13.728 10.586C13.9138 10.7717 14.1343 10.919 14.3769 11.0194C14.6196 11.1199 14.8797 11.1716 15.1424 11.1716C15.405 11.1715 15.6651 11.1197 15.9077 11.0192C16.1504 10.9186 16.3708 10.7713 16.5565 10.5855C16.7422 10.3998 16.8895 10.1792 16.9899 9.93657C17.0904 9.69389 17.1421 9.4338 17.1421 9.17115C17.142 8.9085 17.0902 8.64843 16.9897 8.40579C16.8891 8.16315 16.7418 7.9427 16.556 7.75701C16.3702 7.57132 16.1497 7.42403 15.9071 7.32356C15.6644 7.22309 15.4043 7.17141 15.1416 7.17145C14.6112 7.17155 14.1025 7.38236 13.7275 7.75751C13.3525 8.13266 13.1419 8.64141 13.142 9.17186C13.142 9.70231 13.3529 10.211 13.728 10.586Z" fill="#121212"/>
</g>
</g>
<defs>
<clipPath id="clip0_8_3234">
<rect width="24" height="24" fill="white"/>
</clipPath>
</defs>
</svg>
