<svg width="24" height="24" viewBox="0 0 24 24" fill="none" xmlns="http://www.w3.org/2000/svg">
<g id="product-hunt-line" clip-path="url(#clip0_8_5278)">
<g id="Group">
<path id="Vector" d="M12 22C6.477 22 2 17.523 2 12C2 6.477 6.477 2 12 2C17.523 2 22 6.477 22 12C22 17.523 17.523 22 12 22ZM12 20C14.1217 20 16.1566 19.1571 17.6569 17.6569C19.1571 16.1566 20 14.1217 20 12C20 9.87827 19.1571 7.84344 17.6569 6.34315C16.1566 4.84285 14.1217 4 12 4C9.87827 4 7.84344 4.84285 6.34315 6.34315C4.84285 7.84344 4 9.87827 4 12C4 14.1217 4.84285 16.1566 6.34315 17.6569C7.84344 19.1571 9.87827 20 12 20ZM13.334 12C13.7318 12 14.1134 11.842 14.3947 11.5607C14.676 11.2794 14.834 10.8978 14.834 10.5C14.834 10.1022 14.676 9.72064 14.3947 9.43934C14.1134 9.15804 13.7318 9 13.334 9H10.5V12H13.334ZM13.334 7C14.2623 7 15.1525 7.36875 15.8089 8.02513C16.4653 8.6815 16.834 9.57174 16.834 10.5C16.834 11.4283 16.4653 12.3185 15.8089 12.9749C15.1525 13.6313 14.2623 14 13.334 14H10.5V17H8.5V7H13.334Z" fill="currentColor"/>
</g>
</g>
<defs>
<clipPath id="clip0_8_5278">
<rect width="24" height="24" fill="white"/>
</clipPath>
</defs>
</svg>
