<svg width="24" height="24" viewBox="0 0 24 24"  xmlns="http://www.w3.org/2000/svg">
<g id="projector-2-fill" clip-path="url(#clip0_8_926)">
<g id="Group">
<path id="Vector" d="M22 19V21H20V19H4V21H2V19C1.73478 19 1.48043 18.8946 1.29289 18.7071C1.10536 18.5196 1 18.2652 1 18V6C1 5.73479 1.10536 5.48043 1.29289 5.2929C1.48043 5.10536 1.73478 5 2 5H11.81C12.4159 4.36687 13.1439 3.86319 13.9501 3.51943C14.7562 3.17567 15.6236 2.99896 16.5 3C18.343 3 20.007 3.767 21.19 5H22C22.2652 5 22.5196 5.10536 22.7071 5.2929C22.8946 5.48043 23 5.73479 23 6V18C23 18.2652 22.8946 18.5196 22.7071 18.7071C22.5196 18.8946 22.2652 19 22 19ZM16.5 14C17.0909 14 17.6761 13.8836 18.2221 13.6575C18.768 13.4313 19.2641 13.0998 19.682 12.682C20.0998 12.2641 20.4313 11.768 20.6575 11.2221C20.8836 10.6761 21 10.091 21 9.5C21 8.90906 20.8836 8.32389 20.6575 7.77793C20.4313 7.23196 20.0998 6.73589 19.682 6.31802C19.2641 5.90016 18.768 5.56869 18.2221 5.34255C17.6761 5.1164 17.0909 5 16.5 5C15.3065 5 14.1619 5.47411 13.318 6.31802C12.4741 7.16194 12 8.30653 12 9.5C12 10.6935 12.4741 11.8381 13.318 12.682C14.1619 13.5259 15.3065 14 16.5 14ZM16.5 12C15.837 12 15.2011 11.7366 14.7322 11.2678C14.2634 10.7989 14 10.163 14 9.5C14 8.83696 14.2634 8.20108 14.7322 7.73224C15.2011 7.2634 15.837 7 16.5 7C17.163 7 17.7989 7.2634 18.2678 7.73224C18.7366 8.20108 19 8.83696 19 9.5C19 10.163 18.7366 10.7989 18.2678 11.2678C17.7989 11.7366 17.163 12 16.5 12ZM4 13V15H6V13H4ZM8 13V15H10V13H8Z" />
</g>
</g>
<defs>
<clipPath id="clip0_8_926">
<rect width="24" height="24" fill="white"/>
</clipPath>
</defs>
</svg>
