<svg width="24" height="24" viewBox="0 0 24 24" fill="none" xmlns="http://www.w3.org/2000/svg">
<g id="projector-line" clip-path="url(#clip0_8_1146)">
<g id="Group">
<path id="Vector" d="M3 3H21C21.2652 3 21.5196 3.10536 21.7071 3.29289C21.8946 3.48043 22 3.73478 22 4V20C22 20.2652 21.8946 20.5196 21.7071 20.7071C21.5196 20.8946 21.2652 21 21 21H3C2.73478 21 2.48043 20.8946 2.29289 20.7071C2.10536 20.5196 2 20.2652 2 20V4C2 3.73478 2.10536 3.48043 2.29289 3.29289C2.48043 3.10536 2.73478 3 3 3ZM11.126 12H4V19H20V12H18.874C18.6516 12.8582 18.1504 13.6183 17.4493 14.1609C16.7481 14.7035 15.8866 14.9979 15 14.9979C14.1134 14.9979 13.2519 14.7035 12.5507 14.1609C11.8496 13.6183 11.3484 12.8582 11.126 12ZM11.126 10C11.3484 9.14176 11.8496 8.38168 12.5507 7.83907C13.2519 7.29647 14.1134 7.00206 15 7.00206C15.8866 7.00206 16.7481 7.29647 17.4493 7.83907C18.1504 8.38168 18.6516 9.14176 18.874 10H20V5H4V10H11.126ZM15 13C15.5304 13 16.0391 12.7893 16.4142 12.4142C16.7893 12.0391 17 11.5304 17 11C17 10.4696 16.7893 9.96086 16.4142 9.58579C16.0391 9.21071 15.5304 9 15 9C14.4696 9 13.9609 9.21071 13.5858 9.58579C13.2107 9.96086 13 10.4696 13 11C13 11.5304 13.2107 12.0391 13.5858 12.4142C13.9609 12.7893 14.4696 13 15 13ZM6 15H8V17H6V15Z" fill="#121212"/>
</g>
</g>
<defs>
<clipPath id="clip0_8_1146">
<rect width="24" height="24" fill="white"/>
</clipPath>
</defs>
</svg>
