<svg width="24" height="24" viewBox="0 0 24 24" fill="none" xmlns="http://www.w3.org/2000/svg">
<g id="projector-fill" clip-path="url(#clip0_8_1262)">
<g id="Group">
<path id="Vector" d="M11.112 12C11.3399 12.9932 11.898 13.8798 12.695 14.5147C13.4921 15.1496 14.481 15.4953 15.5 15.4953C16.519 15.4953 17.5079 15.1496 18.305 14.5147C19.102 13.8798 19.6601 12.9932 19.888 12H22V20C22 20.2652 21.8946 20.5196 21.7071 20.7071C21.5196 20.8946 21.2652 21 21 21H3C2.73478 21 2.48043 20.8946 2.29289 20.7071C2.10536 20.5196 2 20.2652 2 20V12H11.112ZM5 16H7V18H5V16ZM15.5 13.5C14.837 13.5 14.2011 13.2366 13.7322 12.7678C13.2634 12.2989 13 11.663 13 11C13 10.337 13.2634 9.70107 13.7322 9.23223C14.2011 8.76339 14.837 8.5 15.5 8.5C16.163 8.5 16.7989 8.76339 17.2678 9.23223C17.7366 9.70107 18 10.337 18 11C18 11.663 17.7366 12.2989 17.2678 12.7678C16.7989 13.2366 16.163 13.5 15.5 13.5ZM11.112 10H2V4C2 3.73478 2.10536 3.48043 2.29289 3.29289C2.48043 3.10536 2.73478 3 3 3H21C21.2652 3 21.5196 3.10536 21.7071 3.29289C21.8946 3.48043 22 3.73478 22 4V10H19.888C19.6601 9.00677 19.102 8.12024 18.305 7.48533C17.5079 6.85042 16.519 6.50471 15.5 6.50471C14.481 6.50471 13.4921 6.85042 12.695 7.48533C11.898 8.12024 11.3399 9.00677 11.112 10Z" />
</g>
</g>
<defs>
<clipPath id="clip0_8_1262">
<rect width="24" height="24" fill="white"/>
</clipPath>
</defs>
</svg>
