<svg width="24" height="24" viewBox="0 0 24 24" fill="none" xmlns="http://www.w3.org/2000/svg">
<g id="record-mail-line" clip-path="url(#clip0_8_1198)">
<g id="Group">
<path id="Vector" d="M14.257 15C13.4616 14.0359 13.0184 12.8296 13.0002 11.5798C12.9821 10.3301 13.3902 9.11142 14.1572 8.12461C14.9243 7.13779 16.0046 6.44166 17.2202 6.1509C18.4358 5.86014 19.7141 5.99208 20.8447 6.52499C21.9753 7.0579 22.8906 7.96 23.44 9.08269C23.9893 10.2054 24.1399 11.4817 23.8668 12.7014C23.5938 13.9211 22.9135 15.0114 21.938 15.7928C20.9625 16.5741 19.7499 16.9999 18.5 17H5.50001C4.25014 16.9999 3.03756 16.5741 2.06203 15.7928C1.0865 15.0114 0.406196 13.9211 0.133184 12.7014C-0.139828 11.4817 0.0107353 10.2054 0.560072 9.08269C1.10941 7.96 2.02475 7.0579 3.15533 6.52499C4.2859 5.99208 5.56427 5.86014 6.77985 6.1509C7.99544 6.44166 9.07574 7.13779 9.8428 8.12461C10.6099 9.11142 11.0179 10.3301 10.9998 11.5798C10.9817 12.8296 10.5384 14.0359 9.74301 15H14.257ZM5.50001 15C6.42827 15 7.31851 14.6313 7.97489 13.9749C8.63126 13.3185 9.00001 12.4283 9.00001 11.5C9.00001 10.5717 8.63126 9.68151 7.97489 9.02513C7.31851 8.36875 6.42827 8 5.50001 8C4.57176 8 3.68152 8.36875 3.02514 9.02513C2.36876 9.68151 2.00001 10.5717 2.00001 11.5C2.00001 12.4283 2.36876 13.3185 3.02514 13.9749C3.68152 14.6313 4.57176 15 5.50001 15ZM18.5 15C19.4283 15 20.3185 14.6313 20.9749 13.9749C21.6313 13.3185 22 12.4283 22 11.5C22 10.5717 21.6313 9.68151 20.9749 9.02513C20.3185 8.36875 19.4283 8 18.5 8C17.5718 8 16.6815 8.36875 16.0251 9.02513C15.3688 9.68151 15 10.5717 15 11.5C15 12.4283 15.3688 13.3185 16.0251 13.9749C16.6815 14.6313 17.5718 15 18.5 15Z" fill="#121212"/>
</g>
</g>
<defs>
<clipPath id="clip0_8_1198">
<rect width="24" height="24" fill="white"/>
</clipPath>
</defs>
</svg>
