<svg width="24" height="24" viewBox="0 0 24 24" fill="none" xmlns="http://www.w3.org/2000/svg">
<g id="record-mail-fill" clip-path="url(#clip0_8_1406)">
<g id="Group">
<path id="Vector" d="M9.74301 15H14.257C13.4616 14.0359 13.0184 12.8296 13.0002 11.5798C12.9821 10.3301 13.3902 9.11142 14.1572 8.12461C14.9243 7.13779 16.0046 6.44166 17.2202 6.1509C18.4358 5.86014 19.7141 5.99208 20.8447 6.52499C21.9753 7.0579 22.8906 7.96 23.44 9.08269C23.9893 10.2054 24.1399 11.4817 23.8668 12.7014C23.5938 13.9211 22.9135 15.0114 21.938 15.7928C20.9625 16.5741 19.7499 16.9999 18.5 17H5.50001C4.25014 16.9999 3.03756 16.5741 2.06203 15.7928C1.0865 15.0114 0.406196 13.9211 0.133184 12.7014C-0.139828 11.4817 0.0107353 10.2054 0.560072 9.08269C1.10941 7.96 2.02475 7.0579 3.15533 6.52499C4.2859 5.99208 5.56427 5.86014 6.77985 6.1509C7.99544 6.44166 9.07574 7.13779 9.8428 8.12461C10.6099 9.11142 11.0179 10.3301 10.9998 11.5798C10.9817 12.8296 10.5384 14.0359 9.74301 15ZM5.50001 13C5.89784 13 6.27937 12.842 6.56067 12.5607C6.84198 12.2794 7.00001 11.8978 7.00001 11.5C7.00001 11.1022 6.84198 10.7206 6.56067 10.4393C6.27937 10.158 5.89784 10 5.50001 10C5.10219 10 4.72066 10.158 4.43935 10.4393C4.15805 10.7206 4.00001 11.1022 4.00001 11.5C4.00001 11.8978 4.15805 12.2794 4.43935 12.5607C4.72066 12.842 5.10219 13 5.50001 13ZM18.5 13C18.8978 13 19.2794 12.842 19.5607 12.5607C19.842 12.2794 20 11.8978 20 11.5C20 11.1022 19.842 10.7206 19.5607 10.4393C19.2794 10.158 18.8978 10 18.5 10C18.1022 10 17.7207 10.158 17.4394 10.4393C17.158 10.7206 17 11.1022 17 11.5C17 11.8978 17.158 12.2794 17.4394 12.5607C17.7207 12.842 18.1022 13 18.5 13Z" fill="#121212"/>
</g>
</g>
<defs>
<clipPath id="clip0_8_1406">
<rect width="24" height="24" fill="white"/>
</clipPath>
</defs>
</svg>
