<svg width="24" height="24" viewBox="0 0 24 24" fill="none" xmlns="http://www.w3.org/2000/svg">
<g id="reddit-line" clip-path="url(#clip0_8_5326)">
<g id="Group">
<path id="Vector" d="M11.102 7.81497L11.853 4.27897C11.9076 4.02202 12.0124 3.77835 12.1612 3.56189C12.3101 3.34542 12.5001 3.1604 12.7205 3.01739C12.9408 2.87438 13.1872 2.77619 13.4455 2.72841C13.7038 2.68064 13.969 2.68423 14.226 2.73897L17.422 3.41897C17.7166 3.09179 18.1109 2.87098 18.5439 2.79077C18.9768 2.71056 19.4241 2.77545 19.8163 2.97536C20.2086 3.17528 20.524 3.49905 20.7135 3.89646C20.903 4.29387 20.956 4.7427 20.8645 5.17335C20.7729 5.604 20.5417 5.99239 20.2069 6.27829C19.8721 6.56418 19.4523 6.7316 19.0126 6.75458C18.5729 6.77755 18.1379 6.6548 17.7751 6.40536C17.4123 6.15592 17.142 5.79373 17.006 5.37497L13.81 4.69497L13.144 7.82997C14.928 7.96697 16.701 8.55997 18.307 9.52997C18.7842 9.26462 19.3215 9.12614 19.8676 9.12776C20.4136 9.12938 20.9501 9.27105 21.4258 9.53923C21.9014 9.80741 22.3003 10.1931 22.5844 10.6595C22.8684 11.1259 23.028 11.6573 23.048 12.203V12.224C23.0556 12.7131 22.9508 13.1974 22.7415 13.6396C22.5322 14.0817 22.2241 14.4698 21.841 14.774C21.8392 14.815 21.8365 14.856 21.833 14.897C21.833 18.895 17.383 21.927 12.034 21.927C6.70198 21.927 2.32598 18.903 2.32898 14.974C2.32461 14.9137 2.32128 14.8534 2.31898 14.793C1.67309 14.3082 1.23498 13.5966 1.09293 12.8016C0.950878 12.0066 1.11545 11.1873 1.55348 10.5088C1.99151 9.83032 2.67043 9.3431 3.45343 9.14532C4.23643 8.94754 5.06529 9.0539 5.77297 9.44297C7.38808 8.46961 9.21866 7.91038 11.102 7.81497ZM20.388 13.341C20.796 13.138 21.052 12.721 21.049 12.266C21.0386 12.0372 20.9625 11.8162 20.8298 11.6295C20.6971 11.4428 20.5134 11.2983 20.3007 11.2133C20.088 11.1283 19.8554 11.1063 19.6305 11.1501C19.4057 11.1938 19.1983 11.3014 19.033 11.46L18.448 12.02L17.778 11.565C16.163 10.467 14.326 9.83997 12.548 9.80097H11.542C9.66698 9.82997 7.89097 10.401 6.30498 11.476L5.64198 11.926L5.05798 11.376C4.93204 11.2578 4.78191 11.1683 4.61799 11.1139C4.45407 11.0594 4.28027 11.0412 4.10863 11.0606C3.93699 11.0799 3.77161 11.1364 3.62393 11.226C3.47625 11.3155 3.34981 11.4362 3.25335 11.5794C3.1569 11.7227 3.09274 11.8853 3.06531 12.0558C3.03788 12.2263 3.04785 12.4008 3.09451 12.5671C3.14117 12.7334 3.22342 12.8876 3.33556 13.019C3.4477 13.1503 3.58706 13.2558 3.74397 13.328L4.37697 13.618L4.32297 14.313C4.30997 14.483 4.30998 14.652 4.32598 14.897C4.32598 17.607 7.68198 19.927 12.034 19.927C16.405 19.927 19.833 17.591 19.836 14.821C19.849 14.6519 19.849 14.4821 19.836 14.313L19.784 13.641L20.388 13.341ZM6.99998 13.5C6.99998 13.1021 7.15801 12.7206 7.43931 12.4393C7.72062 12.158 8.10215 12 8.49998 12C8.8978 12 9.27933 12.158 9.56064 12.4393C9.84194 12.7206 9.99998 13.1021 9.99998 13.5C9.99998 13.8978 9.84194 14.2793 9.56064 14.5606C9.27933 14.8419 8.8978 15 8.49998 15C8.10215 15 7.72062 14.8419 7.43931 14.5606C7.15801 14.2793 6.99998 13.8978 6.99998 13.5ZM14 13.5C14 13.1021 14.158 12.7206 14.4393 12.4393C14.7206 12.158 15.1022 12 15.5 12C15.8978 12 16.2793 12.158 16.5606 12.4393C16.8419 12.7206 17 13.1021 17 13.5C17 13.8978 16.8419 14.2793 16.5606 14.5606C16.2793 14.8419 15.8978 15 15.5 15C15.1022 15 14.7206 14.8419 14.4393 14.5606C14.158 14.2793 14 13.8978 14 13.5ZM12.016 18.603C10.619 18.603 9.24897 18.233 8.13398 17.393C8.06662 17.3117 8.03203 17.2081 8.03697 17.1027C8.04191 16.9972 8.08603 16.8974 8.16069 16.8227C8.23536 16.748 8.33519 16.7039 8.44066 16.699C8.54614 16.694 8.64966 16.7286 8.73098 16.796C9.67597 17.489 10.854 17.786 12 17.786C13.146 17.786 14.33 17.511 15.284 16.827C15.3391 16.7732 15.4075 16.7348 15.4822 16.7158C15.5569 16.6968 15.6353 16.6977 15.7095 16.7186C15.7836 16.7395 15.851 16.7795 15.9048 16.8347C15.9586 16.8899 15.997 16.9583 16.016 17.033C16.0322 17.1078 16.0298 17.1855 16.0091 17.2593C15.9883 17.333 15.9498 17.4005 15.897 17.456C15.213 18.253 13.413 18.603 12.016 18.603Z" fill="#121212"/>
</g>
</g>
<defs>
<clipPath id="clip0_8_5326">
<rect width="24" height="24" fill="white"/>
</clipPath>
</defs>
</svg>
