<svg width="24" height="24" viewBox="0 0 24 24" fill="none" xmlns="http://www.w3.org/2000/svg">
<g id="remixicon-fill" clip-path="url(#clip0_8_5322)">
<g id="Group">
<path id="Vector" d="M16.53 17.53L20 21H3V4H13.667V4.008C13.8232 4.00018 13.9796 3.99751 14.136 4C14.047 4.37 14 4.76 14 5.166C14 7.485 16.015 9.5 18.667 9.5C19.391 9.5 20.086 9.303 20.699 8.962C21.213 10.6527 21.0689 12.4751 20.2955 14.064C19.5221 15.6528 18.1767 16.8906 16.529 17.529L16.53 17.53ZM18.5 7.5C17.837 7.5 17.2011 7.23661 16.7322 6.76777C16.2634 6.29893 16 5.66304 16 5C16 4.33696 16.2634 3.70107 16.7322 3.23223C17.2011 2.76339 17.837 2.5 18.5 2.5C19.163 2.5 19.7989 2.76339 20.2678 3.23223C20.7366 3.70107 21 4.33696 21 5C21 5.66304 20.7366 6.29893 20.2678 6.76777C19.7989 7.23661 19.163 7.5 18.5 7.5Z" fill="currentColor"/>
</g>
</g>
<defs>
<clipPath id="clip0_8_5322">
<rect width="24" height="24" fill="white"/>
</clipPath>
</defs>
</svg>
