<svg width="24" height="24" viewBox="0 0 24 24"  xmlns="http://www.w3.org/2000/svg">
<g id="remote-control-2-fill" clip-path="url(#clip0_8_1796)">
<g id="Group">
<path id="Vector" d="M18 2C18.2652 2 18.5196 2.10536 18.7071 2.29289C18.8946 2.48043 19 2.73478 19 3V21C19 21.2652 18.8946 21.5196 18.7071 21.7071C18.5196 21.8946 18.2652 22 18 22H6C5.73478 22 5.48043 21.8946 5.29289 21.7071C5.10536 21.5196 5 21.2652 5 21V3C5 2.73478 5.10536 2.48043 5.29289 2.29289C5.48043 2.10536 5.73478 2 6 2H18ZM15 15H13V17H15V15ZM11 15H9V17H11V15ZM13 6H11V8H9V10H10.999L11 12H13L12.999 10H15V8H13V6Z" />
</g>
</g>
<defs>
<clipPath id="clip0_8_1796">
<rect width="24" height="24" fill="white"/>
</clipPath>
</defs>
</svg>
