<svg width="24" height="24" viewBox="0 0 24 24" fill="none" xmlns="http://www.w3.org/2000/svg">
<g id="repeat-one-fill" clip-path="url(#clip0_8_7216)">
<g id="Group">
<path id="Vector" d="M8 20V21.932C8.00015 22.0271 7.97319 22.1203 7.92227 22.2006C7.87134 22.2809 7.79858 22.345 7.7125 22.3854C7.62642 22.4258 7.53061 22.4409 7.43629 22.4288C7.34197 22.4166 7.25307 22.3779 7.18 22.317L3.06 18.884C2.98098 18.8181 2.92421 18.7294 2.89744 18.6301C2.87067 18.5308 2.8752 18.4256 2.91042 18.3289C2.94563 18.2322 3.00982 18.1487 3.09421 18.0899C3.17861 18.031 3.27911 17.9996 3.382 18H18C18.5304 18 19.0391 17.7893 19.4142 17.4142C19.7893 17.0392 20 16.5304 20 16V8.00001H22V16C22 17.0609 21.5786 18.0783 20.8284 18.8284C20.0783 19.5786 19.0609 20 18 20H8ZM16 4.00001V2.06801C15.9998 1.97292 16.0268 1.87976 16.0777 1.79945C16.1287 1.71914 16.2014 1.65502 16.2875 1.6146C16.3736 1.57419 16.4694 1.55916 16.5637 1.57128C16.658 1.58339 16.7469 1.62215 16.82 1.68301L20.94 5.11601C21.019 5.18186 21.0757 5.27044 21.1025 5.36969C21.1293 5.46894 21.1248 5.57404 21.0898 5.67067C21.0547 5.7673 20.9906 5.85077 20.9064 5.90971C20.8222 5.96864 20.7218 6.00017 20.619 6.00001H6C5.46957 6.00001 4.96086 6.21073 4.58579 6.5858C4.21071 6.96087 4 7.46958 4 8.00001V16H2V8.00001C2 6.93915 2.42143 5.92173 3.17157 5.17159C3.92172 4.42144 4.93913 4.00001 6 4.00001H16ZM11 8.00001H13V16H11V10H9V9.00001L11 8.00001Z" />
</g>
</g>
<defs>
<clipPath id="clip0_8_7216">
<rect width="24" height="24" fill="white"/>
</clipPath>
</defs>
</svg>
