<svg width="24" height="24" viewBox="0 0 24 24"  xmlns="http://www.w3.org/2000/svg">
<g id="reply-all-line" clip-path="url(#clip0_8_962)">
<g id="Group">
<path id="Vector" d="M14 4.5V9C19.523 9 24 13.477 24 19C24 19.273 23.99 19.543 23.968 19.81C22.505 17.036 19.638 15.119 16.313 15.005L16 15H14V19.5L6 12L14 4.5ZM8 4.5V7.237L2.92 12L7.999 16.761L8 19.5L0 12L8 4.5ZM12 9.116L8.924 12L12 14.883V13H16.034L16.381 13.007C17.666 13.05 18.905 13.317 20.057 13.773C18.59 12.075 16.42 11 14 11H12V9.116Z" />
</g>
</g>
<defs>
<clipPath id="clip0_8_962">
<rect width="24" height="24" fill="white"/>
</clipPath>
</defs>
</svg>
