<svg width="24" height="24" viewBox="0 0 24 24" fill="none" xmlns="http://www.w3.org/2000/svg">
<g id="rest-time-line" clip-path="url(#clip0_8_4993)">
<g id="Group">
<path id="Vector" d="M11 6V8C7.686 8 5 10.686 5 14C5 17.314 7.686 20 11 20C14.238 20 16.878 17.434 16.996 14.225L17 14H19C19 18.418 15.418 22 11 22C6.582 22 3 18.418 3 14C3 9.665 6.58 6 11 6ZM21 2V4L15.673 10H21V12H13V10L18.326 4H13V2H21Z" />
</g>
</g>
<defs>
<clipPath id="clip0_8_4993">
<rect width="24" height="24" fill="white"/>
</clipPath>
</defs>
</svg>
