<svg width="24" height="24" viewBox="0 0 24 24"  xmlns="http://www.w3.org/2000/svg">
<g id="roadster-fill" clip-path="url(#clip0_8_6211)">
<g id="Group">
<path id="Vector" d="M22 13.5V21C22 21.2652 21.8946 21.5196 21.7071 21.7071C21.5196 21.8946 21.2652 22 21 22H20C19.7348 22 19.4804 21.8946 19.2929 21.7071C19.1054 21.5196 19 21.2652 19 21V20H5V21C5 21.2652 4.89464 21.5196 4.70711 21.7071C4.51957 21.8946 4.26522 22 4 22H3C2.73478 22 2.48043 21.8946 2.29289 21.7071C2.10536 21.5196 2 21.2652 2 21V13.5L0.757 13.19C0.540753 13.1358 0.348809 13.011 0.211655 12.8352C0.0745022 12.6595 5.86043e-06 12.4429 0 12.22L0 11.5C0 11.3674 0.0526784 11.2402 0.146447 11.1464C0.240215 11.0527 0.367392 11 0.5 11H2.375L4.513 5.298C4.65593 4.91669 4.91186 4.5881 5.24656 4.35615C5.58126 4.1242 5.97878 3.99995 6.386 4H17.614C18.0212 3.99995 18.4187 4.1242 18.7534 4.35615C19.0881 4.5881 19.3441 4.91669 19.487 5.298L21.625 11H23.5C23.6326 11 23.7598 11.0527 23.8536 11.1464C23.9473 11.2402 24 11.3674 24 11.5V12.22C24 12.4429 23.9255 12.6595 23.7883 12.8352C23.6512 13.011 23.4592 13.1358 23.243 13.19L22 13.5ZM4 15V17C4 17.2652 4.10536 17.5196 4.29289 17.7071C4.48043 17.8946 4.73478 18 5 18H8.245C8.33134 17.9999 8.41618 17.9774 8.49125 17.9347C8.56631 17.892 8.62905 17.8307 8.67336 17.7566C8.71766 17.6825 8.74202 17.5981 8.74406 17.5118C8.7461 17.4255 8.72575 17.3401 8.685 17.264C7.88 15.754 6.318 15 4 15ZM20 15C17.683 15 16.121 15.755 15.314 17.264C15.2732 17.3402 15.2529 17.4257 15.2549 17.5121C15.257 17.5985 15.2815 17.6829 15.3259 17.757C15.3703 17.8311 15.4332 17.8925 15.5084 17.9351C15.5836 17.9777 15.6686 18 15.755 18H19C19.2652 18 19.5196 17.8946 19.7071 17.7071C19.8946 17.5196 20 17.2652 20 17V15ZM6 6L4.439 10.684C4.38896 10.8343 4.37531 10.9942 4.39919 11.1508C4.42308 11.3074 4.4838 11.456 4.57636 11.5845C4.66893 11.713 4.79069 11.8177 4.93162 11.8899C5.07256 11.9621 5.22863 11.9999 5.387 12H18.613C18.7714 11.9999 18.9274 11.9621 19.0684 11.8899C19.2093 11.8177 19.3311 11.713 19.4236 11.5845C19.5162 11.456 19.5769 11.3074 19.6008 11.1508C19.6247 10.9942 19.611 10.8343 19.561 10.684L18 6H6Z" />
</g>
</g>
<defs>
<clipPath id="clip0_8_6211">
<rect width="24" height="24" fill="white"/>
</clipPath>
</defs>
</svg>
