<svg width="24" height="24" viewBox="0 0 24 24" fill="none" xmlns="http://www.w3.org/2000/svg">
<g id="rocket-fill" clip-path="url(#clip0_8_6267)">
<g id="Group">
<path id="Vector" d="M5.32972 15.929C5.10958 14.9682 4.99888 13.9856 4.99972 13C4.99972 7.91199 7.90272 3.56399 11.9997 1.81799C16.0967 3.56399 18.9997 7.91199 18.9997 13C18.9997 14.01 18.8857 14.991 18.6697 15.929L20.6897 17.725C20.7767 17.8023 20.8339 17.9075 20.8516 18.0225C20.8693 18.1375 20.8464 18.2551 20.7867 18.355L18.3287 22.451C18.2896 22.5161 18.2362 22.5714 18.1725 22.6127C18.1088 22.6541 18.0365 22.6804 17.9611 22.6896C17.8858 22.6989 17.8093 22.6909 17.7375 22.6661C17.6657 22.6414 17.6004 22.6007 17.5467 22.547L15.2927 20.293C15.1052 20.1054 14.8509 20 14.5857 20H9.41372C9.14853 20 8.89422 20.1054 8.70672 20.293L6.45272 22.547C6.39902 22.6007 6.33379 22.6414 6.26198 22.6661C6.19018 22.6909 6.11369 22.6989 6.03832 22.6896C5.96295 22.6804 5.89067 22.6541 5.82698 22.6127C5.76329 22.5714 5.70985 22.5161 5.67072 22.451L3.21272 18.356C3.1528 18.256 3.1297 18.1382 3.14741 18.023C3.16512 17.9078 3.22253 17.8024 3.30972 17.725L5.32972 15.929ZM11.9997 13C12.5302 13 13.0389 12.7893 13.4139 12.4142C13.789 12.0391 13.9997 11.5304 13.9997 11C13.9997 10.4696 13.789 9.96085 13.4139 9.58578C13.0389 9.21071 12.5302 8.99999 11.9997 8.99999C11.4693 8.99999 10.9606 9.21071 10.5855 9.58578C10.2104 9.96085 9.99972 10.4696 9.99972 11C9.99972 11.5304 10.2104 12.0391 10.5855 12.4142C10.9606 12.7893 11.4693 13 11.9997 13Z" fill="#121212"/>
</g>
</g>
<defs>
<clipPath id="clip0_8_6267">
<rect width="24" height="24" fill="white"/>
</clipPath>
</defs>
</svg>
