<svg width="24" height="24" viewBox="0 0 24 24" fill="none" xmlns="http://www.w3.org/2000/svg">
<g id="rounded-corner" clip-path="url(#clip0_8_2592)">
<g id="Group">
<path id="Vector" d="M21 19V21H19V19H21ZM17 19V21H15V19H17ZM13 19V21H11V19H13ZM9 19V21H7V19H9ZM5 19V21H3V19H5ZM21 15V17H19V15H21ZM5 15V17H3V15H5ZM5 11V13H3V11H5ZM16 3C18.687 3 20.882 5.124 20.995 7.783L21 8V13H19V8C19 6.409 17.745 5.097 16.176 5.005L16 5H11V3H16ZM5 7V9H3V7H5ZM5 3V5H3V3H5ZM9 3V5H7V3H9Z" fill="currentColor"/>
</g>
</g>
<defs>
<clipPath id="clip0_8_2592">
<rect width="24" height="24" fill="white"/>
</clipPath>
</defs>
</svg>
