<svg width="24" height="24" viewBox="0 0 24 24"  xmlns="http://www.w3.org/2000/svg">
<g id="router-fill" clip-path="url(#clip0_8_1824)">
<g id="Group">
<path id="Vector" d="M11 14V11H13V14H18C18.2652 14 18.5196 14.1054 18.7071 14.2929C18.8946 14.4804 19 14.7348 19 15V21C19 21.2652 18.8946 21.5196 18.7071 21.7071C18.5196 21.8946 18.2652 22 18 22H6C5.73478 22 5.48043 21.8946 5.29289 21.7071C5.10536 21.5196 5 21.2652 5 21V15C5 14.7348 5.10536 14.4804 5.29289 14.2929C5.48043 14.1054 5.73478 14 6 14H11ZM2.51 8.837C3.835 4.864 7.584 2 12 2C16.416 2 20.166 4.864 21.49 8.837L19.592 9.469C19.0607 7.87573 18.0416 6.49 16.679 5.50805C15.3165 4.5261 13.6795 3.99771 12 3.99771C10.3205 3.99771 8.68352 4.5261 7.32096 5.50805C5.9584 6.49 4.93931 7.87573 4.408 9.469L2.511 8.837H2.51ZM6.306 10.102C6.70485 8.90741 7.46932 7.86853 8.49119 7.13239C9.51307 6.39625 10.7406 6.00015 12 6.00015C13.2594 6.00015 14.4869 6.39625 15.5088 7.13239C16.5307 7.86853 17.2951 8.90741 17.694 10.102L15.796 10.735C15.5301 9.93861 15.0204 9.24602 14.3392 8.75526C13.658 8.2645 12.8396 8.00043 12 8.00043C11.1604 8.00043 10.342 8.2645 9.6608 8.75526C8.97955 9.24602 8.4699 9.93861 8.204 10.735L6.306 10.102Z" />
</g>
</g>
<defs>
<clipPath id="clip0_8_1824">
<rect width="24" height="24" fill="white"/>
</clipPath>
</defs>
</svg>
