<svg width="24" height="24" viewBox="0 0 24 24" fill="none" xmlns="http://www.w3.org/2000/svg">
<g id="ruler-2-fill" clip-path="url(#clip0_8_4760)">
<g id="Group">
<path id="Vector" d="M15 21H13V18H11V21H9V19H7V21H4C3.73478 21 3.48043 20.8946 3.29289 20.7071C3.10536 20.5196 3 20.2652 3 20V17H5V15H3V13H6V11H3V9H5V7H3V4C3 3.73478 3.10536 3.48043 3.29289 3.29289C3.48043 3.10536 3.73478 3 4 3H10C10.2652 3 10.5196 3.10536 10.7071 3.29289C10.8946 3.48043 11 3.73478 11 4V13H20C20.2652 13 20.5196 13.1054 20.7071 13.2929C20.8946 13.4804 21 13.7348 21 14V20C21 20.2652 20.8946 20.5196 20.7071 20.7071C20.5196 20.8946 20.2652 21 20 21H17V19H15V21Z" fill="#121212"/>
</g>
</g>
<defs>
<clipPath id="clip0_8_4760">
<rect width="24" height="24" fill="white"/>
</clipPath>
</defs>
</svg>
