<svg width="24" height="24" viewBox="0 0 24 24" fill="none" xmlns="http://www.w3.org/2000/svg">
<g id="sailboat-fill" clip-path="url(#clip0_8_6507)">
<g id="Group">
<path id="Vector" d="M3 18H21C21.0929 18 21.1839 18.0259 21.2629 18.0747C21.3419 18.1235 21.4057 18.1934 21.4472 18.2764C21.4887 18.3595 21.5063 18.4524 21.498 18.5449C21.4896 18.6374 21.4557 18.7257 21.4 18.8L19.3 21.6C19.2069 21.7242 19.0861 21.825 18.9472 21.8944C18.8084 21.9639 18.6552 22 18.5 22H5.5C5.34476 22 5.19164 21.9639 5.05279 21.8944C4.91393 21.825 4.79315 21.7242 4.7 21.6L2.6 18.8C2.54429 18.7257 2.51036 18.6374 2.50202 18.5449C2.49368 18.4524 2.51126 18.3595 2.55279 18.2764C2.59431 18.1934 2.65815 18.1235 2.73713 18.0747C2.81612 18.0259 2.90714 18 3 18ZM15 2.42501V15C15 15.2652 14.8946 15.5196 14.7071 15.7071C14.5196 15.8947 14.2652 16 14 16H4.04C3.94592 15.9999 3.85378 15.9732 3.77417 15.923C3.69457 15.8729 3.63074 15.8013 3.59 15.7165C3.54927 15.6317 3.53329 15.5371 3.5439 15.4436C3.55452 15.3501 3.59129 15.2615 3.65 15.188L14.11 2.11301C14.1748 2.03231 14.2629 1.97367 14.3624 1.9452C14.4619 1.91673 14.5678 1.91983 14.6654 1.95406C14.7631 1.98829 14.8477 2.05197 14.9076 2.13632C14.9675 2.22068 14.9998 2.32154 15 2.42501Z" fill="currentColor"/>
</g>
</g>
<defs>
<clipPath id="clip0_8_6507">
<rect width="24" height="24" fill="white"/>
</clipPath>
</defs>
</svg>
