<svg width="24" height="24" viewBox="0 0 24 24" fill="none" xmlns="http://www.w3.org/2000/svg">
<g id="scales-2-line" clip-path="url(#clip0_8_7497)">
<g id="Group">
<path id="Vector" d="M6 2C6 2.513 6.49 3 7 3H17C17.513 3 18 2.51 18 2H20C20 3.657 18.657 5 17 5H13L13.001 7.062C16.947 7.555 20 10.921 20 15V21C20 21.552 19.552 22 19 22H5C4.448 22 4 21.552 4 21V15C4 10.92 7.054 7.554 11 7.062V5H7C5.34 5 4 3.66 4 2H6ZM12 9C8.762 9 6 11.76 6 15V20H18V15C18 11.762 15.238 9 12 9ZM12 11C12.742 11 13.436 11.202 14.032 11.554L11.292 14.293C10.902 14.683 10.902 15.317 11.292 15.707C11.653 16.067 12.221 16.095 12.612 15.79L12.707 15.707L15.447 12.968C15.798 13.564 16 14.258 16 15C16 17.21 14.21 19 12 19C9.79 19 8 17.21 8 15C8 12.79 9.79 11 12 11Z" fill="#121212"/>
</g>
</g>
<defs>
<clipPath id="clip0_8_7497">
<rect width="24" height="24" fill="white"/>
</clipPath>
</defs>
</svg>
