<svg width="24" height="24" viewBox="0 0 24 24" fill="none" xmlns="http://www.w3.org/2000/svg">
<g id="scales-2-fill" clip-path="url(#clip0_8_7369)">
<g id="Group">
<path id="Vector" d="M6 2C6 2.513 6.49 3 7 3H17C17.513 3 18 2.51 18 2H20C20 3.657 18.657 5 17 5H13L13.001 7.062C16.947 7.555 20 10.921 20 15V21C20 21.552 19.552 22 19 22H5C4.448 22 4 21.552 4 21V15C4 10.92 7.054 7.554 11 7.062V5H7C5.34 5 4 3.66 4 2H6ZM12 11C9.79 11 8 12.79 8 15C8 17.21 9.79 19 12 19C14.21 19 16 17.21 16 15C16 14.258 15.798 13.564 15.446 12.968L12.707 15.708L12.613 15.79C12.221 16.095 11.653 16.068 11.293 15.707C10.903 15.317 10.903 14.683 11.293 14.293L14.032 11.553C13.436 11.203 12.742 11 12 11Z" />
</g>
</g>
<defs>
<clipPath id="clip0_8_7369">
<rect width="24" height="24" fill="white"/>
</clipPath>
</defs>
</svg>
