<svg width="24" height="24" viewBox="0 0 24 24" fill="none" xmlns="http://www.w3.org/2000/svg">
<g id="scan-line" clip-path="url(#clip0_8_1728)">
<g id="Group">
<path id="Vector" d="M5.67101 4.25701L13.414 12L12 13.414L5.68001 7.09401C4.5022 8.61297 3.91064 10.5052 4.01357 12.4246C4.1165 14.3439 4.90702 16.162 6.24052 17.5463C7.57402 18.9306 9.36134 19.7885 11.2755 19.9631C13.1897 20.1377 15.1027 19.6172 16.6646 18.497C18.2265 17.3768 19.3329 15.7317 19.7813 13.8626C20.2298 11.9935 19.9903 10.0255 19.1067 8.31853C18.2231 6.61157 16.7544 5.27979 14.9694 4.56685C13.1844 3.8539 11.2024 3.80746 9.386 4.43601L7.85001 2.90001C9.15259 2.30526 10.5681 1.99829 12 2.00001C17.523 2.00001 22 6.47701 22 12C22 17.523 17.523 22 12 22C6.47701 22 2.00001 17.523 2.00001 12C1.9985 10.5178 2.32718 9.05379 2.96217 7.71445C3.59716 6.37511 4.52251 5.19403 5.67101 4.25701Z" />
</g>
</g>
<defs>
<clipPath id="clip0_8_1728">
<rect width="24" height="24" fill="white"/>
</clipPath>
</defs>
</svg>
