<svg width="24" height="24" viewBox="0 0 24 24" fill="none" xmlns="http://www.w3.org/2000/svg">
<g id="scissors-line" clip-path="url(#clip0_8_4484)">
<g id="Group">
<path id="Vector" d="M9.44601 8.03201L12 10.586L18.728 3.85801C19.1031 3.48307 19.6117 3.27244 20.142 3.27244C20.6723 3.27244 21.181 3.48307 21.556 3.85801L9.44601 15.968C9.94051 16.8067 10.1122 17.7969 9.92878 18.753C9.74541 19.7092 9.2196 20.5657 8.44992 21.1619C7.68025 21.7581 6.71954 22.0531 5.7479 21.9917C4.77625 21.9302 3.86037 21.5165 3.17194 20.8281C2.48351 20.1396 2.0698 19.2238 2.00835 18.2521C1.9469 17.2805 2.24193 16.3198 2.83814 15.5501C3.43435 14.7804 4.29081 14.2546 5.24697 14.0712C6.20314 13.8879 7.19335 14.0595 8.03201 14.554L10.586 12L8.03201 9.44601C7.19335 9.94051 6.20314 10.1122 5.24697 9.92878C4.29081 9.74541 3.43435 9.2196 2.83814 8.44992C2.24193 7.68025 1.9469 6.71954 2.00835 5.7479C2.0698 4.77625 2.48351 3.86037 3.17194 3.17194C3.86037 2.48351 4.77625 2.0698 5.7479 2.00835C6.71954 1.9469 7.68025 2.24193 8.44992 2.83814C9.2196 3.43435 9.74541 4.29081 9.92878 5.24697C10.1122 6.20314 9.94051 7.19335 9.44601 8.03201ZM14.826 13.412L21.556 20.142C21.181 20.517 20.6723 20.7276 20.142 20.7276C19.6117 20.7276 19.1031 20.517 18.728 20.142L13.411 14.826L14.826 13.411V13.412ZM7.41401 16.586C7.22952 16.395 7.00883 16.2426 6.76482 16.1378C6.52081 16.033 6.25837 15.9778 5.99281 15.9755C5.72726 15.9732 5.4639 16.0238 5.2181 16.1244C4.97231 16.2249 4.74901 16.3734 4.56122 16.5612C4.37344 16.749 4.22493 16.9723 4.12437 17.2181C4.02381 17.4639 3.9732 17.7273 3.97551 17.9928C3.97782 18.2584 4.03299 18.5208 4.13781 18.7648C4.24263 19.0088 4.39499 19.2295 4.58601 19.414C4.96322 19.7783 5.46842 19.9799 5.99281 19.9754C6.51721 19.9708 7.01883 19.7605 7.38965 19.3896C7.76046 19.0188 7.9708 18.5172 7.97536 17.9928C7.97992 17.4684 7.77833 16.9632 7.41401 16.586ZM7.41401 7.41401C7.60503 7.22952 7.7574 7.00883 7.86221 6.76482C7.96703 6.52081 8.0222 6.25837 8.02451 5.99281C8.02682 5.72726 7.97622 5.4639 7.87565 5.2181C7.77509 4.97231 7.62659 4.74901 7.4388 4.56122C7.25102 4.37344 7.02771 4.22493 6.78192 4.12437C6.53613 4.02381 6.27277 3.9732 6.00721 3.97551C5.74165 3.97782 5.47921 4.03299 5.2352 4.13781C4.99119 4.24263 4.77051 4.39499 4.58601 4.58601C4.2217 4.96322 4.02011 5.46842 4.02466 5.99281C4.02922 6.51721 4.23956 7.01883 4.61037 7.38965C4.98119 7.76046 5.48282 7.9708 6.00721 7.97536C6.5316 7.97992 7.03681 7.77833 7.41401 7.41401Z" fill="#121212"/>
</g>
</g>
<defs>
<clipPath id="clip0_8_4484">
<rect width="24" height="24" fill="white"/>
</clipPath>
</defs>
</svg>
