<svg width="24" height="24" viewBox="0 0 24 24"  xmlns="http://www.w3.org/2000/svg">
<g id="scissors-2-fill" clip-path="url(#clip0_8_4780)">
<g id="Group">
<path id="Vector" d="M12 14.121L9.683 16.438C10.0454 17.2926 10.0993 18.2467 9.83539 19.1367C9.5715 20.0267 9.00627 20.7972 8.23659 21.3161C7.4669 21.8351 6.54069 22.0702 5.61667 21.9811C4.69266 21.8921 3.82839 21.4844 3.17199 20.828C2.51559 20.1716 2.10793 19.3073 2.01887 18.3833C1.92981 17.4593 2.16491 16.5331 2.68386 15.7634C3.20282 14.9937 3.97332 14.4285 4.86331 14.1646C5.75331 13.9007 6.70738 13.9546 7.56201 14.317L9.88001 12L4.21001 6.333C4.0242 6.14727 3.87681 5.92675 3.77625 5.68405C3.67569 5.44135 3.62393 5.18121 3.62393 4.9185C3.62393 4.65579 3.67569 4.39565 3.77625 4.15294C3.87681 3.91024 4.0242 3.68972 4.21001 3.504L4.91801 2.797L12 9.88L19.081 2.798L19.789 3.505C19.9748 3.69072 20.1222 3.91124 20.2228 4.15394C20.3233 4.39665 20.3751 4.65679 20.3751 4.9195C20.3751 5.18221 20.3233 5.44235 20.2228 5.68505C20.1222 5.92775 19.9748 6.14827 19.789 6.334L14.12 12L16.437 14.317C17.2916 13.9546 18.2457 13.9007 19.1357 14.1646C20.0257 14.4285 20.7962 14.9937 21.3151 15.7634C21.8341 16.5331 22.0692 17.4593 21.9801 18.3833C21.8911 19.3073 21.4834 20.1716 20.827 20.828C20.1706 21.4844 19.3063 21.8921 18.3823 21.9811C17.4583 22.0702 16.5321 21.8351 15.7624 21.3161C14.9927 20.7972 14.4275 20.0267 14.1636 19.1367C13.8997 18.2467 13.9536 17.2926 14.316 16.438L12 14.12V14.121ZM6.00001 20C6.53044 20 7.03915 19.7893 7.41422 19.4142C7.78929 19.0391 8.00001 18.5304 8.00001 18C8.00001 17.4696 7.78929 16.9609 7.41422 16.5858C7.03915 16.2107 6.53044 16 6.00001 16C5.46957 16 4.96086 16.2107 4.58579 16.5858C4.21072 16.9609 4.00001 17.4696 4.00001 18C4.00001 18.5304 4.21072 19.0391 4.58579 19.4142C4.96086 19.7893 5.46957 20 6.00001 20ZM18 20C18.5304 20 19.0391 19.7893 19.4142 19.4142C19.7893 19.0391 20 18.5304 20 18C20 17.4696 19.7893 16.9609 19.4142 16.5858C19.0391 16.2107 18.5304 16 18 16C17.4696 16 16.9609 16.2107 16.5858 16.5858C16.2107 16.9609 16 17.4696 16 18C16 18.5304 16.2107 19.0391 16.5858 19.4142C16.9609 19.7893 17.4696 20 18 20Z" />
</g>
</g>
<defs>
<clipPath id="clip0_8_4780">
<rect width="24" height="24" fill="white"/>
</clipPath>
</defs>
</svg>
