<svg width="24" height="24" viewBox="0 0 24 24" fill="none" xmlns="http://www.w3.org/2000/svg">
<g id="scissors-2-line" clip-path="url(#clip0_8_4656)">
<g id="Group">
<path id="Vector" d="M12 13.414L9.446 15.968C9.94049 16.8067 10.1121 17.7969 9.92876 18.7531C9.74539 19.7092 9.21958 20.5657 8.44991 21.1619C7.68023 21.7581 6.71953 22.0531 5.74788 21.9917C4.77624 21.9302 3.86036 21.5165 3.17193 20.8281C2.4835 20.1397 2.06978 19.2238 2.00833 18.2521C1.94688 17.2805 2.24191 16.3198 2.83813 15.5501C3.43434 14.7804 4.2908 14.2546 5.24696 14.0713C6.20312 13.8879 7.19334 14.0595 8.032 14.554L10.586 12L4.565 5.98002C4.37904 5.79428 4.23153 5.5737 4.13088 5.3309C4.03023 5.08811 3.97842 4.82786 3.97842 4.56502C3.97842 4.30219 4.03023 4.04194 4.13088 3.79914C4.23153 3.55635 4.37904 3.33577 4.565 3.15002L12 10.587L19.435 3.15202C19.8099 3.52708 20.0206 4.0357 20.0206 4.56602C20.0206 5.09635 19.8099 5.60497 19.435 5.98002L13.415 12L15.968 14.554C16.8067 14.0595 17.7969 13.8879 18.753 14.0713C19.7092 14.2546 20.5657 14.7804 21.1619 15.5501C21.7581 16.3198 22.0531 17.2805 21.9917 18.2521C21.9302 19.2238 21.5165 20.1397 20.8281 20.8281C20.1396 21.5165 19.2238 21.9302 18.2521 21.9917C17.2805 22.0531 16.3198 21.7581 15.5501 21.1619C14.7804 20.5657 14.2546 19.7092 14.0712 18.7531C13.8879 17.7969 14.0595 16.8067 14.554 15.968L12 13.414ZM6 20C6.53043 20 7.03914 19.7893 7.41421 19.4142C7.78928 19.0392 8 18.5305 8 18C8 17.4696 7.78928 16.9609 7.41421 16.5858C7.03914 16.2107 6.53043 16 6 16C5.46956 16 4.96086 16.2107 4.58578 16.5858C4.21071 16.9609 4 17.4696 4 18C4 18.5305 4.21071 19.0392 4.58578 19.4142C4.96086 19.7893 5.46956 20 6 20ZM18 20C18.5304 20 19.0391 19.7893 19.4142 19.4142C19.7893 19.0392 20 18.5305 20 18C20 17.4696 19.7893 16.9609 19.4142 16.5858C19.0391 16.2107 18.5304 16 18 16C17.4696 16 16.9609 16.2107 16.5858 16.5858C16.2107 16.9609 16 17.4696 16 18C16 18.5305 16.2107 19.0392 16.5858 19.4142C16.9609 19.7893 17.4696 20 18 20Z" fill="#121212"/>
</g>
</g>
<defs>
<clipPath id="clip0_8_4656">
<rect width="24" height="24" fill="white"/>
</clipPath>
</defs>
</svg>
