<svg width="24" height="24" viewBox="0 0 24 24" fill="none" xmlns="http://www.w3.org/2000/svg">
<g id="scissors-cut-line" clip-path="url(#clip0_8_4740)">
<g id="Group">
<path id="Vector" d="M10 6.00004C10 6.73204 9.80301 7.41904 9.46001 8.01004L12 10.585L18.728 3.85704C19.1031 3.4821 19.6117 3.27147 20.142 3.27147C20.6723 3.27147 21.181 3.4821 21.556 3.85704L9.44601 15.967C9.9405 16.8057 10.1121 17.7959 9.92877 18.7521C9.7454 19.7082 9.21959 20.5647 8.44992 21.1609C7.68024 21.7571 6.71954 22.0522 5.74789 21.9907C4.77625 21.9293 3.86037 21.5155 3.17194 20.8271C2.48351 20.1387 2.06979 19.2228 2.00834 18.2512C1.94689 17.2795 2.24192 16.3188 2.83814 15.5491C3.43435 14.7795 4.29081 14.2536 5.24697 14.0703C6.20313 13.8869 7.19335 14.0585 8.03201 14.553L10.586 12L8.03201 9.44604C7.2722 9.89415 6.38559 10.0785 5.51013 9.9705C4.63467 9.86247 3.81947 9.46809 3.1914 8.84872C2.56332 8.22935 2.15759 7.41974 2.03734 6.54588C1.9171 5.67201 2.08909 4.78291 2.52654 4.01692C2.96399 3.25094 3.64237 2.65104 4.45612 2.31057C5.26986 1.97011 6.17333 1.90817 7.02592 2.13441C7.87851 2.36065 8.63241 2.86237 9.17029 3.5615C9.70818 4.26062 9.99988 5.11794 10 6.00004ZM8.00001 6.00004C8.00001 5.46961 7.78929 4.9609 7.41422 4.58583C7.03915 4.21075 6.53044 4.00004 6.00001 4.00004C5.46957 4.00004 4.96086 4.21075 4.58579 4.58583C4.21072 4.9609 4.00001 5.46961 4.00001 6.00004C4.00001 6.53047 4.21072 7.03918 4.58579 7.41425C4.96086 7.78933 5.46957 8.00004 6.00001 8.00004C6.53044 8.00004 7.03915 7.78933 7.41422 7.41425C7.78929 7.03918 8.00001 6.53047 8.00001 6.00004ZM21.556 20.142C21.181 20.517 20.6723 20.7276 20.142 20.7276C19.6117 20.7276 19.1031 20.517 18.728 20.142L13.411 14.826L14.826 13.411L21.556 20.142ZM16 11H18V13H16V11ZM20 11H22V13H20V11ZM6.00001 11H8.00001V13H6.00001V11ZM2.00001 11H4.00001V13H2.00001V11ZM6.00001 20C6.53044 20 7.03915 19.7893 7.41422 19.4143C7.78929 19.0392 8.00001 18.5305 8.00001 18C8.00001 17.4696 7.78929 16.9609 7.41422 16.5858C7.03915 16.2108 6.53044 16 6.00001 16C5.46957 16 4.96086 16.2108 4.58579 16.5858C4.21072 16.9609 4.00001 17.4696 4.00001 18C4.00001 18.5305 4.21072 19.0392 4.58579 19.4143C4.96086 19.7893 5.46957 20 6.00001 20Z" fill="#121212"/>
</g>
</g>
<defs>
<clipPath id="clip0_8_4740">
<rect width="24" height="24" fill="white"/>
</clipPath>
</defs>
</svg>
