<svg width="24" height="24" viewBox="0 0 24 24" fill="none" xmlns="http://www.w3.org/2000/svg">
<g id="scissors-fill" clip-path="url(#clip0_8_4296)">
<g id="Group">
<path id="Vector" d="M9.68299 7.56196L12 9.87996L18.374 3.50496C18.5597 3.31916 18.7802 3.17176 19.0229 3.0712C19.2656 2.97064 19.5258 2.91889 19.7885 2.91889C20.0512 2.91889 20.3113 2.97064 20.554 3.0712C20.7967 3.17176 21.0173 3.31916 21.203 3.50496L21.91 4.21196L9.68299 16.438C10.0454 17.2926 10.0993 18.2467 9.83537 19.1367C9.57148 20.0266 9.00626 20.7971 8.23657 21.3161C7.46689 21.8351 6.54067 22.0702 5.61666 21.9811C4.69265 21.892 3.82838 21.4844 3.17198 20.828C2.51557 20.1716 2.10791 19.3073 2.01885 18.3833C1.9298 17.4593 2.16489 16.5331 2.68385 15.7634C3.2028 14.9937 3.9733 14.4285 4.8633 14.1646C5.75329 13.9007 6.70736 13.9546 7.56199 14.317L9.87999 12L7.56199 9.68296C6.70736 10.0454 5.75329 10.0992 4.8633 9.83534C3.9733 9.57145 3.2028 9.00623 2.68385 8.23654C2.16489 7.46686 1.9298 6.54064 2.01885 5.61663C2.10791 4.69262 2.51557 3.82835 3.17198 3.17195C3.82838 2.51554 4.69265 2.10788 5.61666 2.01882C6.54067 1.92977 7.46689 2.16486 8.23657 2.68382C9.00626 3.20277 9.57148 3.97327 9.83537 4.86327C10.0993 5.75326 10.0454 6.70733 9.68299 7.56196ZM5.99999 7.99996C6.53042 7.99996 7.03913 7.78925 7.4142 7.41417C7.78928 7.0391 7.99999 6.53039 7.99999 5.99996C7.99999 5.46953 7.78928 4.96082 7.4142 4.58575C7.03913 4.21067 6.53042 3.99996 5.99999 3.99996C5.46956 3.99996 4.96085 4.21067 4.58578 4.58575C4.2107 4.96082 3.99999 5.46953 3.99999 5.99996C3.99999 6.53039 4.2107 7.0391 4.58578 7.41417C4.96085 7.78925 5.46956 7.99996 5.99999 7.99996ZM5.99999 20C6.53042 20 7.03913 19.7892 7.4142 19.4142C7.78928 19.0391 7.99999 18.5304 7.99999 18C7.99999 17.4695 7.78928 16.9608 7.4142 16.5857C7.03913 16.2107 6.53042 16 5.99999 16C5.46956 16 4.96085 16.2107 4.58578 16.5857C4.2107 16.9608 3.99999 17.4695 3.99999 18C3.99999 18.5304 4.2107 19.0391 4.58578 19.4142C4.96085 19.7892 5.46956 20 5.99999 20ZM15.535 13.413L21.91 19.789L21.203 20.496C21.0173 20.6818 20.7967 20.8292 20.554 20.9297C20.3113 21.0303 20.0512 21.082 19.7885 21.082C19.5258 21.082 19.2656 21.0303 19.0229 20.9297C18.7802 20.8292 18.5597 20.6818 18.374 20.496L13.414 15.535L15.534 13.413H15.535Z" fill="#121212"/>
</g>
</g>
<defs>
<clipPath id="clip0_8_4296">
<rect width="24" height="24" fill="white"/>
</clipPath>
</defs>
</svg>
