<svg width="24" height="24" viewBox="0 0 24 24" fill="none" xmlns="http://www.w3.org/2000/svg">
<g id="search-eye-fill" clip-path="url(#clip0_8_8391)">
<g id="Group">
<path id="Vector" d="M18.031 16.617L22.314 20.899L20.899 22.314L16.617 18.031C15.0237 19.3082 13.042 20.0029 11 20C6.032 20 2 15.968 2 11C2 6.032 6.032 2 11 2C15.968 2 20 6.032 20 11C20.0029 13.042 19.3082 15.0237 18.031 16.617ZM12.178 7.177C11.3244 6.9142 10.4074 6.94466 9.57305 7.26352C8.73875 7.58238 8.03516 8.1713 7.5744 8.93644C7.11365 9.70158 6.92223 10.5989 7.03064 11.4855C7.13906 12.372 7.54108 13.1968 8.17264 13.8284C8.8042 14.4599 9.62896 14.8619 10.5155 14.9704C11.4021 15.0788 12.2994 14.8874 13.0646 14.4266C13.8297 13.9658 14.4186 13.2623 14.7375 12.4279C15.0563 11.5936 15.0868 10.6766 14.824 9.823C14.6906 10.1177 14.4878 10.3757 14.2328 10.5747C13.9779 10.7738 13.6784 10.9081 13.3602 10.9661C13.042 11.024 12.7144 11.0039 12.4056 10.9075C12.0969 10.811 11.8161 10.6411 11.5874 10.4124C11.3587 10.1836 11.1889 9.90276 11.0926 9.59395C10.9963 9.28515 10.9763 8.9576 11.0344 8.63938C11.0925 8.32116 11.2268 8.02177 11.426 7.76689C11.6252 7.51202 11.8832 7.30926 12.178 7.176V7.177Z" fill="#121212"/>
</g>
</g>
<defs>
<clipPath id="clip0_8_8391">
<rect width="24" height="24" fill="white"/>
</clipPath>
</defs>
</svg>
