<svg width="24" height="24" viewBox="0 0 24 24"  xmlns="http://www.w3.org/2000/svg">
<g id="send-to-back" clip-path="url(#clip0_8_2774)">
<g id="Group">
<path id="Vector" d="M11 3C11.552 3 12 3.448 12 4V6H17C17.552 6 18 6.448 18 7V12H20C20.552 12 21 12.448 21 13V20C21 20.552 20.552 21 20 21H13C12.448 21 12 20.552 12 20V18H7C6.448 18 6 17.552 6 17V12H4C3.448 12 3 11.552 3 11V4C3 3.448 3.448 3 4 3H11ZM16 8H12V11C12 11.552 11.552 12 11 12H8V16H12V13C12 12.448 12.448 12 13 12H16V8Z" />
</g>
</g>
<defs>
<clipPath id="clip0_8_2774">
<rect width="24" height="24" fill="white"/>
</clipPath>
</defs>
</svg>
