<svg width="24" height="24" viewBox="0 0 24 24"  xmlns="http://www.w3.org/2000/svg">
<g id="settings-three-line" clip-path="url(#clip0_8_9219)">
<g id="Group">
<path id="Vector" d="M3.3403 17.0001C2.91758 16.2691 2.58897 15.4875 2.3623 14.6741C2.85561 14.4232 3.2699 14.0407 3.55933 13.569C3.84877 13.0972 4.00207 12.5546 4.00228 12.0012C4.00248 11.4477 3.84959 10.905 3.56051 10.4331C3.27143 9.96112 2.85742 9.57834 2.3643 9.32707C2.81634 7.69255 3.67703 6.20002 4.8653 4.99007C5.3294 5.29179 5.86792 5.45923 6.42128 5.47385C6.97464 5.48847 7.52126 5.3497 8.00063 5.0729C8.48001 4.7961 8.87346 4.39207 9.13743 3.90551C9.4014 3.41895 9.52561 2.86884 9.4963 2.31607C11.1384 1.89169 12.8615 1.89238 14.5033 2.31807C14.4743 2.87083 14.5987 3.42086 14.8629 3.90728C15.1271 4.39369 15.5207 4.79754 16.0001 5.07413C16.4796 5.35071 17.0262 5.48925 17.5796 5.47442C18.1329 5.45958 18.6713 5.29195 19.1353 4.99007C19.7143 5.58007 20.2283 6.25107 20.6603 7.00007C21.0933 7.74907 21.4173 8.53007 21.6383 9.32607C21.145 9.57697 20.7307 9.95944 20.4413 10.4312C20.1518 10.9029 19.9985 11.4455 19.9983 11.999C19.9981 12.5524 20.151 13.0951 20.4401 13.5671C20.7292 14.039 21.1432 14.4218 21.6363 14.6731C21.1843 16.3076 20.3236 17.8001 19.1353 19.0101C18.6712 18.7083 18.1327 18.5409 17.5793 18.5263C17.026 18.5117 16.4794 18.6504 16 18.9272C15.5206 19.204 15.1272 19.6081 14.8632 20.0946C14.5992 20.5812 14.475 21.1313 14.5043 21.6841C12.8622 22.1084 11.1391 22.1078 9.4973 21.6821C9.52635 21.1293 9.4019 20.5793 9.13773 20.0929C8.87355 19.6064 8.47995 19.2026 8.00048 18.926C7.52101 18.6494 6.97436 18.5109 6.42103 18.5257C5.8677 18.5406 5.32927 18.7082 4.8653 19.0101C4.2743 18.407 3.7619 17.7317 3.3403 17.0001ZM9.0003 17.1961C10.0659 17.8107 10.8672 18.7971 11.2503 19.9661C11.7493 20.0131 12.2503 20.0141 12.7493 19.9671C13.1327 18.7979 13.9343 17.8115 15.0003 17.1971C16.0655 16.5808 17.3208 16.3795 18.5253 16.6321C18.8153 16.2241 19.0653 15.7891 19.2733 15.3341C18.4527 14.4175 17.9994 13.2303 18.0003 12.0001C18.0003 10.7401 18.4703 9.56307 19.2733 8.66607C19.0638 8.21122 18.8128 7.7767 18.5233 7.36807C17.3196 7.62038 16.0651 7.41954 15.0003 6.80407C13.9347 6.18944 13.1335 5.20305 12.7503 4.03407C12.2513 3.98707 11.7503 3.98607 11.2513 4.03307C10.8679 5.20221 10.0663 6.18863 9.0003 6.80307C7.93509 7.41938 6.67978 7.62059 5.4753 7.36807C5.18587 7.77635 4.93544 8.21093 4.7273 8.66607C5.54788 9.58263 6.00119 10.7699 6.0003 12.0001C6.0003 13.2601 5.5303 14.4371 4.7273 15.3341C4.93678 15.7889 5.18784 16.2234 5.4773 16.6321C6.68102 16.3798 7.93551 16.5806 9.0003 17.1961ZM12.0003 15.0001C11.2047 15.0001 10.4416 14.684 9.87898 14.1214C9.31637 13.5588 9.0003 12.7957 9.0003 12.0001C9.0003 11.2044 9.31637 10.4414 9.87898 9.87875C10.4416 9.31614 11.2047 9.00007 12.0003 9.00007C12.796 9.00007 13.559 9.31614 14.1216 9.87875C14.6842 10.4414 15.0003 11.2044 15.0003 12.0001C15.0003 12.7957 14.6842 13.5588 14.1216 14.1214C13.559 14.684 12.796 15.0001 12.0003 15.0001ZM12.0003 13.0001C12.2655 13.0001 12.5199 12.8947 12.7074 12.7072C12.8949 12.5196 13.0003 12.2653 13.0003 12.0001C13.0003 11.7348 12.8949 11.4805 12.7074 11.293C12.5199 11.1054 12.2655 11.0001 12.0003 11.0001C11.7351 11.0001 11.4807 11.1054 11.2932 11.293C11.1057 11.4805 11.0003 11.7348 11.0003 12.0001C11.0003 12.2653 11.1057 12.5196 11.2932 12.7072C11.4807 12.8947 11.7351 13.0001 12.0003 13.0001Z" />
</g>
</g>
<defs>
<clipPath id="clip0_8_9219">
<rect width="24" height="24" fill="white"/>
</clipPath>
</defs>
</svg>
