<svg width="24" height="24" viewBox="0 0 24 24" fill="none" xmlns="http://www.w3.org/2000/svg">
<g id="settings-4-fill" clip-path="url(#clip0_8_9151)">
<g id="Group">
<path id="Vector" d="M5.33356 4.54507C6.36029 3.62535 7.56625 2.92806 8.87556 2.49707C9.24994 2.96609 9.72522 3.3447 10.2661 3.60474C10.8069 3.86478 11.3994 3.99956 11.9996 3.99907C12.5997 3.99956 13.1922 3.86478 13.733 3.60474C14.2739 3.3447 14.7492 2.96609 15.1236 2.49707C16.4329 2.92806 17.6388 3.62535 18.6656 4.54507C18.4471 5.10352 18.3572 5.70401 18.4025 6.30196C18.4479 6.89991 18.6273 7.47997 18.9276 7.99907C19.2272 8.51916 19.6402 8.96502 20.1358 9.30349C20.6315 9.64196 21.1971 9.86433 21.7906 9.95407C22.0711 11.303 22.0711 12.6952 21.7906 14.0441C20.6306 14.2221 19.5606 14.9041 18.9276 15.9991C18.6272 16.5183 18.4476 17.0985 18.4023 17.6967C18.3569 18.2948 18.4469 18.8955 18.6656 19.4541C17.6387 20.3734 16.4328 21.0704 15.1236 21.5011C14.7491 21.0322 14.2738 20.6538 13.7329 20.394C13.1921 20.1341 12.5996 19.9995 11.9996 20.0001C11.3994 19.9996 10.8069 20.1344 10.2661 20.3944C9.72522 20.6544 9.24994 21.033 8.87556 21.5021C7.56633 21.0714 6.36038 20.3744 5.33356 19.4551C5.55221 18.8965 5.6422 18.2958 5.59684 17.6977C5.55148 17.0995 5.37194 16.5193 5.07156 16.0001C4.77185 15.4802 4.35881 15.0345 3.86314 14.6962C3.36748 14.3579 2.80194 14.1357 2.20856 14.0461C1.92788 12.6968 1.92788 11.3043 2.20856 9.95507C2.80203 9.86533 3.36763 9.64296 3.8633 9.30449C4.35897 8.96602 4.77196 8.52016 5.07156 8.00007C5.37179 7.48097 5.55124 6.90091 5.5966 6.30296C5.64196 5.70501 5.55205 5.10452 5.33356 4.54607V4.54507ZM13.4996 14.5971C13.8435 14.4015 14.1454 14.1399 14.3878 13.8272C14.6302 13.5145 14.8083 13.157 14.912 12.7751C15.0157 12.3933 15.0428 11.9948 14.9918 11.6024C14.9408 11.2101 14.8127 10.8317 14.6149 10.4891C14.417 10.1465 14.1534 9.84634 13.8391 9.60601C13.5248 9.36569 13.1661 9.1899 12.7836 9.08877C12.4011 8.98765 12.0024 8.96318 11.6104 9.01678C11.2184 9.07037 10.8409 9.20098 10.4996 9.40107C9.81614 9.80172 9.31894 10.4564 9.11645 11.2223C8.91396 11.9882 9.02263 12.8031 9.41874 13.4892C9.81485 14.1752 10.4662 14.6768 11.2308 14.8843C11.9953 15.0919 12.8109 14.9886 13.4996 14.5971Z" fill="#121212"/>
</g>
</g>
<defs>
<clipPath id="clip0_8_9151">
<rect width="24" height="24" fill="white"/>
</clipPath>
</defs>
</svg>
