<svg width="24" height="24" viewBox="0 0 24 24" fill="none" xmlns="http://www.w3.org/2000/svg">
<g id="settings-two-line" clip-path="url(#clip0_8_9215)">
<g id="Group">
<path id="Vector" d="M8.68637 3.99988L11.2934 1.39288C11.4809 1.20541 11.7352 1.1001 12.0004 1.1001C12.2655 1.1001 12.5198 1.20541 12.7074 1.39288L15.3144 3.99988H19.0004C19.2656 3.99988 19.5199 4.10524 19.7075 4.29278C19.895 4.48031 20.0004 4.73467 20.0004 4.99988V8.68588L22.6074 11.2929C22.7948 11.4804 22.9002 11.7347 22.9002 11.9999C22.9002 12.265 22.7948 12.5194 22.6074 12.7069L20.0004 15.3139V18.9999C20.0004 19.2651 19.895 19.5195 19.7075 19.707C19.5199 19.8945 19.2656 19.9999 19.0004 19.9999H15.3144L12.7074 22.6069C12.5198 22.7944 12.2655 22.8997 12.0004 22.8997C11.7352 22.8997 11.4809 22.7944 11.2934 22.6069L8.68637 19.9999H5.00037C4.73516 19.9999 4.4808 19.8945 4.29327 19.707C4.10573 19.5195 4.00037 19.2651 4.00037 18.9999V15.3139L1.39337 12.7069C1.2059 12.5194 1.10059 12.265 1.10059 11.9999C1.10059 11.7347 1.2059 11.4804 1.39337 11.2929L4.00037 8.68588V4.99988C4.00037 4.73467 4.10573 4.48031 4.29327 4.29278C4.4808 4.10524 4.73516 3.99988 5.00037 3.99988H8.68637ZM6.00037 5.99988V9.51488L3.51537 11.9999L6.00037 14.4849V17.9999H9.51537L12.0004 20.4849L14.4854 17.9999H18.0004V14.4849L20.4854 11.9999L18.0004 9.51488V5.99988H14.4854L12.0004 3.51488L9.51537 5.99988H6.00037ZM12.0004 15.9999C10.9395 15.9999 9.92209 15.5785 9.17195 14.8283C8.4218 14.0782 8.00037 13.0608 8.00037 11.9999C8.00037 10.939 8.4218 9.9216 9.17195 9.17146C9.92209 8.42131 10.9395 7.99988 12.0004 7.99988C13.0612 7.99988 14.0787 8.42131 14.8288 9.17146C15.5789 9.9216 16.0004 10.939 16.0004 11.9999C16.0004 13.0608 15.5789 14.0782 14.8288 14.8283C14.0787 15.5785 13.0612 15.9999 12.0004 15.9999ZM12.0004 13.9999C12.5308 13.9999 13.0395 13.7892 13.4146 13.4141C13.7897 13.039 14.0004 12.5303 14.0004 11.9999C14.0004 11.4695 13.7897 10.9607 13.4146 10.5857C13.0395 10.2106 12.5308 9.99988 12.0004 9.99988C11.4699 9.99988 10.9612 10.2106 10.5862 10.5857C10.2111 10.9607 10.0004 11.4695 10.0004 11.9999C10.0004 12.5303 10.2111 13.039 10.5862 13.4141C10.9612 13.7892 11.4699 13.9999 12.0004 13.9999Z" fill="currentColor"/>
</g>
</g>
<defs>
<clipPath id="clip0_8_9215">
<rect width="24" height="24" fill="white"/>
</clipPath>
</defs>
</svg>
