<svg width="24" height="24" viewBox="0 0 24 24" fill="none" xmlns="http://www.w3.org/2000/svg">
<g id="shape-line" clip-path="url(#clip0_8_4832)">
<g id="Group">
<path id="Vector" d="M7.83 20C7.66096 20.4778 7.37362 20.9051 6.99479 21.2419C6.61596 21.5787 6.15799 21.8141 5.6636 21.9261C5.16922 22.038 4.65453 22.0229 4.16756 21.8822C3.68059 21.7414 3.2372 21.4796 2.87877 21.1212C2.52033 20.7628 2.25853 20.3194 2.11779 19.8324C1.97705 19.3454 1.96195 18.8307 2.0739 18.3364C2.18586 17.842 2.42122 17.384 2.75803 17.0052C3.09484 16.6264 3.52212 16.339 4 16.17V7.82996C3.52212 7.66092 3.09484 7.37358 2.75803 6.99475C2.42122 6.61592 2.18586 6.15795 2.0739 5.66357C1.96195 5.16918 1.97705 4.65449 2.11779 4.16752C2.25853 3.68055 2.52033 3.23716 2.87877 2.87873C3.2372 2.52029 3.68059 2.25849 4.16756 2.11775C4.65453 1.97701 5.16922 1.96191 5.6636 2.07387C6.15799 2.18582 6.61596 2.42118 6.99479 2.75799C7.37362 3.0948 7.66096 3.52208 7.83 3.99996H16.17C16.339 3.52208 16.6264 3.0948 17.0052 2.75799C17.384 2.42118 17.842 2.18582 18.3364 2.07387C18.8308 1.96191 19.3455 1.97701 19.8324 2.11775C20.3194 2.25849 20.7628 2.52029 21.1212 2.87873C21.4797 3.23716 21.7415 3.68055 21.8822 4.16752C22.023 4.65449 22.0381 5.16918 21.9261 5.66357C21.8141 6.15795 21.5788 6.61592 21.242 6.99475C20.9052 7.37358 20.4779 7.66092 20 7.82996V16.17C20.4779 16.339 20.9052 16.6264 21.242 17.0052C21.5788 17.384 21.8141 17.842 21.9261 18.3364C22.0381 18.8307 22.023 19.3454 21.8822 19.8324C21.7415 20.3194 21.4797 20.7628 21.1212 21.1212C20.7628 21.4796 20.3194 21.7414 19.8324 21.8822C19.3455 22.0229 18.8308 22.038 18.3364 21.9261C17.842 21.8141 17.384 21.5787 17.0052 21.2419C16.6264 20.9051 16.339 20.4778 16.17 20H7.83ZM7.83 18H16.17C16.3196 17.578 16.5615 17.1947 16.8781 16.8781C17.1947 16.5615 17.578 16.3196 18 16.17V7.82996C17.578 7.68036 17.1947 7.43843 16.8781 7.12183C16.5615 6.80524 16.3196 6.42196 16.17 5.99996H7.83C7.68039 6.42196 7.43847 6.80524 7.12187 7.12183C6.80528 7.43843 6.422 7.68036 6 7.82996V16.17C6.422 16.3196 6.80528 16.5615 7.12187 16.8781C7.43847 17.1947 7.68039 17.578 7.83 18ZM5 5.99996C5.26522 5.99996 5.51957 5.89461 5.70711 5.70707C5.89464 5.51953 6 5.26518 6 4.99996C6 4.73475 5.89464 4.48039 5.70711 4.29286C5.51957 4.10532 5.26522 3.99996 5 3.99996C4.73479 3.99996 4.48043 4.10532 4.2929 4.29286C4.10536 4.48039 4 4.73475 4 4.99996C4 5.26518 4.10536 5.51953 4.2929 5.70707C4.48043 5.89461 4.73479 5.99996 5 5.99996ZM19 5.99996C19.2652 5.99996 19.5196 5.89461 19.7071 5.70707C19.8946 5.51953 20 5.26518 20 4.99996C20 4.73475 19.8946 4.48039 19.7071 4.29286C19.5196 4.10532 19.2652 3.99996 19 3.99996C18.7348 3.99996 18.4804 4.10532 18.2929 4.29286C18.1054 4.48039 18 4.73475 18 4.99996C18 5.26518 18.1054 5.51953 18.2929 5.70707C18.4804 5.89461 18.7348 5.99996 19 5.99996ZM19 20C19.2652 20 19.5196 19.8946 19.7071 19.7071C19.8946 19.5195 20 19.2652 20 19C20 18.7347 19.8946 18.4804 19.7071 18.2929C19.5196 18.1053 19.2652 18 19 18C18.7348 18 18.4804 18.1053 18.2929 18.2929C18.1054 18.4804 18 18.7347 18 19C18 19.2652 18.1054 19.5195 18.2929 19.7071C18.4804 19.8946 18.7348 20 19 20ZM5 20C5.26522 20 5.51957 19.8946 5.70711 19.7071C5.89464 19.5195 6 19.2652 6 19C6 18.7347 5.89464 18.4804 5.70711 18.2929C5.51957 18.1053 5.26522 18 5 18C4.73479 18 4.48043 18.1053 4.2929 18.2929C4.10536 18.4804 4 18.7347 4 19C4 19.2652 4.10536 19.5195 4.2929 19.7071C4.48043 19.8946 4.73479 20 5 20Z" fill="#121212"/>
</g>
</g>
<defs>
<clipPath id="clip0_8_4832">
<rect width="24" height="24" fill="white"/>
</clipPath>
</defs>
</svg>
