<svg width="24" height="24" viewBox="0 0 24 24" fill="none" xmlns="http://www.w3.org/2000/svg">
<g id="shield-user-fill" clip-path="url(#clip0_8_9063)">
<g id="Group">
<path id="Vector" d="M3.783 2.826L12 1L20.217 2.826C20.4391 2.87536 20.6377 2.99897 20.78 3.1764C20.9224 3.35384 21 3.57452 21 3.802V13.789C20.9999 14.7767 20.756 15.7492 20.2899 16.62C19.8238 17.4908 19.1499 18.2331 18.328 18.781L12 23L5.672 18.781C4.85027 18.2332 4.17646 17.4911 3.71035 16.6205C3.24424 15.7498 3.00024 14.7776 3 13.79V3.802C3.00004 3.57452 3.07764 3.35384 3.21999 3.1764C3.36234 2.99897 3.56094 2.87536 3.783 2.826ZM12 11C12.663 11 13.2989 10.7366 13.7678 10.2678C14.2366 9.79893 14.5 9.16304 14.5 8.5C14.5 7.83696 14.2366 7.20107 13.7678 6.73223C13.2989 6.26339 12.663 6 12 6C11.337 6 10.7011 6.26339 10.2322 6.73223C9.76339 7.20107 9.5 7.83696 9.5 8.5C9.5 9.16304 9.76339 9.79893 10.2322 10.2678C10.7011 10.7366 11.337 11 12 11ZM7.527 16H16.473C16.3518 14.8984 15.8283 13.8803 15.0029 13.1407C14.1775 12.4012 13.1082 11.9922 12 11.9922C10.8918 11.9922 9.82248 12.4012 8.99708 13.1407C8.17168 13.8803 7.64822 14.8984 7.527 16Z" />
</g>
</g>
<defs>
<clipPath id="clip0_8_9063">
<rect width="24" height="24" fill="white"/>
</clipPath>
</defs>
</svg>
