<svg width="24" height="24" viewBox="0 0 24 24"  xmlns="http://www.w3.org/2000/svg">
<g id="shopping-bag-fill" clip-path="url(#clip0_8_3090)">
<g id="Group">
<path id="Vector" d="M12 1C12.6566 1 13.3068 1.12933 13.9134 1.3806C14.52 1.63188 15.0712 2.00017 15.5355 2.46447C15.9998 2.92876 16.3681 3.47995 16.6194 4.08658C16.8707 4.69321 17 5.34339 17 6V8H20C20.2652 8 20.5196 8.10536 20.7071 8.29289C20.8946 8.48043 21 8.73478 21 9V21C21 21.2652 20.8946 21.5196 20.7071 21.7071C20.5196 21.8946 20.2652 22 20 22H4C3.73478 22 3.48043 21.8946 3.29289 21.7071C3.10536 21.5196 3 21.2652 3 21V9C3 8.73478 3.10536 8.48043 3.29289 8.29289C3.48043 8.10536 3.73478 8 4 8H7V6C7 4.67392 7.52678 3.40215 8.46447 2.46447C9.40215 1.52678 10.6739 1 12 1ZM17 11H15V12C15.0003 12.2549 15.0979 12.5 15.2728 12.6854C15.4478 12.8707 15.687 12.9822 15.9414 12.9972C16.1958 13.0121 16.4464 12.9293 16.6418 12.7657C16.8373 12.6021 16.9629 12.3701 16.993 12.117L17 12V11ZM9 11H7V12C7.00028 12.2549 7.09788 12.5 7.27285 12.6854C7.44782 12.8707 7.68695 12.9822 7.94139 12.9972C8.19584 13.0121 8.44638 12.9293 8.64183 12.7657C8.83729 12.6021 8.9629 12.3701 8.993 12.117L9 12V11ZM12 3C11.2348 2.99996 10.4985 3.29233 9.94174 3.81728C9.38499 4.34224 9.04989 5.06011 9.005 5.824L9 6V8H15V6C15 5.23479 14.7077 4.49849 14.1827 3.94174C13.6578 3.38499 12.9399 3.04989 12.176 3.005L12 3Z" />
</g>
</g>
<defs>
<clipPath id="clip0_8_3090">
<rect width="24" height="24" fill="white"/>
</clipPath>
</defs>
</svg>
