<svg width="24" height="24" viewBox="0 0 24 24"  xmlns="http://www.w3.org/2000/svg">
<g id="showers-fill" clip-path="url(#clip0_8_9460)">
<g id="Group">
<path id="Vector" d="M15 18H8.99998V21H6.99998V17.748C5.67369 17.4048 4.45775 16.7267 3.46867 15.7788C2.4796 14.8309 1.75052 13.6448 1.3513 12.3343C0.952078 11.0238 0.896088 9.63272 1.1887 8.29436C1.4813 6.956 2.1127 5.71521 3.0224 4.69086C3.93209 3.66652 5.0896 2.89295 6.38402 2.44427C7.67844 1.99559 9.06639 1.88684 10.4149 2.12843C11.7634 2.37003 13.0273 2.95388 14.0854 3.82403C15.1435 4.69419 15.9605 5.8215 16.458 7.09796C17.21 6.95406 17.9838 6.96878 18.7299 7.14117C19.4759 7.31356 20.1777 7.63982 20.7904 8.09906C21.403 8.55831 21.9131 9.14042 22.2878 9.80813C22.6626 10.4758 22.8938 11.2144 22.9666 11.9767C23.0395 12.7389 22.9524 13.5079 22.7109 14.2345C22.4694 14.9611 22.0789 15.6293 21.5643 16.1963C21.0497 16.7633 20.4224 17.2166 19.7225 17.5272C19.0227 17.8378 18.2657 17.9988 17.5 18L17 18.001V21.001H15V18.001V18ZM11 20H13V23H11V20Z" />
</g>
</g>
<defs>
<clipPath id="clip0_8_9460">
<rect width="24" height="24" fill="white"/>
</clipPath>
</defs>
</svg>
