<svg width="24" height="24" viewBox="0 0 24 24" fill="none" xmlns="http://www.w3.org/2000/svg">
<g id="signal-wifi-1-line" clip-path="url(#clip0_8_2136)">
<g id="Group">
<path id="Vector" d="M12 3C16.284 3 20.22 4.497 23.31 6.996L12 21L0.690002 6.997C3.78 4.497 7.714 3 12 3ZM12 15C11.307 15 10.633 15.117 10 15.34L12 17.817L14 15.34C13.37 15.12 12.693 15 12 15ZM12 5C8.972 5 6.077 5.842 3.58 7.392L8.688 13.716C9.698 13.256 10.818 13 12 13C13.181 13 14.303 13.256 15.312 13.716L20.42 7.39C17.922 5.841 15.027 5 12 5Z" fill="currentColor"/>
</g>
</g>
<defs>
<clipPath id="clip0_8_2136">
<rect width="24" height="24" fill="white"/>
</clipPath>
</defs>
</svg>
