<svg width="24" height="24" viewBox="0 0 24 24" fill="none" xmlns="http://www.w3.org/2000/svg">
<g id="signal-wifi-2-line" clip-path="url(#clip0_8_1696)">
<g id="Group">
<path id="Vector" d="M12 3C16.284 3 20.22 4.497 23.31 6.996L12 21L0.690002 6.997C3.78 4.497 7.714 3 12 3ZM12 12C10.58 12 9.236 12.33 8.041 12.915L12 17.817L15.958 12.915C14.764 12.329 13.42 12 12 12ZM12 5C8.972 5 6.077 5.842 3.58 7.392L6.758 11.327C8.316 10.481 10.102 10 12 10C13.898 10 15.683 10.48 17.241 11.327L20.42 7.39C17.922 5.841 15.027 5 12 5Z" />
</g>
</g>
<defs>
<clipPath id="clip0_8_1696">
<rect width="24" height="24" fill="white"/>
</clipPath>
</defs>
</svg>
