<svg width="24" height="24" viewBox="0 0 24 24" fill="none" xmlns="http://www.w3.org/2000/svg">
<g id="signal-wifi-3-line" clip-path="url(#clip0_8_1700)">
<g id="Group">
<path id="Vector" d="M12 3C16.284 3 20.22 4.497 23.31 6.996L12 21L0.690002 6.997C3.78 4.497 7.714 3 12 3ZM12 10C10.102 10 8.317 10.48 6.759 11.327L11.999 17.817L17.241 11.327C15.683 10.48 13.898 10 12 10ZM12 5C8.972 5 6.077 5.842 3.58 7.392L5.484 9.749C7.4 8.637 9.625 8 12 8C14.375 8 16.6 8.637 18.516 9.749L20.42 7.39C17.922 5.841 15.027 5 12 5Z" fill="#121212"/>
</g>
</g>
<defs>
<clipPath id="clip0_8_1700">
<rect width="24" height="24" fill="white"/>
</clipPath>
</defs>
</svg>
