<svg width="24" height="24" viewBox="0 0 24 24" fill="none" xmlns="http://www.w3.org/2000/svg">
<g id="skull-2-fill" clip-path="url(#clip0_8_7834)">
<g id="Group">
<path id="Vector" d="M12 2C17.523 2 22 6.477 22 12V15.764C22 16.1355 21.8965 16.4996 21.7012 16.8156C21.5058 17.1316 21.2263 17.3869 20.894 17.553L18 19V20C18 20.7652 17.7077 21.5015 17.1827 22.0583C16.6578 22.615 15.9399 22.9501 15.176 22.995L14.95 23C14.972 22.8911 14.9867 22.7809 14.994 22.67L15 22.5V22C15.0002 21.4954 14.8096 21.0094 14.4665 20.6395C14.1234 20.2695 13.6532 20.0428 13.15 20.005L13 20H11C10.4954 19.9998 10.0094 20.1904 9.63945 20.5335C9.26947 20.8766 9.04284 21.3468 9.005 21.85L9 22V22.5C9 22.671 9.017 22.839 9.05 23H9C8.20435 23 7.44129 22.6839 6.87868 22.1213C6.31607 21.5587 6 20.7956 6 20V19L3.106 17.553C2.77353 17.3869 2.49394 17.1314 2.29858 16.8152C2.10322 16.499 1.99983 16.1347 2 15.763V12C2 6.477 6.477 2 12 2ZM8 11C7.46957 11 6.96086 11.2107 6.58579 11.5858C6.21071 11.9609 6 12.4696 6 13C6 13.5304 6.21071 14.0391 6.58579 14.4142C6.96086 14.7893 7.46957 15 8 15C8.53043 15 9.03914 14.7893 9.41421 14.4142C9.78929 14.0391 10 13.5304 10 13C10 12.4696 9.78929 11.9609 9.41421 11.5858C9.03914 11.2107 8.53043 11 8 11ZM16 11C15.4696 11 14.9609 11.2107 14.5858 11.5858C14.2107 11.9609 14 12.4696 14 13C14 13.5304 14.2107 14.0391 14.5858 14.4142C14.9609 14.7893 15.4696 15 16 15C16.5304 15 17.0391 14.7893 17.4142 14.4142C17.7893 14.0391 18 13.5304 18 13C18 12.4696 17.7893 11.9609 17.4142 11.5858C17.0391 11.2107 16.5304 11 16 11Z" fill="currentColor"/>
</g>
</g>
<defs>
<clipPath id="clip0_8_7834">
<rect width="24" height="24" fill="white"/>
</clipPath>
</defs>
</svg>
