<svg width="24" height="24" viewBox="0 0 24 24" fill="none" xmlns="http://www.w3.org/2000/svg">
<g id="skype-line" clip-path="url(#clip0_8_5390)">
<g id="Group">
<path id="Vector" d="M13.004 18.423C13.4279 18.3576 13.8616 18.4302 14.241 18.63C14.8548 18.9527 15.5557 19.0706 16.2412 18.9665C16.9268 18.8624 17.5611 18.5417 18.0514 18.0514C18.5417 17.5611 18.8624 16.9268 18.9665 16.2412C19.0706 15.5557 18.9527 14.8548 18.63 14.241C18.4302 13.8616 18.3576 13.4279 18.423 13.004C18.5814 11.9926 18.4985 10.958 18.1813 9.98463C17.864 9.01125 17.3213 8.12657 16.5974 7.40265C15.8735 6.67873 14.9888 6.13604 14.0154 5.81879C13.0421 5.50155 12.0075 5.41871 10.996 5.57704C10.5722 5.64245 10.1385 5.56988 9.75904 5.37004C9.14516 5.04713 8.44408 4.92908 7.75832 5.03317C7.07255 5.13726 6.43807 5.45802 5.94767 5.94853C5.45726 6.43905 5.13665 7.07361 5.03272 7.75939C4.92878 8.44518 5.04699 9.14624 5.37004 9.76004C5.56988 10.1395 5.64245 10.5732 5.57704 10.997C5.41871 12.0085 5.50155 13.0431 5.81879 14.0164C6.13604 14.9898 6.67873 15.8745 7.40265 16.5984C8.12657 17.3223 9.01125 17.865 9.98463 18.1823C10.958 18.4995 11.9926 18.5824 13.004 18.424V18.423ZM12 20.5C10.7729 20.5003 9.56025 20.2348 8.44546 19.7218C7.33067 19.2089 6.34016 18.4606 5.54201 17.5285C4.74387 16.5964 4.15702 15.5025 3.82179 14.322C3.48656 13.1416 3.41091 11.9025 3.60004 10.69C3.07877 9.69855 2.88829 8.56632 3.05644 7.45885C3.2246 6.35138 3.74257 5.32672 4.53464 4.53464C5.32672 3.74257 6.35138 3.2246 7.45885 3.05644C8.56632 2.88829 9.69855 3.07877 10.69 3.60004C12.0123 3.39348 13.3647 3.50209 14.6371 3.91701C15.9095 4.33193 17.0659 5.04144 18.0123 5.98779C18.9586 6.93413 19.6681 8.09057 20.0831 9.36296C20.498 10.6353 20.6066 11.9877 20.4 13.31C20.9213 14.3015 21.1118 15.4337 20.9436 16.5412C20.7755 17.6487 20.2575 18.6734 19.4654 19.4654C18.6734 20.2575 17.6487 20.7755 16.5412 20.9436C15.4337 21.1118 14.3015 20.9213 13.31 20.4C12.883 20.466 12.445 20.5 12 20.5ZM12.053 17C9.25004 17 8.00004 15.62 8.00004 14.586C8.00004 14.054 8.39004 13.684 8.92804 13.684C10.128 13.684 9.81504 15.409 12.053 15.409C13.196 15.409 13.829 14.785 13.829 14.148C13.829 13.764 13.641 13.34 12.886 13.152L10.396 12.529C8.39004 12.025 8.02604 10.937 8.02604 9.91704C8.02604 7.79704 10.018 7.00004 11.89 7.00004C13.61 7.00004 15.646 7.95604 15.646 9.22803C15.646 9.77304 15.166 10.091 14.634 10.091C13.611 10.091 13.799 8.67304 11.734 8.67304C10.711 8.67304 10.138 9.13504 10.138 9.79904C10.138 10.462 10.941 10.675 11.64 10.834L13.476 11.243C15.49 11.695 16 12.876 16 13.989C16 15.713 14.675 17 12.015 17H12.053Z" fill="#121212"/>
</g>
</g>
<defs>
<clipPath id="clip0_8_5390">
<rect width="24" height="24" fill="white"/>
</clipPath>
</defs>
</svg>
