<svg width="24" height="24" viewBox="0 0 24 24" fill="none" xmlns="http://www.w3.org/2000/svg">
<g id="slideshow-4-fill" clip-path="url(#clip0_8_1346)">
<g id="Group">
<path id="Vector" d="M8.17 3C8.37701 2.41493 8.76032 1.90842 9.26715 1.55024C9.77397 1.19206 10.3794 0.999821 11 1H13C14.306 1 15.417 1.835 15.83 3H21C21.2652 3 21.5196 3.10536 21.7071 3.29289C21.8946 3.48043 22 3.73478 22 4V20C22 20.2652 21.8946 20.5196 21.7071 20.7071C21.5196 20.8946 21.2652 21 21 21H3C2.73478 21 2.48043 20.8946 2.29289 20.7071C2.10536 20.5196 2 20.2652 2 20V4C2 3.73478 2.10536 3.48043 2.29289 3.29289C2.48043 3.10536 2.73478 3 3 3H8.17ZM10 9V15L15 12L10 9ZM11 3C10.7348 3 10.4804 3.10536 10.2929 3.29289C10.1054 3.48043 10 3.73478 10 4C10 4.26522 10.1054 4.51957 10.2929 4.70711C10.4804 4.89464 10.7348 5 11 5H13C13.2652 5 13.5196 4.89464 13.7071 4.70711C13.8946 4.51957 14 4.26522 14 4C14 3.73478 13.8946 3.48043 13.7071 3.29289C13.5196 3.10536 13.2652 3 13 3H11Z" fill="currentColor"/>
</g>
</g>
<defs>
<clipPath id="clip0_8_1346">
<rect width="24" height="24" fill="white"/>
</clipPath>
</defs>
</svg>
