<svg width="24" height="24" viewBox="0 0 24 24"  xmlns="http://www.w3.org/2000/svg">
<g id="space-ship-fill" clip-path="url(#clip0_8_6347)">
<g id="Group">
<path id="Vector" d="M2.88 18.054C4.25619 11.9647 7.19661 6.33961 11.411 1.73397C11.4859 1.65245 11.577 1.58737 11.6784 1.54285C11.7797 1.49833 11.8893 1.47534 12 1.47534C12.1107 1.47534 12.2203 1.49833 12.3216 1.54285C12.423 1.58737 12.5141 1.65245 12.589 1.73397C12.755 1.91397 12.893 2.06597 13.002 2.18897C16.9986 6.71085 19.7906 12.1673 21.12 18.054C18.979 18.505 16.78 18.801 14.536 18.928L12.447 23.106C12.4054 23.1889 12.3416 23.2587 12.2627 23.3074C12.1837 23.3561 12.0928 23.3819 12 23.3819C11.9072 23.3819 11.8163 23.3561 11.7373 23.3074C11.6584 23.2587 11.5946 23.1889 11.553 23.106L9.464 18.928C7.25046 18.8029 5.04953 18.5107 2.88 18.054ZM12 15C12.7957 15 13.5587 14.6839 14.1213 14.1213C14.6839 13.5587 15 12.7956 15 12C15 11.2043 14.6839 10.4413 14.1213 9.87865C13.5587 9.31604 12.7957 8.99997 12 8.99997C11.2044 8.99997 10.4413 9.31604 9.87868 9.87865C9.31607 10.4413 9 11.2043 9 12C9 12.7956 9.31607 13.5587 9.87868 14.1213C10.4413 14.6839 11.2044 15 12 15Z" />
</g>
</g>
<defs>
<clipPath id="clip0_8_6347">
<rect width="24" height="24" fill="white"/>
</clipPath>
</defs>
</svg>
