<svg width="24" height="24" viewBox="0 0 24 24"  xmlns="http://www.w3.org/2000/svg">
<g id="speed-mini-line" clip-path="url(#clip0_8_6968)">
<g id="Group">
<path id="Vector" d="M9.032 12L6 9.86V14.14L9.032 12ZM4.788 17.444C4.71311 17.4968 4.62515 17.528 4.53374 17.5341C4.44233 17.5403 4.35098 17.5213 4.26966 17.4791C4.18834 17.4368 4.12018 17.3731 4.07263 17.2948C4.02507 17.2165 3.99995 17.1266 4 17.035V6.965C3.99995 6.87338 4.02507 6.78351 4.07263 6.7052C4.12018 6.62688 4.18834 6.56315 4.26966 6.52094C4.35098 6.47873 4.44233 6.45968 4.53374 6.46586C4.62515 6.47204 4.71311 6.50322 4.788 6.556L11.921 11.592C11.9862 11.6382 12.0394 11.6993 12.0761 11.7703C12.1128 11.8413 12.132 11.9201 12.132 12C12.132 12.0799 12.1128 12.1587 12.0761 12.2297C12.0394 12.3006 11.9862 12.3618 11.921 12.408L4.788 17.444ZM15 14.14L18.032 12L15 9.86V14.14ZM13 6.965C12.9999 6.87338 13.0251 6.78351 13.0726 6.7052C13.1202 6.62688 13.1883 6.56315 13.2697 6.52094C13.351 6.47873 13.4423 6.45968 13.5337 6.46586C13.6252 6.47204 13.7131 6.50322 13.788 6.556L20.921 11.592C20.9862 11.6382 21.0394 11.6993 21.0761 11.7703C21.1128 11.8413 21.132 11.9201 21.132 12C21.132 12.0799 21.1128 12.1587 21.0761 12.2297C21.0394 12.3006 20.9862 12.3618 20.921 12.408L13.788 17.444C13.7131 17.4968 13.6252 17.528 13.5337 17.5341C13.4423 17.5403 13.351 17.5213 13.2697 17.4791C13.1883 17.4368 13.1202 17.3731 13.0726 17.2948C13.0251 17.2165 12.9999 17.1266 13 17.035V6.965Z" />
</g>
</g>
<defs>
<clipPath id="clip0_8_6968">
<rect width="24" height="24" fill="white"/>
</clipPath>
</defs>
</svg>
