<svg width="24" height="24" viewBox="0 0 24 24"  xmlns="http://www.w3.org/2000/svg">
<g id="split-cells-vertical" clip-path="url(#clip0_8_2715)">
<g id="Group">
<path id="Vector" d="M20 3C20.552 3 21 3.448 21 4V20C21 20.552 20.552 21 20 21H4C3.448 21 3 20.552 3 20V4C3 3.448 3.448 3 4 3H20ZM19 5H5V10.999L9 11V13H5V19H19V13H15V11L19 10.999V5ZM12 6L15 9H13V15H15L12 18L9 15H11V9H9L12 6Z" />
</g>
</g>
<defs>
<clipPath id="clip0_8_2715">
<rect width="24" height="24" fill="white"/>
</clipPath>
</defs>
</svg>
