<svg width="24" height="24" viewBox="0 0 24 24" fill="none" xmlns="http://www.w3.org/2000/svg">
<g id="split-cells-horizontal" clip-path="url(#clip0_8_2719)">
<g id="Group">
<path id="Vector" d="M20 3C20.552 3 21 3.448 21 4V20C21 20.552 20.552 21 20 21H4C3.448 21 3 20.552 3 20V4C3 3.448 3.448 3 4 3H20ZM11 5H5V19H11V15H13V19H19V5H13V9H11V5ZM15 9L18 12L15 15V13H9V15L6 12L9 9V11H15V9Z" />
</g>
</g>
<defs>
<clipPath id="clip0_8_2719">
<rect width="24" height="24" fill="white"/>
</clipPath>
</defs>
</svg>
