<svg width="24" height="24" viewBox="0 0 24 24" fill="none" xmlns="http://www.w3.org/2000/svg">
<g id="spy-fill" clip-path="url(#clip0_8_7870)">
<g id="Group">
<path id="Vector" d="M17 13C18.0609 13 19.0783 13.4214 19.8284 14.1716C20.5786 14.9217 21 15.9391 21 17C21 18.0609 20.5786 19.0783 19.8284 19.8284C19.0783 20.5786 18.0609 21 17 21C14.858 21 13 19.21 13 17H11C10.9996 17.9704 10.6465 18.9077 10.0063 19.637C9.36617 20.3664 8.48269 20.8382 7.5205 20.9644C6.55831 21.0907 5.58302 20.8629 4.77635 20.3234C3.96968 19.7839 3.38664 18.9696 3.13586 18.0321C2.88509 17.0946 2.98368 16.0979 3.41326 15.2278C3.84285 14.3576 4.57414 13.6732 5.47087 13.3023C6.36761 12.9313 7.36863 12.8989 8.28743 13.2113C9.20623 13.5236 9.98016 14.1594 10.465 15H13.535C13.886 14.3917 14.3911 13.8865 14.9993 13.5354C15.6076 13.1843 16.2977 12.9996 17 13ZM2 12V10H4V7C4 5.93913 4.42143 4.92172 5.17157 4.17157C5.92172 3.42143 6.93913 3 8 3H16C17.0609 3 18.0783 3.42143 18.8284 4.17157C19.5786 4.92172 20 5.93913 20 7V10H22V12H2Z" fill="#121212"/>
</g>
</g>
<defs>
<clipPath id="clip0_8_7870">
<rect width="24" height="24" fill="white"/>
</clipPath>
</defs>
</svg>
