<svg width="24" height="24" viewBox="0 0 24 24" fill="none" xmlns="http://www.w3.org/2000/svg">
<g id="stackshare-line" clip-path="url(#clip0_8_5590)">
<g id="Group">
<path id="Vector" d="M9.536 13H7.329C6.917 14.166 5.806 15 4.5 15C2.843 15 1.5 13.657 1.5 12C1.5 10.343 2.843 9 4.5 9C5.806 9 6.918 9.835 7.33 11H9.536L13 5H16.17C16.582 3.835 17.694 3 19 3C20.657 3 22 4.343 22 6C22 7.657 20.657 9 19 9C17.694 9 16.583 8.166 16.171 7H14.154L11.268 11.999L14.155 17H16.171C16.582 15.835 17.694 15 19 15C20.657 15 22 16.343 22 18C22 19.657 20.657 21 19 21C17.694 21 16.583 20.166 16.171 19H13L9.536 13ZM19 17C18.448 17 18 17.448 18 18C18 18.552 18.448 19 19 19C19.552 19 20 18.552 20 18C20 17.448 19.552 17 19 17ZM4.5 11C3.948 11 3.5 11.448 3.5 12C3.5 12.552 3.948 13 4.5 13C5.052 13 5.5 12.552 5.5 12C5.5 11.448 5.052 11 4.5 11ZM19 5C18.448 5 18 5.448 18 6C18 6.552 18.448 7 19 7C19.552 7 20 6.552 20 6C20 5.448 19.552 5 19 5Z" />
</g>
</g>
<defs>
<clipPath id="clip0_8_5590">
<rect width="24" height="24" fill="white"/>
</clipPath>
</defs>
</svg>
