<svg width="24" height="24" viewBox="0 0 24 24"  xmlns="http://www.w3.org/2000/svg">
<g id="stack-line" clip-path="url(#clip0_8_1034)">
<g id="Group">
<path id="Vector" d="M20.083 15.1999L21.285 15.9209C21.3592 15.9653 21.4205 16.0282 21.4632 16.1034C21.5058 16.1786 21.5282 16.2635 21.5282 16.3499C21.5282 16.4364 21.5058 16.5213 21.4632 16.5965C21.4205 16.6717 21.3592 16.7346 21.285 16.7789L12.515 22.0409C12.3595 22.1344 12.1814 22.1838 12 22.1838C11.8186 22.1838 11.6405 22.1344 11.485 22.0409L2.715 16.7789C2.64085 16.7346 2.57947 16.6717 2.53685 16.5965C2.49423 16.5213 2.47182 16.4364 2.47182 16.3499C2.47182 16.2635 2.49423 16.1786 2.53685 16.1034C2.57947 16.0282 2.64085 15.9653 2.715 15.9209L3.917 15.1999L12 20.0499L20.083 15.1999ZM20.083 10.4999L21.285 11.2209C21.3592 11.2653 21.4205 11.3282 21.4632 11.4034C21.5058 11.4786 21.5282 11.5635 21.5282 11.6499C21.5282 11.7364 21.5058 11.8213 21.4632 11.8965C21.4205 11.9717 21.3592 12.0346 21.285 12.0789L12 17.6499L2.715 12.0789C2.64085 12.0346 2.57947 11.9717 2.53685 11.8965C2.49423 11.8213 2.47182 11.7364 2.47182 11.6499C2.47182 11.5635 2.49423 11.4786 2.53685 11.4034C2.57947 11.3282 2.64085 11.2653 2.715 11.2209L3.917 10.4999L12 15.3499L20.083 10.4999ZM12.514 1.30895L21.285 6.57095C21.3592 6.61534 21.4205 6.6782 21.4632 6.75338C21.5058 6.82857 21.5282 6.91352 21.5282 6.99995C21.5282 7.08637 21.5058 7.17132 21.4632 7.24651C21.4205 7.3217 21.3592 7.38455 21.285 7.42895L12 12.9999L2.715 7.42895C2.64085 7.38455 2.57947 7.3217 2.53685 7.24651C2.49423 7.17132 2.47182 7.08637 2.47182 6.99995C2.47182 6.91352 2.49423 6.82857 2.53685 6.75338C2.57947 6.6782 2.64085 6.61534 2.715 6.57095L11.485 1.30895C11.6405 1.2155 11.8186 1.16614 12 1.16614C12.1814 1.16614 12.3595 1.2155 12.515 1.30895H12.514ZM12 3.33195L5.887 6.99995L12 10.6679L18.113 6.99995L12 3.33195Z" />
</g>
</g>
<defs>
<clipPath id="clip0_8_1034">
<rect width="24" height="24" fill="white"/>
</clipPath>
</defs>
</svg>
