<svg width="24" height="24" viewBox="0 0 24 24" fill="none" xmlns="http://www.w3.org/2000/svg">
<g id="stack-overflow-fill" clip-path="url(#clip0_8_5350)">
<g id="Group">
<path id="Vector" d="M18 20.002V14.67H20V22.003H4V14.67H6V20.003H18V20.002ZM7.599 14.736L7.912 12.756L16.749 14.456L16.636 16.042L7.599 14.736ZM8.799 10.204L9.531 8.60401L17.529 12.337L16.796 13.936L8.798 10.204H8.799ZM11.064 6.27201L12.197 4.93901L18.995 10.604L17.862 11.937L11.064 6.27201ZM15.396 2.14001L20.661 9.20401L19.261 10.271L13.997 3.20601L15.397 2.14001H15.396ZM7.332 18.668V16.668H16.662V18.668H7.332Z" />
</g>
</g>
<defs>
<clipPath id="clip0_8_5350">
<rect width="24" height="24" fill="white"/>
</clipPath>
</defs>
</svg>
