<svg width="24" height="24" viewBox="0 0 24 24"  xmlns="http://www.w3.org/2000/svg">
<g id="stop-mini-line" clip-path="url(#clip0_8_6764)">
<g id="Group">
<path id="Vector" d="M8 8V16H16V8H8ZM6 7C6 6.73478 6.10536 6.48043 6.29289 6.29289C6.48043 6.10536 6.73478 6 7 6H17C17.2652 6 17.5196 6.10536 17.7071 6.29289C17.8946 6.48043 18 6.73478 18 7V17C18 17.2652 17.8946 17.5196 17.7071 17.7071C17.5196 17.8946 17.2652 18 17 18H7C6.73478 18 6.48043 17.8946 6.29289 17.7071C6.10536 17.5196 6 17.2652 6 17V7Z" />
</g>
</g>
<defs>
<clipPath id="clip0_8_6764">
<rect width="24" height="24" fill="white"/>
</clipPath>
</defs>
</svg>
