<svg width="24" height="24" viewBox="0 0 24 24" fill="none" xmlns="http://www.w3.org/2000/svg">
<g id="subway-wifi-fill" clip-path="url(#clip0_8_5955)">
<g id="Group">
<path id="Vector" d="M13 3V12H21V18C21 18.5304 20.7893 19.0391 20.4142 19.4142C20.0391 19.7893 19.5304 20 19 20H17.2L19 21.5V22H5V21.5L6.8 20H5C4.46957 20 3.96086 19.7893 3.58579 19.4142C3.21071 19.0391 3 18.5304 3 18V7C3 5.93913 3.42143 4.92172 4.17157 4.17157C4.92172 3.42143 5.93913 3 7 3H13ZM7.5 15C7.10218 15 6.72064 15.158 6.43934 15.4393C6.15804 15.7206 6 16.1022 6 16.5C6 16.8978 6.15804 17.2794 6.43934 17.5607C6.72064 17.842 7.10218 18 7.5 18C7.89782 18 8.27936 17.842 8.56066 17.5607C8.84196 17.2794 9 16.8978 9 16.5C9 16.1022 8.84196 15.7206 8.56066 15.4393C8.27936 15.158 7.89782 15 7.5 15ZM16.5 15C16.1022 15 15.7206 15.158 15.4393 15.4393C15.158 15.7206 15 16.1022 15 16.5C15 16.8978 15.158 17.2794 15.4393 17.5607C15.7206 17.842 16.1022 18 16.5 18C16.8978 18 17.2794 17.842 17.5607 17.5607C17.842 17.2794 18 16.8978 18 16.5C18 16.1022 17.842 15.7206 17.5607 15.4393C17.2794 15.158 16.8978 15 16.5 15ZM11 5H7C6.49542 4.99984 6.00943 5.19041 5.63945 5.5335C5.26947 5.87659 5.04284 6.34684 5.005 6.85L5 7V12H11V5ZM18.5 1C19.6935 1 20.8381 1.47411 21.682 2.31802C22.5259 3.16193 23 4.30653 23 5.5C23 6.69347 22.5259 7.83807 21.682 8.68198C20.8381 9.52589 19.6935 10 18.5 10C17.3065 10 16.1619 9.52589 15.318 8.68198C14.4741 7.83807 14 6.69347 14 5.5C14 4.30653 14.4741 3.16193 15.318 2.31802C16.1619 1.47411 17.3065 1 18.5 1ZM18.5 6.167C18.009 6.167 17.56 6.344 17.211 6.637L17.086 6.752L18.5 8.167L19.913 6.751C19.7275 6.56548 19.5072 6.4184 19.2647 6.31819C19.0222 6.21798 18.7624 6.1666 18.5 6.167ZM18.5 3.5C17.344 3.49826 16.2289 3.92714 15.372 4.703L15.199 4.868L16.143 5.81C16.4521 5.49989 16.8195 5.25394 17.224 5.08627C17.6285 4.9186 18.0621 4.83253 18.5 4.833C19.3104 4.83177 20.0932 5.12699 20.701 5.663L20.857 5.81L21.8 4.867C21.3671 4.43296 20.8528 4.08875 20.2864 3.85415C19.7201 3.61956 19.113 3.4992 18.5 3.5Z" fill="currentColor"/>
</g>
</g>
<defs>
<clipPath id="clip0_8_5955">
<rect width="24" height="24" fill="white"/>
</clipPath>
</defs>
</svg>
