<svg width="24" height="24" viewBox="0 0 24 24" fill="none" xmlns="http://www.w3.org/2000/svg">
<g id="sun-cloudy-fill" clip-path="url(#clip0_8_9580)">
<g id="Group">
<path id="Vector" d="M9.98398 5.06001C10.3896 4.28744 10.9467 3.60445 11.622 3.05176C12.2973 2.49908 13.0769 2.08802 13.9144 1.84309C14.7519 1.59816 15.6302 1.52438 16.4969 1.62613C17.3635 1.72789 18.2008 2.00311 18.9588 2.43538C19.7168 2.86765 20.3801 3.44812 20.9089 4.14218C21.4378 4.83625 21.8215 5.6297 22.0372 6.47523C22.2529 7.32077 22.2961 8.20107 22.1643 9.06366C22.0325 9.92626 21.7283 10.7535 21.27 11.496C22.0721 12.2514 22.6288 13.2302 22.8681 14.3058C23.1073 15.3813 23.018 16.5038 22.6118 17.528C22.2055 18.5522 21.501 19.4307 20.5896 20.0498C19.6781 20.6688 18.6018 20.9999 17.5 21L8.99998 20.999C7.9084 20.9982 6.82854 20.774 5.82685 20.3402C4.82517 19.9064 3.92285 19.2722 3.17545 18.4766C2.42804 17.681 1.85135 16.7409 1.48088 15.7141C1.11041 14.6874 0.953986 13.5956 1.02124 12.5061C1.0885 11.4166 1.37801 10.3524 1.87196 9.37895C2.36591 8.40552 3.05385 7.54348 3.89343 6.84587C4.73301 6.14827 5.70648 5.62986 6.75391 5.32257C7.80134 5.01527 8.90059 4.92558 9.98398 5.05901V5.06001ZM12.055 5.60401C13.0538 6.01804 13.9587 6.62962 14.7153 7.40205C15.472 8.17448 16.0647 9.09182 16.458 10.099C17.5058 9.89818 18.5894 10.0048 19.578 10.406C20.0415 9.41677 20.1294 8.29268 19.8252 7.24343C19.521 6.19417 18.8454 5.29142 17.9246 4.70357C17.0038 4.11572 15.9006 3.88292 14.8207 4.04861C13.7409 4.21429 12.7582 4.76714 12.056 5.60401H12.055Z" />
</g>
</g>
<defs>
<clipPath id="clip0_8_9580">
<rect width="24" height="24" fill="white"/>
</clipPath>
</defs>
</svg>
