<svg width="24" height="24" viewBox="0 0 24 24" fill="none" xmlns="http://www.w3.org/2000/svg">
<g id="surround-sound-fill" clip-path="url(#clip0_8_6664)">
<g id="Group">
<path id="Vector" d="M3 3H21C21.2652 3 21.5196 3.10536 21.7071 3.29289C21.8946 3.48043 22 3.73478 22 4V20C22 20.2652 21.8946 20.5196 21.7071 20.7071C21.5196 20.8946 21.2652 21 21 21H3C2.73478 21 2.48043 20.8946 2.29289 20.7071C2.10536 20.5196 2 20.2652 2 20V4C2 3.73478 2.10536 3.48043 2.29289 3.29289C2.48043 3.10536 2.73478 3 3 3ZM7.05 7.121C6.39903 7.77034 5.88281 8.54192 5.531 9.39141C5.17919 10.2409 4.99873 11.1515 5 12.071C5 14.004 5.784 15.754 7.05 17.021L8.464 15.607C7.99891 15.143 7.63013 14.5917 7.37888 13.9847C7.12764 13.3776 6.99887 12.727 7 12.07C7 10.69 7.56 9.44 8.464 8.535L7.05 7.12V7.121ZM16.95 7.121L15.536 8.536C16.0007 8.99962 16.3693 9.55049 16.6205 10.157C16.8718 10.7634 17.0007 11.4136 17 12.07C17 13.45 16.44 14.7 15.536 15.606L16.95 17.02C17.601 16.3707 18.1172 15.5991 18.469 14.7496C18.8208 13.9001 19.0013 12.9895 19 12.07C19.0013 11.1505 18.8208 10.2399 18.469 9.39041C18.1172 8.54092 17.601 7.76934 16.95 7.12V7.121ZM12 15.071C12.7956 15.071 13.5587 14.7549 14.1213 14.1923C14.6839 13.6297 15 12.8666 15 12.071C15 11.2754 14.6839 10.5123 14.1213 9.94968C13.5587 9.38707 12.7956 9.071 12 9.071C11.2044 9.071 10.4413 9.38707 9.87868 9.94968C9.31607 10.5123 9 11.2754 9 12.071C9 12.8666 9.31607 13.6297 9.87868 14.1923C10.4413 14.7549 11.2044 15.071 12 15.071ZM12 13.071C11.7348 13.071 11.4804 12.9656 11.2929 12.7781C11.1054 12.5906 11 12.3362 11 12.071C11 11.8058 11.1054 11.5514 11.2929 11.3639C11.4804 11.1764 11.7348 11.071 12 11.071C12.2652 11.071 12.5196 11.1764 12.7071 11.3639C12.8946 11.5514 13 11.8058 13 12.071C13 12.3362 12.8946 12.5906 12.7071 12.7781C12.5196 12.9656 12.2652 13.071 12 13.071Z" />
</g>
</g>
<defs>
<clipPath id="clip0_8_6664">
<rect width="24" height="24" fill="white"/>
</clipPath>
</defs>
</svg>
