<svg width="24" height="24" viewBox="0 0 24 24" fill="none" xmlns="http://www.w3.org/2000/svg">
<g id="survey-fill" clip-path="url(#clip0_8_4175)">
<g id="Group">
<path id="Vector" d="M6 4V8H18V4H20.007C20.555 4 21 4.445 21 4.993V21.007C21 21.555 20.555 22 20.007 22H3.993C3.445 22 3 21.555 3 21.007V4.993C3 4.445 3.445 4 3.993 4H6ZM9 17H7V19H9V17ZM9 14H7V16H9V14ZM9 11H7V13H9V11ZM16 2V6H8V2H16Z" />
</g>
</g>
<defs>
<clipPath id="clip0_8_4175">
<rect width="24" height="24" fill="white"/>
</clipPath>
</defs>
</svg>
