<svg width="24" height="24" viewBox="0 0 24 24" fill="none" xmlns="http://www.w3.org/2000/svg">
<g id="sword-fill" clip-path="url(#clip0_8_7613)">
<g id="Group">
<path id="Vector" d="M7.04998 13.406L10.584 16.942L9.17098 18.356L10.586 19.771L9.17198 21.185L6.69698 18.71L3.86798 21.539L2.45398 20.125L5.28298 17.295L2.80798 14.821L4.22198 13.407L5.63598 14.82L7.04898 13.406H7.04998ZM2.99998 3L6.54598 3.003L18.363 14.821L19.778 13.407L21.192 14.821L18.718 17.296L21.546 20.125L20.132 21.539L17.303 18.71L14.828 21.185L13.414 19.771L14.828 18.356L3.00298 6.531L2.99998 3ZM17.457 3L21 3.003L21.002 6.526L16.949 10.578L13.413 7.043L17.457 3Z" />
</g>
</g>
<defs>
<clipPath id="clip0_8_7613">
<rect width="24" height="24" fill="white"/>
</clipPath>
</defs>
</svg>
