<svg width="24" height="24" viewBox="0 0 24 24" fill="none" xmlns="http://www.w3.org/2000/svg">
<g id="tape-line" clip-path="url(#clip0_8_6620)">
<g id="Group">
<path id="Vector" d="M10.83 13H13.17C12.9577 12.3997 12.942 11.7473 13.1251 11.1375C13.3082 10.5276 13.6806 9.99179 14.1883 9.60759C14.6961 9.2234 15.313 9.01074 15.9497 9.0004C16.5864 8.99005 17.2098 9.18256 17.7298 9.55006C18.2498 9.91755 18.6394 10.441 18.8422 11.0446C19.045 11.6482 19.0505 12.3007 18.8578 12.9076C18.6652 13.5145 18.2844 14.0444 17.7707 14.4206C17.2569 14.7967 16.6368 14.9997 16 15H8C7.36324 14.9997 6.7431 14.7967 6.22933 14.4206C5.71555 14.0444 5.33479 13.5145 5.14215 12.9076C4.94951 12.3007 4.95498 11.6482 5.15777 11.0446C5.36056 10.441 5.75015 9.91755 6.27016 9.55006C6.79017 9.18256 7.41363 8.99005 8.05031 9.0004C8.68698 9.01074 9.30385 9.2234 9.81165 9.60759C10.3194 9.99179 10.6918 10.5276 10.8749 11.1375C11.058 11.7473 11.0423 12.3997 10.83 13ZM4 5V19H20V5H4ZM3 3H21C21.2652 3 21.5196 3.10536 21.7071 3.29289C21.8946 3.48043 22 3.73478 22 4V20C22 20.2652 21.8946 20.5196 21.7071 20.7071C21.5196 20.8946 21.2652 21 21 21H3C2.73478 21 2.48043 20.8946 2.29289 20.7071C2.10536 20.5196 2 20.2652 2 20V4C2 3.73478 2.10536 3.48043 2.29289 3.29289C2.48043 3.10536 2.73478 3 3 3ZM8 13C8.26522 13 8.51957 12.8946 8.70711 12.7071C8.89464 12.5196 9 12.2652 9 12C9 11.7348 8.89464 11.4804 8.70711 11.2929C8.51957 11.1054 8.26522 11 8 11C7.73478 11 7.48043 11.1054 7.29289 11.2929C7.10536 11.4804 7 11.7348 7 12C7 12.2652 7.10536 12.5196 7.29289 12.7071C7.48043 12.8946 7.73478 13 8 13ZM16 13C16.2652 13 16.5196 12.8946 16.7071 12.7071C16.8946 12.5196 17 12.2652 17 12C17 11.7348 16.8946 11.4804 16.7071 11.2929C16.5196 11.1054 16.2652 11 16 11C15.7348 11 15.4804 11.1054 15.2929 11.2929C15.1054 11.4804 15 11.7348 15 12C15 12.2652 15.1054 12.5196 15.2929 12.7071C15.4804 12.8946 15.7348 13 16 13Z" fill="currentColor"/>
</g>
</g>
<defs>
<clipPath id="clip0_8_6620">
<rect width="24" height="24" fill="white"/>
</clipPath>
</defs>
</svg>
