<svg width="24" height="24" viewBox="0 0 24 24" fill="none" xmlns="http://www.w3.org/2000/svg">
<g id="text-direction-l" clip-path="url(#clip0_8_2762)">
<g id="Group">
<path id="Vector" d="M11 5V15H9V11C7.93913 11 6.92172 10.5786 6.17157 9.82843C5.42143 9.07828 5 8.06087 5 7C5 5.93913 5.42143 4.92172 6.17157 4.17157C6.92172 3.42143 7.93913 3 9 3H17V5H15V15H13V5H11ZM9 5C8.46957 5 7.96086 5.21071 7.58579 5.58579C7.21071 5.96086 7 6.46957 7 7C7 7.53043 7.21071 8.03914 7.58579 8.41421C7.96086 8.78929 8.46957 9 9 9V5ZM17 17V14.5L21 18L17 21.5V19H5V17H17Z" fill="currentColor"/>
</g>
</g>
<defs>
<clipPath id="clip0_8_2762">
<rect width="24" height="24" fill="white"/>
</clipPath>
</defs>
</svg>
