<svg width="24" height="24" viewBox="0 0 24 24" fill="none" xmlns="http://www.w3.org/2000/svg">
<g id="thunderstorms-fill" clip-path="url(#clip0_8_9476)">
<g id="Group">
<path id="Vector" d="M16.9884 18L18.2044 16.42C18.3753 16.198 18.4806 15.9325 18.5084 15.6537C18.5362 15.3749 18.4853 15.0938 18.3615 14.8424C18.2378 14.5911 18.0461 14.3794 17.8082 14.2313C17.5702 14.0833 17.2956 14.0049 17.0154 14.005H15.0004V10.029C15.0006 9.71552 14.9025 9.40986 14.72 9.15497C14.5376 8.90009 14.2798 8.70878 13.983 8.60793C13.6862 8.50707 13.3652 8.50175 13.0652 8.5927C12.7652 8.68365 12.5013 8.8663 12.3104 9.115L5.94541 17.396C4.2349 16.6882 2.82269 15.4093 1.94938 13.777C1.07606 12.1448 0.795673 10.2603 1.15597 8.44454C1.51627 6.62878 2.49497 4.9941 3.92533 3.81899C5.3557 2.64388 7.14924 2.00105 9.00041 2C10.6125 1.99991 12.187 2.48665 13.5177 3.39648C14.8485 4.30631 15.8735 5.59682 16.4584 7.099C17.2108 6.95429 17.985 6.96836 18.7316 7.14031C19.4782 7.31225 20.1806 7.63827 20.7939 8.09749C21.4071 8.5567 21.9177 9.13897 22.2928 9.80698C22.668 10.475 22.8994 11.214 22.9723 11.9767C23.0452 12.7393 22.958 13.5088 22.7162 14.2358C22.4744 14.9627 22.0834 15.6312 21.5682 16.1983C21.0531 16.7653 20.4251 17.2185 19.7246 17.5288C19.0241 17.8391 18.2665 17.9996 17.5004 18H16.9884ZM13.0004 16.005H16.0004L11.0004 22.505V18.005H8.00041L13.0004 11.5V16.005Z" />
</g>
</g>
<defs>
<clipPath id="clip0_8_9476">
<rect width="24" height="24" fill="white"/>
</clipPath>
</defs>
</svg>
