<svg width="24" height="24" viewBox="0 0 24 24"  xmlns="http://www.w3.org/2000/svg">
<g id="travesti-fill" clip-path="url(#clip0_8_7842)">
<g id="Group">
<path id="Vector" d="M7.53746 9.94997L4.66046 7.07597L2.18646 9.54997L0.772461 8.13597L7.13646 1.77197L8.55046 3.18597L6.07546 5.66097L8.95146 8.53697C10.4644 7.38356 12.359 6.84819 14.2518 7.03925C16.1446 7.23031 17.8941 8.13354 19.146 9.56603C20.3978 10.9985 21.0586 12.8532 20.9943 14.7546C20.9301 16.6559 20.1457 18.4618 18.8 19.8065C17.4543 21.1512 15.6479 21.9343 13.7465 21.9972C11.8451 22.0601 9.99091 21.3981 8.55931 20.1452C7.1277 18.8923 6.22571 17.1422 6.03599 15.2493C5.84626 13.3564 6.38298 11.4621 7.53746 9.94997Z" />
</g>
</g>
<defs>
<clipPath id="clip0_8_7842">
<rect width="24" height="24" fill="white"/>
</clipPath>
</defs>
</svg>
