<svg width="24" height="24" viewBox="0 0 24 24" fill="none" xmlns="http://www.w3.org/2000/svg">
<g id="travesti-line" clip-path="url(#clip0_8_7698)">
<g id="Group">
<path id="Vector" d="M8.95046 8.53697C10.4629 7.38294 12.3574 6.8468 14.2503 7.03713C16.1432 7.22746 17.8931 8.13003 19.1455 9.56207C20.3979 10.9941 21.0593 12.8486 20.9958 14.75C20.9323 16.6514 20.1485 18.4576 18.8033 19.8028C17.4581 21.148 15.6519 21.9318 13.7505 21.9953C11.8491 22.0589 9.9946 21.3974 8.56256 20.145C7.13052 18.8926 6.22795 17.1427 6.03762 15.2498C5.84729 13.3569 6.38343 11.4624 7.53746 9.94997L4.66246 7.07497L2.18646 9.54997L0.772461 8.13597L7.13646 1.77197L8.55046 3.18597L6.07546 5.66097L8.95146 8.53697H8.95046ZM13.5005 20C14.9592 20 16.3581 19.4205 17.3895 18.3891C18.421 17.3576 19.0005 15.9587 19.0005 14.5C19.0005 13.0413 18.421 11.6423 17.3895 10.6109C16.3581 9.57943 14.9592 8.99997 13.5005 8.99997C12.0418 8.99997 10.6428 9.57943 9.61137 10.6109C8.57992 11.6423 8.00046 13.0413 8.00046 14.5C8.00046 15.9587 8.57992 17.3576 9.61137 18.3891C10.6428 19.4205 12.0418 20 13.5005 20Z" fill="currentColor"/>
</g>
</g>
<defs>
<clipPath id="clip0_8_7698">
<rect width="24" height="24" fill="white"/>
</clipPath>
</defs>
</svg>
