<svg width="24" height="24" viewBox="0 0 24 24" fill="none" xmlns="http://www.w3.org/2000/svg">
<g id="tv-2-line" clip-path="url(#clip0_8_1908)">
<g id="Group">
<path id="Vector" d="M2 4C2 3.448 2.455 3 2.992 3H21.008C21.556 3 22 3.445 22 4V18C22 18.552 21.545 19 21.008 19H2.992C2.86113 18.9997 2.7316 18.9736 2.61084 18.9232C2.49008 18.8727 2.38047 18.7989 2.2883 18.706C2.19614 18.6131 2.12322 18.5029 2.07375 18.3818C2.02427 18.2606 1.99921 18.1309 2 18V4ZM4 5V17H20V5H4ZM5 20H19V22H5V20Z" fill="currentColor"/>
</g>
</g>
<defs>
<clipPath id="clip0_8_1908">
<rect width="24" height="24" fill="white"/>
</clipPath>
</defs>
</svg>
