<svg width="24" height="24" viewBox="0 0 24 24"  xmlns="http://www.w3.org/2000/svg">
<g id="u-disk-fill" clip-path="url(#clip0_8_2284)">
<g id="Group">
<path id="Vector" d="M4 12H20C20.2652 12 20.5196 12.1054 20.7071 12.2929C20.8946 12.4804 21 12.7348 21 13V21C21 21.2652 20.8946 21.5196 20.7071 21.7071C20.5196 21.8946 20.2652 22 20 22H4C3.73478 22 3.48043 21.8946 3.29289 21.7071C3.10536 21.5196 3 21.2652 3 21V13C3 12.7348 3.10536 12.4804 3.29289 12.2929C3.48043 12.1054 3.73478 12 4 12ZM5 2H19V10H5V2ZM9 5V7H11V5H9ZM13 5V7H15V5H13Z" />
</g>
</g>
<defs>
<clipPath id="clip0_8_2284">
<rect width="24" height="24" fill="white"/>
</clipPath>
</defs>
</svg>
