<svg width="24" height="24" viewBox="0 0 24 24"  xmlns="http://www.w3.org/2000/svg">
<g id="ubuntu-fill" clip-path="url(#clip0_8_5418)">
<g id="Group">
<path id="Vector" d="M22 12C22 17.522 17.523 22 12 22C6.477 22 2 17.522 2 12C2 6.477 6.477 2 12 2C17.523 2 22 6.477 22 12ZM5.2 10.664C4.84594 10.664 4.50637 10.8047 4.25601 11.055C4.00565 11.3054 3.865 11.6449 3.865 11.999C3.865 12.3531 4.00565 12.6926 4.25601 12.943C4.50637 13.1933 4.84594 13.334 5.2 13.334C5.55406 13.334 5.89363 13.1933 6.14399 12.943C6.39435 12.6926 6.535 12.3531 6.535 11.999C6.535 11.6449 6.39435 11.3054 6.14399 11.055C5.89363 10.8047 5.55406 10.664 5.2 10.664ZM14.733 16.733C14.5778 16.8187 14.4412 16.9346 14.3313 17.0737C14.2214 17.2128 14.1403 17.3725 14.0928 17.5433C14.0453 17.7142 14.0323 17.8927 14.0547 18.0686C14.077 18.2446 14.1342 18.4142 14.2228 18.5678C14.3115 18.7213 14.4299 18.8557 14.5711 18.9629C14.7123 19.0702 14.8735 19.1482 15.0452 19.1925C15.2169 19.2367 15.3957 19.2463 15.5711 19.2206C15.7466 19.195 15.9152 19.1346 16.067 19.043C16.3662 18.8625 16.5827 18.5719 16.6699 18.2335C16.757 17.8952 16.708 17.5361 16.5333 17.2336C16.3585 16.931 16.0721 16.709 15.7354 16.6154C15.3988 16.5218 15.0388 16.564 14.733 16.733ZM8.1 12C8.1 10.68 8.756 9.515 9.759 8.81L8.783 7.174C7.59697 7.96542 6.74318 9.16514 6.384 10.545C6.6003 10.7208 6.77468 10.9426 6.89446 11.1943C7.01423 11.446 7.07638 11.7213 7.07638 12C7.07638 12.2787 7.01423 12.554 6.89446 12.8057C6.77468 13.0574 6.6003 13.2792 6.384 13.455C6.74292 14.8347 7.59634 16.0344 8.782 16.826L9.759 15.19C9.24633 14.8309 8.82785 14.3534 8.53904 13.7981C8.25023 13.2427 8.09963 12.6259 8.1 12ZM12 8.1C12.9743 8.10016 13.9133 8.46501 14.6322 9.12276C15.351 9.78051 15.7976 10.6835 15.884 11.654L17.787 11.626C17.6965 10.2024 17.0828 8.86247 16.064 7.864C15.804 7.96288 15.5253 8.00259 15.2481 7.98023C14.9708 7.95788 14.702 7.87403 14.4613 7.73478C14.2205 7.59553 14.0138 7.40437 13.8562 7.17521C13.6985 6.94605 13.5939 6.68465 13.55 6.41C12.1752 6.0317 10.7094 6.17045 9.43 6.8L10.357 8.463C10.8716 8.22343 11.4324 8.09952 12 8.1ZM12 15.9C11.413 15.9 10.857 15.77 10.357 15.537L9.43 17.199C10.708 17.8336 12.1757 17.9725 13.55 17.589C13.5939 17.3144 13.6985 17.0529 13.8562 16.8238C14.0138 16.5946 14.2205 16.4035 14.4613 16.2642C14.702 16.125 14.9708 16.0411 15.2481 16.0188C15.5253 15.9964 15.804 16.0361 16.064 16.135C17.0827 15.1365 17.6964 13.7966 17.787 12.373L15.884 12.346C15.798 13.3167 15.3516 14.2199 14.6326 14.8778C13.9137 15.5356 12.9745 15.9003 12 15.9ZM14.732 7.267C14.8839 7.35752 15.0523 7.41695 15.2274 7.44183C15.4025 7.46672 15.5808 7.45658 15.7519 7.41198C15.9231 7.36739 16.0836 7.28923 16.2243 7.18206C16.365 7.07489 16.483 6.94084 16.5714 6.78768C16.6598 6.63453 16.717 6.46534 16.7395 6.28992C16.7619 6.11451 16.7494 5.93637 16.7024 5.76587C16.6555 5.59536 16.5752 5.43587 16.4661 5.29667C16.357 5.15747 16.2213 5.04133 16.067 4.955C15.7607 4.7837 15.3994 4.73987 15.061 4.83298C14.7227 4.9261 14.4347 5.14868 14.2592 5.45256C14.0837 5.75644 14.035 6.11719 14.1234 6.45676C14.2119 6.79632 14.4305 7.0874 14.732 7.267Z" />
</g>
</g>
<defs>
<clipPath id="clip0_8_5418">
<rect width="24" height="24" fill="white"/>
</clipPath>
</defs>
</svg>
