<svg width="24" height="24" viewBox="0 0 24 24" fill="none" xmlns="http://www.w3.org/2000/svg">
<g id="ubuntu-line" clip-path="url(#clip0_8_5142)">
<g id="Group">
<path id="Vector" d="M8.667 19.273L9.673 17.531C10.5267 17.8904 11.4519 18.0472 12.3763 17.9893C13.3007 17.9314 14.1991 17.6603 15.0013 17.1972C15.8034 16.7342 16.4875 16.0917 16.9999 15.3202C17.5123 14.5487 17.8392 13.669 17.955 12.75H19.967C19.8593 13.8957 19.5049 15.0044 18.928 16C18.5366 16.6796 18.0473 17.2978 17.476 17.835C17.1487 17.7352 16.8043 17.7039 16.4644 17.7429C16.1244 17.782 15.7962 17.8906 15.5 18.062C15.2038 18.2327 14.9458 18.4624 14.7421 18.737C14.5384 19.0115 14.3934 19.3251 14.316 19.658C12.4489 20.2249 10.4389 20.0879 8.666 19.273H8.667ZM7.367 18.523C5.77589 17.3948 4.65316 15.7228 4.211 13.823C4.696 13.367 5 12.72 5 12C5 11.28 4.696 10.631 4.209 10.175C4.38851 9.41166 4.67929 8.67882 5.072 8.00004C5.64587 7.00293 6.4288 6.14187 7.367 5.47604L8.373 7.21804C7.63501 7.77772 7.03659 8.50062 6.62459 9.33016C6.21258 10.1597 5.99819 11.0733 5.99819 11.9995C5.99819 12.9258 6.21258 13.8394 6.62459 14.6689C7.03659 15.4985 7.63501 16.2214 8.373 16.781L7.368 18.523H7.367ZM8.667 4.72704C10.4397 3.91458 12.448 3.77698 14.315 4.34004C14.467 4.99004 14.877 5.57804 15.5 5.93804C16.123 6.29804 16.837 6.35804 17.476 6.16504C18.8976 7.50023 19.783 9.30836 19.966 11.25H17.953C17.838 10.3311 17.5114 9.45139 16.9991 8.67996C16.4867 7.90853 15.8024 7.26641 15 6.80404C14.1984 6.34019 13.3002 6.06854 12.3759 6.01041C11.4516 5.95228 10.5264 6.10927 9.673 6.46904L8.667 4.72704ZM16 5.07204C15.828 4.97427 15.6771 4.84344 15.5559 4.6871C15.4347 4.53076 15.3456 4.35199 15.2938 4.16108C15.242 3.97017 15.2284 3.77089 15.2539 3.57472C15.2794 3.37855 15.3434 3.18937 15.4424 3.01805C15.5413 2.84673 15.6731 2.69667 15.8302 2.57651C15.9874 2.45635 16.1667 2.36846 16.358 2.31789C16.5492 2.26733 16.7486 2.2551 16.9446 2.28189C17.1406 2.30869 17.3293 2.374 17.5 2.47404C17.8417 2.67437 18.0903 3.00172 18.1916 3.38466C18.2928 3.76761 18.2385 4.17505 18.0404 4.51808C17.8424 4.86111 17.5167 5.11188 17.1344 5.21566C16.7521 5.31945 16.3443 5.26782 16 5.07204ZM4 12C4 12.3979 3.84196 12.7794 3.56066 13.0607C3.27936 13.342 2.89782 13.5 2.5 13.5C2.10218 13.5 1.72064 13.342 1.43934 13.0607C1.15804 12.7794 1 12.3979 1 12C1 11.6022 1.15804 11.2207 1.43934 10.9394C1.72064 10.6581 2.10218 10.5 2.5 10.5C2.89782 10.5 3.27936 10.6581 3.56066 10.9394C3.84196 11.2207 4 11.6022 4 12ZM16 18.928C16.1707 18.828 16.3594 18.7627 16.5554 18.7359C16.7514 18.7091 16.9508 18.7213 17.142 18.7719C17.3333 18.8225 17.5126 18.9103 17.6698 19.0305C17.8269 19.1507 17.9587 19.3007 18.0576 19.472C18.1566 19.6434 18.2206 19.8326 18.2461 20.0287C18.2716 20.2249 18.258 20.4242 18.2062 20.6151C18.1544 20.806 18.0653 20.9848 17.9441 21.1411C17.8229 21.2974 17.672 21.4283 17.5 21.526C17.1557 21.7218 16.7479 21.7734 16.3656 21.6697C15.9833 21.5659 15.6576 21.3151 15.4596 20.9721C15.2615 20.6291 15.2072 20.2216 15.3084 19.8387C15.4097 19.4557 15.6583 19.1284 16 18.928Z" fill="currentColor"/>
</g>
</g>
<defs>
<clipPath id="clip0_8_5142">
<rect width="24" height="24" fill="white"/>
</clipPath>
</defs>
</svg>
