<svg width="24" height="24" viewBox="0 0 24 24"  xmlns="http://www.w3.org/2000/svg">
<g id="upload-cloud-fill" clip-path="url(#clip0_8_8219)">
<g id="Group">
<path id="Vector" d="M7.00042 20.981C5.63447 20.8761 4.33658 20.3423 3.29208 19.4559C2.24757 18.5694 1.50986 17.3756 1.18428 16.0449C0.858697 14.7141 0.961891 13.3146 1.47913 12.046C1.99636 10.7774 2.9012 9.7047 4.06442 8.98101C4.31193 7.0511 5.25422 5.27751 6.71494 3.99217C8.17566 2.70682 10.0547 1.9978 12.0004 1.9978C13.9461 1.9978 15.8252 2.70682 17.2859 3.99217C18.7466 5.27751 19.6889 7.0511 19.9364 8.98101C21.0996 9.7047 22.0045 10.7774 22.5217 12.046C23.039 13.3146 23.1421 14.7141 22.8166 16.0449C22.491 17.3756 21.7533 18.5694 20.7088 19.4559C19.6643 20.3423 18.3664 20.8761 17.0004 20.981V21H7.00042V20.981ZM13.0004 13H16.0004L12.0004 8.00001L8.00042 13H11.0004V17H13.0004V13Z" />
</g>
</g>
<defs>
<clipPath id="clip0_8_8219">
<rect width="24" height="24" fill="white"/>
</clipPath>
</defs>
</svg>
