<svg width="24" height="24" viewBox="0 0 24 24" fill="none" xmlns="http://www.w3.org/2000/svg">
<g id="user-heart-fill" clip-path="url(#clip0_8_7902)">
<g id="Group">
<path id="Vector" d="M17.841 15.659L18.017 15.836L18.195 15.659C18.4039 15.4501 18.652 15.2843 18.925 15.1713C19.1979 15.0582 19.4905 15 19.786 15C20.0815 15 20.3741 15.0582 20.647 15.1713C20.92 15.2843 21.1681 15.4501 21.377 15.659C21.5859 15.8679 21.7517 16.116 21.8647 16.389C21.9778 16.6619 22.036 16.9545 22.036 17.25C22.036 17.5455 21.9778 17.8381 21.8647 18.111C21.7517 18.384 21.5859 18.6321 21.377 18.841L18.017 22.2L14.659 18.841C14.237 18.419 14 17.8467 14 17.25C14 16.6533 14.237 16.081 14.659 15.659C15.081 15.237 15.6533 15 16.25 15C16.8467 15 17.419 15.237 17.841 15.659ZM12 14V22H4C4.00002 19.9216 4.80894 17.9247 6.25547 16.4323C7.702 14.9398 9.67259 14.069 11.75 14.004L12 14ZM12 1C15.315 1 18 3.685 18 7C18 10.315 15.315 13 12 13C8.685 13 6 10.315 6 7C6 3.685 8.685 1 12 1Z" fill="currentColor"/>
</g>
</g>
<defs>
<clipPath id="clip0_8_7902">
<rect width="24" height="24" fill="white"/>
</clipPath>
</defs>
</svg>
