<svg width="24" height="24" viewBox="0 0 24 24" fill="none" xmlns="http://www.w3.org/2000/svg">
<g id="user-location-fill" clip-path="url(#clip0_8_7726)">
<g id="Group">
<path id="Vector" d="M12 14V22H4C4 19.8783 4.84285 17.8434 6.34315 16.3431C7.84344 14.8429 9.87827 14 12 14ZM12 13C8.685 13 6 10.315 6 7C6 3.685 8.685 1 12 1C15.315 1 18 3.685 18 7C18 10.315 15.315 13 12 13ZM20.828 20.828L18 23.657L15.172 20.828C14.6125 20.2686 14.2314 19.5559 14.0769 18.78C13.9225 18.004 14.0017 17.1997 14.3044 16.4687C14.6071 15.7377 15.1198 15.1129 15.7776 14.6734C16.4354 14.2338 17.2088 13.9991 18 13.9991C18.7912 13.9991 19.5646 14.2338 20.2224 14.6734C20.8802 15.1129 21.3929 15.7377 21.6956 16.4687C21.9983 17.1997 22.0775 18.004 21.9231 18.78C21.7686 19.5559 21.3875 20.2686 20.828 20.828ZM18 17C17.7348 17 17.4804 17.1054 17.2929 17.2929C17.1054 17.4804 17 17.7348 17 18C17 18.2652 17.1054 18.5196 17.2929 18.7071C17.4804 18.8946 17.7348 19 18 19C18.2652 19 18.5196 18.8946 18.7071 18.7071C18.8946 18.5196 19 18.2652 19 18C19 17.7348 18.8946 17.4804 18.7071 17.2929C18.5196 17.1054 18.2652 17 18 17Z" fill="#121212"/>
</g>
</g>
<defs>
<clipPath id="clip0_8_7726">
<rect width="24" height="24" fill="white"/>
</clipPath>
</defs>
</svg>
