<svg width="24" height="24" viewBox="0 0 24 24" fill="none" xmlns="http://www.w3.org/2000/svg">
<g id="user-5-line" clip-path="url(#clip0_8_7910)">
<g id="Group">
<path id="Vector" d="M7.39048 16.5391C6.00194 15.5599 4.96122 14.164 4.41911 12.5537C3.877 10.9435 3.86164 9.2024 4.37527 7.58282C4.88891 5.96324 5.90484 4.54925 7.27589 3.54571C8.64695 2.54218 10.3019 2.00122 12.001 2.00122C13.7001 2.00122 15.355 2.54218 16.7261 3.54571C18.0971 4.54925 19.113 5.96324 19.6267 7.58282C20.1403 9.2024 20.125 10.9435 19.5828 12.5537C19.0407 14.164 18 15.5599 16.6115 16.5391L18.6945 21.2991C18.7279 21.3752 18.7418 21.4586 18.7349 21.5415C18.728 21.6244 18.7005 21.7043 18.655 21.774C18.6094 21.8436 18.5471 21.9007 18.4739 21.9402C18.4006 21.9797 18.3187 22.0003 18.2355 22.0001H5.76548C5.68239 22.0002 5.60059 21.9796 5.52745 21.9402C5.45432 21.9007 5.39217 21.8437 5.34661 21.7742C5.30105 21.7047 5.27352 21.625 5.26652 21.5422C5.25951 21.4594 5.27324 21.3762 5.30648 21.3001L7.38948 16.5391H7.39048ZM14.1255 15.8461L15.4575 14.9051C16.4992 14.1709 17.2801 13.124 17.687 11.9163C18.0939 10.7085 18.1056 9.40259 17.7205 8.18771C17.3354 6.97283 16.5735 5.91214 15.5451 5.15933C14.5168 4.40652 13.2754 4.00071 12.001 4.00071C10.7265 4.00071 9.48518 4.40652 8.45683 5.15933C7.42847 5.91214 6.66654 6.97283 6.28145 8.18771C5.89635 9.40259 5.90809 10.7085 6.31498 11.9163C6.72186 13.124 7.50275 14.1709 8.54448 14.9051L9.87548 15.8461L8.05848 20.0001H15.9425L14.1255 15.8461ZM8.11948 10.9701L10.0595 10.4851C10.1671 10.9184 10.4167 11.3033 10.7685 11.5784C11.1202 11.8534 11.5539 12.0029 12.0005 12.0029C12.447 12.0029 12.8807 11.8534 13.2325 11.5784C13.5842 11.3033 13.8338 10.9184 13.9415 10.4851L15.8815 10.9701C15.6639 11.8345 15.164 12.6017 14.4609 13.1497C13.7578 13.6978 12.8919 13.9954 12.0005 13.9954C11.109 13.9954 10.2431 13.6978 9.54004 13.1497C8.83698 12.6017 8.33702 11.8345 8.11948 10.9701Z" fill="#121212"/>
</g>
</g>
<defs>
<clipPath id="clip0_8_7910">
<rect width="24" height="24" fill="white"/>
</clipPath>
</defs>
</svg>
