<svg width="24" height="24" viewBox="0 0 24 24"  xmlns="http://www.w3.org/2000/svg">
<g id="virus-line" clip-path="url(#clip0_8_5049)">
<g id="Group">
<path id="Vector" d="M13.7173 1.94702L17.4513 3.38102L16.7343 5.24802L15.8003 4.88902L15.0543 6.83402C15.8333 7.29602 16.4983 7.92802 16.9993 8.68002L18.9023 7.83302L18.4953 6.91902L20.3223 6.10602L21.9493 9.76002L20.1223 10.573L19.7153 9.66002L17.8133 10.507C17.9353 10.984 18.0003 11.485 18.0003 12C18.0003 12.406 17.9603 12.803 17.8833 13.187L19.8273 13.933L20.1853 13L22.0533 13.717L20.6193 17.451L18.7523 16.734L19.1103 15.801L17.1663 15.054C16.7043 15.833 16.0723 16.498 15.3203 16.999L16.1673 18.902L17.0813 18.495L17.8943 20.322L14.2403 21.949L13.4273 20.122L14.3403 19.715L13.4933 17.813C13.0163 17.935 12.5153 18 12.0003 18C11.5933 18 11.1963 17.96 10.8123 17.882L10.0663 19.827L11.0003 20.185L10.2833 22.053L6.54927 20.619L7.26627 18.752L8.19827 19.11L8.94627 17.166C8.16727 16.704 7.50227 16.072 7.00027 15.32L5.09727 16.167L5.50427 17.081L3.67727 17.894L2.05027 14.24L3.87727 13.427L4.28327 14.341L6.18627 13.493C6.06527 13.016 6.00027 12.515 6.00027 12C6.00027 11.594 6.04027 11.197 6.11727 10.813L4.17227 10.067L3.81527 11L1.94727 10.283L3.38127 6.55002L5.24827 7.26702L4.88927 8.20002L6.83427 8.94702C7.29627 8.16702 7.92827 7.50202 8.68027 7.00002L7.83327 5.09702L6.91927 5.50402L6.10627 3.67702L9.76027 2.05102L10.5733 3.87802L9.66027 4.28502L10.5073 6.18702C10.9843 6.06502 11.4853 6.00002 12.0003 6.00002C12.4063 6.00002 12.8033 6.04002 13.1873 6.11702L13.9323 4.17202L13.0003 3.81502L13.7173 1.94702ZM12.0003 8.00002C9.79027 8.00002 8.00027 9.79002 8.00027 12C8.00027 14.21 9.79027 16 12.0003 16C14.2103 16 16.0003 14.21 16.0003 12C16.0003 9.79002 14.2103 8.00002 12.0003 8.00002ZM11.5003 12.866C11.9783 13.142 12.1423 13.754 11.8663 14.232C11.5903 14.71 10.9783 14.874 10.5003 14.598C10.0223 14.322 9.85827 13.71 10.1343 13.232C10.4103 12.754 11.0223 12.59 11.5003 12.866ZM14.0003 11C14.5523 11 15.0003 11.448 15.0003 12C15.0003 12.552 14.5523 13 14.0003 13C13.4483 13 13.0003 12.552 13.0003 12C13.0003 11.448 13.4483 11 14.0003 11ZM11.8663 9.76802C12.1423 10.246 11.9783 10.858 11.5003 11.134C11.0223 11.41 10.4103 11.246 10.1343 10.768C9.85827 10.29 10.0223 9.67802 10.5003 9.40202C10.9783 9.12602 11.5903 9.29002 11.8663 9.76802Z" />
</g>
</g>
<defs>
<clipPath id="clip0_8_5049">
<rect width="24" height="24" fill="white"/>
</clipPath>
</defs>
</svg>
