<svg width="24" height="24" viewBox="0 0 24 24" fill="none" xmlns="http://www.w3.org/2000/svg">
<g id="water-flash-line" clip-path="url(#clip0_8_3270)">
<g id="Group">
<path id="Vector" d="M12 3.1L7.05 8.05C6.0711 9.029 5.40449 10.2763 5.13445 11.6341C4.86441 12.992 5.00307 14.3994 5.53291 15.6784C6.06274 16.9575 6.95995 18.0507 8.11108 18.8198C9.26221 19.589 10.6156 19.9995 12 19.9995C13.3844 19.9995 14.7378 19.589 15.8889 18.8198C17.04 18.0507 17.9373 16.9575 18.4671 15.6784C18.9969 14.3994 19.1356 12.992 18.8655 11.6341C18.5955 10.2763 17.9289 9.029 16.95 8.05L12 3.1ZM12 0.272003L18.364 6.636C19.6227 7.89468 20.4798 9.49833 20.8271 11.2442C21.1743 12.99 20.9961 14.7996 20.3149 16.4441C19.6337 18.0886 18.4802 19.4942 17.0001 20.4832C15.5201 21.4721 13.78 21.9999 12 21.9999C10.22 21.9999 8.47992 21.4721 6.99988 20.4832C5.51984 19.4942 4.36628 18.0886 3.68509 16.4441C3.0039 14.7996 2.82566 12.99 3.17292 11.2442C3.52018 9.49833 4.37734 7.89468 5.636 6.636L12 0.272003ZM13 11H15.5L11 17.5V13H8.5L13 6.5V11Z" />
</g>
</g>
<defs>
<clipPath id="clip0_8_3270">
<rect width="24" height="24" fill="white"/>
</clipPath>
</defs>
</svg>
