<svg width="24" height="24" viewBox="0 0 24 24" fill="none" xmlns="http://www.w3.org/2000/svg">
<g id="weibo-fill" clip-path="url(#clip0_8_5662)">
<g id="Group">
<path id="Vector" d="M17.525 11.3781C18.788 11.7701 20.194 12.7141 20.194 14.3821C20.194 17.1451 16.214 20.6211 10.23 20.6211C5.665 20.6211 1 18.4081 1 14.7691C1 12.8671 2.204 10.6671 4.277 8.59206C7.05 5.82206 10.281 4.55906 11.496 5.77606C12.033 6.31306 12.084 7.24006 11.74 8.34806C11.562 8.90506 12.265 8.59806 12.265 8.59806C14.505 7.66006 16.461 7.60406 17.174 8.62506C17.554 9.16806 17.517 9.93106 17.166 10.8151C17.003 11.2221 17.214 11.2861 17.526 11.3781H17.525ZM10.243 19.3171C13.884 18.9551 16.644 16.7251 16.41 14.3341C16.173 11.9431 13.028 10.2961 9.387 10.6571C5.747 11.0171 2.984 13.2471 3.22 15.6371C3.457 18.0311 6.602 19.6761 10.243 19.3171ZM6.16 14.4381C6.914 12.9111 8.872 12.0481 10.606 12.4981C12.399 12.9611 13.313 14.6521 12.582 16.2981C11.838 17.9801 9.7 18.8761 7.887 18.2911C6.135 17.7251 5.394 15.9971 6.16 14.4381ZM7.606 17.0251C8.174 17.2821 8.931 17.0381 9.282 16.4751C9.628 15.9071 9.445 15.2581 8.875 15.0161C8.312 14.7791 7.584 15.0241 7.235 15.5691C6.881 16.1161 7.046 16.7711 7.606 17.0251ZM9.812 15.2171C10.031 15.3091 10.313 15.2051 10.44 14.9861C10.563 14.7661 10.484 14.5201 10.262 14.4381C10.046 14.3541 9.776 14.4561 9.649 14.6701C9.526 14.8841 9.595 15.1281 9.812 15.2171ZM19.873 9.50006C19.8441 9.59143 19.7974 9.67616 19.7356 9.74937C19.6737 9.82257 19.598 9.88279 19.5127 9.92654C19.4275 9.9703 19.3344 9.99672 19.2389 10.0043C19.1434 10.0118 19.0473 10.0004 18.9562 9.97056C18.8651 9.94076 18.7809 9.89319 18.7083 9.83062C18.6357 9.76805 18.5763 9.69171 18.5334 9.60601C18.4905 9.52032 18.465 9.42698 18.4584 9.33138C18.4518 9.23578 18.4643 9.13983 18.495 9.04906C18.5711 8.81758 18.5845 8.57009 18.5339 8.33174C18.4833 8.09339 18.3705 7.87269 18.207 7.69206C18.043 7.51211 17.8348 7.37821 17.6031 7.30365C17.3713 7.22909 17.1241 7.21648 16.886 7.26706C16.793 7.28696 16.697 7.28834 16.6035 7.27114C16.51 7.25394 16.4208 7.21849 16.341 7.16682C16.1798 7.06245 16.0667 6.89833 16.0265 6.71056C15.9863 6.52279 16.0224 6.32674 16.1267 6.16556C16.2311 6.00437 16.3952 5.89124 16.583 5.85106C17.07 5.74701 17.5758 5.77303 18.0496 5.92652C18.5234 6.08 18.9484 6.35553 19.2818 6.7254C19.6153 7.09527 19.8455 7.54643 19.9493 8.0335C20.0531 8.52057 20.0268 9.02638 19.873 9.50006ZM15.957 2.92506C16.9572 2.71191 17.9959 2.76556 18.9688 3.08062C19.9417 3.39568 20.8146 3.96107 21.5 4.72006C22.1858 5.48026 22.6596 6.40751 22.8737 7.40871C23.0879 8.40991 23.0349 9.44983 22.72 10.4241C22.6862 10.5294 22.6319 10.6269 22.5603 10.7112C22.4886 10.7954 22.401 10.8646 22.3024 10.9148C22.2039 10.965 22.0964 10.9952 21.9861 11.0036C21.8759 11.0121 21.765 10.9986 21.66 10.9641C21.4474 10.8949 21.271 10.7442 21.1694 10.5451C21.0678 10.346 21.0493 10.1148 21.118 9.90206C21.3418 9.21023 21.3796 8.47167 21.2276 7.7606C21.0756 7.04953 20.7391 6.39098 20.252 5.85115C19.7649 5.31131 19.1442 4.90919 18.4524 4.68519C17.7607 4.46119 17.0221 4.42321 16.311 4.57506C16.0974 4.60897 15.879 4.55972 15.7007 4.43745C15.5223 4.31518 15.3977 4.12919 15.3523 3.91777C15.3069 3.70635 15.3444 3.48559 15.4568 3.30092C15.5693 3.11626 15.7483 2.98174 15.957 2.92506Z" />
</g>
</g>
<defs>
<clipPath id="clip0_8_5662">
<rect width="24" height="24" fill="white"/>
</clipPath>
</defs>
</svg>
