<svg width="24" height="24" viewBox="0 0 24 24" fill="none" xmlns="http://www.w3.org/2000/svg">
<g id="wheelchair-fill" clip-path="url(#clip0_8_7477)">
<g id="Group">
<path id="Vector" d="M8 10.341V12.535C6.804 13.227 6 14.52 6 16C6 18.21 7.79 20 10 20C11.48 20 12.773 19.196 13.465 18H15.658C14.835 20.33 12.612 22 10 22C6.686 22 4 19.314 4 16C4 13.387 5.67 11.165 8 10.341ZM12 17C10.343 17 9 15.657 9 14V10C9 8.343 10.343 7 12 7C13.657 7 15 8.343 15 10V15H16.434C17.082 15 17.687 15.314 18.06 15.836L18.149 15.971L20.857 20.486L19.143 21.514L16.433 17H12ZM12 2C13.38 2 14.5 3.12 14.5 4.5C14.5 5.88 13.38 7 12 7C10.62 7 9.5 5.88 9.5 4.5C9.5 3.12 10.62 2 12 2Z" />
</g>
</g>
<defs>
<clipPath id="clip0_8_7477">
<rect width="24" height="24" fill="white"/>
</clipPath>
</defs>
</svg>
