<svg width="24" height="24" viewBox="0 0 24 24" fill="none" xmlns="http://www.w3.org/2000/svg">
<g id="wheelchair-line" clip-path="url(#clip0_8_7361)">
<g id="Group">
<path id="Vector" d="M8 10.341V12.535C6.804 13.227 6 14.52 6 16C6 18.21 7.79 20 10 20C11.48 20 12.773 19.196 13.465 18H15.658C14.835 20.33 12.612 22 10 22C6.686 22 4 19.314 4 16C4 13.387 5.67 11.165 8 10.341ZM12 17C10.343 17 9 15.657 9 14V10C9 8.956 9.534 8.036 10.343 7.499C9.533 6.964 9 6.044 9 5C9 3.343 10.343 2 12 2C13.657 2 15 3.343 15 5C15 6.044 14.466 6.964 13.657 7.501C14.467 8.036 15 8.956 15 10V14.999L16.434 15C17.082 15 17.687 15.314 18.06 15.836L18.149 15.971L20.857 20.486L19.143 21.514L16.433 17L15 16.999L12 17ZM12 9C11.448 9 11 9.448 11 10V14C11 14.552 11.448 15 12 15H12.999L13 10C13 9.448 12.552 9 12 9ZM12 4C11.448 4 11 4.448 11 5C11 5.552 11.448 6 12 6C12.552 6 13 5.552 13 5C13 4.448 12.552 4 12 4Z" fill="currentColor"/>
</g>
</g>
<defs>
<clipPath id="clip0_8_7361">
<rect width="24" height="24" fill="white"/>
</clipPath>
</defs>
</svg>
