<svg width="24" height="24" viewBox="0 0 24 24"  xmlns="http://www.w3.org/2000/svg">
<g id="wifi-off-line" clip-path="url(#clip0_8_2164)">
<g id="Group">
<path id="Vector" d="M12 18C12.714 18 13.37 18.25 13.886 18.666L12 21L10.114 18.666C10.6474 18.2339 11.3135 17.9987 12 18ZM2.808 1.39301L20.485 19.071L19.071 20.485L13.891 15.305C13.2811 15.1026 12.6426 14.9996 12 15C10.572 15 9.25999 15.499 8.22999 16.332L6.974 14.776C8.28805 13.7115 9.90689 13.0929 11.596 13.01L9 10.414C7.57216 10.8187 6.24131 11.509 5.088 12.443L3.83 10.887C4.9078 10.0142 6.11847 9.31975 7.416 8.83001L5.132 6.54501C3.99509 7.08641 2.92603 7.76007 1.947 8.55201L0.688995 6.99701C1.604 6.25701 2.592 5.60601 3.641 5.05501L1.393 2.80801L2.808 1.39301ZM14.5 10.285L12.216 8.00201L12 8.00001C15.095 8.00001 17.937 9.08101 20.17 10.887L18.912 12.443C17.6235 11.3992 16.115 10.6613 14.5 10.285ZM12 3.00001C16.285 3.00001 20.22 4.49701 23.31 6.99701L22.053 8.55201C19.2093 6.24866 15.6595 4.99439 12 5.00001C11.122 5.00001 10.26 5.07 9.42 5.20701L7.725 3.51001C9.094 3.17701 10.527 3.00001 12 3.00001Z" />
</g>
</g>
<defs>
<clipPath id="clip0_8_2164">
<rect width="24" height="24" fill="white"/>
</clipPath>
</defs>
</svg>
