<svg width="24" height="24" viewBox="0 0 24 24"  xmlns="http://www.w3.org/2000/svg">
<g id="zhihu-line" clip-path="url(#clip0_8_5562)">
<g id="Group">
<path id="Vector" d="M12.3443 17.963L10.6563 19.037L8.52533 15.687C8.08533 17.089 7.35333 18.352 6.38633 19.512C5.98433 19.995 5.56633 20.43 5.08533 20.887C4.93033 21.034 4.31033 21.604 4.20733 21.707L2.79333 20.293C2.93233 20.154 3.58033 19.558 3.70833 19.437C4.13833 19.029 4.50333 18.647 4.85033 18.231C6.11633 16.713 6.88033 15.021 6.98733 13H3.00033V11H7.00033V6.99996H6.13233C5.44333 8.26596 4.57433 9.22196 3.51433 9.85696L2.48633 8.14296C3.88133 7.30496 4.91133 5.53896 5.52433 2.78296L7.47633 3.21696C7.33633 3.84996 7.17333 4.44396 6.98733 4.99996H11.5003V6.99996H9.00033V11H11.5003V13H9.18533L12.3443 17.963ZM16.1823 17.893L17.2983 17H19.0003V6.99996H15.0003V17H15.7363L16.1823 17.893ZM13.0003 4.99996H21.0003V19H18.0003L15.5003 21L14.5003 19H13.0003V4.99996Z" />
</g>
</g>
<defs>
<clipPath id="clip0_8_5562">
<rect width="24" height="24" fill="white"/>
</clipPath>
</defs>
</svg>
